<svg id="f6c70e36-fd2a-424c-bbdd-68c936768f18" data-name="Layer 1" xmlns="http://www.w3.org/2000/svg" viewBox="0 0 93.83 70"><title>ff05-scifi</title><rect x="12.2" y="15.67" width="17.19" height="17.19" transform="translate(41.58 48.52) rotate(-180)" style="fill:#51ae75;stroke:#231f20;stroke-miterlimit:10;stroke-width:2px"/><circle cx="25.43" cy="29.19" r="1.77" style="fill:#231f20"/><circle cx="16.15" cy="29.19" r="1.77" style="fill:#231f20"/><circle cx="25.43" cy="19.22" r="1.77" style="fill:#231f20"/><circle cx="20.79" cy="21.74" r="1.77" style="fill:#231f20"/><circle cx="16.15" cy="19.22" r="1.77" style="fill:#231f20"/><circle cx="16.15" cy="24.26" r="1.77" style="fill:#231f20"/><circle cx="25.43" cy="24.26" r="1.77" style="fill:#231f20"/><rect x="12.2" y="37.15" width="17.19" height="17.19" transform="translate(-24.95 66.53) rotate(-90)" style="fill:#51ae75;stroke:#231f20;stroke-miterlimit:10;stroke-width:2px"/><circle cx="15.86" cy="50.38" r="1.77" style="fill:#231f20"/><circle cx="15.86" cy="41.1" r="1.77" style="fill:#231f20"/><circle cx="25.82" cy="50.38" r="1.77" style="fill:#231f20"/><circle cx="25.82" cy="41.1" r="1.77" style="fill:#231f20"/><circle cx="15.86" cy="45.74" r="1.77" style="fill:#231f20"/><circle cx="20.79" cy="41.1" r="1.77" style="fill:#231f20"/><circle cx="20.79" cy="50.38" r="1.77" style="fill:#231f20"/><path d="M48.77,28a.15.15,0,0,1-.17.16H46.52c-.09,0-.16-.05-.17-.18l-.93-9.57a18.26,18.26,0,0,1-.61,3.13L44,24.3c0,.09-.08.17-.17.17H41c-.1,0-.14-.08-.17-.17l-.86-2.79a18.25,18.25,0,0,1-.6-3.13L38.41,28c0,.11-.08.18-.18.18H36.16A.18.18,0,0,1,36,28l1.25-10.47a.21.21,0,0,1,.2-.19H40.8c.09,0,.14.09.17.19l1.41,5.43,1.41-5.43c0-.1.07-.19.17-.19h3.37a.2.2,0,0,1,.19.19C48.77,28,48.77,28,48.77,28Z"/><path d="M57.76,25.17a3,3,0,0,1-3.34,3.2h-.87a3,3,0,0,1-3.34-3.2V23.43a3,3,0,0,1,3.34-3.2h.87a3,3,0,0,1,3.34,3.2Zm-2.19-1.76a1.25,1.25,0,0,0-1.32-1.31h-.53a1.25,1.25,0,0,0-1.33,1.31v1.76a1.26,1.26,0,0,0,1.33,1.33h.53a1.25,1.25,0,0,0,1.32-1.33Z"/><path d="M67.11,28a.19.19,0,0,1-.19.18h-1.8a.19.19,0,0,1-.19-.18V22.68a.54.54,0,0,0-.54-.58h-.11c-.33,0-.64.32-1.06.79l-1.38,1.52V28a.18.18,0,0,1-.17.18H59.83a.18.18,0,0,1-.17-.18V20.64a.18.18,0,0,1,.17-.17h1.84a.18.18,0,0,1,.17.17v1.49l.44-.6a2.6,2.6,0,0,1,2.36-1.3h.22c1.36,0,2.25.79,2.25,2.45Z"/><path d="M74.12,28a.18.18,0,0,1-.17.18H72.38A2.18,2.18,0,0,1,70,25.74V22.42l-1.66-.37a.21.21,0,0,1-.17-.19V20.64a.18.18,0,0,1,.17-.17H70v-.78a.34.34,0,0,1,.19-.34l1.57-.81a.41.41,0,0,1,.19-.05c.13,0,.24.06.24.21v1.77H74a.19.19,0,0,1,.19.17v1.6a.19.19,0,0,1-.19.18H72.16v3.13a.63.63,0,0,0,.69.71H74a.18.18,0,0,1,.17.17Z"/><path d="M77.57,25.12a1.18,1.18,0,0,0,1.27,1.14h3.49a.19.19,0,0,1,.18.19V28a.18.18,0,0,1-.18.18H78.77a3,3,0,0,1-3.34-3.2v-1.5a3,3,0,0,1,3.34-3.2h.87c1.87,0,3.31,1.06,3.31,2.93v.21a.43.43,0,0,1-.17.37L81.4,24.9a.77.77,0,0,1-.47.22Zm1.3-3a1.18,1.18,0,0,0-1.3,1.23h3.26A1.13,1.13,0,0,0,79.6,22.1Z"/><path d="M46.28,44.62a.21.21,0,0,1-.21.2h-5a4.2,4.2,0,0,1-4.49-4.51V36.66a4.19,4.19,0,0,1,4.49-4.49h5a.24.24,0,0,1,.22.22v4.06a.21.21,0,0,1-.21.21H43.8a.2.2,0,0,1-.2-.21v-2H41.44a2,2,0,0,0-2.2,2.2v3.63a2,2,0,0,0,2.2,2.2h4.63a.21.21,0,0,1,.21.2Z"/><path d="M47.57,38.84c0-2.13,1.49-3.23,3.52-3.23h.15a5.77,5.77,0,0,1,3,.92l.28-.46a.32.32,0,0,1,.31-.19h1.24a.2.2,0,0,1,.2.2v8.54a.2.2,0,0,1-.2.2H53.94a.21.21,0,0,1-.21-.2V42.88l-.51.7a3,3,0,0,1-2.75,1.51h-.26c-1.59,0-2.64-.92-2.64-2.86Zm6.16,1.38V38.28a4.31,4.31,0,0,0-2-.5h-.28a1.35,1.35,0,0,0-1.36,1.48v3a.64.64,0,0,0,.64.69h.13c.39,0,.74-.37,1.24-.93Z"/><path d="M64.31,35.61a2.89,2.89,0,0,1,2.29,1.16.18.18,0,0,1,0,.13.22.22,0,0,1-.09.16L64.87,38.5c-.1.08-.13.1-.19.1s-.14-.06-.22-.13c-.29-.3-.5-.5-.79-.5h-.13c-.37,0-.69.39-1,.81l-1.12,1.51v4.33a.21.21,0,0,1-.21.2H59.07a.2.2,0,0,1-.2-.2V36.08a.2.2,0,0,1,.2-.2h1.24c.14,0,.29.08.31.19l.57,1.68.61-.87a2.63,2.63,0,0,1,2.33-1.27Z"/><path d="M72.58,44.62a.2.2,0,0,1-.2.2H70.55A2.54,2.54,0,0,1,67.75,42V32a.22.22,0,0,1,.2-.22h2.14a.22.22,0,0,1,.2.22v9.79a.75.75,0,0,0,.82.83h1.27a.2.2,0,0,1,.2.2Z"/><path d="M82.65,41.37c0,2.45-1.63,3.72-3.9,3.72h-1c-2.27,0-3.89-1.27-3.89-3.72v-2c0-2.45,1.62-3.72,3.89-3.72h1c2.27,0,3.9,1.27,3.9,3.72Zm-2.55-2a1.46,1.46,0,0,0-1.55-1.54h-.61a1.46,1.46,0,0,0-1.55,1.54v2a1.46,1.46,0,0,0,1.55,1.55h.61a1.46,1.46,0,0,0,1.55-1.55Z"/><path d="M73.85,53.33a.06.06,0,0,1-.06.05h-.65a.06.06,0,0,1-.06-.05V49.84a.06.06,0,0,1,.06-.06h.64a.07.07,0,0,1,.07.06Z"/><path d="M77.72,53.33s0,.05-.07.05h-1a.09.09,0,0,1-.09-.05l-.74-1.62a13.47,13.47,0,0,1-.53-1.32A14.41,14.41,0,0,1,75.45,52v1.36s0,.05-.06.05h-.64a.06.06,0,0,1-.06-.05V49.84a.06.06,0,0,1,.06-.06h1s0,0,.07.07l.8,1.77a12.57,12.57,0,0,1,.49,1.24A12.4,12.4,0,0,1,77,51.41V49.84a.07.07,0,0,1,.07-.06h.63s.07,0,.07.06Z"/><path d="M81.25,53.33a.06.06,0,0,1-.06.05H79.76a1.19,1.19,0,0,1-1.28-1.28v-1a1.19,1.19,0,0,1,1.28-1.28h1.42a.07.07,0,0,1,.07.06V51a.06.06,0,0,1-.06.06h-.65a.06.06,0,0,1-.06-.06v-.56h-.61a.56.56,0,0,0-.63.62v1a.57.57,0,0,0,.63.63h1.32a.06.06,0,0,1,.06.05Z"/><path d="M83.33,53.3a.09.09,0,0,1-.1.08H82.17a.08.08,0,0,1-.08-.08v-.81a.08.08,0,0,1,.08-.08h1.06a.09.09,0,0,1,.1.08Z"/><rect x="36.59" y="49.8" width="32.94" height="4.08" style="fill:#51ae75"/></svg>