<svg width="270" height="167" viewBox="0 0 270 167" fill="none" xmlns="http://www.w3.org/2000/svg">
<g clip-path="url(#clip0)">
<rect width="270" height="167" fill="white"/>
<rect width="66.5" height="24.7032" transform="translate(20 66.1465)" fill="#6AC7FF" stroke="black"/>
<rect width="66.5" height="17.4981" transform="translate(20 61)" fill="white" stroke="black"/>
<rect width="9.5" height="4.07455" transform="translate(20 86.9254)" stroke="black"/>
<rect width="9.5" height="4.07455" transform="translate(29.5 86.9254)" stroke="black"/>
<rect width="9.5" height="4.07455" transform="translate(39 86.9254)" stroke="black"/>
<rect width="9.5" height="4.07455" transform="translate(48.5 86.9254)" stroke="black"/>
<rect width="9.5" height="4.07455" transform="translate(20 78.6911)" stroke="black"/>
<rect width="9.5" height="4.07455" transform="translate(29.5 78.6911)" stroke="black"/>
<rect width="9.5" height="4.07455" transform="translate(39 78.6911)" stroke="black"/>
<rect width="9.5" height="4.07455" transform="translate(48.5 78.6911)" stroke="black"/>
<rect width="4.5" height="4.07455" transform="translate(20 82.8083)" stroke="black"/>
<rect width="9.5" height="4.07455" transform="translate(24.5 82.8083)" stroke="black"/>
<rect width="9.5" height="4.07455" transform="translate(34 82.8083)" stroke="black"/>
<rect width="9.5" height="4.07455" transform="translate(43.5 82.8083)" stroke="black"/>
<rect width="9.5" height="8.04139" transform="translate(24.5 82.8083)" fill="white" stroke="black"/>
<rect width="9.5" height="8.03778" transform="translate(39 78.845)" fill="white" stroke="black"/>
<line y1="-0.5" x2="8.42738" y2="-0.5" transform="translate(43.25 78.4981) rotate(90)" stroke="black"/>
<rect width="9.5" height="4.07455" transform="translate(48.5 86.9254)" stroke="black"/>
<rect width="9.5" height="4.07455" transform="translate(58 86.9254)" stroke="black"/>
<rect width="9.5" height="4.07455" transform="translate(67.5 86.9254)" stroke="black"/>
<rect width="9.5" height="4.07455" transform="translate(77 86.9254)" stroke="black"/>
<rect width="9.5" height="4.07455" transform="translate(48.5 78.6911)" stroke="black"/>
<rect width="9.5" height="4.07455" transform="translate(58 78.6911)" stroke="black"/>
<rect width="9.5" height="4.07455" transform="translate(67.5 78.6911)" stroke="black"/>
<rect width="9.5" height="4.07455" transform="translate(77 78.6911)" stroke="black"/>
<rect width="9.5" height="4.07455" transform="translate(53 82.8083)" stroke="black"/>
<rect width="9.5" height="4.07455" transform="translate(62.5 82.8083)" stroke="black"/>
<rect width="9.5" height="4.07455" transform="translate(72 82.8083)" stroke="black"/>
<rect width="5" height="4.07455" transform="translate(81.5 82.8083)" stroke="black"/>
<rect width="9.5" height="8.03778" transform="translate(67.5 78.845)" fill="white" stroke="black"/>
<line y1="-0.5" x2="8.42738" y2="-0.5" transform="translate(71.75 78.4981) rotate(90)" stroke="black"/>
<rect width="66.5" height="24.7032" transform="translate(20 13.1465)" fill="#6AC7FF" stroke="black"/>
<rect width="66.5" height="17.4981" transform="translate(20 8)" fill="white" stroke="black"/>
<rect width="9.5" height="4.07455" transform="translate(20 33.9254)" stroke="black"/>
<rect width="9.5" height="4.07455" transform="translate(29.5 33.9254)" stroke="black"/>
<rect width="9.5" height="4.07455" transform="translate(39 33.9254)" stroke="black"/>
<rect width="9.5" height="4.07455" transform="translate(48.5 33.9254)" stroke="black"/>
<rect width="9.5" height="4.07455" transform="translate(20 25.6911)" stroke="black"/>
<rect width="9.5" height="4.07455" transform="translate(29.5 25.6911)" stroke="black"/>
<rect width="9.5" height="4.07455" transform="translate(39 25.6911)" stroke="black"/>
<rect width="9.5" height="4.07455" transform="translate(48.5 25.6911)" stroke="black"/>
<rect width="4.5" height="4.07455" transform="translate(20 29.8083)" stroke="black"/>
<rect width="9.5" height="4.07455" transform="translate(24.5 29.8083)" stroke="black"/>
<rect width="9.5" height="4.07455" transform="translate(34 29.8083)" stroke="black"/>
<rect width="9.5" height="4.07455" transform="translate(43.5 29.8083)" stroke="black"/>
<rect width="9.5" height="8.04139" transform="translate(24.5 29.8083)" fill="white" stroke="black"/>
<rect width="9.5" height="8.03778" transform="translate(39 25.845)" fill="white" stroke="black"/>
<line y1="-0.5" x2="8.42738" y2="-0.5" transform="translate(43.25 25.4981) rotate(90)" stroke="black"/>
<rect width="9.5" height="4.07455" transform="translate(48.5 33.9254)" stroke="black"/>
<rect width="9.5" height="4.07455" transform="translate(58 33.9254)" stroke="black"/>
<rect width="9.5" height="4.07455" transform="translate(67.5 33.9254)" stroke="black"/>
<rect width="9.5" height="4.07455" transform="translate(77 33.9254)" stroke="black"/>
<rect width="9.5" height="4.07455" transform="translate(48.5 25.6911)" stroke="black"/>
<rect width="9.5" height="4.07455" transform="translate(58 25.6911)" stroke="black"/>
<rect width="9.5" height="4.07455" transform="translate(67.5 25.6911)" stroke="black"/>
<rect width="9.5" height="4.07455" transform="translate(77 25.6911)" stroke="black"/>
<rect width="9.5" height="4.07455" transform="translate(53 29.8083)" stroke="black"/>
<rect width="9.5" height="4.07455" transform="translate(62.5 29.8083)" stroke="black"/>
<rect width="9.5" height="4.07455" transform="translate(72 29.8083)" stroke="black"/>
<rect width="5" height="4.07455" transform="translate(81.5 29.8083)" stroke="black"/>
<rect width="9.5" height="8.03778" transform="translate(67.5 25.845)" fill="white" stroke="black"/>
<line y1="-0.5" x2="8.42738" y2="-0.5" transform="translate(71.75 25.4981) rotate(90)" stroke="black"/>
<rect width="66.5" height="24.7032" transform="translate(183 13.1465)" fill="#6AC7FF" stroke="black"/>
<rect width="66.5" height="17.4981" transform="translate(183 8)" fill="white" stroke="black"/>
<rect width="9.5" height="4.07455" transform="translate(183 33.9254)" stroke="black"/>
<rect width="9.5" height="4.07455" transform="translate(192.5 33.9254)" stroke="black"/>
<rect width="9.5" height="4.07455" transform="translate(202 33.9254)" stroke="black"/>
<rect width="9.5" height="4.07455" transform="translate(211.5 33.9254)" stroke="black"/>
<rect width="9.5" height="4.07455" transform="translate(183 25.6911)" stroke="black"/>
<rect width="9.5" height="4.07455" transform="translate(192.5 25.6911)" stroke="black"/>
<rect width="9.5" height="4.07455" transform="translate(202 25.6911)" stroke="black"/>
<rect width="9.5" height="4.07455" transform="translate(211.5 25.6911)" stroke="black"/>
<rect width="4.5" height="4.07455" transform="translate(183 29.8083)" stroke="black"/>
<rect width="9.5" height="4.07455" transform="translate(187.5 29.8083)" stroke="black"/>
<rect width="9.5" height="4.07455" transform="translate(197 29.8083)" stroke="black"/>
<rect width="9.5" height="4.07455" transform="translate(206.5 29.8083)" stroke="black"/>
<rect width="9.5" height="8.04139" transform="translate(187.5 29.8083)" fill="white" stroke="black"/>
<rect width="9.5" height="8.03778" transform="translate(202 25.845)" fill="white" stroke="black"/>
<line y1="-0.5" x2="8.42738" y2="-0.5" transform="translate(206.25 25.4981) rotate(90)" stroke="black"/>
<rect width="9.5" height="4.07455" transform="translate(211.5 33.9254)" stroke="black"/>
<rect width="9.5" height="4.07455" transform="translate(221 33.9254)" stroke="black"/>
<rect width="9.5" height="4.07455" transform="translate(230.5 33.9254)" stroke="black"/>
<rect width="9.5" height="4.07455" transform="translate(240 33.9254)" stroke="black"/>
<rect width="9.5" height="4.07455" transform="translate(211.5 25.6911)" stroke="black"/>
<rect width="9.5" height="4.07455" transform="translate(221 25.6911)" stroke="black"/>
<rect width="9.5" height="4.07455" transform="translate(230.5 25.6911)" stroke="black"/>
<rect width="9.5" height="4.07455" transform="translate(240 25.6911)" stroke="black"/>
<rect width="9.5" height="4.07455" transform="translate(216 29.8083)" stroke="black"/>
<rect width="9.5" height="4.07455" transform="translate(225.5 29.8083)" stroke="black"/>
<rect width="9.5" height="4.07455" transform="translate(235 29.8083)" stroke="black"/>
<rect width="5" height="4.07455" transform="translate(244.5 29.8083)" stroke="black"/>
<rect width="9.5" height="8.03778" transform="translate(230.5 25.845)" fill="white" stroke="black"/>
<line y1="-0.5" x2="8.42738" y2="-0.5" transform="translate(234.75 25.4981) rotate(90)" stroke="black"/>
<rect width="66.5" height="24.7032" transform="translate(183 66.1465)" fill="#6AC7FF" stroke="black"/>
<rect width="66.5" height="17.4981" transform="translate(183 61)" fill="white" stroke="black"/>
<rect width="9.5" height="4.07455" transform="translate(183 86.9254)" stroke="black"/>
<rect width="9.5" height="4.07455" transform="translate(192.5 86.9254)" stroke="black"/>
<rect width="9.5" height="4.07455" transform="translate(202 86.9254)" stroke="black"/>
<rect width="9.5" height="4.07455" transform="translate(211.5 86.9254)" stroke="black"/>
<rect width="9.5" height="4.07455" transform="translate(183 78.6911)" stroke="black"/>
<rect width="9.5" height="4.07455" transform="translate(192.5 78.6911)" stroke="black"/>
<rect width="9.5" height="4.07455" transform="translate(202 78.6911)" stroke="black"/>
<rect width="9.5" height="4.07455" transform="translate(211.5 78.6911)" stroke="black"/>
<rect width="4.5" height="4.07455" transform="translate(183 82.8083)" stroke="black"/>
<rect width="9.5" height="4.07455" transform="translate(187.5 82.8083)" stroke="black"/>
<rect width="9.5" height="4.07455" transform="translate(197 82.8083)" stroke="black"/>
<rect width="9.5" height="4.07455" transform="translate(206.5 82.8083)" stroke="black"/>
<rect width="9.5" height="8.04139" transform="translate(187.5 82.8083)" fill="white" stroke="black"/>
<rect width="9.5" height="8.03778" transform="translate(202 78.845)" fill="white" stroke="black"/>
<line y1="-0.5" x2="8.42738" y2="-0.5" transform="translate(206.25 78.4981) rotate(90)" stroke="black"/>
<rect width="9.5" height="4.07455" transform="translate(211.5 86.9254)" stroke="black"/>
<rect width="9.5" height="4.07455" transform="translate(221 86.9254)" stroke="black"/>
<rect width="9.5" height="4.07455" transform="translate(230.5 86.9254)" stroke="black"/>
<rect width="9.5" height="4.07455" transform="translate(240 86.9254)" stroke="black"/>
<rect width="9.5" height="4.07455" transform="translate(211.5 78.6911)" stroke="black"/>
<rect width="9.5" height="4.07455" transform="translate(221 78.6911)" stroke="black"/>
<rect width="9.5" height="4.07455" transform="translate(230.5 78.6911)" stroke="black"/>
<rect width="9.5" height="4.07455" transform="translate(240 78.6911)" stroke="black"/>
<rect width="9.5" height="4.07455" transform="translate(216 82.8083)" stroke="black"/>
<rect width="9.5" height="4.07455" transform="translate(225.5 82.8083)" stroke="black"/>
<rect width="9.5" height="4.07455" transform="translate(235 82.8083)" stroke="black"/>
<rect width="5" height="4.07455" transform="translate(244.5 82.8083)" stroke="black"/>
<rect width="9.5" height="8.03778" transform="translate(230.5 78.845)" fill="white" stroke="black"/>
<line y1="-0.5" x2="8.42738" y2="-0.5" transform="translate(234.75 78.4981) rotate(90)" stroke="black"/>
<rect width="66.5" height="24.7032" transform="translate(20 119.146)" fill="#6AC7FF" stroke="black"/>
<rect width="66.5" height="17.4981" transform="translate(20 114)" fill="white" stroke="black"/>
<rect width="9.5" height="4.07455" transform="translate(20 139.925)" stroke="black"/>
<rect width="9.5" height="4.07455" transform="translate(29.5 139.925)" stroke="black"/>
<rect width="9.5" height="4.07455" transform="translate(39 139.925)" stroke="black"/>
<rect width="9.5" height="4.07455" transform="translate(48.5 139.925)" stroke="black"/>
<rect width="9.5" height="4.07455" transform="translate(20 131.691)" stroke="black"/>
<rect width="9.5" height="4.07455" transform="translate(29.5 131.691)" stroke="black"/>
<rect width="9.5" height="4.07455" transform="translate(39 131.691)" stroke="black"/>
<rect width="9.5" height="4.07455" transform="translate(48.5 131.691)" stroke="black"/>
<rect width="4.5" height="4.07455" transform="translate(20 135.808)" stroke="black"/>
<rect width="9.5" height="4.07455" transform="translate(24.5 135.808)" stroke="black"/>
<rect width="9.5" height="4.07455" transform="translate(34 135.808)" stroke="black"/>
<rect width="9.5" height="4.07455" transform="translate(43.5 135.808)" stroke="black"/>
<rect width="9.5" height="8.04139" transform="translate(24.5 135.808)" fill="white" stroke="black"/>
<rect width="9.5" height="8.03778" transform="translate(39 131.845)" fill="white" stroke="black"/>
<line y1="-0.5" x2="8.42738" y2="-0.5" transform="translate(43.25 131.498) rotate(90)" stroke="black"/>
<rect width="9.5" height="4.07455" transform="translate(48.5 139.925)" stroke="black"/>
<rect width="9.5" height="4.07455" transform="translate(58 139.925)" stroke="black"/>
<rect width="9.5" height="4.07455" transform="translate(67.5 139.925)" stroke="black"/>
<rect width="9.5" height="4.07455" transform="translate(77 139.925)" stroke="black"/>
<rect width="9.5" height="4.07455" transform="translate(48.5 131.691)" stroke="black"/>
<rect width="9.5" height="4.07455" transform="translate(58 131.691)" stroke="black"/>
<rect width="9.5" height="4.07455" transform="translate(67.5 131.691)" stroke="black"/>
<rect width="9.5" height="4.07455" transform="translate(77 131.691)" stroke="black"/>
<rect width="9.5" height="4.07455" transform="translate(53 135.808)" stroke="black"/>
<rect width="9.5" height="4.07455" transform="translate(62.5 135.808)" stroke="black"/>
<rect width="9.5" height="4.07455" transform="translate(72 135.808)" stroke="black"/>
<rect width="5" height="4.07455" transform="translate(81.5 135.808)" stroke="black"/>
<rect width="9.5" height="8.03778" transform="translate(67.5 131.845)" fill="white" stroke="black"/>
<line y1="-0.5" x2="8.42738" y2="-0.5" transform="translate(71.75 131.498) rotate(90)" stroke="black"/>
<rect width="66.5" height="24.7032" transform="translate(183 119.146)" fill="#6AC7FF" stroke="black"/>
<rect width="66.5" height="17.4981" transform="translate(183 114)" fill="white" stroke="black"/>
<rect width="9.5" height="4.07455" transform="translate(183 139.925)" stroke="black"/>
<rect width="9.5" height="4.07455" transform="translate(192.5 139.925)" stroke="black"/>
<rect width="9.5" height="4.07455" transform="translate(202 139.925)" stroke="black"/>
<rect width="9.5" height="4.07455" transform="translate(211.5 139.925)" stroke="black"/>
<rect width="9.5" height="4.07455" transform="translate(183 131.691)" stroke="black"/>
<rect width="9.5" height="4.07455" transform="translate(192.5 131.691)" stroke="black"/>
<rect width="9.5" height="4.07455" transform="translate(202 131.691)" stroke="black"/>
<rect width="9.5" height="4.07455" transform="translate(211.5 131.691)" stroke="black"/>
<rect width="4.5" height="4.07455" transform="translate(183 135.808)" stroke="black"/>
<rect width="9.5" height="4.07455" transform="translate(187.5 135.808)" stroke="black"/>
<rect width="9.5" height="4.07455" transform="translate(197 135.808)" stroke="black"/>
<rect width="9.5" height="4.07455" transform="translate(206.5 135.808)" stroke="black"/>
<rect width="9.5" height="8.04139" transform="translate(187.5 135.808)" fill="white" stroke="black"/>
<rect width="9.5" height="8.03778" transform="translate(202 131.845)" fill="white" stroke="black"/>
<line y1="-0.5" x2="8.42738" y2="-0.5" transform="translate(206.25 131.498) rotate(90)" stroke="black"/>
<rect width="9.5" height="4.07455" transform="translate(211.5 139.925)" stroke="black"/>
<rect width="9.5" height="4.07455" transform="translate(221 139.925)" stroke="black"/>
<rect width="9.5" height="4.07455" transform="translate(230.5 139.925)" stroke="black"/>
<rect width="9.5" height="4.07455" transform="translate(240 139.925)" stroke="black"/>
<rect width="9.5" height="4.07455" transform="translate(211.5 131.691)" stroke="black"/>
<rect width="9.5" height="4.07455" transform="translate(221 131.691)" stroke="black"/>
<rect width="9.5" height="4.07455" transform="translate(230.5 131.691)" stroke="black"/>
<rect width="9.5" height="4.07455" transform="translate(240 131.691)" stroke="black"/>
<rect width="9.5" height="4.07455" transform="translate(216 135.808)" stroke="black"/>
<rect width="9.5" height="4.07455" transform="translate(225.5 135.808)" stroke="black"/>
<rect width="9.5" height="4.07455" transform="translate(235 135.808)" stroke="black"/>
<rect width="5" height="4.07455" transform="translate(244.5 135.808)" stroke="black"/>
<rect width="9.5" height="8.03778" transform="translate(230.5 131.845)" fill="white" stroke="black"/>
<line y1="-0.5" x2="8.42738" y2="-0.5" transform="translate(234.75 131.498) rotate(90)" stroke="black"/>
<rect width="66.5" height="24.7032" transform="translate(102 13.1465)" fill="#6AC7FF" stroke="black"/>
<rect width="66.5" height="17.4981" transform="translate(102 8)" fill="white" stroke="black"/>
<rect width="9.5" height="4.07455" transform="translate(102 33.9254)" stroke="black"/>
<rect width="9.5" height="4.07455" transform="translate(111.5 33.9254)" stroke="black"/>
<rect width="9.5" height="4.07455" transform="translate(121 33.9254)" stroke="black"/>
<rect width="9.5" height="4.07455" transform="translate(130.5 33.9254)" stroke="black"/>
<rect width="9.5" height="4.07455" transform="translate(102 25.6911)" stroke="black"/>
<rect width="9.5" height="4.07455" transform="translate(111.5 25.6911)" stroke="black"/>
<rect width="9.5" height="4.07455" transform="translate(121 25.6911)" stroke="black"/>
<rect width="9.5" height="4.07455" transform="translate(130.5 25.6911)" stroke="black"/>
<rect width="4.5" height="4.07455" transform="translate(102 29.8083)" stroke="black"/>
<rect width="9.5" height="4.07455" transform="translate(106.5 29.8083)" stroke="black"/>
<rect width="9.5" height="4.07455" transform="translate(116 29.8083)" stroke="black"/>
<rect width="9.5" height="4.07455" transform="translate(125.5 29.8083)" stroke="black"/>
<rect width="9.5" height="8.04139" transform="translate(106.5 29.8083)" fill="white" stroke="black"/>
<rect width="9.5" height="8.03778" transform="translate(121 25.845)" fill="white" stroke="black"/>
<line y1="-0.5" x2="8.42738" y2="-0.5" transform="translate(125.25 25.4981) rotate(90)" stroke="black"/>
<rect width="9.5" height="4.07455" transform="translate(130.5 33.9254)" stroke="black"/>
<rect width="9.5" height="4.07455" transform="translate(140 33.9254)" stroke="black"/>
<rect width="9.5" height="4.07455" transform="translate(149.5 33.9254)" stroke="black"/>
<rect width="9.5" height="4.07455" transform="translate(159 33.9254)" stroke="black"/>
<rect width="9.5" height="4.07455" transform="translate(130.5 25.6911)" stroke="black"/>
<rect width="9.5" height="4.07455" transform="translate(140 25.6911)" stroke="black"/>
<rect width="9.5" height="4.07455" transform="translate(149.5 25.6911)" stroke="black"/>
<rect width="9.5" height="4.07455" transform="translate(159 25.6911)" stroke="black"/>
<rect width="9.5" height="4.07455" transform="translate(135 29.8083)" stroke="black"/>
<rect width="9.5" height="4.07455" transform="translate(144.5 29.8083)" stroke="black"/>
<rect width="9.5" height="4.07455" transform="translate(154 29.8083)" stroke="black"/>
<rect width="5" height="4.07455" transform="translate(163.5 29.8083)" stroke="black"/>
<rect width="9.5" height="8.03778" transform="translate(149.5 25.845)" fill="white" stroke="black"/>
<line y1="-0.5" x2="8.42738" y2="-0.5" transform="translate(153.75 25.4981) rotate(90)" stroke="black"/>
<rect width="66.5" height="24.7032" transform="translate(102 66.1465)" fill="#6AC7FF" stroke="black"/>
<rect width="66.5" height="17.4981" transform="translate(102 61)" fill="white" stroke="black"/>
<rect width="9.5" height="4.07455" transform="translate(102 86.9254)" stroke="black"/>
<rect width="9.5" height="4.07455" transform="translate(111.5 86.9254)" stroke="black"/>
<rect width="9.5" height="4.07455" transform="translate(121 86.9254)" stroke="black"/>
<rect width="9.5" height="4.07455" transform="translate(130.5 86.9254)" stroke="black"/>
<rect width="9.5" height="4.07455" transform="translate(102 78.6911)" stroke="black"/>
<rect width="9.5" height="4.07455" transform="translate(111.5 78.6911)" stroke="black"/>
<rect width="9.5" height="4.07455" transform="translate(121 78.6911)" stroke="black"/>
<rect width="9.5" height="4.07455" transform="translate(130.5 78.6911)" stroke="black"/>
<rect width="4.5" height="4.07455" transform="translate(102 82.8083)" stroke="black"/>
<rect width="9.5" height="4.07455" transform="translate(106.5 82.8083)" stroke="black"/>
<rect width="9.5" height="4.07455" transform="translate(116 82.8083)" stroke="black"/>
<rect width="9.5" height="4.07455" transform="translate(125.5 82.8083)" stroke="black"/>
<rect width="9.5" height="8.04139" transform="translate(106.5 82.8083)" fill="white" stroke="black"/>
<rect width="9.5" height="8.03778" transform="translate(121 78.845)" fill="white" stroke="black"/>
<line y1="-0.5" x2="8.42738" y2="-0.5" transform="translate(125.25 78.4981) rotate(90)" stroke="black"/>
<rect width="9.5" height="4.07455" transform="translate(130.5 86.9254)" stroke="black"/>
<rect width="9.5" height="4.07455" transform="translate(140 86.9254)" stroke="black"/>
<rect width="9.5" height="4.07455" transform="translate(149.5 86.9254)" stroke="black"/>
<rect width="9.5" height="4.07455" transform="translate(159 86.9254)" stroke="black"/>
<rect width="9.5" height="4.07455" transform="translate(130.5 78.6911)" stroke="black"/>
<rect width="9.5" height="4.07455" transform="translate(140 78.6911)" stroke="black"/>
<rect width="9.5" height="4.07455" transform="translate(149.5 78.6911)" stroke="black"/>
<rect width="9.5" height="4.07455" transform="translate(159 78.6911)" stroke="black"/>
<rect width="9.5" height="4.07455" transform="translate(135 82.8083)" stroke="black"/>
<rect width="9.5" height="4.07455" transform="translate(144.5 82.8083)" stroke="black"/>
<rect width="9.5" height="4.07455" transform="translate(154 82.8083)" stroke="black"/>
<rect width="5" height="4.07455" transform="translate(163.5 82.8083)" stroke="black"/>
<rect width="9.5" height="8.03778" transform="translate(149.5 78.845)" fill="white" stroke="black"/>
<line y1="-0.5" x2="8.42738" y2="-0.5" transform="translate(153.75 78.4981) rotate(90)" stroke="black"/>
<rect width="66.5" height="24.7032" transform="translate(102 119.146)" fill="#6AC7FF" stroke="black"/>
<rect width="66.5" height="17.4981" transform="translate(102 114)" fill="white" stroke="black"/>
<rect width="9.5" height="4.07455" transform="translate(102 139.925)" stroke="black"/>
<rect width="9.5" height="4.07455" transform="translate(111.5 139.925)" stroke="black"/>
<rect width="9.5" height="4.07455" transform="translate(121 139.925)" stroke="black"/>
<rect width="9.5" height="4.07455" transform="translate(130.5 139.925)" stroke="black"/>
<rect width="9.5" height="4.07455" transform="translate(102 131.691)" stroke="black"/>
<rect width="9.5" height="4.07455" transform="translate(111.5 131.691)" stroke="black"/>
<rect width="9.5" height="4.07455" transform="translate(121 131.691)" stroke="black"/>
<rect width="9.5" height="4.07455" transform="translate(130.5 131.691)" stroke="black"/>
<rect width="4.5" height="4.07455" transform="translate(102 135.808)" stroke="black"/>
<rect width="9.5" height="4.07455" transform="translate(106.5 135.808)" stroke="black"/>
<rect width="9.5" height="4.07455" transform="translate(116 135.808)" stroke="black"/>
<rect width="9.5" height="4.07455" transform="translate(125.5 135.808)" stroke="black"/>
<rect width="9.5" height="8.04139" transform="translate(106.5 135.808)" fill="white" stroke="black"/>
<rect width="9.5" height="8.03778" transform="translate(121 131.845)" fill="white" stroke="black"/>
<line y1="-0.5" x2="8.42738" y2="-0.5" transform="translate(125.25 131.498) rotate(90)" stroke="black"/>
<rect width="9.5" height="4.07455" transform="translate(130.5 139.925)" stroke="black"/>
<rect width="9.5" height="4.07455" transform="translate(140 139.925)" stroke="black"/>
<rect width="9.5" height="4.07455" transform="translate(149.5 139.925)" stroke="black"/>
<rect width="9.5" height="4.07455" transform="translate(159 139.925)" stroke="black"/>
<rect width="9.5" height="4.07455" transform="translate(130.5 131.691)" stroke="black"/>
<rect width="9.5" height="4.07455" transform="translate(140 131.691)" stroke="black"/>
<rect width="9.5" height="4.07455" transform="translate(149.5 131.691)" stroke="black"/>
<rect width="9.5" height="4.07455" transform="translate(159 131.691)" stroke="black"/>
<rect width="9.5" height="4.07455" transform="translate(135 135.808)" stroke="black"/>
<rect width="9.5" height="4.07455" transform="translate(144.5 135.808)" stroke="black"/>
<rect width="9.5" height="4.07455" transform="translate(154 135.808)" stroke="black"/>
<rect width="5" height="4.07455" transform="translate(163.5 135.808)" stroke="black"/>
<rect width="9.5" height="8.03778" transform="translate(149.5 131.845)" fill="white" stroke="black"/>
<line y1="-0.5" x2="8.42738" y2="-0.5" transform="translate(153.75 131.498) rotate(90)" stroke="black"/>
<path fill-rule="evenodd" clip-rule="evenodd" d="M49.5 0H59V7H131.5V0H141V7H212.5V0H222V7H308.28V15H0V7H49.5V0Z" transform="translate(-25 144)" fill="white" stroke="black"/>
<path fill-rule="evenodd" clip-rule="evenodd" d="M49.5 0H59V7H131.5V0H141V7H212.5V0H222V7H308.28V15H0V7H49.5V0Z" transform="translate(-25 91)" fill="white" stroke="black"/>
<path fill-rule="evenodd" clip-rule="evenodd" d="M49.5 0H59V7H131.5V0H141V7H212.5V0H222V7H308.28V15H0V7H49.5V0Z" transform="translate(-25 38)" fill="white" stroke="black"/>
</g>
<defs>
<clipPath id="clip0">
<rect width="270" height="167" fill="white"/>
</clipPath>
</defs>
</svg>
