<svg id="75873e9b-8894-4002-af82-71a86aac9400" data-name="Layer 1" xmlns="http://www.w3.org/2000/svg" viewBox="0 0 324 65.67"><title>ff05-scifi</title><rect x="4" y="10.02" width="20.15" height="20.15" transform="translate(28.15 40.19) rotate(-180)" style="fill:#51ae75;stroke:#231f20;stroke-miterlimit:10;stroke-width:2px"/><circle cx="19.52" cy="25.88" r="2.07" style="fill:#231f20"/><circle cx="8.63" cy="25.88" r="2.07" style="fill:#231f20"/><circle cx="19.52" cy="14.19" r="2.07" style="fill:#231f20"/><circle cx="14.08" cy="17.14" r="2.07" style="fill:#231f20"/><circle cx="8.63" cy="14.19" r="2.07" style="fill:#231f20"/><circle cx="8.63" cy="20.09" r="2.07" style="fill:#231f20"/><circle cx="19.52" cy="20.09" r="2.07" style="fill:#231f20"/><rect x="4" y="35.21" width="20.15" height="20.15" transform="translate(-31.21 59.36) rotate(-90)" style="fill:#51ae75;stroke:#231f20;stroke-miterlimit:10;stroke-width:2px"/><circle cx="8.29" cy="50.72" r="2.07" style="fill:#231f20"/><circle cx="8.29" cy="39.84" r="2.07" style="fill:#231f20"/><circle cx="19.98" cy="50.72" r="2.07" style="fill:#231f20"/><circle cx="19.98" cy="39.84" r="2.07" style="fill:#231f20"/><circle cx="8.29" cy="45.28" r="2.07" style="fill:#231f20"/><circle cx="14.08" cy="39.84" r="2.07" style="fill:#231f20"/><circle cx="14.08" cy="50.72" r="2.07" style="fill:#231f20"/><path d="M46.88,24.45c0,.13-.09.18-.2.18H44.25c-.11,0-.19-.05-.2-.2L43,13.2a21.59,21.59,0,0,1-.7,3.68l-1,3.26c0,.11-.09.21-.2.21h-3.3c-.11,0-.17-.1-.21-.21l-1-3.26a20.66,20.66,0,0,1-.7-3.68l-1.1,11.23c0,.13-.09.2-.2.2H32.1a.21.21,0,0,1-.21-.2l1.47-12.29a.24.24,0,0,1,.22-.22h4c.11,0,.17.11.21.22l1.65,6.37L41,12.14c0-.11.09-.22.2-.22h4a.24.24,0,0,1,.22.22C46.88,24.43,46.88,24.45,46.88,24.45Z"/><path d="M57.42,21.16c0,2.47-1.63,3.75-3.91,3.75h-1c-2.28,0-3.92-1.28-3.92-3.75v-2c0-2.47,1.64-3.75,3.92-3.75h1c2.28,0,3.91,1.28,3.91,3.75ZM54.86,19.1a1.46,1.46,0,0,0-1.56-1.54h-.61a1.47,1.47,0,0,0-1.56,1.54v2.06a1.47,1.47,0,0,0,1.56,1.56h.61a1.47,1.47,0,0,0,1.56-1.56Z"/><path d="M68.39,24.43a.22.22,0,0,1-.22.2H66.05a.22.22,0,0,1-.22-.2V18.25a.63.63,0,0,0-.63-.69h-.13c-.39,0-.74.37-1.25.93l-1.61,1.78v4.16a.2.2,0,0,1-.2.2H59.85a.2.2,0,0,1-.2-.2V15.85a.2.2,0,0,1,.2-.2H62a.2.2,0,0,1,.2.2V17.6l.52-.71a3,3,0,0,1,2.76-1.52h.26c1.6,0,2.64.93,2.64,2.88Z"/><path d="M76.61,24.43a.2.2,0,0,1-.21.2H74.57a2.55,2.55,0,0,1-2.82-2.8v-3.9l-2-.42c-.11,0-.21-.11-.21-.23V15.85a.21.21,0,0,1,.21-.2h2v-.91a.4.4,0,0,1,.22-.41l1.84-.94a.38.38,0,0,1,.22-.06.25.25,0,0,1,.28.24v2.08h2.13a.22.22,0,0,1,.22.2v1.88a.22.22,0,0,1-.22.2H74.31v3.68a.74.74,0,0,0,.81.83H76.4a.21.21,0,0,1,.21.21Z"/><path d="M80.65,21.11a1.39,1.39,0,0,0,1.49,1.33h4.1a.22.22,0,0,1,.2.22v1.77a.2.2,0,0,1-.2.2H82.06c-2.28,0-3.91-1.28-3.91-3.75V19.12c0-2.47,1.63-3.75,3.91-3.75h1c2.19,0,3.88,1.25,3.88,3.44v.24a.48.48,0,0,1-.2.44l-1.62,1.36a.86.86,0,0,1-.55.26Zm1.52-3.55A1.39,1.39,0,0,0,80.65,19h3.83A1.33,1.33,0,0,0,83,17.56Z"/><path d="M44,44a.24.24,0,0,1-.24.24H37.83a4.91,4.91,0,0,1-5.26-5.28V34.63a4.91,4.91,0,0,1,5.26-5.26H43.7a.28.28,0,0,1,.26.26v4.76a.24.24,0,0,1-.24.24H41.06a.24.24,0,0,1-.24-.24V32.08H38.29a2.31,2.31,0,0,0-2.58,2.57v4.27a2.32,2.32,0,0,0,2.58,2.58h5.43a.23.23,0,0,1,.24.23Z"/><path d="M45.48,37.19c0-2.49,1.75-3.79,4.13-3.79h.17a6.74,6.74,0,0,1,3.53,1.08l.33-.54a.38.38,0,0,1,.37-.22h1.45a.23.23,0,0,1,.23.24V44a.23.23,0,0,1-.23.24H52.94a.23.23,0,0,1-.23-.24v-2l-.61.82a3.55,3.55,0,0,1-3.23,1.78h-.3c-1.86,0-3.09-1.09-3.09-3.36Zm7.23,1.62V36.54A5.1,5.1,0,0,0,50.39,36h-.32a1.58,1.58,0,0,0-1.61,1.73v3.49a.75.75,0,0,0,.76.8h.15c.46,0,.87-.43,1.45-1.08Z"/><path d="M65.11,33.4a3.38,3.38,0,0,1,2.68,1.36.21.21,0,0,1,0,.15c0,.09,0,.13-.11.2l-2,1.69c-.11.08-.15.1-.22.1s-.17-.06-.26-.15c-.34-.34-.58-.58-.93-.58H64.2c-.43,0-.8.45-1.17.95L61.71,38.9V44a.24.24,0,0,1-.24.24H59a.24.24,0,0,1-.24-.24V34a.24.24,0,0,1,.24-.24h1.45c.17,0,.35.09.37.22l.67,2,.72-1a3.07,3.07,0,0,1,2.72-1.49Z"/><path d="M74.81,44a.24.24,0,0,1-.24.24H72.43a3,3,0,0,1-3.3-3.27V29.2a.26.26,0,0,1,.24-.26h2.51a.26.26,0,0,1,.24.26V40.67a.88.88,0,0,0,1,1h1.49a.23.23,0,0,1,.24.23Z"/><path d="M86.61,40.15c0,2.88-1.91,4.38-4.57,4.38H80.85c-2.67,0-4.57-1.5-4.57-4.38V37.77c0-2.88,1.9-4.37,4.57-4.37H82c2.66,0,4.57,1.49,4.57,4.37Zm-3-2.4A1.71,1.71,0,0,0,81.8,36h-.72a1.71,1.71,0,0,0-1.81,1.8v2.4A1.71,1.71,0,0,0,81.08,42h.72a1.72,1.72,0,0,0,1.82-1.82Z"/><path d="M76.29,54.18a.08.08,0,0,1-.07.07h-.76a.08.08,0,0,1-.07-.07V50.09a.08.08,0,0,1,.07-.08h.75a.09.09,0,0,1,.08.08Z"/><path d="M80.83,54.18a.09.09,0,0,1-.08.07H79.63a.1.1,0,0,1-.1-.07l-.87-1.9A16.67,16.67,0,0,1,78,50.73a16.33,16.33,0,0,1,.13,1.86v1.59a.08.08,0,0,1-.07.07h-.76a.08.08,0,0,1-.07-.07V50.09a.09.09,0,0,1,.07-.08h1.14s.07,0,.09.09l.93,2.07a13.3,13.3,0,0,1,.58,1.46,14.14,14.14,0,0,1-.15-1.71V50.09A.09.09,0,0,1,80,50h.74a.09.09,0,0,1,.08.08Z"/><path d="M85,54.18a.08.08,0,0,1-.07.07H83.22a1.4,1.4,0,0,1-1.5-1.51V51.51a1.4,1.4,0,0,1,1.5-1.5h1.67a.09.09,0,0,1,.08.08v1.36a.07.07,0,0,1-.07.06h-.76a.07.07,0,0,1-.07-.06v-.67h-.72a.67.67,0,0,0-.74.74v1.22a.66.66,0,0,0,.74.73H84.9a.07.07,0,0,1,.07.07Z"/><path d="M87.4,54.15a.11.11,0,0,1-.11.1H86.05a.11.11,0,0,1-.1-.1V53.2a.1.1,0,0,1,.1-.1h1.24a.1.1,0,0,1,.11.1Z"/><rect x="32.6" y="50.04" width="38.62" height="4.79" style="fill:#51ae75"/><path d="M200,19.92a.11.11,0,0,1-.11.11H199a.11.11,0,0,1-.11-.11v-1.4h-1.33a1.24,1.24,0,0,0-1.31,1.33v2.37a1.23,1.23,0,0,0,1.31,1.33h2.32a.13.13,0,0,1,.11.13v.7a.11.11,0,0,1-.11.11h-2.43a2.16,2.16,0,0,1-2.3-2.27V19.85a2.17,2.17,0,0,1,2.3-2.27h2.43a.12.12,0,0,1,.11.12Z" style="fill:#231f20"/><path d="M201.16,19.72a.12.12,0,0,1,.12-.11h.8a.12.12,0,0,1,.12.11v3.37c0,.37.2.62.54.62h.07c.37,0,.6-.27.89-.61l.82-1V19.72a.11.11,0,0,1,.11-.11h.82a.12.12,0,0,1,.12.11v4.66a.12.12,0,0,1-.12.11h-.82a.11.11,0,0,1-.11-.11v-1l-.45.57a1.51,1.51,0,0,1-1.32.65h-.16a1.31,1.31,0,0,1-1.43-1.5Z" style="fill:#231f20"/><path d="M210.54,20.39a.11.11,0,0,1-.11.11h-2.12c-.31,0-.54.17-.54.46s.19.43.49.49l1,.17c.8.12,1.54.42,1.54,1.36v.18c0,.84-.68,1.33-1.59,1.33H206.9a.12.12,0,0,1-.11-.12v-.65a.12.12,0,0,1,.11-.12h2.26c.37,0,.6-.19.6-.49s-.26-.46-.69-.53-.73-.12-1.09-.2A1.36,1.36,0,0,1,206.72,21v-.14c0-.8.67-1.25,1.56-1.25h2.15a.12.12,0,0,1,.11.12Z" style="fill:#231f20"/><path d="M214.6,24.38a.11.11,0,0,1-.11.11h-.72a1.31,1.31,0,0,1-1.46-1.43V20.63l-.88-.18a.14.14,0,0,1-.12-.12v-.61a.12.12,0,0,1,.12-.11h.88v-.49a.22.22,0,0,1,.12-.22l.66-.44a.23.23,0,0,1,.11,0,.14.14,0,0,1,.15.14v1h1.13a.12.12,0,0,1,.12.11v.78a.12.12,0,0,1-.12.11h-1.13v2.45a.51.51,0,0,0,.51.56h.63a.11.11,0,0,1,.11.11Z" style="fill:#231f20"/><path d="M219.91,22.76A1.76,1.76,0,0,1,218,24.59h-.65a1.76,1.76,0,0,1-1.93-1.83V21.35a1.77,1.77,0,0,1,1.93-1.84H218a1.77,1.77,0,0,1,1.93,1.84Zm-1-1.42c0-.64-.43-.94-1.05-.94h-.33c-.61,0-1.05.3-1.05.94v1.42a.92.92,0,0,0,1.05.95h.33c.62,0,1.05-.31,1.05-.95Z" style="fill:#231f20"/><path d="M228.15,24.38a.12.12,0,0,1-.12.11h-.8a.12.12,0,0,1-.12-.11V21c0-.35-.15-.54-.43-.54h-.06c-.27,0-.52.31-.8.65l-.66.8v2.52a.11.11,0,0,1-.11.11h-.83a.11.11,0,0,1-.11-.11V21c0-.35-.15-.54-.43-.54h-.06c-.26,0-.51.31-.8.65l-.65.8v2.52a.11.11,0,0,1-.11.11h-.83a.11.11,0,0,1-.11-.11V19.72a.11.11,0,0,1,.11-.11h.83a.11.11,0,0,1,.11.11v1l.33-.4a1.53,1.53,0,0,1,1.25-.77h.18c.75,0,1.13.46,1.21,1.2l.36-.43a1.52,1.52,0,0,1,1.25-.77h.18c.76,0,1.22.49,1.22,1.44Z" style="fill:#231f20"/><path d="M230.34,22.45v.21a.92.92,0,0,0,1,.94h2.07a.13.13,0,0,1,.11.13v.65a.11.11,0,0,1-.11.11h-2.22a1.76,1.76,0,0,1-1.93-1.83V21.34a1.77,1.77,0,0,1,1.93-1.84h.6a1.74,1.74,0,0,1,1.93,1.71v.47a.27.27,0,0,1-.11.24l-.51.43a.46.46,0,0,1-.31.1Zm0-.89h2.38v-.22c0-.65-.43-.95-1.05-.95h-.28c-.61,0-1,.3-1,.94Z" style="fill:#231f20"/><path d="M238.71,20.16a.12.12,0,0,1,0,.08l-.67.56a.13.13,0,0,1-.09,0,.11.11,0,0,1-.07,0c-.14-.16-.27-.31-.46-.31h-.07c-.25,0-.43.24-.7.58l-.69.94v2.36a.11.11,0,0,1-.11.11H235a.11.11,0,0,1-.11-.11V19.72a.11.11,0,0,1,.11-.11h.83a.11.11,0,0,1,.11.11v1l.37-.5a1.44,1.44,0,0,1,1.19-.74h.1a1.42,1.42,0,0,1,1.1.57A.16.16,0,0,1,238.71,20.16Z" style="fill:#231f20"/><path d="M247.19,23.9a4.06,4.06,0,0,1,.14.46c0,.07,0,.13-.09.13h-.85a.2.2,0,0,1-.2-.14l-.53-1.63h-2.82l-.53,1.63a.2.2,0,0,1-.2.14h-.85a.09.09,0,0,1-.1-.1.36.36,0,0,1,0-.1l2.2-6.56c0-.1.08-.15.18-.15h1.38a.18.18,0,0,1,.19.15Zm-4-2.12h2.2l-1.1-3.37Z" style="fill:#231f20"/><path d="M251.64,20.39a.11.11,0,0,1-.11.11h-2.12c-.31,0-.54.17-.54.46s.19.43.49.49l1,.17c.8.12,1.54.42,1.54,1.36v.18c0,.84-.68,1.33-1.59,1.33H248a.12.12,0,0,1-.11-.12v-.65a.12.12,0,0,1,.11-.12h2.26c.37,0,.6-.19.6-.49s-.26-.46-.69-.53-.73-.12-1.09-.2A1.36,1.36,0,0,1,247.82,21v-.14c0-.8.67-1.25,1.56-1.25h2.15a.12.12,0,0,1,.11.12Z" style="fill:#231f20"/><path d="M256.44,20.39a.11.11,0,0,1-.11.11H254.2a.47.47,0,0,0-.53.46c0,.29.19.43.48.49l1,.17c.8.12,1.54.42,1.54,1.36v.18c0,.84-.68,1.33-1.59,1.33H252.8a.12.12,0,0,1-.11-.12v-.65a.12.12,0,0,1,.11-.12h2.26c.36,0,.6-.19.6-.49s-.27-.46-.69-.53-.74-.12-1.09-.2A1.36,1.36,0,0,1,252.62,21v-.14c0-.8.67-1.25,1.55-1.25h2.16a.12.12,0,0,1,.11.12Z" style="fill:#231f20"/><path d="M259.4,24.38a.13.13,0,0,1-.13.11h-.8a.12.12,0,0,1-.12-.11V20.56l-1.07-.21a.13.13,0,0,1-.11-.12v-.51a.11.11,0,0,1,.11-.11h2a.13.13,0,0,1,.13.11Zm.1-6.07a.12.12,0,0,1-.12.12h-1a.13.13,0,0,1-.12-.12v-1a.13.13,0,0,1,.12-.12h1a.12.12,0,0,1,.12.12Z" style="fill:#231f20"/><path d="M264.37,20.39a.11.11,0,0,1-.11.11h-2.13c-.31,0-.54.17-.54.46s.19.43.49.49l1,.17c.79.12,1.53.42,1.53,1.36v.18c0,.84-.68,1.33-1.59,1.33h-2.31a.13.13,0,0,1-.12-.12v-.65a.13.13,0,0,1,.12-.12H263c.37,0,.6-.19.6-.49s-.26-.46-.69-.53-.73-.12-1.09-.2A1.36,1.36,0,0,1,260.54,21v-.14c0-.8.67-1.25,1.56-1.25h2.16a.12.12,0,0,1,.11.12Z" style="fill:#231f20"/><path d="M268.42,24.38a.11.11,0,0,1-.11.11h-.72a1.31,1.31,0,0,1-1.46-1.43V20.63l-.88-.18a.14.14,0,0,1-.12-.12v-.61a.12.12,0,0,1,.12-.11h.88v-.49a.22.22,0,0,1,.12-.22l.67-.44a.19.19,0,0,1,.1,0,.14.14,0,0,1,.15.14v1h1.13a.12.12,0,0,1,.12.11v.78a.12.12,0,0,1-.12.11h-1.13v2.45a.51.51,0,0,0,.51.56h.63a.11.11,0,0,1,.11.11Z" style="fill:#231f20"/><path d="M273.73,24.38a.12.12,0,0,1-.12.11h-.81a.12.12,0,0,1-.12-.11V23.33l-.38.5a1.65,1.65,0,0,1-1.45.76h-.19a1.32,1.32,0,0,1-1.44-1.5V21.36a1.7,1.7,0,0,1,1.85-1.86h.11a3.38,3.38,0,0,1,1.5.42v-.19a.13.13,0,0,1,.12-.12h.81a.13.13,0,0,1,.12.12Zm-1.05-3.59a2.78,2.78,0,0,0-1.37-.4h-.12a.86.86,0,0,0-.93,1v1.78a.53.53,0,0,0,.55.58h.07c.41,0,.63-.26,1-.62l.83-.93Z" style="fill:#231f20"/><path d="M279.65,24.38a.12.12,0,0,1-.12.11h-.8a.12.12,0,0,1-.12-.11V21a.54.54,0,0,0-.54-.61H278c-.42,0-.64.25-1,.61l-.84.93v2.44a.11.11,0,0,1-.11.11h-.83a.11.11,0,0,1-.11-.11V19.72a.11.11,0,0,1,.11-.11h.83a.11.11,0,0,1,.11.11v1.05l.41-.49a1.73,1.73,0,0,1,1.46-.77h.16a1.32,1.32,0,0,1,1.43,1.5Z" style="fill:#231f20"/><path d="M285.11,21.2a.11.11,0,0,1-.11.12h-.81a.12.12,0,0,1-.12-.12v-.07c0-.48-.46-.74-.94-.74h-.24c-.61,0-1.05.3-1.05.94v1.33a.92.92,0,0,0,1,.94h2a.13.13,0,0,1,.11.13v.65a.11.11,0,0,1-.11.11h-2.17a1.75,1.75,0,0,1-1.92-1.83V21.34a1.76,1.76,0,0,1,1.92-1.84h.56a1.67,1.67,0,0,1,1.82,1.63Z" style="fill:#231f20"/><path d="M287,22.45v.21a.91.91,0,0,0,1,.94h2.06a.13.13,0,0,1,.11.13v.65a.11.11,0,0,1-.11.11h-2.22a1.76,1.76,0,0,1-1.92-1.83V21.34a1.76,1.76,0,0,1,1.92-1.84h.61a1.74,1.74,0,0,1,1.93,1.71v.47a.25.25,0,0,1-.12.24l-.51.43a.44.44,0,0,1-.3.1Zm0-.89h2.38v-.22c0-.65-.44-.95-1-.95H288c-.62,0-1.05.3-1.05.94Z" style="fill:#231f20"/><path d="M299.52,22.36a2.16,2.16,0,0,1-2.3,2.27h-.92a2.16,2.16,0,0,1-2.3-2.27V19.74a2.17,2.17,0,0,1,2.3-2.27h.92a2.17,2.17,0,0,1,2.3,2.27Zm-1.1-2.62a1.24,1.24,0,0,0-1.31-1.33h-.7a1.24,1.24,0,0,0-1.31,1.33v2.62a1.25,1.25,0,0,0,1.31,1.34h.7a1.25,1.25,0,0,0,1.31-1.34Z" style="fill:#231f20"/><path d="M308.73,24.38a.12.12,0,0,1-.12.11h-.8a.12.12,0,0,1-.12-.11V20.61h-2.2v3.77a.11.11,0,0,1-.11.11h-.82a.11.11,0,0,1-.11-.11V20.61h-2.07v3.77a.11.11,0,0,1-.11.11h-.82a.11.11,0,0,1-.11-.11V20.63l-1-.22a.13.13,0,0,1-.11-.12v-.57a.11.11,0,0,1,.11-.11h1v-.8a1.32,1.32,0,0,1,1.46-1.43h.91a.11.11,0,0,1,.11.11v.66a.11.11,0,0,1-.11.11h-.82a.5.5,0,0,0-.51.55v.8h2.07v-.85a1.32,1.32,0,0,1,1.46-1.43h1.71c.72,0,1.22.34,1.22,1v.42a.12.12,0,0,1-.12.12h-1a.12.12,0,0,1-.13-.12v-.19a.29.29,0,0,0-.33-.3H306a.5.5,0,0,0-.5.55v.85h3.12a.12.12,0,0,1,.12.11Z" style="fill:#231f20"/><path d="M314.24,21.2a.11.11,0,0,1-.11.12h-.82a.11.11,0,0,1-.11-.12v-.07c0-.48-.47-.74-.95-.74H312c-.62,0-1,.3-1,.94v1.33a.91.91,0,0,0,1,.94h2a.13.13,0,0,1,.11.13v.65a.11.11,0,0,1-.11.11h-2.17a1.76,1.76,0,0,1-1.93-1.83V21.34a1.77,1.77,0,0,1,1.93-1.84h.55a1.68,1.68,0,0,1,1.83,1.63Z" style="fill:#231f20"/><path d="M316.08,22.45v.21a.91.91,0,0,0,1,.94h2.07a.13.13,0,0,1,.11.13v.65a.11.11,0,0,1-.11.11H317A1.76,1.76,0,0,1,315,22.66V21.34A1.77,1.77,0,0,1,317,19.5h.6a1.74,1.74,0,0,1,1.93,1.71v.47a.27.27,0,0,1-.11.24l-.52.43a.44.44,0,0,1-.3.1Zm0-.89h2.38v-.22c0-.65-.43-.95-1-.95h-.28c-.62,0-1.05.3-1.05.94Z" style="fill:#231f20"/></svg>