<svg id="e6f23192-904f-4ab5-94f9-74c1c5c7926d" data-name="Layer 1" xmlns="http://www.w3.org/2000/svg" viewBox="0 0 270 150.53"><title>ff06-scifi</title><rect x="72.52" y="22.5" width="63.33" height="15" style="fill:#5ca2d8"/><rect x="72.52" y="38.5" width="63.33" height="15" style="fill:#5ca2d8;opacity:0.9500000000000001"/><rect x="72.52" y="54.5" width="63.33" height="15" style="fill:#5ca2d8;opacity:0.8"/><rect x="72.52" y="70.12" width="63.33" height="16.38" style="fill:#eb6e62;opacity:0.5"/><rect x="72.52" y="87.5" width="63.33" height="15" style="fill:#eb6e62;opacity:0.9500000000000001"/><path d="M220.13,28.49a1.55,1.55,0,0,1,1.75-1.56h.33a1.54,1.54,0,0,1,1.67,1.56v2.37a1.57,1.57,0,0,1-1.73,1.64h-1.66a.1.1,0,0,1-.09-.1v-.56a.09.09,0,0,1,.09-.08H222a.86.86,0,0,0,1-1v-1l-.27.31a1.35,1.35,0,0,1-1.1.54h-.26a1.24,1.24,0,0,1-1.25-1.38Zm.87.76c0,.4.2.68.55.68h.17a1,1,0,0,0,.73-.4l.56-.62v-.42a.8.8,0,0,0-.86-.81h-.23c-.55,0-.92.29-.92.81Z" style="fill:#231f20"/><path d="M229,31.12a1.46,1.46,0,0,1-1.63,1.46h-.78A1.46,1.46,0,0,1,225,31.12v-.29a1.23,1.23,0,0,1,.85-1.18,1.13,1.13,0,0,1-.69-1.08v-.19c0-1,.73-1.44,1.67-1.44h.38c.94,0,1.67.48,1.67,1.44v.19a1.12,1.12,0,0,1-.69,1.08,1.23,1.23,0,0,1,.85,1.18Zm-.87-.29a.79.79,0,0,0-.89-.78h-.52a.78.78,0,0,0-.88.78v.25a.74.74,0,0,0,.84.76h.6a.75.75,0,0,0,.85-.76ZM228,28.41c0-.49-.38-.72-.89-.72h-.2c-.5,0-.89.23-.89.72v.18a.74.74,0,0,0,.84.72h.3a.74.74,0,0,0,.84-.72Z" style="fill:#231f20"/><path d="M233.43,28.8a1.27,1.27,0,0,1-1.31,1.29h-.51a1.26,1.26,0,0,1-1.3-1.29v-.69a1.26,1.26,0,0,1,1.3-1.29h.51a1.26,1.26,0,0,1,1.31,1.28Zm-.84-.59c0-.41-.22-.71-.6-.71h-.24c-.4,0-.61.29-.61.71v.49c0,.43.17.71.61.71H232c.39,0,.6-.3.6-.71Zm1.35,4.61s0,.1-.09.1h-.77c-.05,0-.08,0-.08-.06s.06-.22.08-.33l1.51-6.07c0-.05,0-.09.09-.09h.78s.07,0,.07.05-.06.23-.09.36Zm4.28-1.57a1.27,1.27,0,0,1-1.3,1.3h-.51a1.28,1.28,0,0,1-1.31-1.3v-.68a1.28,1.28,0,0,1,1.31-1.3h.51a1.26,1.26,0,0,1,1.3,1.29Zm-.83-.59c0-.41-.22-.7-.61-.7h-.24c-.39,0-.6.29-.6.7v.5c0,.42.17.7.6.7h.24c.4,0,.61-.3.61-.7Z" style="fill:#231f20"/><path d="M219.9,47.59a.09.09,0,0,1,.09-.09h1.56a.85.85,0,0,0,.95-1V46l-.22.28a1.23,1.23,0,0,1-1,.49H221c-.87,0-1.35-.58-1.35-1.5v-.61a1.66,1.66,0,0,1,1.79-1.71h.6a1.52,1.52,0,0,1,1.61,1.67v2a1.81,1.81,0,0,1-1.94,2H220a.09.09,0,0,1-.09-.09Zm.92-2.42a.49.49,0,0,0,.49.55h.13c.26,0,.45-.23.67-.47l.39-.45v-.33a.54.54,0,0,0-.57-.57h-.36a.72.72,0,0,0-.75.71Z" style="fill:#231f20"/><path d="M226.73,47.5c.48,0,.83-.25.83-.64V46.6a.61.61,0,0,0-.67-.63h-.24a.66.66,0,0,0-.53.25l-.12.12s-.05,0-.07,0l-.05,0-.95-.59a.19.19,0,0,1-.11-.17v-2.5a.09.09,0,0,1,.1-.1h3.38a.1.1,0,0,1,.09.1v.82a.09.09,0,0,1-.09.08h-2.25c-.05,0-.06,0-.06.07v1.3a1.13,1.13,0,0,1,.81-.41h.37a1.5,1.5,0,0,1,1.55,1.59v.24c0,1.05-.73,1.7-1.95,1.7h-1.86a.09.09,0,0,1-.09-.09v-.82a.09.09,0,0,1,.09-.09Z" style="fill:#231f20"/><path d="M233.28,44.69a1.38,1.38,0,0,1-1.53,1.45h-.52a1.38,1.38,0,0,1-1.53-1.45v-.45a1.41,1.41,0,0,1,1.53-1.46h.52a1.41,1.41,0,0,1,1.53,1.46Zm-1.1-.46a.48.48,0,0,0-.52-.5h-.34a.47.47,0,0,0-.51.5v.46a.47.47,0,0,0,.51.51h.34a.48.48,0,0,0,.52-.51Zm1.83,4.6c0,.05,0,.09-.09.09h-1a.06.06,0,0,1-.06-.06.31.31,0,0,1,0-.09l1.56-6.31c0-.05.05-.09.1-.09h1s.07,0,.07.06a.15.15,0,0,1,0,.06Zm4.72-1.7a1.38,1.38,0,0,1-1.53,1.46h-.52a1.38,1.38,0,0,1-1.52-1.46v-.45a1.4,1.4,0,0,1,1.52-1.45h.52a1.4,1.4,0,0,1,1.53,1.45Zm-1.1-.45a.48.48,0,0,0-.51-.51h-.35a.47.47,0,0,0-.51.51v.45a.47.47,0,0,0,.51.51h.35a.47.47,0,0,0,.51-.51Z" style="fill:#231f20"/><path d="M224.13,63.12a1.46,1.46,0,0,1-1.63,1.46h-.77a1.46,1.46,0,0,1-1.63-1.46v-.29a1.24,1.24,0,0,1,.84-1.18,1.12,1.12,0,0,1-.68-1.08v-.19c0-1,.72-1.44,1.67-1.44h.37c.95,0,1.67.48,1.67,1.44v.19a1.12,1.12,0,0,1-.68,1.08,1.24,1.24,0,0,1,.84,1.18Zm-.87-.29a.79.79,0,0,0-.89-.78h-.52a.78.78,0,0,0-.88.78v.25a.74.74,0,0,0,.84.76h.6a.75.75,0,0,0,.85-.76Zm-.16-2.42c0-.49-.38-.72-.89-.72H222c-.5,0-.88.23-.88.72v.18c0,.46.36.72.84.72h.29a.74.74,0,0,0,.84-.72Z" style="fill:#231f20"/><path d="M229.24,62.81a1.71,1.71,0,0,1-1.83,1.8H227a1.71,1.71,0,0,1-1.82-1.8V60.73a1.71,1.71,0,0,1,1.82-1.8h.41a1.72,1.72,0,0,1,1.83,1.8Zm-.87-2.08a1,1,0,0,0-1-1h-.24a1,1,0,0,0-1,1v2.08a1,1,0,0,0,1,1.06h.24a1,1,0,0,0,1-1.06Z" style="fill:#231f20"/><path d="M233.62,60.8a1.26,1.26,0,0,1-1.3,1.29h-.51a1.27,1.27,0,0,1-1.31-1.29v-.69a1.27,1.27,0,0,1,1.31-1.29h.51a1.26,1.26,0,0,1,1.3,1.28Zm-.83-.59c0-.41-.22-.71-.61-.71h-.24c-.39,0-.61.29-.61.71v.49c0,.43.18.71.61.71h.24c.39,0,.61-.3.61-.71Zm1.34,4.61c0,.05,0,.1-.08.1h-.77c-.05,0-.08,0-.08-.06s.05-.22.08-.33l1.51-6.07c0-.05,0-.09.09-.09h.78s.06,0,.06.05-.05.23-.08.36Zm4.29-1.57a1.27,1.27,0,0,1-1.3,1.3h-.52a1.27,1.27,0,0,1-1.3-1.3v-.68a1.27,1.27,0,0,1,1.3-1.3h.52a1.27,1.27,0,0,1,1.3,1.29Zm-.83-.59A.62.62,0,0,0,237,62h-.24c-.39,0-.61.29-.61.7v.5c0,.42.18.7.61.7H237a.62.62,0,0,0,.61-.7Z" style="fill:#231f20"/><path d="M223.28,80.76c.55,0,1-.29,1-.84v-.38a.69.69,0,0,0-.67-.76h-.28a.77.77,0,0,0-.6.3l-.19.18a.12.12,0,0,1-.08,0h0l-.8-.48a.2.2,0,0,1-.11-.18V76.12a.09.09,0,0,1,.1-.1h3.17a.1.1,0,0,1,.08.1v.56a.09.09,0,0,1-.08.09h-2.33c-.06,0-.06,0-.06.06v1.66l.17-.17a1,1,0,0,1,.69-.28h.42a1.34,1.34,0,0,1,1.48,1.47v.4a1.59,1.59,0,0,1-1.78,1.59h-1.77a.09.09,0,0,1-.09-.09v-.56a.09.09,0,0,1,.09-.09Z" style="fill:#231f20"/><path d="M228.29,81.41a.1.1,0,0,1-.1.09h-2.33a.1.1,0,0,1-.1-.09v-.57a.1.1,0,0,1,.1-.08h.73v-4h-.74a.09.09,0,0,1-.09-.09v-.56a.1.1,0,0,1,.09-.1h1.52a.11.11,0,0,1,.1.1v4.64h.72a.1.1,0,0,1,.1.08Z" style="fill:#231f20"/><path d="M232.27,77.8a1.26,1.26,0,0,1-1.3,1.29h-.51a1.27,1.27,0,0,1-1.31-1.29v-.69a1.27,1.27,0,0,1,1.31-1.29H231a1.26,1.26,0,0,1,1.3,1.28Zm-.83-.59c0-.41-.22-.71-.61-.71h-.24c-.39,0-.6.29-.6.71v.49c0,.43.17.71.6.71h.24c.4,0,.61-.3.61-.71Zm1.35,4.61c0,.05,0,.1-.09.1h-.77c-.05,0-.08,0-.08-.06s.06-.22.08-.33l1.51-6.07s0-.09.09-.09h.78s.07,0,.07,0-.06.23-.09.36Zm4.28-1.57a1.27,1.27,0,0,1-1.3,1.3h-.51a1.28,1.28,0,0,1-1.31-1.3v-.68a1.28,1.28,0,0,1,1.31-1.3h.51a1.26,1.26,0,0,1,1.3,1.29Zm-.83-.59a.62.62,0,0,0-.61-.7h-.24c-.39,0-.61.29-.61.7v.5c0,.42.18.7.61.7h.24a.62.62,0,0,0,.61-.7Z" style="fill:#231f20"/><path d="M223.73,98.41a.09.09,0,0,1-.09.09H221.3a.1.1,0,0,1-.09-.09v-.57a.1.1,0,0,1,.09-.08H222v-4h-.73a.09.09,0,0,1-.09-.09v-.56a.1.1,0,0,1,.09-.1h1.51a.1.1,0,0,1,.1.1v4.64h.73a.09.09,0,0,1,.09.08Z" style="fill:#231f20"/><path d="M226,93c1,0,1.72.43,1.72,1.41v.07a1.11,1.11,0,0,1-.66,1.07,1.22,1.22,0,0,1,.78,1.19V97c0,1-.71,1.53-1.8,1.53H224.3a.09.09,0,0,1-.08-.09v-.56a.09.09,0,0,1,.08-.09h1.62c.58,0,1-.27,1-.76v-.26c0-.46-.28-.75-.85-.75h-.6a.09.09,0,0,1-.09-.09v-.54a.1.1,0,0,1,.09-.1h.6a.65.65,0,0,0,.73-.69v-.11c0-.45-.33-.69-.84-.69h-1.59a.09.09,0,0,1-.08-.09v-.56a.1.1,0,0,1,.08-.1Z" style="fill:#231f20"/><path d="M232.11,94.8a1.26,1.26,0,0,1-1.3,1.29h-.51A1.27,1.27,0,0,1,229,94.8v-.69a1.27,1.27,0,0,1,1.31-1.29h.51a1.26,1.26,0,0,1,1.3,1.28Zm-.83-.59a.63.63,0,0,0-.61-.71h-.24c-.39,0-.61.29-.61.71v.49c0,.43.18.71.61.71h.24c.39,0,.61-.3.61-.71Zm1.34,4.61c0,.05,0,.1-.09.1h-.76c-.05,0-.08,0-.08-.06s.05-.22.08-.33l1.51-6.07s0-.09.09-.09h.78s.06,0,.06,0-.05.23-.08.36Zm4.29-1.57a1.28,1.28,0,0,1-1.31,1.3h-.51a1.27,1.27,0,0,1-1.3-1.3v-.68a1.27,1.27,0,0,1,1.3-1.3h.51a1.27,1.27,0,0,1,1.31,1.29Zm-.83-.59a.62.62,0,0,0-.61-.7h-.24c-.39,0-.61.29-.61.7v.5c0,.42.18.7.61.7h.24a.62.62,0,0,0,.61-.7Z" style="fill:#231f20"/><line x1="12.9" y1="37.5" x2="259.3" y2="37.5" style="fill:none;stroke:#000;stroke-miterlimit:10;stroke-width:2px"/><line x1="12.4" y1="54" x2="259.3" y2="53.5" style="fill:none;stroke:#000;stroke-miterlimit:10;stroke-width:2px"/><line x1="12.4" y1="70.5" x2="259.3" y2="69.5" style="fill:none;stroke:#000;stroke-miterlimit:10;stroke-width:2px"/><line x1="12.4" y1="87" x2="259.3" y2="87" style="fill:none;stroke:#000;stroke-miterlimit:10;stroke-width:2px"/><path d="M31.21,48.75a.09.09,0,0,1-.08.08H29A1.81,1.81,0,0,1,27,46.88V45.3A1.81,1.81,0,0,1,29,43.36h2.17a.09.09,0,0,1,.09.09v1.76a.09.09,0,0,1-.08.09h-1a.09.09,0,0,1-.09-.09v-.85h-.93a.85.85,0,0,0-.95,1v1.57a.85.85,0,0,0,.95.95h2a.09.09,0,0,1,.08.09Z" style="fill:#231f20"/><path d="M32.14,45.05a.09.09,0,0,1,.09-.09h.91a.1.1,0,0,1,.1.09v2.66a.27.27,0,0,0,.27.3h.06c.16,0,.3-.17.47-.42l.7-1.06V45.05a.09.09,0,0,1,.09-.09h.93a.1.1,0,0,1,.09.09v3.7a.1.1,0,0,1-.09.08h-.93a.09.09,0,0,1-.09-.08v-.88l-.22.4a1.17,1.17,0,0,1-1.14.68h-.11c-.69,0-1.13-.4-1.13-1.24Z" style="fill:#231f20"/><path d="M39.33,44.84a1.25,1.25,0,0,1,1,.51s0,0,0,0a.08.08,0,0,1,0,.07l-.72.63-.08,0a.15.15,0,0,1-.1-.06c-.13-.12-.22-.21-.34-.21H39c-.16,0-.3.16-.43.35l-.49.65v1.88a.09.09,0,0,1-.09.08h-.93a.09.09,0,0,1-.08-.08v-3.7a.09.09,0,0,1,.08-.09h.54a.16.16,0,0,1,.14.08l.24.73.27-.38a1.15,1.15,0,0,1,1-.55Z" style="fill:#231f20"/><path d="M43.17,44.84a1.25,1.25,0,0,1,1,.51.2.2,0,0,1,0,0,.08.08,0,0,1,0,.07l-.73.63s0,0-.08,0-.06,0-.09-.06-.22-.21-.35-.21h0c-.16,0-.3.16-.43.35l-.49.65v1.88a.09.09,0,0,1-.09.08H40.9a.09.09,0,0,1-.09-.08v-3.7A.09.09,0,0,1,40.9,45h.54c.06,0,.13,0,.13.08l.25.73.27-.38a1.14,1.14,0,0,1,1-.55Z" style="fill:#231f20"/><path d="M45.34,47.31a.6.6,0,0,0,.64.58h1.77a.1.1,0,0,1,.09.1v.76a.09.09,0,0,1-.09.08H46a1.53,1.53,0,0,1-1.69-1.61v-.76A1.53,1.53,0,0,1,46,44.84h.44a1.5,1.5,0,0,1,1.67,1.48v.11a.21.21,0,0,1-.09.19l-.69.58a.38.38,0,0,1-.24.11ZM46,45.79a.6.6,0,0,0-.66.62H47a.57.57,0,0,0-.62-.62Z" style="fill:#231f20"/><path d="M52.67,48.75a.1.1,0,0,1-.1.08h-.91a.09.09,0,0,1-.09-.08V46.08a.27.27,0,0,0-.28-.29h0c-.17,0-.32.16-.54.4L50,47v1.8a.09.09,0,0,1-.09.08H49a.09.09,0,0,1-.09-.08v-3.7A.09.09,0,0,1,49,45h.93a.09.09,0,0,1,.09.09v.75l.22-.3a1.32,1.32,0,0,1,1.19-.66h.11c.69,0,1.14.4,1.14,1.24Z" style="fill:#231f20"/><path d="M56.21,48.75a.09.09,0,0,1-.08.08h-.8a1.1,1.1,0,0,1-1.21-1.2V46l-.84-.19a.11.11,0,0,1-.09-.09v-.62a.09.09,0,0,1,.09-.09h.84v-.39a.17.17,0,0,1,.09-.17L55,44a.14.14,0,0,1,.09,0,.11.11,0,0,1,.12.11V45h.92a.1.1,0,0,1,.1.09v.81a.1.1,0,0,1-.1.09h-.92v1.58a.32.32,0,0,0,.35.36h.56a.09.09,0,0,1,.08.09Z" style="fill:#231f20"/><path d="M39.1,32.75a.09.09,0,0,1-.09.08H36.67a.1.1,0,0,1-.09-.08v-.57a.1.1,0,0,1,.09-.09h.73v-4h-.73a.09.09,0,0,1-.09-.09v-.56a.09.09,0,0,1,.09-.09h1.51a.09.09,0,0,1,.1.09v4.64H39a.09.09,0,0,1,.09.09Z" style="fill:#231f20"/><path d="M41.35,27.36c1,0,1.71.42,1.71,1.4v.07a1.12,1.12,0,0,1-.66,1.08,1.2,1.2,0,0,1,.78,1.18v.22c0,.94-.71,1.52-1.79,1.52H39.67a.09.09,0,0,1-.08-.08v-.56a.1.1,0,0,1,.08-.1h1.62c.58,0,1-.26,1-.76v-.26c0-.46-.28-.75-.85-.75h-.6a.09.09,0,0,1-.09-.09v-.54a.1.1,0,0,1,.09-.1h.6a.65.65,0,0,0,.73-.68v-.12c0-.44-.33-.69-.83-.69h-1.6a.09.09,0,0,1-.08-.09v-.56a.09.09,0,0,1,.08-.09Z" style="fill:#231f20"/><path d="M46.35,32.75a.1.1,0,0,1-.1.08H43.91a.1.1,0,0,1-.09-.08v-.57a.1.1,0,0,1,.09-.09h.73v-4h-.73a.09.09,0,0,1-.09-.09v-.56a.09.09,0,0,1,.09-.09h1.52a.09.09,0,0,1,.09.09v4.64h.73a.1.1,0,0,1,.1.09Z" style="fill:#231f20"/><path d="M38.41,65.41a.09.09,0,0,1-.09.09H36a.09.09,0,0,1-.09-.09v-.57a.09.09,0,0,1,.09-.08h.73v-4H36a.09.09,0,0,1-.08-.09v-.56A.1.1,0,0,1,36,60h1.52a.1.1,0,0,1,.1.1v4.64h.73a.09.09,0,0,1,.09.08Z" style="fill:#231f20"/><path d="M40.65,60c1,0,1.71.43,1.71,1.41v.07a1.1,1.1,0,0,1-.65,1.07,1.21,1.21,0,0,1,.77,1.19V64c0,1-.7,1.53-1.79,1.53H39a.09.09,0,0,1-.09-.09v-.56a.09.09,0,0,1,.09-.09H40.6c.58,0,1-.27,1-.76v-.26c0-.46-.28-.75-.85-.75h-.6a.09.09,0,0,1-.09-.09v-.54a.1.1,0,0,1,.09-.1h.6a.65.65,0,0,0,.73-.69v-.11c0-.45-.33-.69-.84-.69H39.06a.09.09,0,0,1-.09-.09v-.56a.1.1,0,0,1,.09-.1Z" style="fill:#231f20"/><path d="M44.89,60c1,0,1.71.43,1.71,1.41v.07a1.11,1.11,0,0,1-.66,1.07,1.22,1.22,0,0,1,.78,1.19V64c0,1-.71,1.53-1.79,1.53H43.22a.09.09,0,0,1-.09-.09v-.56a.09.09,0,0,1,.09-.09h1.61c.58,0,1-.27,1-.76v-.26c0-.46-.28-.75-.86-.75h-.6a.09.09,0,0,1-.09-.09v-.54a.1.1,0,0,1,.09-.1H45a.65.65,0,0,0,.73-.69v-.11c0-.45-.33-.69-.83-.69h-1.6a.09.09,0,0,1-.08-.09v-.56a.1.1,0,0,1,.08-.1Z" style="fill:#231f20"/><path d="M37.94,81.41a.1.1,0,0,1-.1.09H35.51a.1.1,0,0,1-.1-.09v-.57a.1.1,0,0,1,.1-.08h.72v-4H35.5a.09.09,0,0,1-.09-.09v-.56a.1.1,0,0,1,.09-.1H37a.1.1,0,0,1,.09.1v4.64h.73a.1.1,0,0,1,.1.08Z" style="fill:#231f20"/><path d="M40.18,76c1,0,1.71.43,1.71,1.41v.07a1.11,1.11,0,0,1-.66,1.07A1.22,1.22,0,0,1,42,79.76V80c0,1-.71,1.53-1.79,1.53H38.51a.09.09,0,0,1-.09-.09v-.56a.09.09,0,0,1,.09-.09h1.61c.59,0,1-.27,1-.76v-.26c0-.46-.28-.75-.86-.75h-.6a.09.09,0,0,1-.09-.09v-.54a.1.1,0,0,1,.09-.1h.6a.66.66,0,0,0,.74-.69v-.11c0-.45-.34-.69-.84-.69H38.59a.09.09,0,0,1-.09-.09v-.56a.1.1,0,0,1,.09-.1Z" style="fill:#231f20"/><path d="M47.11,79.81a1.71,1.71,0,0,1-1.82,1.8h-.42a1.71,1.71,0,0,1-1.82-1.8V77.73a1.72,1.72,0,0,1,1.82-1.8h.42a1.72,1.72,0,0,1,1.82,1.8Zm-.87-2.08a1,1,0,0,0-1-1H45a1,1,0,0,0-1,1v2.08a1,1,0,0,0,1,1.06h.24a1,1,0,0,0,1-1.06Z" style="fill:#231f20"/><path d="M38.22,97.41a.1.1,0,0,1-.09.09H35.79a.09.09,0,0,1-.09-.09v-.57a.09.09,0,0,1,.09-.08h.73v-4h-.74a.09.09,0,0,1-.08-.09v-.56a.1.1,0,0,1,.08-.1H37.3a.1.1,0,0,1,.1.1v4.64h.73a.1.1,0,0,1,.09.08Z" style="fill:#231f20"/><path d="M40.46,92c1,0,1.71.43,1.71,1.41v.07a1.1,1.1,0,0,1-.65,1.07,1.21,1.21,0,0,1,.77,1.19V96c0,1-.7,1.53-1.79,1.53H38.79a.09.09,0,0,1-.09-.09v-.56a.09.09,0,0,1,.09-.09h1.62c.58,0,1-.27,1-.76v-.26c0-.46-.28-.75-.85-.75H40a.09.09,0,0,1-.09-.09v-.54a.1.1,0,0,1,.09-.1h.6a.65.65,0,0,0,.73-.69v-.11c0-.45-.33-.69-.84-.69H38.87a.09.09,0,0,1-.09-.09v-.56a.1.1,0,0,1,.09-.1Z" style="fill:#231f20"/><path d="M45.25,92C46.4,92,47,92.5,47,93.45v.15c0,.77-.5,1.24-1.3,1.5l-1,.35a.83.83,0,0,0-.63.93v.38h2.85a.1.1,0,0,1,.1.08v.57a.1.1,0,0,1-.1.09H43.37c-.16,0-.19-.14-.19-.25v-.88c0-1.2.56-1.51,1.64-1.83.67-.2,1.3-.41,1.3-1v-.13c0-.49-.33-.68-.94-.68h-1.6a.09.09,0,0,1-.08-.09v-.56a.1.1,0,0,1,.08-.1Z" style="fill:#231f20"/><line x1="12.9" y1="22.5" x2="259.3" y2="22.5" style="fill:none;stroke:#000;stroke-miterlimit:10;stroke-width:2px"/><line x1="12.9" y1="103.5" x2="259.3" y2="103.5" style="fill:none;stroke:#000;stroke-miterlimit:10;stroke-width:2px"/><path d="M28.85,15.15c0,.07-.05.08-.1.08H28s-.06,0-.06-.08V10.41a9.27,9.27,0,0,1-.42,1.11l-.84,1.8c0,.06-.05.09-.1.09h-1s-.06,0-.08-.09L25,11.61a10,10,0,0,1-.26-1.2l-1.09,4.74a.11.11,0,0,1-.09.08h-.76a.08.08,0,0,1-.08-.07.51.51,0,0,1,0-.09l1.28-5.22a.11.11,0,0,1,.1-.09h1.1c.06,0,.08,0,.1.09l.82,2.92,1.29-2.92s0-.09.09-.09h1.1a.09.09,0,0,1,.09.09Z" style="fill:#231f20"/><path d="M31.07,15.15a.1.1,0,0,1-.1.08h-.64a.08.08,0,0,1-.09-.08l.31-3L29.73,12a.09.09,0,0,1-.08-.1l0-.4a.11.11,0,0,1,.1-.09h1.58a.09.09,0,0,1,.09.09Zm.59-4.82a.12.12,0,0,1-.1.1h-.81a.09.09,0,0,1-.08-.1l.08-.76a.1.1,0,0,1,.1-.09h.81a.09.09,0,0,1,.08.09Z" style="fill:#231f20"/><path d="M35.41,12a.1.1,0,0,1-.1.09H33.63c-.27,0-.48.09-.5.34v.05c0,.2.16.29.37.35s.53.11.84.18c.6.12,1.06.39,1.06.95,0,.06,0,.11,0,.27-.08.69-.61,1-1.45,1H32.15a.09.09,0,0,1-.08-.08l.06-.53a.11.11,0,0,1,.1-.09h1.83c.29,0,.49-.15.49-.42s-.22-.35-.56-.4-.54-.11-.81-.17a1,1,0,0,1-.88-1s0,0,0-.18c0-.64.53-1,1.36-1h1.71a.09.09,0,0,1,.08.08Z" style="fill:#231f20"/><path d="M39.06,12a.08.08,0,0,1-.09.09H37.28c-.26,0-.47.09-.49.34v.05c0,.2.16.29.36.35s.53.11.84.18c.61.12,1.07.39,1.07.95a2.57,2.57,0,0,1,0,.27c-.08.69-.6,1-1.44,1H35.81a.09.09,0,0,1-.08-.08l.06-.53a.09.09,0,0,1,.09-.09h1.83c.29,0,.5-.15.5-.42s-.22-.35-.56-.4l-.82-.17a1,1,0,0,1-.88-1s0,0,0-.18c0-.64.54-1,1.37-1H39a.09.09,0,0,1,.08.08Z" style="fill:#231f20"/><path d="M41,15.15a.1.1,0,0,1-.1.08h-.64a.08.08,0,0,1-.09-.08l.31-3L39.61,12a.09.09,0,0,1-.08-.1l0-.4a.11.11,0,0,1,.1-.09h1.58a.09.09,0,0,1,.09.09Zm.59-4.82a.12.12,0,0,1-.1.1h-.81a.09.09,0,0,1-.08-.1l.08-.76a.1.1,0,0,1,.1-.09h.81a.09.09,0,0,1,.08.09Z" style="fill:#231f20"/><path d="M45.79,13.59A1.71,1.71,0,0,1,44,15.31h-.48a1.2,1.2,0,0,1-1.36-1.25c0-.05,0-.15,0-.17l.08-.88A1.71,1.71,0,0,1,44,11.28h.48a1.21,1.21,0,0,1,1.36,1.26,1.31,1.31,0,0,1,0,.17Zm-.74-.89a.83.83,0,0,0,0-.12c0-.42-.24-.59-.68-.59h-.29a1,1,0,0,0-1,1L43,13.9A.72.72,0,0,0,43,14c0,.4.22.58.68.58H44a1,1,0,0,0,1-1Z" style="fill:#231f20"/><path d="M50.26,15.15a.12.12,0,0,1-.11.08h-.63a.09.09,0,0,1-.09-.08l.27-2.56s0-.23,0-.3-.08-.31-.25-.31H49.4c-.27,0-.48.26-.85.75l-.92,1.17-.12,1.25a.11.11,0,0,1-.1.08h-.66a.08.08,0,0,1-.08-.07l.39-3.71a.11.11,0,0,1,.09-.09h.66a.08.08,0,0,1,.08.09l-.14,1.38.51-.76c.33-.51.58-.79,1.16-.79h.23a.83.83,0,0,1,.9.92,1.18,1.18,0,0,1,0,.16Z" style="fill:#231f20"/><path d="M54.3,15.15a.11.11,0,0,1-.1.08h-.69c-.07,0-.08,0-.08-.08L54,9.85s0-.09.09-.09h.7a.09.09,0,0,1,.08.09Z" style="fill:#231f20"/><path d="M60.19,13.13a2.12,2.12,0,0,1-2.29,2.1H55.72a.07.07,0,0,1-.08-.08l.55-5.3a.11.11,0,0,1,.1-.09h2.49a1.43,1.43,0,0,1,1.58,1.5,1.94,1.94,0,0,1,0,.22Zm-.71-1.65a1.1,1.1,0,0,0,0-.16c0-.52-.31-.82-.91-.82H57l-.42,4H58c.8,0,1.26-.51,1.35-1.38Z" style="fill:#231f20"/><path d="M208.72,10.41a.11.11,0,0,1-.1.09h-2c-.45,0-.78.14-.86.51,0,0,0,.22,0,.27,0,.38.36.54.87.68l1,.29c.7.21,1.09.56,1.09,1.22a2,2,0,0,1,0,.23l0,.34c-.09.79-.76,1.19-1.75,1.19h-2.17c-.06,0-.07,0-.07-.08l0-.56a.12.12,0,0,1,.1-.1h2c.57,0,1-.14,1-.53,0-.05,0-.29,0-.34,0-.35-.28-.5-.74-.63l-1-.3a1.36,1.36,0,0,1-1.16-1.33,2,2,0,0,1,0-.23l0-.19c.11-.87.76-1.18,1.84-1.18h1.89a.09.09,0,0,1,.08.09Z" style="fill:#231f20"/><path d="M212.29,14l-.35.6a1.17,1.17,0,0,1-1.2.69h-.27a.83.83,0,0,1-.9-.92c0-.05,0-.16,0-.17l.28-2.78a.12.12,0,0,1,.11-.09h.63a.09.09,0,0,1,.09.09s-.3,2.77-.3,2.86.07.31.26.31h.1c.43,0,.62-.26,1-.76l.69-1,.16-1.41a.09.09,0,0,1,.09-.09h.66a.09.09,0,0,1,.08.09l-.39,3.7a.09.09,0,0,1-.09.08h-.66a.07.07,0,0,1-.08-.08Z" style="fill:#231f20"/><path d="M217.62,12.53a.11.11,0,0,1-.09.09h-.65a.07.07,0,0,1-.08-.07,1.08,1.08,0,0,0,0-.16c0-.31-.28-.41-.67-.41h-.06q-.9,0-1,1l-.08.87s0,.08,0,.13c0,.4.22.53.68.53h1.52a.08.08,0,0,1,.07.08s0,0-.05.54a.11.11,0,0,1-.09.08h-1.59A1.2,1.2,0,0,1,214.18,14v-.18l.08-.82A1.69,1.69,0,0,1,216,11.28h.24c.81,0,1.37.38,1.37,1.05A1.36,1.36,0,0,1,217.62,12.53Z" style="fill:#231f20"/><path d="M221.41,12.53a.09.09,0,0,1-.09.09h-.65a.07.07,0,0,1-.08-.07,1.08,1.08,0,0,0,0-.16c0-.31-.27-.41-.67-.41h-.06q-.9,0-1,1l-.08.87s0,.08,0,.13c0,.4.22.53.68.53H221a.08.08,0,0,1,.07.08s0,0-.05.54a.09.09,0,0,1-.09.08h-1.59A1.2,1.2,0,0,1,218,14v-.18l.08-.82a1.69,1.69,0,0,1,1.77-1.71h.24c.81,0,1.37.38,1.37,1.05A1.36,1.36,0,0,1,221.41,12.53Z" style="fill:#231f20"/><path d="M222.9,14V14c0,.39.22.52.68.52h1.68a.08.08,0,0,1,.07.08v0l0,.52a.11.11,0,0,1-.1.08h-1.75A1.2,1.2,0,0,1,222.08,14c0-.06,0-.15,0-.17l.07-.81a1.7,1.7,0,0,1,1.78-1.72h.56c.77,0,1.23.32,1.23.91a2.42,2.42,0,0,1,0,.28c-.07.72-.59.9-1.24,1.07Zm.07-.69,1.12-.33c.45-.13.76-.22.78-.54v-.12a.31.31,0,0,0-.35-.29H224q-.9,0-1,1Z" style="fill:#231f20"/><path d="M229.44,12a.1.1,0,0,1-.1.09h-1.69c-.26,0-.47.09-.49.34v.05c0,.2.16.29.37.35s.52.11.84.18c.6.12,1.06.39,1.06.95,0,.06,0,.11,0,.27-.08.69-.61,1-1.45,1h-1.78a.09.09,0,0,1-.08-.08l.06-.53a.11.11,0,0,1,.1-.09h1.83c.29,0,.49-.15.49-.42s-.22-.35-.56-.4-.54-.11-.81-.17a1,1,0,0,1-.88-1s0,0,0-.18c0-.64.53-1,1.36-1h1.71a.09.09,0,0,1,.08.08Z" style="fill:#231f20"/><path d="M233.09,12a.08.08,0,0,1-.09.09h-1.69c-.26,0-.47.09-.5.34v.05c0,.2.16.29.37.35s.53.11.84.18c.61.12,1.07.39,1.07.95a2.57,2.57,0,0,1,0,.27c-.08.69-.61,1-1.45,1h-1.77a.09.09,0,0,1-.08-.08s0-.18.05-.53a.11.11,0,0,1,.1-.09h1.83c.29,0,.5-.15.5-.42s-.23-.35-.56-.4l-.82-.17a1,1,0,0,1-.88-1s0,0,0-.18c0-.64.54-1,1.37-1h1.71a.09.09,0,0,1,.08.08Z" style="fill:#231f20"/><path d="M240.33,11.6a1.69,1.69,0,0,1-1.88,1.5h-1.59l-.21,2.05a.11.11,0,0,1-.1.08h-.69a.07.07,0,0,1-.08-.07h0l.55-5.3a.11.11,0,0,1,.09-.09h2.63c.81,0,1.35.36,1.35,1.08a.78.78,0,0,1,0,.13ZM239.5,11c0-.33-.24-.49-.62-.49h-1.74l-.2,1.85h1.37c.63,0,1.1-.22,1.14-.75C239.47,11.43,239.5,11.12,239.5,11Z" style="fill:#231f20"/><path d="M244.11,11.85a.08.08,0,0,1,0,.07l-.58.45s0,0-.07,0a.08.08,0,0,1-.07,0c-.12-.16-.17-.29-.33-.29H243c-.14,0-.24.12-.41.34l-.82,1-.17,1.7a.11.11,0,0,1-.1.08h-.66a.07.07,0,0,1-.08-.08l.39-3.7a.11.11,0,0,1,.1-.09h.65a.09.09,0,0,1,.08.09l-.09.94.45-.65a.91.91,0,0,1,.84-.46h.1a.87.87,0,0,1,.81.47A.19.19,0,0,1,244.11,11.85Z" style="fill:#231f20"/><path d="M244.93,14V14c0,.39.22.52.68.52h1.68a.09.09,0,0,1,.08.08v0l-.05.52a.11.11,0,0,1-.1.08h-1.75A1.2,1.2,0,0,1,244.11,14c0-.06,0-.15,0-.17l.07-.81A1.7,1.7,0,0,1,246,11.28h.56c.77,0,1.23.32,1.23.91a2.42,2.42,0,0,1,0,.28c-.07.72-.59.9-1.24,1.07Zm.07-.69,1.13-.33c.44-.13.75-.22.77-.54v-.12c0-.17-.14-.29-.35-.29H246c-.6,0-.92.34-1,1Z" style="fill:#231f20"/><path d="M251.74,15.15a.11.11,0,0,1-.1.08H251c-.06,0-.08,0-.08-.09l.11-1.05-.4.58a1.34,1.34,0,0,1-1.25.64h-.14a.93.93,0,0,1-1-1,.88.88,0,0,1,0-.14l.1-1.15a1.71,1.71,0,0,1,1.78-1.73h.08a2.09,2.09,0,0,1,1.08.32l.2-1.92a.11.11,0,0,1,.1-.08h.65a.07.07,0,0,1,.08.08ZM250.35,14l.78-1,.08-.82a1.62,1.62,0,0,0-.94-.27h-.1a1,1,0,0,0-1,1c0,.4-.1,1-.1,1.2a.36.36,0,0,0,.34.39h.06C249.85,14.61,250.09,14.36,250.35,14Z" style="fill:#231f20"/><path d="M253.94,15.15a.11.11,0,0,1-.1.08h-.76c-.07,0-.08,0-.08-.08l.07-.75a.12.12,0,0,1,.1-.09h.76a.08.08,0,0,1,.08.09Z" style="fill:#231f20"/><path d="M81.42,11.6a1.69,1.69,0,0,1-1.89,1.5H78l-.22,2.05a.11.11,0,0,1-.09.08h-.7a.07.07,0,0,1-.08-.07h0l.55-5.3a.11.11,0,0,1,.1-.09h2.62c.82,0,1.35.36,1.35,1.08a.78.78,0,0,1,0,.13ZM80.59,11c0-.33-.24-.49-.63-.49H78.22L78,12.35H79.4c.63,0,1.09-.22,1.14-.75C80.55,11.43,80.59,11.12,80.59,11Z" style="fill:#231f20"/><path d="M85.14,13.59a1.72,1.72,0,0,1-1.78,1.72h-.48a1.21,1.21,0,0,1-1.36-1.25c0-.05,0-.15,0-.17l.08-.88a1.72,1.72,0,0,1,1.78-1.73h.48a1.22,1.22,0,0,1,1.36,1.26,1.31,1.31,0,0,1,0,.17Zm-.75-.89a.83.83,0,0,0,0-.12c0-.42-.23-.59-.68-.59h-.28a1,1,0,0,0-1,1l-.08.89a.72.72,0,0,0,0,.13c0,.4.21.58.68.58h.29a1,1,0,0,0,1-1Z" style="fill:#231f20"/><path d="M88,15.15a.11.11,0,0,1-.1.08h-.61a.94.94,0,0,1-1.07-1,1,1,0,0,1,0-.16l.21-1.94L85.69,12a.11.11,0,0,1-.09-.09l.05-.47a.12.12,0,0,1,.11-.09h.79l0-.39a.17.17,0,0,1,.11-.17l.56-.35.08,0a.1.1,0,0,1,.11.11l-.09.82h1a.09.09,0,0,1,.09.09l-.07.62a.1.1,0,0,1-.1.09h-1c-.07.7-.21,1.86-.21,2a.33.33,0,0,0,.37.36H88a.08.08,0,0,1,.08.07Z" style="fill:#231f20"/><path d="M89.64,14V14c0,.39.21.52.68.52H92a.08.08,0,0,1,.07.08v0l0,.52a.11.11,0,0,1-.1.08H90.17A1.21,1.21,0,0,1,88.81,14c0-.06,0-.15,0-.17l.07-.81a1.7,1.7,0,0,1,1.78-1.72h.57c.76,0,1.22.32,1.22.91a2.42,2.42,0,0,1,0,.28c-.07.72-.59.9-1.23,1.07Zm.06-.69,1.13-.33c.44-.13.75-.22.77-.54v-.12c0-.17-.14-.29-.35-.29h-.54c-.6,0-.93.34-1,1Z" style="fill:#231f20"/><path d="M96.66,15.15a.12.12,0,0,1-.11.08h-.63a.08.08,0,0,1-.08-.08l.26-2.56s0-.23,0-.3S96,12,95.87,12H95.8c-.27,0-.48.26-.85.75L94,13.9l-.13,1.25a.11.11,0,0,1-.1.08h-.65a.07.07,0,0,1-.08-.07l.38-3.71a.11.11,0,0,1,.1-.09h.65a.08.08,0,0,1,.08.09l-.13,1.38.5-.76c.34-.51.58-.79,1.16-.79h.23a.83.83,0,0,1,.9.92v.16Z" style="fill:#231f20"/><path d="M100,15.15a.11.11,0,0,1-.1.08h-.62a.94.94,0,0,1-1.06-1,1,1,0,0,1,0-.16l.21-1.94L97.62,12a.1.1,0,0,1-.09-.09l0-.47a.12.12,0,0,1,.1-.09h.8l0-.39a.2.2,0,0,1,.12-.17l.56-.35.08,0a.1.1,0,0,1,.11.11l-.09.82h1a.09.09,0,0,1,.08.09l-.06.62a.11.11,0,0,1-.1.09h-1c-.07.7-.21,1.86-.21,2a.33.33,0,0,0,.37.36h.55a.07.07,0,0,1,.07.07Z" style="fill:#231f20"/><path d="M102.2,15.15a.1.1,0,0,1-.1.08h-.64a.08.08,0,0,1-.09-.08l.31-3-.82-.17a.09.09,0,0,1-.08-.1l0-.4a.11.11,0,0,1,.1-.09h1.58a.09.09,0,0,1,.09.09Zm.59-4.82a.12.12,0,0,1-.1.1h-.81a.09.09,0,0,1-.08-.1l.08-.76a.1.1,0,0,1,.1-.09h.81a.09.09,0,0,1,.08.09Z" style="fill:#231f20"/><path d="M106.93,15.15a.11.11,0,0,1-.1.08h-.65a.07.07,0,0,1-.08-.07s0-.14.1-1.07l-.39.58a1.34,1.34,0,0,1-1.25.64h-.14a.93.93,0,0,1-1-1,1,1,0,0,1,0-.14l.1-1.15a1.71,1.71,0,0,1,1.77-1.73h.09a2,2,0,0,1,1.07.33v-.16a.11.11,0,0,1,.1-.09h.65a.09.09,0,0,1,.08.08ZM105.54,14l.77-.95.08-.83a1.59,1.59,0,0,0-.93-.27h-.1a1,1,0,0,0-1,1l-.09,1.09a.75.75,0,0,0,0,.11.36.36,0,0,0,.34.39h.06C105,14.61,105.27,14.36,105.54,14Z" style="fill:#231f20"/><path d="M109.83,15.15a.11.11,0,0,1-.1.08h-.53a.94.94,0,0,1-1.06-1,.81.81,0,0,1,0-.16l.46-4.41a.11.11,0,0,1,.11-.09h.64a.09.09,0,0,1,.08.08L109,14a1,1,0,0,0,0,.14.33.33,0,0,0,.37.37h.47a.07.07,0,0,1,.07.07Z" style="fill:#231f20"/><path d="M117.12,11.6a1.69,1.69,0,0,1-1.89,1.5h-1.58l-.21,2.05a.11.11,0,0,1-.1.08h-.7a.08.08,0,0,1-.08-.07h0l.56-5.3a.09.09,0,0,1,.09-.09h2.62c.82,0,1.36.36,1.36,1.08a.78.78,0,0,1,0,.13Zm-.83-.61c0-.33-.24-.49-.62-.49h-1.75l-.2,1.85h1.38c.63,0,1.09-.22,1.14-.75C116.26,11.43,116.29,11.12,116.29,11Z" style="fill:#231f20"/><path d="M120.9,11.85a.08.08,0,0,1,0,.07l-.58.45-.07,0a.08.08,0,0,1-.07,0c-.12-.16-.17-.29-.33-.29h0c-.14,0-.24.12-.41.34l-.82,1-.17,1.7a.11.11,0,0,1-.1.08h-.66a.07.07,0,0,1-.08-.08l.39-3.7a.11.11,0,0,1,.09-.09h.66a.09.09,0,0,1,.08.09l-.1.94.46-.65a.91.91,0,0,1,.84-.46h.1a.87.87,0,0,1,.81.47A.19.19,0,0,1,120.9,11.85Z" style="fill:#231f20"/><path d="M124.51,13.59a1.71,1.71,0,0,1-1.77,1.72h-.48a1.2,1.2,0,0,1-1.36-1.25c0-.05,0-.15,0-.17L121,13a1.71,1.71,0,0,1,1.77-1.73h.48a1.21,1.21,0,0,1,1.36,1.26v.17Zm-.74-.89a.83.83,0,0,0,0-.12c0-.42-.23-.59-.68-.59h-.29a1,1,0,0,0-1,1l-.08.89a.72.72,0,0,0,0,.13c0,.4.22.58.68.58h.29a1,1,0,0,0,1-1Z" style="fill:#231f20"/><path d="M129.59,10.64a.12.12,0,0,1-.1.1h-.81a.09.09,0,0,1-.09-.08l0-.15c0-.17-.1-.21-.26-.21h-.6c-.55,0-.82.19-.87.74l0,.32h2.49a.09.09,0,0,1,.09.09l-.39,3.7a.1.1,0,0,1-.1.08h-.64a.08.08,0,0,1-.09-.08l.31-3.08h-1.74l-.29,2.87a1.74,1.74,0,0,1-1.78,1.73h-.4a.09.09,0,0,1-.08-.08l.06-.53a.09.09,0,0,1,.09-.1h.28a1,1,0,0,0,1-1l.28-2.77-.77-.17a.1.1,0,0,1-.08-.1l0-.45a.11.11,0,0,1,.1-.09h.8l0-.46a1.45,1.45,0,0,1,1.63-1.3h1c.6,0,1,.29,1,.72C129.62,10.36,129.59,10.61,129.59,10.64Z" style="fill:#231f20"/><path d="M132.36,15.15a.11.11,0,0,1-.09.08h-.62a.94.94,0,0,1-1.06-1,1,1,0,0,1,0-.16l.2-1.94L130,12a.1.1,0,0,1-.09-.09l.05-.47a.11.11,0,0,1,.1-.09h.79l.05-.39a.21.21,0,0,1,.11-.17l.56-.35.08,0c.08,0,.12,0,.12.11l-.09.82h1a.09.09,0,0,1,.09.09l-.06.62s-.06.09-.11.09h-1c-.08.7-.21,1.86-.21,2a.33.33,0,0,0,.37.36h.55a.07.07,0,0,1,.07.07Z" style="fill:#231f20"/><path d="M99.14,31.47a1.49,1.49,0,0,1-1.63,1.36v1a.1.1,0,0,1-.09.1h-.68a.11.11,0,0,1-.1-.1v-1h-1.2a.09.09,0,0,1-.09-.08v-.56a.1.1,0,0,1,.09-.1h1.91c.5,0,.91-.23.91-.65v-.13c0-.51-.45-.63-1-.78l-.86-.24a1.47,1.47,0,0,1-1.21-1.46v-.14a1.36,1.36,0,0,1,1.45-1.33v-1a.11.11,0,0,1,.1-.09h.68a.1.1,0,0,1,.09.09v1h1.15a.09.09,0,0,1,.08.09V28a.09.09,0,0,1-.08.09H96.81a.66.66,0,0,0-.74.65v.08c0,.39.33.57.76.69l1,.28c.88.25,1.32.69,1.32,1.47Z" style="fill:#231f20"/><path d="M102.42,32.75a.09.09,0,0,1-.09.08H100a.1.1,0,0,1-.09-.08v-.57a.1.1,0,0,1,.09-.09h.73v-4H100A.09.09,0,0,1,99.9,28v-.56a.09.09,0,0,1,.09-.09h1.51a.09.09,0,0,1,.1.09v4.64h.73a.09.09,0,0,1,.09.09Z" style="fill:#231f20"/><path d="M107.21,31.15a1.72,1.72,0,0,1-1.82,1.8H105a1.72,1.72,0,0,1-1.82-1.8V29.07a1.71,1.71,0,0,1,1.82-1.8h.42a1.71,1.71,0,0,1,1.82,1.8Zm-.87-2.08a1,1,0,0,0-1-1.06h-.24a1,1,0,0,0-1,1.06v2.08a1,1,0,0,0,1,1.05h.24a1,1,0,0,0,1-1.05Z" style="fill:#231f20"/><path d="M113.9,32.75a.1.1,0,0,1-.09.08h-.63a.1.1,0,0,1-.1-.08V30c0-.28-.12-.44-.35-.44h0c-.21,0-.41.25-.63.52l-.52.64v2a.09.09,0,0,1-.09.08h-.66a.09.09,0,0,1-.09-.08V30c0-.28-.12-.44-.34-.44h0c-.21,0-.41.25-.63.52l-.52.64v2a.09.09,0,0,1-.09.08h-.65a.09.09,0,0,1-.09-.08v-3.7a.09.09,0,0,1,.09-.09h.65a.09.09,0,0,1,.09.09v.76l.27-.32a1.21,1.21,0,0,1,1-.61h.14a.92.92,0,0,1,1,.95l.28-.34a1.24,1.24,0,0,1,1-.61h.14c.61,0,1,.4,1,1.15Z" style="fill:#231f20"/><path d="M99,43.37h1.09a.09.09,0,0,1,.08.08v.83a.09.09,0,0,1-.08.08h-2c-.35,0-.54.18-.54.44v.06c0,.29.24.43.59.54l1,.28c.87.25,1.54.6,1.54,1.54v.21c0,.85-.68,1.36-1.61,1.41v1a.1.1,0,0,1-.1.09h-1a.1.1,0,0,1-.1-.09v-1H96.49a.09.09,0,0,1-.08-.09v-.82a.09.09,0,0,1,.08-.09h2.43c.28,0,.52-.13.52-.4v-.11c0-.41-.42-.52-1-.69l-.86-.25a1.49,1.49,0,0,1-1.23-1.52v-.13a1.41,1.41,0,0,1,1.46-1.37v-1a.1.1,0,0,1,.1-.09h1a.1.1,0,0,1,.1.09Z" style="fill:#231f20"/><path d="M101.8,47.93a.09.09,0,0,1,.09-.09h1.55a.85.85,0,0,0,1-1v-.6l-.23.28a1.2,1.2,0,0,1-1,.49h-.27c-.86,0-1.34-.58-1.34-1.5V45a1.65,1.65,0,0,1,1.78-1.71H104a1.51,1.51,0,0,1,1.6,1.66v2a1.81,1.81,0,0,1-1.94,2h-1.72a.09.09,0,0,1-.09-.09Zm.92-2.42a.48.48,0,0,0,.48.55h.13c.27,0,.46-.23.67-.47l.4-.45v-.33a.55.55,0,0,0-.58-.57h-.36a.72.72,0,0,0-.74.72Z" style="fill:#231f20"/><path d="M109.22,48.84a.09.09,0,0,1-.09-.09V46.09a.27.27,0,0,0-.25-.29h0c-.18,0-.3.15-.52.42l-.54.7v1.83a.09.09,0,0,1-.09.09h-.93a.09.09,0,0,1-.08-.09V45.06a.09.09,0,0,1,.08-.09h.93a.09.09,0,0,1,.09.09v.66l.2-.29a1.18,1.18,0,0,1,1-.58h.21a1,1,0,0,1,1,.92l.22-.34a1.16,1.16,0,0,1,1-.58h.11c.69,0,1.14.4,1.14,1.24v2.66a.1.1,0,0,1-.1.09h-.91a.09.09,0,0,1-.09-.09V46.09a.27.27,0,0,0-.25-.29h0c-.19,0-.31.15-.52.42l-.54.7v1.83a.09.09,0,0,1-.1.09Z" style="fill:#231f20"/><path d="M101.28,64.14a1.5,1.5,0,0,1-1.62,1.36v1a.1.1,0,0,1-.09.1h-.68a.11.11,0,0,1-.1-.1v-1h-1.2a.09.09,0,0,1-.09-.09v-.56a.09.09,0,0,1,.09-.09H99.5c.5,0,.91-.24.91-.65V64c0-.51-.45-.63-1-.78L98.55,63a1.47,1.47,0,0,1-1.21-1.46v-.14A1.37,1.37,0,0,1,98.79,60V59a.1.1,0,0,1,.1-.09h.68a.09.09,0,0,1,.09.09v1h1.14a.1.1,0,0,1,.09.1v.56a.09.09,0,0,1-.09.09H99c-.44,0-.75.24-.75.64v.08c0,.4.34.58.77.7l1,.28c.87.25,1.31.69,1.31,1.46Z" style="fill:#231f20"/><path d="M105.62,60.77a.12.12,0,0,1-.06.12l-.65.66a3.7,3.7,0,0,0-1.32,3.13v.73a.1.1,0,0,1-.1.09h-.81a.09.09,0,0,1-.09-.09v-.65a4.12,4.12,0,0,1,1.52-3.46l.54-.47h-2.59a.09.09,0,0,1-.09-.09v-.62a.1.1,0,0,1,.09-.1h3.46a.11.11,0,0,1,.1.1Z" style="fill:#231f20"/><path d="M111.76,65.41a.1.1,0,0,1-.1.09H111a.1.1,0,0,1-.1-.09V62.69c0-.28-.12-.43-.34-.43h0c-.21,0-.41.25-.63.52l-.52.63v2a.09.09,0,0,1-.09.09h-.66a.09.09,0,0,1-.08-.09V62.69c0-.28-.12-.43-.35-.43h0c-.21,0-.41.25-.64.52l-.52.63v2a.09.09,0,0,1-.08.09h-.66a.09.09,0,0,1-.09-.09V61.72a.09.09,0,0,1,.09-.09h.66a.09.09,0,0,1,.08.09v.76l.27-.32c.29-.35.52-.61,1-.61h.14a.92.92,0,0,1,1,1l.28-.34a1.24,1.24,0,0,1,1-.61h.15c.6,0,1,.39,1,1.14Z" style="fill:#231f20"/><path d="M101,80.14a1.5,1.5,0,0,1-1.63,1.36v1a.1.1,0,0,1-.09.1h-.68a.11.11,0,0,1-.1-.1v-1h-1.2a.09.09,0,0,1-.09-.09v-.56a.09.09,0,0,1,.09-.09h1.91c.5,0,.91-.24.91-.65V80c0-.51-.45-.63-1-.78L98.22,79A1.47,1.47,0,0,1,97,77.5v-.14A1.37,1.37,0,0,1,98.46,76V75a.1.1,0,0,1,.1-.09h.68a.09.09,0,0,1,.09.09v1h1.15a.1.1,0,0,1,.08.1v.56a.09.09,0,0,1-.08.09H98.63c-.44,0-.74.24-.74.64v.08c0,.4.33.58.76.7l1,.28c.88.25,1.32.69,1.32,1.46Z" style="fill:#231f20"/><path d="M103.64,76c1,0,1.71.43,1.71,1.41v.07a1.11,1.11,0,0,1-.66,1.07,1.22,1.22,0,0,1,.78,1.19V80c0,1-.71,1.53-1.79,1.53H102a.09.09,0,0,1-.09-.09v-.56a.09.09,0,0,1,.09-.09h1.61c.58,0,1-.27,1-.76v-.26c0-.46-.28-.75-.86-.75h-.6a.09.09,0,0,1-.09-.09v-.54a.1.1,0,0,1,.09-.1h.6a.66.66,0,0,0,.74-.69v-.11c0-.45-.34-.69-.84-.69h-1.59a.09.09,0,0,1-.09-.09v-.56a.1.1,0,0,1,.09-.1Z" style="fill:#231f20"/><path d="M112.08,81.41a.09.09,0,0,1-.09.09h-.63a.1.1,0,0,1-.1-.09V78.69c0-.28-.12-.43-.34-.43h0c-.21,0-.41.25-.63.52l-.52.63v2a.09.09,0,0,1-.09.09H109a.09.09,0,0,1-.08-.09V78.69c0-.28-.13-.43-.35-.43h-.05c-.2,0-.4.25-.63.52l-.52.63v2a.09.09,0,0,1-.09.09h-.65a.09.09,0,0,1-.09-.09V77.72a.09.09,0,0,1,.09-.09h.65a.09.09,0,0,1,.09.09v.76l.27-.32a1.21,1.21,0,0,1,1-.61h.14a.92.92,0,0,1,1,1l.28-.34a1.24,1.24,0,0,1,1-.61h.15c.6,0,1,.39,1,1.14Z" style="fill:#231f20"/><path d="M98.38,96.14a1.5,1.5,0,0,1-1.63,1.36v1a.1.1,0,0,1-.09.1H96a.11.11,0,0,1-.1-.1v-1h-1.2a.09.09,0,0,1-.09-.09v-.56a.09.09,0,0,1,.09-.09h1.91c.5,0,.91-.24.91-.65V96c0-.51-.45-.63-1-.78L95.64,95a1.47,1.47,0,0,1-1.21-1.46v-.14A1.37,1.37,0,0,1,95.88,92V91a.1.1,0,0,1,.1-.09h.68a.09.09,0,0,1,.09.09v1H97.9a.1.1,0,0,1,.08.1v.56a.09.09,0,0,1-.08.09H96.05c-.44,0-.74.24-.74.64v.08c0,.4.33.58.76.7l1,.28c.88.25,1.32.69,1.32,1.46Z" style="fill:#231f20"/><path d="M101.66,97.41a.09.09,0,0,1-.09.09H99.23a.1.1,0,0,1-.09-.09v-.57a.1.1,0,0,1,.09-.08H100v-4h-.73a.09.09,0,0,1-.09-.09v-.56a.1.1,0,0,1,.09-.1h1.51a.1.1,0,0,1,.1.1v4.64h.73a.09.09,0,0,1,.09.08Z" style="fill:#231f20"/><path d="M103.37,97.41a.1.1,0,0,1-.1.09h-.76a.09.09,0,0,1-.08-.09v-.74a.09.09,0,0,1,.08-.09h.76a.1.1,0,0,1,.1.09Z" style="fill:#231f20"/><path d="M106.21,96.76a.86.86,0,0,0,1-.84v-.38a.69.69,0,0,0-.68-.76h-.28a.76.76,0,0,0-.59.3l-.2.18a.09.09,0,0,1-.08,0h0l-.8-.48a.19.19,0,0,1-.1-.18V92.12a.09.09,0,0,1,.1-.1h3.16a.1.1,0,0,1,.09.1v.56a.09.09,0,0,1-.09.09h-2.32c-.06,0-.07,0-.07.06v1.66l.18-.17a.92.92,0,0,1,.68-.28h.43a1.34,1.34,0,0,1,1.48,1.47v.4a1.59,1.59,0,0,1-1.79,1.59H104.5a.09.09,0,0,1-.09-.09v-.56a.09.09,0,0,1,.09-.09Z" style="fill:#231f20"/><path d="M114.66,97.41a.09.09,0,0,1-.09.09h-.63a.1.1,0,0,1-.1-.09V94.69c0-.28-.12-.43-.34-.43h0c-.21,0-.41.25-.63.52l-.52.63v2a.09.09,0,0,1-.09.09h-.66a.09.09,0,0,1-.08-.09V94.69c0-.28-.12-.43-.35-.43h-.05c-.2,0-.4.25-.63.52l-.52.63v2a.09.09,0,0,1-.09.09h-.65a.09.09,0,0,1-.09-.09V93.72a.09.09,0,0,1,.09-.09h.65a.09.09,0,0,1,.09.09v.76l.27-.32a1.21,1.21,0,0,1,1-.61h.14a.92.92,0,0,1,1,1l.28-.34a1.24,1.24,0,0,1,1-.61h.15c.6,0,1,.39,1,1.14Z" style="fill:#231f20"/><path d="M162.22,96.06a1.57,1.57,0,0,1-1.75,1.55h-.33a1.53,1.53,0,0,1-1.67-1.56V93.66A1.57,1.57,0,0,1,160.2,92h1.66a.1.1,0,0,1,.09.1v.56a.09.09,0,0,1-.09.09h-1.55a.85.85,0,0,0-1,.94v1.15l.27-.31a1.35,1.35,0,0,1,1.1-.54H161a1.23,1.23,0,0,1,1.25,1.38Zm-.87-.62c0-.41-.2-.68-.56-.68h-.16a1,1,0,0,0-.73.4l-.56.61v.28a.8.8,0,0,0,.86.82h.23c.55,0,.92-.29.92-.81Z" style="fill:#231f20"/><path d="M167,97.41a.1.1,0,0,1-.09.09h-2.12a.09.09,0,0,1-.09-.09v-.57a.09.09,0,0,1,.09-.08h.6v-.62h-2.52a.09.09,0,0,1-.09-.09v-.53a.25.25,0,0,1,.06-.15l2.44-3.25a.21.21,0,0,1,.15-.1h.74a.11.11,0,0,1,.1.1V95.4h.64a.11.11,0,0,1,.09.09v.56a.1.1,0,0,1-.09.09h-.64v.62h.64a.1.1,0,0,1,.09.08Zm-1.61-3.22a7.86,7.86,0,0,1,.17-1.34,3.91,3.91,0,0,1-.47.79l-1.41,1.88a2.7,2.7,0,0,1,.83-.12h.88Z" style="fill:#231f20"/><path d="M171.18,93.8a1.26,1.26,0,0,1-1.3,1.29h-.51a1.26,1.26,0,0,1-1.3-1.29v-.69a1.26,1.26,0,0,1,1.3-1.29h.51a1.26,1.26,0,0,1,1.3,1.28Zm-.83-.59c0-.41-.22-.71-.6-.71h-.24c-.4,0-.61.29-.61.71v.49c0,.43.17.71.61.71h.24c.39,0,.6-.3.6-.71Zm1.35,4.61c0,.05,0,.1-.09.1h-.77c-.05,0-.08,0-.08-.06s.06-.22.08-.33l1.51-6.07s0-.09.09-.09h.78s.07,0,.07,0-.06.23-.09.36ZM176,96.25a1.27,1.27,0,0,1-1.3,1.3h-.51a1.28,1.28,0,0,1-1.31-1.3v-.68a1.28,1.28,0,0,1,1.31-1.3h.51a1.26,1.26,0,0,1,1.3,1.29Zm-.83-.59c0-.41-.22-.7-.61-.7h-.24c-.39,0-.6.29-.6.7v.5c0,.42.17.7.6.7h.24a.62.62,0,0,0,.61-.7Z" style="fill:#231f20"/><path d="M162.07,80.12a1.46,1.46,0,0,1-1.63,1.46h-.77A1.46,1.46,0,0,1,158,80.12v-.29a1.24,1.24,0,0,1,.84-1.18,1.12,1.12,0,0,1-.68-1.08v-.19c0-1,.72-1.44,1.67-1.44h.37c.95,0,1.67.48,1.67,1.44v.19a1.12,1.12,0,0,1-.68,1.08,1.24,1.24,0,0,1,.84,1.18Zm-.87-.29a.79.79,0,0,0-.89-.78h-.52a.78.78,0,0,0-.88.78v.25a.74.74,0,0,0,.84.76h.6a.75.75,0,0,0,.85-.76ZM161,77.41c0-.49-.38-.72-.89-.72H160c-.5,0-.88.23-.88.72v.18c0,.46.36.72.84.72h.29a.74.74,0,0,0,.84-.72Z" style="fill:#231f20"/><path d="M167.23,80.12a1.46,1.46,0,0,1-1.63,1.46h-.77a1.46,1.46,0,0,1-1.63-1.46v-.29a1.24,1.24,0,0,1,.84-1.18,1.12,1.12,0,0,1-.68-1.08v-.19c0-1,.72-1.44,1.67-1.44h.37c.95,0,1.67.48,1.67,1.44v.19a1.12,1.12,0,0,1-.68,1.08,1.24,1.24,0,0,1,.84,1.18Zm-.87-.29a.79.79,0,0,0-.89-.78H165a.78.78,0,0,0-.88.78v.25a.74.74,0,0,0,.84.76h.6a.75.75,0,0,0,.85-.76Zm-.16-2.42c0-.49-.38-.72-.89-.72h-.2c-.5,0-.88.23-.88.72v.18a.74.74,0,0,0,.84.72h.29a.74.74,0,0,0,.84-.72Z" style="fill:#231f20"/><path d="M171.62,77.8a1.27,1.27,0,0,1-1.31,1.29h-.51a1.26,1.26,0,0,1-1.3-1.29v-.69a1.27,1.27,0,0,1,1.3-1.3h.51a1.27,1.27,0,0,1,1.31,1.29Zm-.83-.59a.63.63,0,0,0-.61-.71h-.24c-.39,0-.61.29-.61.71v.49c0,.43.18.71.61.71h.24c.39,0,.61-.3.61-.71Zm1.34,4.61c0,.05,0,.1-.09.1h-.77s-.08,0-.08-.06.06-.22.08-.33l1.51-6.07s0-.09.09-.09h.79s.06,0,.06,0-.06.23-.09.36Zm4.28-1.57a1.27,1.27,0,0,1-1.3,1.3h-.51a1.27,1.27,0,0,1-1.3-1.3v-.69a1.26,1.26,0,0,1,1.3-1.29h.51a1.26,1.26,0,0,1,1.3,1.29Zm-.83-.59c0-.41-.22-.7-.6-.7h-.24c-.4,0-.61.29-.61.7v.5c0,.42.17.7.61.7H175c.39,0,.6-.3.6-.7Z" style="fill:#231f20"/><path d="M161.59,64.41a.1.1,0,0,1-.1.09h-2.33a.1.1,0,0,1-.1-.09v-.57a.1.1,0,0,1,.1-.08h.73v-4h-.74a.09.09,0,0,1-.09-.09v-.56a.1.1,0,0,1,.09-.1h1.52a.11.11,0,0,1,.1.1v4.64h.72a.1.1,0,0,1,.1.08Z" style="fill:#231f20"/><path d="M164.22,59c1.15,0,1.75.48,1.75,1.43v.15c0,.77-.51,1.24-1.3,1.5l-1,.35a.84.84,0,0,0-.64.93v.38h2.86a.1.1,0,0,1,.1.08v.57a.1.1,0,0,1-.1.09h-3.53c-.16,0-.19-.14-.19-.25v-.88c0-1.2.57-1.51,1.65-1.83.66-.2,1.29-.41,1.29-1v-.13c0-.49-.32-.68-.93-.68h-1.6a.09.09,0,0,1-.09-.09v-.56a.1.1,0,0,1,.09-.1Z" style="fill:#231f20"/><path d="M170.19,60.8a1.26,1.26,0,0,1-1.3,1.29h-.52a1.26,1.26,0,0,1-1.3-1.29v-.69a1.26,1.26,0,0,1,1.3-1.29h.52a1.26,1.26,0,0,1,1.3,1.28Zm-.83-.59a.63.63,0,0,0-.61-.71h-.24c-.39,0-.61.29-.61.71v.49c0,.43.18.71.61.71h.24c.39,0,.61-.3.61-.71Zm1.34,4.61c0,.05,0,.1-.09.1h-.76s-.08,0-.08-.06,0-.22.08-.33l1.51-6.07c0-.05,0-.09.08-.09h.79s.06,0,.06.05a3.58,3.58,0,0,1-.09.36ZM175,63.25a1.28,1.28,0,0,1-1.31,1.3h-.51a1.27,1.27,0,0,1-1.3-1.3v-.68a1.27,1.27,0,0,1,1.3-1.3h.51A1.27,1.27,0,0,1,175,62.56Zm-.83-.59a.62.62,0,0,0-.61-.7h-.24c-.39,0-.61.29-.61.7v.5c0,.42.18.7.61.7h.24a.62.62,0,0,0,.61-.7Z" style="fill:#231f20"/><path d="M162,30.39a1.57,1.57,0,0,1-1.75,1.55h-.33a1.53,1.53,0,0,1-1.67-1.55V28A1.56,1.56,0,0,1,160,26.36h1.66a.09.09,0,0,1,.09.09V27a.09.09,0,0,1-.09.09h-1.55a.86.86,0,0,0-1,.94v1.15l.27-.31a1.34,1.34,0,0,1,1.1-.53h.26A1.22,1.22,0,0,1,162,29.72Zm-.87-.62c0-.41-.2-.68-.56-.68h-.16a1,1,0,0,0-.73.4l-.56.62v.28a.8.8,0,0,0,.86.81h.23c.55,0,.92-.29.92-.81Z" style="fill:#231f20"/><path d="M167,30.15a1.71,1.71,0,0,1-1.82,1.79h-.42A1.71,1.71,0,0,1,163,30.15V28.07a1.71,1.71,0,0,1,1.82-1.8h.42a1.71,1.71,0,0,1,1.82,1.8Zm-.87-2.08a1,1,0,0,0-1-1.06h-.24a1,1,0,0,0-1,1.06v2.08a1,1,0,0,0,1,1.05h.24a1,1,0,0,0,1-1.05Z" style="fill:#231f20"/><path d="M171.41,28.13a1.28,1.28,0,0,1-1.31,1.3h-.51a1.27,1.27,0,0,1-1.3-1.3v-.69a1.26,1.26,0,0,1,1.3-1.29h.51a1.27,1.27,0,0,1,1.31,1.29Zm-.84-.59c0-.41-.22-.7-.6-.7h-.24c-.39,0-.61.28-.61.7V28c0,.42.18.7.61.7H170c.39,0,.6-.3.6-.7Zm1.35,4.61c0,.05,0,.1-.09.1h-.77c-.05,0-.08,0-.08-.06s.06-.22.08-.32l1.51-6.08c0-.05,0-.09.09-.09h.78s.07,0,.07.05-.06.23-.09.36Zm4.28-1.56a1.26,1.26,0,0,1-1.3,1.29h-.51a1.26,1.26,0,0,1-1.3-1.29V29.9a1.27,1.27,0,0,1,1.3-1.3h.51a1.26,1.26,0,0,1,1.3,1.29Zm-.83-.6a.62.62,0,0,0-.61-.7h-.24c-.39,0-.6.29-.6.7v.5c0,.42.17.7.6.7h.24c.4,0,.61-.29.61-.7Z" style="fill:#231f20"/><path d="M161.19,47.75a.1.1,0,0,1-.1.09h-2.76a.09.09,0,0,1-.09-.09v-.82a.09.09,0,0,1,.09-.09h.8V43.36h-.81a.09.09,0,0,1-.09-.08v-.82a.09.09,0,0,1,.09-.09h1.88a.09.09,0,0,1,.09.09v4.38h.8a.1.1,0,0,1,.1.09Z" style="fill:#231f20"/><path d="M165.77,46.39a.1.1,0,0,1-.1.09H165v.36h.71a.1.1,0,0,1,.1.09v.82a.1.1,0,0,1-.1.09h-2.58a.09.09,0,0,1-.09-.09v-.82a.09.09,0,0,1,.09-.09h.71v-.36h-2.52a.09.09,0,0,1-.09-.09V45.6a.23.23,0,0,1,.06-.15l2.24-3a.2.2,0,0,1,.15-.09h1.23a.1.1,0,0,1,.09.09v3h.71a.11.11,0,0,1,.1.1Zm-2-1.68a4.55,4.55,0,0,1,.26-1.51,6.26,6.26,0,0,1-.74,1.16l-1.07,1.39a1.76,1.76,0,0,1,1-.27h.55Z" style="fill:#231f20"/><path d="M170.41,44a1.38,1.38,0,0,1-1.53,1.45h-.52A1.37,1.37,0,0,1,166.84,44v-.45a1.4,1.4,0,0,1,1.52-1.46h.52a1.41,1.41,0,0,1,1.53,1.46Zm-1.1-.46a.48.48,0,0,0-.51-.5h-.35a.47.47,0,0,0-.51.5V44a.48.48,0,0,0,.51.51h.35a.47.47,0,0,0,.51-.51Zm1.84,4.6s-.05.09-.1.09H170a.06.06,0,0,1-.06-.06s0-.05,0-.09l1.56-6.31s.05-.09.1-.09h1s.07,0,.07.06a.15.15,0,0,1,0,.06Zm4.71-1.7a1.37,1.37,0,0,1-1.52,1.46h-.52a1.38,1.38,0,0,1-1.53-1.46V46a1.41,1.41,0,0,1,1.53-1.46h.52A1.4,1.4,0,0,1,175.86,46Zm-1.1-.45a.48.48,0,0,0-.51-.5h-.35a.47.47,0,0,0-.51.5v.45a.48.48,0,0,0,.51.52h.35a.48.48,0,0,0,.51-.52Z" style="fill:#231f20"/><path d="M146.56,11.61a.09.09,0,0,1-.09.09h-.7a.09.09,0,0,1-.08-.09V10.5h-1.06a1,1,0,0,0-1,1.06v1.87a1,1,0,0,0,1,1.06h1.84a.1.1,0,0,1,.09.1v.56a.09.09,0,0,1-.09.08h-1.93a1.71,1.71,0,0,1-1.82-1.8V11.56a1.71,1.71,0,0,1,1.82-1.8h1.93a.09.09,0,0,1,.09.09Z" style="fill:#231f20"/><path d="M150.69,11.8s0,0,0,.06l-.52.45a.15.15,0,0,1-.08,0l-.05,0c-.11-.13-.22-.25-.37-.25h0c-.2,0-.35.19-.56.46l-.55.74v1.88a.09.09,0,0,1-.09.08h-.65a.09.09,0,0,1-.09-.08v-3.7a.09.09,0,0,1,.09-.09h.65a.09.09,0,0,1,.09.09v.82l.3-.4a1.14,1.14,0,0,1,.94-.59h.08a1.16,1.16,0,0,1,.87.45A.13.13,0,0,1,150.69,11.8Z" style="fill:#231f20"/><path d="M151.74,13.61v.17a.73.73,0,0,0,.83.75h1.64a.1.1,0,0,1,.08.1v.52a.09.09,0,0,1-.08.08h-1.76a1.4,1.4,0,0,1-1.53-1.45v-1a1.4,1.4,0,0,1,1.53-1.45h.48a1.37,1.37,0,0,1,1.52,1.35V13a.2.2,0,0,1-.08.19l-.41.35a.4.4,0,0,1-.24.07Zm0-.7h1.89v-.18c0-.51-.34-.75-.83-.75h-.22c-.49,0-.84.24-.84.74Z" style="fill:#231f20"/><path d="M159.49,15.15s0,.08-.12.08h-1a.12.12,0,0,1-.12-.08l-.42-1.31a9.64,9.64,0,0,1-.26-1,7.72,7.72,0,0,1-.27,1l-.41,1.31a.1.1,0,0,1-.11.08h-1a.11.11,0,0,1-.12-.08L155,11.7a1.67,1.67,0,0,1-.05-.24.09.09,0,0,1,.1-.1h.6a.14.14,0,0,1,.15.12l.43,2.06c.07.35.08.78.11,1.08l.72-2.25c0-.08.06-.12.14-.12H158c.08,0,.11,0,.15.12l.73,2.25c0-.3,0-.73.12-1.08l.42-2.06a.15.15,0,0,1,.16-.12h.58a.09.09,0,0,1,.1.09s0,.13,0,.24Z" style="fill:#231f20"/><path d="M166.24,10.41a.09.09,0,0,1-.09.09H164.3a.66.66,0,0,0-.74.65v.08c0,.39.34.57.77.69l1,.28c.88.25,1.32.69,1.32,1.47v.2A1.5,1.5,0,0,1,165,15.23h-2a.09.09,0,0,1-.09-.08v-.56a.1.1,0,0,1,.09-.1h1.91c.49,0,.91-.23.91-.65v-.13c0-.51-.46-.63-1-.78l-.85-.24a1.45,1.45,0,0,1-1.21-1.45v-.15a1.36,1.36,0,0,1,1.47-1.33h2a.09.09,0,0,1,.09.09Z" style="fill:#231f20"/><path d="M167.43,11.45a.1.1,0,0,1,.1-.09h.63a.1.1,0,0,1,.1.09v2.67c0,.3.16.49.43.49h.05c.3,0,.48-.21.71-.48l.65-.76V11.45a.09.09,0,0,1,.08-.09h.66a.09.09,0,0,1,.09.09v3.7a.09.09,0,0,1-.09.08h-.66a.09.09,0,0,1-.08-.08v-.8l-.36.44a1.18,1.18,0,0,1-1,.52h-.13a1,1,0,0,1-1.14-1.19Z" style="fill:#231f20"/><path d="M175.09,11.8a.09.09,0,0,1,0,.06l-.53.45a.11.11,0,0,1-.07,0l-.05,0c-.11-.13-.22-.25-.37-.25H174c-.2,0-.34.19-.55.46l-.55.74v1.88a.09.09,0,0,1-.09.08h-.65a.09.09,0,0,1-.09-.08v-3.7a.09.09,0,0,1,.09-.09h.65a.09.09,0,0,1,.09.09v.82l.3-.4a1.14,1.14,0,0,1,.94-.59h.08a1.16,1.16,0,0,1,.87.45A.11.11,0,0,1,175.09,11.8Z" style="fill:#231f20"/><path d="M175.32,11.66a1.26,1.26,0,0,1-.06-.22.08.08,0,0,1,.09-.08H176c.08,0,.12,0,.16.12l.69,2c.14.42.22.75.3,1.08a9.38,9.38,0,0,1,.29-1.08l.71-2c0-.08.06-.12.15-.12h.63a.09.09,0,0,1,.1.08,1,1,0,0,1,0,.17l-1.26,3.54a.11.11,0,0,1-.12.08h-.91a.11.11,0,0,1-.11-.08Z" style="fill:#231f20"/><path d="M181.14,15.15a.09.09,0,0,1-.09.08h-.64a.1.1,0,0,1-.1-.08v-3l-.85-.17a.11.11,0,0,1-.08-.1v-.4a.09.09,0,0,1,.08-.09h1.59a.09.09,0,0,1,.09.09Zm.08-4.82a.1.1,0,0,1-.08.1h-.81a.11.11,0,0,1-.1-.1V9.57a.1.1,0,0,1,.1-.09h.81a.09.09,0,0,1,.08.09Z" style="fill:#231f20"/><path d="M181.77,11.66a1.63,1.63,0,0,1-.07-.22.09.09,0,0,1,.1-.08h.63c.08,0,.12,0,.15.12l.7,2a9.38,9.38,0,0,1,.29,1.08c.08-.33.16-.66.3-1.08l.7-2c0-.08.07-.12.16-.12h.63a.08.08,0,0,1,.09.08.79.79,0,0,1,0,.17l-1.26,3.54a.12.12,0,0,1-.12.08h-.91a.1.1,0,0,1-.11-.08Z" style="fill:#231f20"/><path d="M189.48,15.15a.1.1,0,0,1-.1.08h-.64a.09.09,0,0,1-.09-.08v-.84l-.31.4a1.3,1.3,0,0,1-1.15.6H187a1,1,0,0,1-1.14-1.19V12.75a1.34,1.34,0,0,1,1.47-1.47h.09a2.75,2.75,0,0,1,1.19.33v-.15a.1.1,0,0,1,.09-.1h.64a.11.11,0,0,1,.1.1Zm-.83-2.85a2.2,2.2,0,0,0-1.09-.32h-.1a.68.68,0,0,0-.73.76v1.41a.42.42,0,0,0,.43.46h.06c.32,0,.5-.2.76-.49l.67-.73Z" style="fill:#231f20"/><path d="M192.34,15.15a.09.09,0,0,1-.09.08h-.49a1,1,0,0,1-1.16-1.13V9.69a.09.09,0,0,1,.09-.09h.65a.09.09,0,0,1,.08.09V14.1a.4.4,0,0,0,.41.44h.42a.09.09,0,0,1,.09.09Z" style="fill:#231f20"/><path d="M12.59,137.8a.11.11,0,0,1-.1.09H11.8a.07.07,0,0,1-.08-.07s0-.09,0-.17l.53-5.14a.12.12,0,0,1,.1-.1h3.48a.1.1,0,0,1,.09.1l0,.56a.12.12,0,0,1-.11.09h-2.7l-.18,1.64h2.71a.09.09,0,0,1,.08.09l0,.56a.14.14,0,0,1-.11.1H12.82Z" style="fill:#231f20"/><path d="M16.94,136.6v.07c0,.39.22.52.68.52H19.3a.08.08,0,0,1,.07.08h0l0,.52a.11.11,0,0,1-.1.09H17.48a1.21,1.21,0,0,1-1.36-1.26s0-.15,0-.16l.07-.81A1.7,1.7,0,0,1,18,133.93h.57c.77,0,1.23.32,1.23.91a2.52,2.52,0,0,1,0,.29c-.07.72-.59.9-1.24,1.06Zm.07-.69,1.13-.32c.43-.13.75-.23.77-.54v-.13a.31.31,0,0,0-.35-.29H18c-.6,0-.92.34-1,1Z" style="fill:#231f20"/><path d="M23.75,137.8a.11.11,0,0,1-.1.09H23a.07.07,0,0,1-.08-.07s0-.15.1-1.07l-.39.57a1.33,1.33,0,0,1-1.25.65h-.14a.94.94,0,0,1-1-1,.93.93,0,0,1,0-.13l.1-1.15a1.71,1.71,0,0,1,1.78-1.73h.08a2,2,0,0,1,1.07.33v-.16a.11.11,0,0,1,.1-.09h.65a.08.08,0,0,1,.08.08Zm-1.39-1.1.77-.95.08-.83a1.62,1.62,0,0,0-.93-.28h-.1a1,1,0,0,0-1,1l-.09,1.1a.67.67,0,0,0,0,.1.36.36,0,0,0,.34.4h.06C21.86,137.27,22.09,137,22.36,136.7Z" style="fill:#231f20"/><path d="M27.05,137.8a.09.09,0,0,1-.09.09h-.62a.94.94,0,0,1-1.06-1,1,1,0,0,1,0-.16l.21-1.94-.78-.14a.1.1,0,0,1-.09-.1l.05-.46a.12.12,0,0,1,.1-.09h.79l.05-.39a.24.24,0,0,1,.11-.18l.57-.34a.11.11,0,0,1,.08,0c.07,0,.11,0,.11.12l-.09.82h1a.09.09,0,0,1,.09.09l-.06.61c0,.05-.06.09-.11.09h-1c-.07.7-.21,1.86-.21,2a.33.33,0,0,0,.37.36H27a.08.08,0,0,1,.07.08Z" style="fill:#231f20"/><path d="M30.66,136.68l-.35.6a1.18,1.18,0,0,1-1.2.7h-.27a.83.83,0,0,1-.9-.92v-.17l.29-2.78a.12.12,0,0,1,.11-.09H29a.09.09,0,0,1,.08.09s-.29,2.76-.29,2.85.07.31.26.31h.1c.43,0,.61-.25,1-.76l.69-1,.15-1.4A.11.11,0,0,1,31,134h.66a.1.1,0,0,1,.08.09l-.39,3.69a.11.11,0,0,1-.09.09h-.66c-.06,0-.08,0-.08-.09Z" style="fill:#231f20"/><path d="M36,134.51a.08.08,0,0,1,0,.07l-.57.45-.07,0s0,0-.08-.05-.16-.29-.32-.29h-.06c-.14,0-.23.12-.41.35l-.81,1-.18,1.69a.11.11,0,0,1-.09.09h-.66c-.06,0-.08,0-.08-.09l.38-3.69a.11.11,0,0,1,.1-.09h.65a.09.09,0,0,1,.08.09l-.09.93.46-.64a.91.91,0,0,1,.83-.46h.11a.87.87,0,0,1,.81.46A.49.49,0,0,1,36,134.51Z" style="fill:#231f20"/><path d="M36.84,136.6v.07c0,.39.21.52.68.52H39.2a.08.08,0,0,1,.07.08h0l-.05.52a.11.11,0,0,1-.09.09H37.37A1.22,1.22,0,0,1,36,136.63s0-.15,0-.16l.08-.81a1.69,1.69,0,0,1,1.77-1.73h.57c.77,0,1.22.32,1.22.91,0,0,0,.16,0,.29-.08.72-.59.9-1.24,1.06Zm.06-.69,1.13-.32c.44-.13.75-.23.77-.54v-.13c0-.17-.14-.29-.35-.29h-.54c-.6,0-.93.34-1,1Z" style="fill:#231f20"/><path d="M43.15,137.8a.11.11,0,0,1-.1.09h-.69c-.06,0-.08,0-.08-.09l.55-5.29a.12.12,0,0,1,.1-.1h.69a.1.1,0,0,1,.08.1Z" style="fill:#231f20"/><path d="M45.57,135.45l.48-.74c.35-.53.59-.78,1.12-.78h.21c.53,0,.81.29.81.87a1.48,1.48,0,0,1,0,.21l0,.42.48-.72c.35-.53.59-.78,1.12-.78h.21c.53,0,.81.29.81.87a1.62,1.62,0,0,1,0,.21l-.29,2.79a.11.11,0,0,1-.1.09h-.63a.08.08,0,0,1-.09-.09c.1-1,.3-2.81.3-2.92s-.07-.25-.17-.25h-.1c-.21,0-.4.26-.74.7l-.9,1.18-.13,1.29a.1.1,0,0,1-.1.09h-.63a.08.08,0,0,1-.09-.09c.1-1,.3-2.89.3-2.92s-.07-.25-.17-.25h-.1c-.21,0-.4.26-.73.7l-.92,1.18-.12,1.29a.11.11,0,0,1-.1.09h-.66a.08.08,0,0,1-.08-.07l.39-3.71A.11.11,0,0,1,45,134h.66a.08.08,0,0,1,.08.08Z" style="fill:#231f20"/><path d="M52.09,134.1a.11.11,0,0,1,.1-.09h.66a.08.08,0,0,1,.08.08s0,.23-.12,1.07l.4-.58a1.36,1.36,0,0,1,1.26-.65h.14a1,1,0,0,1,1,1,.72.72,0,0,1,0,.13l-.1,1.08a1.7,1.7,0,0,1-1.77,1.73H52.53l-.15,1.34a.11.11,0,0,1-.09.09h-.66a.07.07,0,0,1-.08-.07Zm.62,2.06-.11,1h1.07c.6,0,.94-.42,1-1,0-.37.09-1,.09-1.12a.36.36,0,0,0-.34-.4h-.05a1.13,1.13,0,0,0-.88.57Z" style="fill:#231f20"/><path d="M59.89,136.24A1.71,1.71,0,0,1,58.12,138h-.48a1.21,1.21,0,0,1-1.36-1.26s0-.14,0-.16l.08-.88a1.7,1.7,0,0,1,1.77-1.73h.48A1.21,1.21,0,0,1,60,135.2a1.1,1.1,0,0,1,0,.16Zm-.74-.89a.75.75,0,0,0,0-.11c0-.42-.23-.6-.68-.6h-.29a1,1,0,0,0-1,1l-.08.88a.82.82,0,0,0,0,.14c0,.4.22.58.68.58h.29a1,1,0,0,0,1-1Z" style="fill:#231f20"/><path d="M64.15,134.51a.1.1,0,0,1,0,.07l-.58.45s0,0-.07,0-.05,0-.07-.05-.17-.29-.33-.29H63c-.14,0-.24.12-.41.35l-.82,1-.17,1.69a.11.11,0,0,1-.1.09h-.65c-.07,0-.08,0-.08-.09l.38-3.69a.11.11,0,0,1,.09-.09h.66a.09.09,0,0,1,.08.09l-.1.93.46-.64a.91.91,0,0,1,.84-.46h.1a.86.86,0,0,1,.81.46A.27.27,0,0,1,64.15,134.51Z" style="fill:#231f20"/><path d="M66.77,137.8a.1.1,0,0,1-.09.09h-.62a.94.94,0,0,1-1.06-1,1,1,0,0,1,0-.16l.2-1.94-.77-.14a.1.1,0,0,1-.09-.1l.05-.46a.12.12,0,0,1,.1-.09h.79l0-.39a.24.24,0,0,1,.11-.18l.56-.34.08,0a.11.11,0,0,1,.12.12l-.09.82h1a.09.09,0,0,1,.09.09l-.06.61c0,.05-.06.09-.11.09H66c-.07.7-.21,1.86-.21,2a.33.33,0,0,0,.37.36h.55a.08.08,0,0,1,.07.08Z" style="fill:#231f20"/><path d="M71.06,137.8a.11.11,0,0,1-.09.09h-.66a.07.07,0,0,1-.08-.07s0-.15.1-1.07l-.39.57a1.33,1.33,0,0,1-1.25.65h-.14a.94.94,0,0,1-1-1,.93.93,0,0,1,0-.13l.1-1.15a1.71,1.71,0,0,1,1.78-1.73h.08a2,2,0,0,1,1.07.33v-.16a.11.11,0,0,1,.1-.09h.66a.08.08,0,0,1,.07.08Zm-1.39-1.1.77-.95.09-.83a1.63,1.63,0,0,0-.94-.28h-.1a1,1,0,0,0-1,1l-.09,1.1a.67.67,0,0,0,0,.1.36.36,0,0,0,.34.4h.06C69.17,137.27,69.41,137,69.67,136.7Z" style="fill:#231f20"/><path d="M75.9,137.8a.12.12,0,0,1-.1.09h-.64a.08.08,0,0,1-.08-.09l.26-2.55s0-.23,0-.3-.08-.32-.26-.32h-.06c-.28,0-.49.27-.86.76l-.91,1.16-.13,1.25a.11.11,0,0,1-.1.09H72.4a.07.07,0,0,1-.08-.07l.38-3.71a.11.11,0,0,1,.1-.09h.65a.08.08,0,0,1,.08.09l-.13,1.38.5-.77c.34-.51.59-.79,1.16-.79h.23a.83.83,0,0,1,.91.92,1.31,1.31,0,0,1,0,.17Z" style="fill:#231f20"/><path d="M80.46,135.19a.1.1,0,0,1-.1.08h-.64a.07.07,0,0,1-.08-.07V135c0-.31-.27-.41-.67-.41h0c-.6,0-.93.34-1,1l-.08.86s0,.09,0,.14c0,.4.21.53.68.53H80a.08.08,0,0,1,.07.08l0,.53a.11.11,0,0,1-.09.09h-1.6A1.21,1.21,0,0,1,77,136.65c0-.06,0-.17,0-.18l.07-.82a1.71,1.71,0,0,1,1.78-1.72h.24c.81,0,1.37.39,1.37,1.06A1.68,1.68,0,0,1,80.46,135.19Z" style="fill:#231f20"/><path d="M82,136.6v.07c0,.39.22.52.68.52h1.68a.08.08,0,0,1,.07.08h0l0,.52a.11.11,0,0,1-.09.09H82.49a1.21,1.21,0,0,1-1.36-1.26s0-.15,0-.16l.07-.81A1.69,1.69,0,0,1,83,133.93h.57c.77,0,1.22.32,1.22.91,0,0,0,.16,0,.29-.07.72-.59.9-1.24,1.06Zm.06-.69,1.13-.32c.44-.13.75-.23.78-.54v-.13c0-.17-.15-.29-.36-.29H83c-.6,0-.93.34-1,1Z" style="fill:#231f20"/><path d="M89.33,138.76a.11.11,0,0,1-.1.1H89.1a1.34,1.34,0,0,1-1.53-1.37,1.65,1.65,0,0,1,0-.21l.46-4.33a1.65,1.65,0,0,1,1.84-1.57H90a.09.09,0,0,1,.09.09l0,.56a.13.13,0,0,1-.12.09h0a.87.87,0,0,0-1,.83l-.46,4.33s0,.1,0,.13c0,.47.3.7.82.7h0a.08.08,0,0,1,.08.09Z" style="fill:#231f20"/><path d="M93.47,137.8a.12.12,0,0,1-.11.09H90.27c-.06,0-.08,0-.08-.09l.55-5.29a.12.12,0,0,1,.1-.1h.69a.1.1,0,0,1,.08.1l-.48,4.58h2.31a.09.09,0,0,1,.09.09Z" style="fill:#231f20"/><path d="M97.75,136.24A1.72,1.72,0,0,1,96,138h-.48a1.22,1.22,0,0,1-1.36-1.26s0-.14,0-.16l.08-.88A1.72,1.72,0,0,1,96,133.94h.48a1.22,1.22,0,0,1,1.36,1.26,1.1,1.1,0,0,1,0,.16Zm-.75-.89a.75.75,0,0,0,0-.11c0-.42-.23-.6-.68-.6h-.28a1,1,0,0,0-1,1l-.08.88a.82.82,0,0,0,0,.14c0,.4.21.58.68.58h.29a1,1,0,0,0,1-1Z" style="fill:#231f20"/><path d="M98.92,134.11A.11.11,0,0,1,99,134h.63a.09.09,0,0,1,.09.09l-.28,2.71a1,1,0,0,0,0,.14c0,.19.08.31.26.31h.07c.3,0,.48-.2.7-.52l.8-1.22.15-1.42a.11.11,0,0,1,.1-.09h.63a.09.09,0,0,1,.09.09l-.27,2.56a2.22,2.22,0,0,0,0,.28c0,.21.14.32.36.32h.08a1.1,1.1,0,0,0,.93-.6,5.2,5.2,0,0,0,.44-1.95l.07-.61a.11.11,0,0,1,.09-.09h.66a.08.08,0,0,1,.08.08s0,.16-.07.73a5,5,0,0,1-.63,2.32,1.8,1.8,0,0,1-1.64.82h-.22a.89.89,0,0,1-1-.94v-.21l-.22.4a1.17,1.17,0,0,1-1.1.76h-.29a.82.82,0,0,1-.91-.91,1.15,1.15,0,0,1,0-.18Z" style="fill:#231f20"/><path d="M106,136.6v.07c0,.39.22.52.68.52h1.68a.08.08,0,0,1,.07.08h0l0,.52a.11.11,0,0,1-.1.09h-1.75a1.21,1.21,0,0,1-1.36-1.26s0-.15,0-.16l.07-.81a1.7,1.7,0,0,1,1.77-1.73h.57c.77,0,1.22.32,1.22.91a1.94,1.94,0,0,1,0,.29c-.07.72-.59.9-1.24,1.06Zm.07-.69,1.12-.32c.44-.13.76-.23.78-.54v-.13a.31.31,0,0,0-.35-.29h-.55c-.6,0-.93.34-1,1Z" style="fill:#231f20"/><path d="M112.8,134.51a.1.1,0,0,1,0,.07l-.58.45-.07,0s0,0-.07-.05-.17-.29-.33-.29h-.06c-.13,0-.23.12-.4.35l-.82,1-.18,1.69a.09.09,0,0,1-.09.09h-.66c-.06,0-.08,0-.08-.09l.39-3.69a.09.09,0,0,1,.09-.09h.66a.09.09,0,0,1,.08.09l-.1.93.46-.64a.91.91,0,0,1,.84-.46h.1a.87.87,0,0,1,.81.46S112.8,134.48,112.8,134.51Z" style="fill:#231f20"/><path d="M118,134.63a.1.1,0,0,1-.1.09h-1.68c-.27,0-.48.09-.5.35v.05c0,.19.16.29.37.35l.84.17c.6.12,1.06.39,1.06,1,0,.07,0,.12,0,.28-.08.68-.61,1-1.45,1h-1.78a.09.09,0,0,1-.08-.08l.06-.54a.11.11,0,0,1,.1-.08h1.83c.29,0,.49-.16.49-.42s-.22-.35-.56-.41-.54-.1-.81-.17a1,1,0,0,1-.88-1s0,0,0-.18c0-.64.53-1,1.36-1H118a.08.08,0,0,1,.08.08Z" style="fill:#231f20"/><path d="M121.44,136.68l-.35.6a1.19,1.19,0,0,1-1.2.7h-.28a.83.83,0,0,1-.9-.92c0-.05,0-.16,0-.17l.29-2.78a.1.1,0,0,1,.1-.09h.63a.09.09,0,0,1,.09.09s-.3,2.76-.3,2.85a.28.28,0,0,0,.27.31h.09c.44,0,.62-.25,1-.76l.7-1,.15-1.4a.11.11,0,0,1,.09-.09h.66a.09.09,0,0,1,.08.09l-.38,3.69a.11.11,0,0,1-.1.09h-.66c-.06,0-.08,0-.08-.09Z" style="fill:#231f20"/><path d="M126.76,135.19a.08.08,0,0,1-.09.08H126a.07.07,0,0,1-.08-.07.79.79,0,0,0,0-.16c0-.31-.27-.41-.67-.41h-.06c-.6,0-.93.34-1,1l-.08.86s0,.09,0,.14c0,.4.22.53.68.53h1.52a.08.08,0,0,1,.07.08l0,.53a.09.09,0,0,1-.09.09h-1.59a1.2,1.2,0,0,1-1.36-1.24c0-.06,0-.17,0-.18l.07-.82a1.7,1.7,0,0,1,1.77-1.72h.24c.81,0,1.37.39,1.37,1.06A1.68,1.68,0,0,1,126.76,135.19Z" style="fill:#231f20"/><path d="M130.56,135.19a.1.1,0,0,1-.1.08h-.65a.07.07,0,0,1-.08-.07.79.79,0,0,0,0-.16c0-.31-.27-.41-.67-.41H129c-.6,0-.92.34-1,1l-.08.86s0,.09,0,.14c0,.4.22.53.68.53h1.52a.08.08,0,0,1,.07.08l0,.53a.11.11,0,0,1-.1.09h-1.59a1.2,1.2,0,0,1-1.36-1.24c0-.06,0-.17,0-.18l.07-.82a1.7,1.7,0,0,1,1.78-1.72h.24c.8,0,1.36.39,1.36,1.06C130.57,135,130.56,135.12,130.56,135.19Z" style="fill:#231f20"/><path d="M132.05,136.6v.07c0,.39.21.52.67.52h1.68a.09.09,0,0,1,.08.08h0l0,.52a.11.11,0,0,1-.1.09h-1.75a1.22,1.22,0,0,1-1.36-1.26s0-.15,0-.16l.07-.81a1.71,1.71,0,0,1,1.78-1.73h.56c.77,0,1.23.32,1.23.91a2.52,2.52,0,0,1,0,.29c-.07.72-.59.9-1.24,1.06Zm.06-.69,1.13-.32c.44-.13.75-.23.77-.54v-.13c0-.17-.14-.29-.35-.29h-.54c-.6,0-.93.34-1,1Z" style="fill:#231f20"/><path d="M138.58,134.63a.1.1,0,0,1-.1.09H136.8c-.27,0-.47.09-.5.35v.05c0,.19.16.29.37.35l.84.17c.61.12,1.06.39,1.06,1,0,.07,0,.12,0,.28-.08.68-.61,1-1.45,1h-1.77a.09.09,0,0,1-.08-.08s0-.18.05-.54a.11.11,0,0,1,.1-.08h1.83c.29,0,.49-.16.49-.42s-.22-.35-.55-.41-.55-.1-.82-.17a1,1,0,0,1-.88-1s0,0,0-.18c0-.64.53-1,1.37-1h1.71a.09.09,0,0,1,.08.08Z" style="fill:#231f20"/><path d="M142.24,134.63a.1.1,0,0,1-.1.09h-1.69c-.26,0-.47.09-.49.35v.05c0,.19.16.29.37.35l.84.17c.6.12,1.06.39,1.06,1,0,.07,0,.12,0,.28-.08.68-.61,1-1.45,1H139a.09.09,0,0,1-.08-.08l.06-.54a.11.11,0,0,1,.09-.08h1.84a.44.44,0,0,0,.49-.42c0-.27-.22-.35-.56-.41s-.54-.1-.81-.17a1,1,0,0,1-.88-1s0,0,0-.18c0-.64.53-1,1.36-1h1.71a.09.09,0,0,1,.08.08Z" style="fill:#231f20"/><path d="M145.31,134.1a.11.11,0,0,1,.1-.09h.65a.08.08,0,0,1,.08.08s0,.23-.11,1.07l.4-.58a1.35,1.35,0,0,1,1.25-.65h.14a.94.94,0,0,1,1,1,.72.72,0,0,1,0,.13l-.09,1.08a1.71,1.71,0,0,1-1.78,1.73h-1.19l-.14,1.34a.11.11,0,0,1-.1.09h-.65a.07.07,0,0,1-.08-.07Zm.62,2.06-.12,1h1.08a1,1,0,0,0,1-1c0-.37.1-1,.1-1.12a.37.37,0,0,0-.34-.4h-.06c-.38,0-.62.25-.88.57Z" style="fill:#231f20"/><path d="M153,134.51a.08.08,0,0,1,0,.07l-.57.45-.07,0s-.05,0-.08-.05-.16-.29-.32-.29h-.06c-.14,0-.23.12-.41.35l-.81,1-.18,1.69a.11.11,0,0,1-.09.09h-.66c-.06,0-.08,0-.08-.09l.38-3.69a.11.11,0,0,1,.1-.09h.65a.08.08,0,0,1,.08.09l-.09.93.46-.64a.91.91,0,0,1,.83-.46h.11a.87.87,0,0,1,.81.46A.49.49,0,0,1,153,134.51Z" style="fill:#231f20"/><path d="M153.79,136.6v.07c0,.39.22.52.68.52h1.68a.08.08,0,0,1,.07.08h0l-.05.52a.11.11,0,0,1-.09.09h-1.75a1.21,1.21,0,0,1-1.36-1.26v-.16l.08-.81a1.69,1.69,0,0,1,1.77-1.73h.57c.77,0,1.22.32,1.22.91,0,0,0,.16,0,.29-.07.72-.59.9-1.24,1.06Zm.06-.69,1.13-.32c.44-.13.75-.23.78-.54v-.13c0-.17-.14-.29-.35-.29h-.54c-.6,0-.93.34-1,1Z" style="fill:#231f20"/><path d="M160.6,137.8a.11.11,0,0,1-.1.09h-.66c-.05,0-.08,0-.08-.1l.12-1-.4.57a1.36,1.36,0,0,1-1.26.65h-.13a1,1,0,0,1-1-1,.78.78,0,0,1,0-.13l.11-1.15a1.7,1.7,0,0,1,1.77-1.73h.09a2,2,0,0,1,1.07.32l.21-1.92a.11.11,0,0,1,.09-.09h.66a.08.08,0,0,1,.08.08Zm-1.39-1.1.77-1,.09-.82a1.63,1.63,0,0,0-.94-.28H159a1,1,0,0,0-1,1c0,.4-.1,1-.1,1.2a.36.36,0,0,0,.34.4h.06C158.71,137.27,158.94,137,159.21,136.7Z" style="fill:#231f20"/><path d="M162.8,137.8a.12.12,0,0,1-.11.09h-.76c-.06,0-.08,0-.08-.09l.08-.74a.1.1,0,0,1,.1-.09h.76a.08.08,0,0,1,.08.09Z" style="fill:#231f20"/><path d="M164.06,131.48a.13.13,0,0,1,.11-.1h.12a1.33,1.33,0,0,1,1.52,1.37,1.62,1.62,0,0,1,0,.21l-.45,4.33a1.66,1.66,0,0,1-1.84,1.57h-.13a.09.09,0,0,1-.09-.09l.06-.56a.13.13,0,0,1,.11-.1h0a.88.88,0,0,0,1-.82l.45-4.33s0-.1,0-.13c0-.47-.29-.71-.81-.71h0c-.07,0-.08,0-.08-.08Z" style="fill:#231f20"/><path d="M167.86,137.8a.12.12,0,0,1-.1.09H167c-.07,0-.08,0-.08-.09l.07-.74a.12.12,0,0,1,.1-.09h.76a.09.09,0,0,1,.08.09Zm.28-2.68a.11.11,0,0,1-.1.09h-.76c-.07,0-.08,0-.08-.09l.08-.74a.1.1,0,0,1,.09-.09h.76a.09.09,0,0,1,.09.09Z" style="fill:#231f20"/><rect x="199.79" y="130.22" width="9.67" height="9.67" style="fill:#eb6e62;opacity:0.25"/><rect x="209.46" y="130.22" width="9.67" height="9.67" style="fill:#eb6e62;opacity:0.5"/><rect x="218.63" y="130.22" width="9.67" height="9.67" style="fill:#eb6e62;opacity:0.75"/><rect x="228.29" y="130.22" width="9.67" height="9.67" style="fill:#eb6e62"/><path d="M182.57,137.8a.12.12,0,0,1-.1.09h-3.1c-.06,0-.08,0-.08-.09l.55-5.29a.12.12,0,0,1,.1-.1h.69a.1.1,0,0,1,.08.1l-.48,4.58h2.32a.09.09,0,0,1,.08.09Z" style="fill:#231f20"/><path d="M186.85,136.24a1.72,1.72,0,0,1-1.78,1.73h-.48a1.22,1.22,0,0,1-1.36-1.26s0-.14,0-.16l.08-.88a1.72,1.72,0,0,1,1.78-1.73h.48a1.22,1.22,0,0,1,1.36,1.26,1.1,1.1,0,0,1,0,.16Zm-.75-.89a.75.75,0,0,0,0-.11c0-.42-.23-.6-.68-.6h-.28a1,1,0,0,0-1,1l-.08.88a.82.82,0,0,0,0,.14c0,.4.21.58.68.58H185a1,1,0,0,0,1-1Z" style="fill:#231f20"/><path d="M188,134.11a.11.11,0,0,1,.1-.09h.63a.09.09,0,0,1,.09.09l-.28,2.71a1,1,0,0,0,0,.14c0,.19.08.31.26.31h.07c.3,0,.48-.2.7-.52l.8-1.22.15-1.42a.12.12,0,0,1,.1-.09h.63a.09.09,0,0,1,.09.09l-.27,2.56a2.22,2.22,0,0,0,0,.28c0,.21.14.32.36.32h.08a1.1,1.1,0,0,0,.93-.6,5.2,5.2,0,0,0,.44-1.95l.07-.61A.11.11,0,0,1,193,134h.66a.08.08,0,0,1,.08.08s0,.16-.07.73a5,5,0,0,1-.63,2.32,1.8,1.8,0,0,1-1.64.82h-.22a.89.89,0,0,1-1-.94.92.92,0,0,1,0-.16v-.05l-.22.4a1.17,1.17,0,0,1-1.1.76h-.29a.82.82,0,0,1-.91-.91,1.15,1.15,0,0,1,0-.18Z" style="fill:#231f20"/><path d="M247.07,137.8a.12.12,0,0,1-.1.09h-.69a.08.08,0,0,1-.09-.09l.26-2.42h-2.6l-.26,2.42a.11.11,0,0,1-.09.09h-.7c-.06,0-.08,0-.08-.09l.55-5.29a.12.12,0,0,1,.1-.1h.69s.08,0,.08.1l-.22,2.12h2.6l.22-2.12a.13.13,0,0,1,.11-.1h.68a.09.09,0,0,1,.09.1Z" style="fill:#231f20"/><path d="M249.62,137.8a.1.1,0,0,1-.1.09h-.64a.08.08,0,0,1-.09-.09l.31-3-.82-.17c-.06,0-.08,0-.08-.09l0-.4a.11.11,0,0,1,.1-.09h1.58a.09.09,0,0,1,.09.09Zm.59-4.81a.11.11,0,0,1-.1.09h-.81a.08.08,0,0,1-.08-.09l.08-.76a.11.11,0,0,1,.1-.1h.81a.1.1,0,0,1,.08.1Z" style="fill:#231f20"/><path d="M254.36,137.59a1.72,1.72,0,0,1-1.78,1.73h-1.72a.07.07,0,0,1-.08-.07l.05-.54a.1.1,0,0,1,.1-.09h1.61c.6,0,.93-.43,1-1l.08-.84-.4.57A1.35,1.35,0,0,1,252,138h-.14a1,1,0,0,1-1-1,.72.72,0,0,1,0-.13l.1-1.15a1.71,1.71,0,0,1,1.78-1.73h.09a2,2,0,0,1,1.06.33v-.16a.11.11,0,0,1,.1-.09h.66a.08.08,0,0,1,.08.08ZM253,136.7l.78-1,.08-.82a1.63,1.63,0,0,0-.94-.28h-.09a1,1,0,0,0-1,1c0,.4-.11,1.06-.11,1.2a.36.36,0,0,0,.35.4h0C252.46,137.27,252.69,137,253,136.7Z" style="fill:#231f20"/><path d="M259.18,137.8a.1.1,0,0,1-.1.09h-.63a.08.08,0,0,1-.09-.09l.26-2.55a2.13,2.13,0,0,0,0-.3c0-.18-.08-.32-.26-.32h-.06c-.28,0-.48.27-.86.76l-.91,1.16-.13,1.25a.11.11,0,0,1-.09.09h-.66a.07.07,0,0,1-.08-.07l.58-5.48a.11.11,0,0,1,.1-.09h.66a.09.09,0,0,1,.08.09l-.34,3.15.5-.77c.34-.51.59-.79,1.16-.79h.23a.83.83,0,0,1,.91.92,1.09,1.09,0,0,1,0,.17Z" style="fill:#231f20"/><path d="M11.3,121.27a.09.09,0,0,1-.09.09h-.7a.07.07,0,0,1-.08-.07s0-.09,0-.17L11,116a.12.12,0,0,1,.1-.1h3.48a.1.1,0,0,1,.09.1l-.05.56a.12.12,0,0,1-.11.09h-2.7l-.18,1.64h2.71a.08.08,0,0,1,.08.09l-.05.56a.13.13,0,0,1-.11.1h-2.7Z" style="fill:#231f20"/><path d="M15.65,120.07v.07c0,.39.22.52.68.52H18a.09.09,0,0,1,.08.08h0l-.05.52a.11.11,0,0,1-.1.09H16.19a1.22,1.22,0,0,1-1.36-1.26s0-.15,0-.16l.07-.81a1.71,1.71,0,0,1,1.78-1.73h.56c.77,0,1.23.32,1.23.91a2.75,2.75,0,0,1,0,.29c-.07.72-.59.9-1.24,1.06Zm.07-.69,1.13-.32c.44-.13.75-.23.77-.54v-.13c0-.17-.14-.29-.35-.29h-.55c-.59,0-.92.34-1,1Z" style="fill:#231f20"/><path d="M22.46,121.27a.11.11,0,0,1-.09.09h-.66a.07.07,0,0,1-.08-.07s0-.15.1-1.07l-.39.57a1.33,1.33,0,0,1-1.25.65H20a1,1,0,0,1-1-1,.93.93,0,0,1,0-.13l.1-1.15a1.71,1.71,0,0,1,1.78-1.73h.08a1.93,1.93,0,0,1,1.07.33v-.16a.11.11,0,0,1,.1-.09h.66a.09.09,0,0,1,.08.08Zm-1.39-1.1.77-1,.09-.84a1.7,1.7,0,0,0-.94-.27h-.1a1,1,0,0,0-1,1l-.09,1.1a.67.67,0,0,0,0,.1.36.36,0,0,0,.35.4h.05C20.57,120.74,20.81,120.49,21.07,120.17Z" style="fill:#231f20"/><path d="M25.77,121.27a.11.11,0,0,1-.1.09h-.62a.94.94,0,0,1-1.06-1,1,1,0,0,1,0-.16l.21-1.94-.78-.14a.11.11,0,0,1-.09-.1l.05-.46a.12.12,0,0,1,.11-.09h.79l.05-.39a.19.19,0,0,1,.11-.18l.56-.34a.11.11,0,0,1,.08,0c.07,0,.11,0,.11.12l-.09.82h1a.09.09,0,0,1,.08.09l-.06.61a.11.11,0,0,1-.1.09H25c-.07.7-.21,1.86-.21,2a.33.33,0,0,0,.37.36h.55a.08.08,0,0,1,.07.08Z" style="fill:#231f20"/><path d="M29.37,120.15l-.35.6a1.18,1.18,0,0,1-1.2.7h-.27a.83.83,0,0,1-.9-.92s0-.16,0-.17l.28-2.78a.12.12,0,0,1,.11-.09h.63a.09.09,0,0,1,.09.09s-.3,2.76-.3,2.85.07.31.26.31h.1c.43,0,.62-.25,1-.76l.69-1,.16-1.4a.09.09,0,0,1,.09-.09h.66a.09.09,0,0,1,.08.09l-.39,3.69a.09.09,0,0,1-.09.09h-.66c-.06,0-.08,0-.08-.09Z" style="fill:#231f20"/><path d="M34.72,118a.09.09,0,0,1,0,.07l-.58.45-.07,0s0,0-.07,0-.17-.29-.33-.29h-.06c-.13,0-.23.12-.41.35l-.81,1-.18,1.69a.09.09,0,0,1-.09.09h-.66c-.06,0-.08,0-.08-.09l.38-3.69a.11.11,0,0,1,.1-.09h.66a.09.09,0,0,1,.08.09l-.1.93.46-.64a.91.91,0,0,1,.84-.46h.1a.87.87,0,0,1,.81.46A.49.49,0,0,1,34.72,118Z" style="fill:#231f20"/><path d="M35.55,120.07v.07c0,.39.22.52.68.52h1.68a.08.08,0,0,1,.07.08h0l0,.52a.09.09,0,0,1-.09.09H36.09a1.21,1.21,0,0,1-1.36-1.26v-.16l.08-.81a1.69,1.69,0,0,1,1.77-1.73h.57c.77,0,1.22.32,1.22.91a2,2,0,0,1,0,.29c-.07.72-.59.9-1.24,1.06Zm.06-.69,1.13-.32c.44-.13.75-.23.78-.54v-.13c0-.17-.15-.29-.36-.29h-.54c-.6,0-.93.34-1,1Z" style="fill:#231f20"/><path d="M41.86,121.27a.11.11,0,0,1-.09.09h-.7c-.06,0-.08,0-.08-.09l.55-5.29a.12.12,0,0,1,.1-.1h.69a.1.1,0,0,1,.08.1Z" style="fill:#231f20"/><path d="M44.28,118.92l.49-.74c.34-.53.58-.78,1.12-.78h.2c.53,0,.81.29.81.87a1.48,1.48,0,0,1,0,.21l0,.42.47-.72c.35-.53.59-.78,1.12-.78h.21c.53,0,.81.29.81.87a1.7,1.7,0,0,1,0,.21l-.29,2.79a.1.1,0,0,1-.1.09h-.63a.08.08,0,0,1-.09-.09c.1-1,.3-2.81.3-2.93s-.07-.24-.17-.24h-.1c-.21,0-.4.26-.73.7L46.73,120l-.13,1.29a.1.1,0,0,1-.1.09h-.63a.08.08,0,0,1-.09-.09c.11-1,.31-2.89.31-2.93s-.08-.24-.18-.24h-.1c-.2,0-.4.26-.73.7L44.17,120,44,121.27a.11.11,0,0,1-.1.09h-.65a.07.07,0,0,1-.08-.07l.38-3.71a.11.11,0,0,1,.1-.09h.65a.08.08,0,0,1,.08.08Z" style="fill:#231f20"/><path d="M50.81,117.57a.09.09,0,0,1,.09-.09h.66a.08.08,0,0,1,.08.08s0,.23-.11,1.06l.4-.57a1.35,1.35,0,0,1,1.25-.65h.14a1,1,0,0,1,1,1,.72.72,0,0,1,0,.13l-.09,1.08a1.72,1.72,0,0,1-1.78,1.73H51.24l-.15,1.34a.09.09,0,0,1-.09.09h-.66a.08.08,0,0,1-.08-.07Zm.61,2.06-.11,1h1.07c.6,0,.94-.42,1-1,0-.37.1-1,.1-1.12a.37.37,0,0,0-.35-.4h-.05a1.13,1.13,0,0,0-.88.57Z" style="fill:#231f20"/><path d="M58.6,119.71a1.71,1.71,0,0,1-1.77,1.73h-.48A1.21,1.21,0,0,1,55,120.18s0-.14,0-.16l.08-.88a1.7,1.7,0,0,1,1.77-1.73h.48a1.21,1.21,0,0,1,1.36,1.26,1.1,1.1,0,0,1,0,.16Zm-.74-.89a.75.75,0,0,0,0-.11c0-.42-.23-.6-.68-.6H56.9a1,1,0,0,0-1,1l-.08.88a.82.82,0,0,0,0,.14c0,.4.22.58.68.58h.29a1,1,0,0,0,1-1Z" style="fill:#231f20"/><path d="M62.86,118a.08.08,0,0,1,0,.07l-.57.45s0,0-.08,0,0,0-.07,0-.17-.29-.33-.29h-.05c-.14,0-.23.12-.41.35l-.82,1-.17,1.69a.11.11,0,0,1-.1.09h-.65c-.07,0-.08,0-.08-.09l.38-3.69a.11.11,0,0,1,.1-.09h.65a.09.09,0,0,1,.08.09l-.09.93.45-.64a.92.92,0,0,1,.84-.46H62a.84.84,0,0,1,.8.46A.27.27,0,0,1,62.86,118Z" style="fill:#231f20"/><path d="M65.49,121.27a.11.11,0,0,1-.1.09h-.62a.94.94,0,0,1-1.06-1,1,1,0,0,1,0-.16l.21-1.94-.78-.14a.11.11,0,0,1-.09-.1l0-.46a.12.12,0,0,1,.11-.09H64l0-.39a.23.23,0,0,1,.12-.18l.56-.34a.11.11,0,0,1,.08,0c.07,0,.11,0,.11.12l-.09.82h1a.09.09,0,0,1,.09.09l-.06.61s-.06.09-.11.09h-1c-.07.7-.21,1.86-.21,2a.33.33,0,0,0,.37.36h.55a.08.08,0,0,1,.07.08Z" style="fill:#231f20"/><path d="M69.77,121.27a.11.11,0,0,1-.09.09H69a.07.07,0,0,1-.08-.07s0-.15.11-1.07l-.4.57a1.32,1.32,0,0,1-1.25.65h-.14a1,1,0,0,1-1-1,.93.93,0,0,1,0-.13l.1-1.15a1.71,1.71,0,0,1,1.78-1.73h.09a1.93,1.93,0,0,1,1.06.33l0-.16a.09.09,0,0,1,.09-.09h.66a.08.08,0,0,1,.08.08Zm-1.39-1.1.77-1,.09-.84a1.7,1.7,0,0,0-.94-.27h-.09a1,1,0,0,0-1,1l-.1,1.1a.67.67,0,0,0,0,.1.36.36,0,0,0,.35.4h0C67.89,120.74,68.12,120.49,68.38,120.17Z" style="fill:#231f20"/><path d="M74.61,121.27a.11.11,0,0,1-.1.09h-.63a.08.08,0,0,1-.09-.09l.26-2.55s0-.23,0-.3-.08-.32-.26-.32h-.06c-.28,0-.48.27-.86.76L72,120l-.13,1.25a.11.11,0,0,1-.09.09h-.66a.07.07,0,0,1-.08-.07l.38-3.71a.11.11,0,0,1,.1-.09h.66a.09.09,0,0,1,.08.09L72.11,119l.5-.77c.34-.51.59-.79,1.16-.79H74a.83.83,0,0,1,.91.92,1.31,1.31,0,0,1,0,.17Z" style="fill:#231f20"/><path d="M79.17,118.66a.09.09,0,0,1-.09.08h-.65a.07.07,0,0,1-.08-.07.92.92,0,0,0,0-.16c0-.31-.27-.41-.67-.41h-.06c-.6,0-.93.34-1,1l-.08.86s0,.09,0,.14c0,.4.22.53.68.53h1.52a.08.08,0,0,1,.07.08s0,0,0,.53a.11.11,0,0,1-.09.09H77.09a1.2,1.2,0,0,1-1.36-1.24v-.18l.08-.82a1.69,1.69,0,0,1,1.77-1.72h.24c.81,0,1.37.39,1.37,1.06A1.68,1.68,0,0,1,79.17,118.66Z" style="fill:#231f20"/><path d="M80.66,120.07v.07c0,.39.22.52.68.52H83a.08.08,0,0,1,.07.08h0l0,.52a.11.11,0,0,1-.1.09H81.2a1.21,1.21,0,0,1-1.36-1.26s0-.15,0-.16l.07-.81a1.7,1.7,0,0,1,1.77-1.73h.57c.77,0,1.22.32,1.22.91a2,2,0,0,1,0,.29c-.07.72-.59.9-1.24,1.06Zm.07-.69,1.12-.32c.44-.13.75-.23.78-.54v-.13a.31.31,0,0,0-.35-.29h-.55c-.6,0-.93.34-1,1Z" style="fill:#231f20"/><path d="M88.05,122.23a.13.13,0,0,1-.11.1h-.13A1.33,1.33,0,0,1,86.29,121a1.55,1.55,0,0,1,0-.21l.46-4.33a1.66,1.66,0,0,1,1.84-1.57h.12a.09.09,0,0,1,.09.09l0,.56a.13.13,0,0,1-.12.09h0a.87.87,0,0,0-1,.83l-.46,4.33v.13c0,.47.29.7.81.7h0a.08.08,0,0,1,.08.09Z" style="fill:#231f20"/><path d="M93.22,121.27a.12.12,0,0,1-.1.09h-.69a.08.08,0,0,1-.09-.09l.26-2.42H90l-.26,2.42a.11.11,0,0,1-.09.09H89c-.06,0-.08,0-.08-.09l.55-5.29a.12.12,0,0,1,.1-.1h.69s.08,0,.08.1l-.22,2.12h2.6l.22-2.12a.13.13,0,0,1,.11-.1h.68a.09.09,0,0,1,.09.1Z" style="fill:#231f20"/><path d="M95.77,121.27a.1.1,0,0,1-.1.09H95a.08.08,0,0,1-.09-.09l.31-3-.82-.17c-.06,0-.08,0-.08-.09l0-.4a.11.11,0,0,1,.1-.09h1.58a.09.09,0,0,1,.09.09Zm.59-4.81a.11.11,0,0,1-.1.09h-.81a.08.08,0,0,1-.08-.09l.08-.76a.11.11,0,0,1,.1-.1h.81a.1.1,0,0,1,.08.1Z" style="fill:#231f20"/><path d="M100.51,121.06a1.73,1.73,0,0,1-1.78,1.73H97a.07.07,0,0,1-.08-.07l0-.54a.1.1,0,0,1,.1-.09h1.61c.6,0,.93-.43,1-1l.09-.84-.4.57a1.35,1.35,0,0,1-1.25.65H98a1,1,0,0,1-1-1,.72.72,0,0,1,0-.13l.1-1.15a1.71,1.71,0,0,1,1.78-1.73H99a1.93,1.93,0,0,1,1.06.33l0-.16a.09.09,0,0,1,.09-.09h.66a.08.08,0,0,1,.08.08Zm-1.41-.89.78-1,.08-.83a1.7,1.7,0,0,0-.94-.27h-.09a1,1,0,0,0-1,1c0,.4-.11,1.06-.11,1.2a.36.36,0,0,0,.35.4h0C98.61,120.74,98.84,120.49,99.1,120.17Z" style="fill:#231f20"/><path d="M105.33,121.27a.11.11,0,0,1-.1.09h-.63a.08.08,0,0,1-.09-.09l.26-2.55a2.27,2.27,0,0,0,0-.3c0-.18-.08-.32-.26-.32h-.06c-.27,0-.48.27-.86.76l-.91,1.16-.13,1.25a.11.11,0,0,1-.09.09h-.66a.07.07,0,0,1-.08-.07l.58-5.48a.11.11,0,0,1,.1-.09h.66a.09.09,0,0,1,.08.09l-.34,3.15.5-.77c.34-.51.59-.79,1.16-.79h.23a.83.83,0,0,1,.91.92,1.09,1.09,0,0,1,0,.17Z" style="fill:#231f20"/><path d="M107.27,120.07v.07c0,.39.22.52.68.52h1.68a.08.08,0,0,1,.07.08h0l0,.52a.11.11,0,0,1-.09.09H107.8a1.21,1.21,0,0,1-1.35-1.26v-.16l.08-.81a1.69,1.69,0,0,1,1.77-1.73h.57c.77,0,1.22.32,1.22.91,0,0,0,.15,0,.29-.07.72-.59.9-1.24,1.06Zm.06-.69,1.13-.32c.44-.13.75-.23.78-.54v-.13c0-.17-.14-.29-.35-.29h-.54c-.6,0-.93.34-1,1Z" style="fill:#231f20"/><path d="M114.08,118a.08.08,0,0,1,0,.07l-.57.45-.07,0s-.05,0-.08,0-.16-.29-.32-.29h-.06c-.14,0-.23.12-.41.35l-.81,1-.18,1.69a.11.11,0,0,1-.09.09h-.66c-.06,0-.08,0-.08-.09l.38-3.69a.11.11,0,0,1,.1-.09h.66a.09.09,0,0,1,.08.09l-.1.93.46-.64a.91.91,0,0,1,.84-.46h.1a.87.87,0,0,1,.81.46A.49.49,0,0,1,114.08,118Z" style="fill:#231f20"/><path d="M119.32,118.1a.1.1,0,0,1-.1.09h-1.69c-.26,0-.47.09-.49.35v0c0,.2.16.3.37.36l.83.17c.61.12,1.07.39,1.07,1a2.42,2.42,0,0,1,0,.28c-.08.68-.6,1-1.44,1h-1.78a.09.09,0,0,1-.08-.08s0-.18.06-.54a.11.11,0,0,1,.09-.08H118a.44.44,0,0,0,.49-.42c0-.27-.22-.35-.56-.41s-.54-.1-.81-.17a1,1,0,0,1-.88-1v-.19c0-.63.54-1,1.37-1h1.71a.09.09,0,0,1,.08.08Z" style="fill:#231f20"/><path d="M122.72,120.15l-.35.6a1.17,1.17,0,0,1-1.2.7h-.27a.83.83,0,0,1-.9-.92s0-.16,0-.17l.28-2.78a.12.12,0,0,1,.11-.09H121a.09.09,0,0,1,.09.09s-.3,2.76-.3,2.85.07.31.27.31h.09c.43,0,.62-.25,1-.76l.69-1,.16-1.4a.09.09,0,0,1,.09-.09h.66a.09.09,0,0,1,.08.09l-.39,3.69a.09.09,0,0,1-.09.09h-.66c-.06,0-.08,0-.08-.09Z" style="fill:#231f20"/><path d="M128.05,118.66a.09.09,0,0,1-.09.08h-.65a.07.07,0,0,1-.08-.07.92.92,0,0,0,0-.16c0-.31-.27-.41-.68-.41h0c-.6,0-.93.34-1,1l-.08.86s0,.09,0,.14c0,.4.21.53.68.53h1.52a.08.08,0,0,1,.07.08s0,0,0,.53a.11.11,0,0,1-.09.09H126a1.2,1.2,0,0,1-1.36-1.24v-.18l.08-.82a1.69,1.69,0,0,1,1.77-1.72h.24c.81,0,1.37.39,1.37,1.06A1.68,1.68,0,0,1,128.05,118.66Z" style="fill:#231f20"/><path d="M131.84,118.66a.08.08,0,0,1-.09.08h-.65a.07.07,0,0,1-.08-.07.92.92,0,0,0,0-.16c0-.31-.27-.41-.67-.41h-.06c-.6,0-.93.34-1,1l-.08.86s0,.09,0,.14c0,.4.22.53.68.53h1.52a.08.08,0,0,1,.07.08s0,0-.05.53a.09.09,0,0,1-.09.09h-1.59a1.2,1.2,0,0,1-1.36-1.24c0-.06,0-.17,0-.18l.07-.82a1.7,1.7,0,0,1,1.77-1.72h.24c.81,0,1.37.39,1.37,1.06A1.68,1.68,0,0,1,131.84,118.66Z" style="fill:#231f20"/><path d="M133.33,120.07v.07c0,.39.22.52.68.52h1.68a.08.08,0,0,1,.07.08h0l0,.52a.11.11,0,0,1-.1.09h-1.75a1.21,1.21,0,0,1-1.36-1.26s0-.15,0-.16l.07-.81a1.7,1.7,0,0,1,1.77-1.73h.57c.77,0,1.23.32,1.23.91a2.75,2.75,0,0,1,0,.29c-.07.72-.59.9-1.24,1.06Zm.07-.69,1.12-.32c.44-.13.76-.23.78-.54v-.13a.31.31,0,0,0-.35-.29h-.55c-.6,0-.93.34-1,1Z" style="fill:#231f20"/><path d="M139.87,118.1a.1.1,0,0,1-.1.09h-1.68c-.27,0-.48.09-.5.35v0c0,.2.16.3.37.36l.84.17c.6.12,1.06.39,1.06,1,0,.07,0,.12,0,.28-.08.68-.61,1-1.45,1h-1.78a.09.09,0,0,1-.08-.08s0-.18.06-.54a.11.11,0,0,1,.1-.08h1.83a.44.44,0,0,0,.49-.42c0-.27-.22-.35-.56-.41s-.54-.1-.81-.17a1,1,0,0,1-.88-1s0,0,0-.19c0-.63.53-1,1.36-1h1.71a.09.09,0,0,1,.08.08Z" style="fill:#231f20"/><path d="M143.52,118.1a.08.08,0,0,1-.09.09h-1.69c-.26,0-.47.09-.49.35v0c0,.2.16.3.36.36l.84.17c.61.12,1.07.39,1.07,1a2.42,2.42,0,0,1,0,.28c-.08.68-.6,1-1.44,1h-1.78a.09.09,0,0,1-.08-.08s0-.18.06-.54a.09.09,0,0,1,.09-.08h1.83c.29,0,.5-.16.5-.42s-.23-.35-.56-.41-.55-.1-.82-.17a1,1,0,0,1-.88-1s0,0,0-.19c0-.63.54-1,1.37-1h1.71a.09.09,0,0,1,.08.08Z" style="fill:#231f20"/><path d="M146.6,117.57a.11.11,0,0,1,.09-.09h.66a.08.08,0,0,1,.08.08s0,.23-.11,1.06l.4-.57a1.35,1.35,0,0,1,1.25-.65h.14a1,1,0,0,1,1,1,.72.72,0,0,1,0,.13l-.09,1.08a1.72,1.72,0,0,1-1.78,1.73H147l-.14,1.34a.11.11,0,0,1-.1.09h-.66a.08.08,0,0,1-.08-.07Zm.61,2.06-.11,1h1.07a1,1,0,0,0,1-1c0-.37.1-1,.1-1.12a.37.37,0,0,0-.35-.4h0a1.13,1.13,0,0,0-.88.57Z" style="fill:#231f20"/><path d="M154.25,118a.08.08,0,0,1,0,.07l-.57.45s0,0-.08,0,0,0-.07,0-.17-.29-.33-.29h0c-.14,0-.23.12-.41.35l-.81,1-.18,1.69a.11.11,0,0,1-.1.09H151c-.07,0-.08,0-.08-.09l.38-3.69a.11.11,0,0,1,.1-.09H152a.09.09,0,0,1,.08.09l-.09.93.45-.64a.92.92,0,0,1,.84-.46h.11a.84.84,0,0,1,.8.46A.27.27,0,0,1,154.25,118Z" style="fill:#231f20"/><path d="M155.08,120.07v.07c0,.39.21.52.68.52h1.68a.08.08,0,0,1,.07.08h0l0,.52a.11.11,0,0,1-.1.09h-1.75a1.22,1.22,0,0,1-1.36-1.26s0-.15,0-.16l.07-.81a1.71,1.71,0,0,1,1.78-1.73h.57c.76,0,1.22.32,1.22.91,0,0,0,.15,0,.29-.08.72-.6.9-1.24,1.06Zm.06-.69,1.13-.32c.44-.13.75-.23.77-.54v-.13c0-.17-.14-.29-.35-.29h-.54c-.6,0-.93.34-1,1Z" style="fill:#231f20"/><path d="M161.88,121.27a.09.09,0,0,1-.09.09h-.66s-.08,0-.08-.1l.11-1-.4.57a1.35,1.35,0,0,1-1.25.65h-.14a1,1,0,0,1-1-1,.78.78,0,0,1,0-.13l.1-1.15a1.72,1.72,0,0,1,1.78-1.73h.09a2,2,0,0,1,1.07.32l.21-1.92a.09.09,0,0,1,.09-.09h.66a.08.08,0,0,1,.08.08Zm-1.39-1.1.78-1,.09-.83a1.71,1.71,0,0,0-1-.27h-.09a1,1,0,0,0-1,1c0,.4-.11,1-.11,1.2a.37.37,0,0,0,.35.4h.05C160,120.74,160.23,120.49,160.49,120.17Z" style="fill:#231f20"/><path d="M164.09,121.27a.12.12,0,0,1-.11.09h-.76c-.06,0-.08,0-.08-.09l.07-.74a.12.12,0,0,1,.11-.09h.76a.08.08,0,0,1,.08.09Z" style="fill:#231f20"/><path d="M165.35,115a.13.13,0,0,1,.1-.1h.13a1.33,1.33,0,0,1,1.52,1.37,1.62,1.62,0,0,1,0,.21l-.45,4.33a1.67,1.67,0,0,1-1.84,1.57h-.13a.08.08,0,0,1-.09-.09l.06-.56a.13.13,0,0,1,.11-.1h0a.88.88,0,0,0,1-.82l.45-4.33s0-.1,0-.13c0-.47-.3-.71-.82-.71h0a.07.07,0,0,1-.08-.08Z" style="fill:#231f20"/><path d="M169.15,121.27a.12.12,0,0,1-.1.09h-.76c-.07,0-.08,0-.08-.09l.07-.74a.11.11,0,0,1,.1-.09h.76a.09.09,0,0,1,.08.09Zm.28-2.68a.12.12,0,0,1-.11.09h-.76c-.06,0-.07,0-.07-.09l.07-.74a.1.1,0,0,1,.1-.09h.76a.09.09,0,0,1,.09.09Z" style="fill:#231f20"/><rect x="200.16" y="113.69" width="9.67" height="9.67" style="fill:#5ca2d8;opacity:0.25"/><rect x="209.83" y="113.69" width="9.67" height="9.67" style="fill:#5ca2d8;opacity:0.5"/><rect x="219" y="113.69" width="9.67" height="9.67" style="fill:#5ca2d8;opacity:0.75"/><rect x="228.66" y="113.69" width="9.67" height="9.67" style="fill:#5ca2d8"/><path d="M182.94,121.27a.12.12,0,0,1-.11.09h-3.09c-.07,0-.08,0-.08-.09l.55-5.29a.12.12,0,0,1,.1-.1H181a.1.1,0,0,1,.08.1l-.48,4.58h2.31a.09.09,0,0,1,.09.09Z" style="fill:#231f20"/><path d="M187.22,119.71a1.73,1.73,0,0,1-1.78,1.73H185a1.22,1.22,0,0,1-1.36-1.26s0-.14,0-.16l.08-.88a1.71,1.71,0,0,1,1.78-1.73h.47a1.21,1.21,0,0,1,1.36,1.26v.16Zm-.75-.89a.75.75,0,0,0,0-.11c0-.42-.23-.6-.68-.6h-.29a1,1,0,0,0-1,1l-.08.88v.14c0,.4.21.58.68.58h.28a1,1,0,0,0,1-1Z" style="fill:#231f20"/><path d="M188.39,117.58a.1.1,0,0,1,.1-.09h.63a.09.09,0,0,1,.09.09l-.28,2.71a1,1,0,0,0,0,.14c0,.19.07.31.26.31h.07c.3,0,.48-.2.7-.52l.79-1.22.16-1.42a.1.1,0,0,1,.1-.09h.63a.09.09,0,0,1,.09.09l-.27,2.56a2.22,2.22,0,0,0,0,.28c0,.21.14.32.36.32h.08a1.08,1.08,0,0,0,.92-.6,5,5,0,0,0,.45-2l.07-.61a.09.09,0,0,1,.09-.09h.66a.08.08,0,0,1,.08.08s0,.16-.08.73a4.92,4.92,0,0,1-.63,2.32,1.77,1.77,0,0,1-1.63.82h-.22a.89.89,0,0,1-1-.94.92.92,0,0,1,0-.16v0l-.22.4a1.18,1.18,0,0,1-1.1.76H189a.82.82,0,0,1-.9-.91,1.15,1.15,0,0,1,0-.18Z" style="fill:#231f20"/><path d="M247.44,121.27a.12.12,0,0,1-.11.09h-.68a.08.08,0,0,1-.09-.09l.25-2.42h-2.59l-.26,2.42a.11.11,0,0,1-.1.09h-.69c-.07,0-.08,0-.08-.09l.55-5.29a.12.12,0,0,1,.1-.1h.69s.08,0,.08.1l-.22,2.12h2.6l.22-2.12a.13.13,0,0,1,.1-.1h.69a.09.09,0,0,1,.09.1Z" style="fill:#231f20"/><path d="M250,121.27a.11.11,0,0,1-.1.09h-.64a.08.08,0,0,1-.09-.09l.31-3-.82-.17c-.07,0-.08,0-.08-.09l0-.4a.11.11,0,0,1,.09-.09h1.59a.09.09,0,0,1,.09.09Zm.59-4.81a.11.11,0,0,1-.1.09h-.81a.09.09,0,0,1-.09-.09l.08-.76a.13.13,0,0,1,.11-.1h.81a.1.1,0,0,1,.08.1Z" style="fill:#231f20"/><path d="M254.73,121.06a1.73,1.73,0,0,1-1.78,1.73h-1.73a.08.08,0,0,1-.08-.07l.06-.54a.1.1,0,0,1,.1-.09h1.6a1,1,0,0,0,1-1l.09-.84-.4.57a1.35,1.35,0,0,1-1.25.65h-.14a.94.94,0,0,1-1-1,.72.72,0,0,1,0-.13l.1-1.15a1.71,1.71,0,0,1,1.78-1.73h.08a1.93,1.93,0,0,1,1.07.33v-.16a.11.11,0,0,1,.1-.09H255a.08.08,0,0,1,.08.08Zm-1.41-.89.78-1,.08-.83a1.73,1.73,0,0,0-.94-.27h-.1a1,1,0,0,0-1,1c0,.4-.1,1.06-.1,1.2a.36.36,0,0,0,.34.4h.06C252.82,120.74,253.05,120.49,253.32,120.17Z" style="fill:#231f20"/><path d="M259.55,121.27a.12.12,0,0,1-.1.09h-.64a.08.08,0,0,1-.08-.09l.26-2.55a1.91,1.91,0,0,0,0-.3c0-.18-.08-.32-.25-.32h-.07c-.27,0-.47.27-.85.76l-.91,1.16-.13,1.25a.11.11,0,0,1-.1.09h-.65a.07.07,0,0,1-.08-.07l.58-5.48a.11.11,0,0,1,.1-.09h.65a.08.08,0,0,1,.08.09l-.33,3.15.5-.77c.34-.51.59-.79,1.16-.79h.23a.83.83,0,0,1,.91.92,1.09,1.09,0,0,1,0,.17Z" style="fill:#231f20"/></svg>