<svg id="d0a6bb68-47c1-45be-bdfa-c680b1e8c71f" data-name="Layer 1" xmlns="http://www.w3.org/2000/svg" viewBox="0 0 135 120.17"><title>ff06-scifi</title><path d="M61.47,21.08c0,7.6-5.52,13.75-12.33,13.75S36.8,28.68,36.8,21.08,42.32,9.33,49.14,9.33,61.47,13.49,61.47,21.08Z" style="fill:#5ca2d8;stroke:#000;stroke-miterlimit:10;stroke-width:2px"/><path d="M42.64,62.67c.83.5,13.66.83,13.66.83s7.5-1.67,7.84-.67,1.23,4.34-.47,5A28.55,28.55,0,0,1,54,69.5c-3.5-.17-9.67-.5-11-1s-2-3.76-2-4.3S42.64,62.67,42.64,62.67Z" style="fill:#eb6e62"/><path d="M73.47,18.54c-1.67,3.14-6.67,9.13-7,11.69s-2.68,9.37-.84,11,4.7,6.22,6.17,9.86,3.41,16.07,3.63,13,.37-12.11,4-20.37,5.83-11,9.67-12.55c4.34-1.78,7-1.43,11.33-2.28s-.67-4.56-.67-4.56-2.33-5.71-5.33-7.42-7-3.42-11-3.13S73.47,18.54,73.47,18.54Z" style="fill:#5ca2d8"/><path d="M4.14,14.48S19.49,20,23.7,27.63s4.38,17.73,1.46,20.63-6.72,6.42-10.51,6.42-8.76-.3-8.76-.3Z" style="fill:#5ca2d8"/><path d="M19,53.15a18.48,18.48,0,0,0,5.3-.95c2.5-1.77,3.13-9.65,2.3-16.55S12.14,16,5.14,15.12" style="fill:none;stroke:#000;stroke-miterlimit:10;stroke-width:2px"/><path d="M78.49,60.53C73.91,61,66.55,53,65.63,41.19s9-24,10.49-25.35,12.78-2.35,16.15-.78S103.6,27.86,104.52,37s-3.68,19.34-6.43,21.69S84,60,78.49,60.53Z" style="fill:none;stroke:#000;stroke-miterlimit:10;stroke-width:2px"/><path d="M38.62,33.93c-1.95.72-5.09,2-5.28,3.63S30.6,49.56,30,52.1s-.58,12.89-.39,14,2.94.55,4.89.55,2.74-.55,2.74-1.64,1.57-13.07,1.57-14.16-.2-7.63.58-8,.79,9.08,1.18,11.07A52.73,52.73,0,0,1,41.75,61c0,1.63,1.37,3.27,6.85,2.9s6.85-.18,9.2-.72a21,21,0,0,1,4.3-.55,17,17,0,0,0,.78-7.08c-.39-4-1.17-10.71-1.17-10.71s0-1.26.39-1.28c3.16-.11,3.72,9.27,4.11,11.08s1.37,3.79,1.57,6-.4,4.54.39,4.72,2,.91,5.67-.36c2.4-.82.78-4.15.59-6.15s-1.37-7.63-2.15-10.9S68,33.76,66.21,33s-5.67-1.81-7.43-1.63-4.11,0-6.66.36-5.87-.36-8.41.36A51.65,51.65,0,0,0,38.62,33.93Z" style="fill:#fff;stroke:#000;stroke-miterlimit:10;stroke-width:2px"/><path d="M42.27,63.24s-1-.49-1.3,1a15.06,15.06,0,0,0,.13,3.88s1.31.72,5.35,1.21,14.09-.36,14.09-.36,2.87-.61,3.13-1.09a5.21,5.21,0,0,0,.26-3.27c-.39-1.09.65-2.3-1.83-1.94S51,63.48,48.6,63.9,42.27,63.24,42.27,63.24Z" style="fill:none;stroke:#000;stroke-miterlimit:10;stroke-width:2px"/><path d="M30,67.54c-.58,2.31-1.76,5-1.17,6.35s1.76,4.82,2.93,4.82,3.13.77,3.53-1.74a29.07,29.07,0,0,0,.39-4s.58,5.2,1.37,4.43,1.17-4,1.17-5.2a32.59,32.59,0,0,0-1.17-5" style="fill:none;stroke:#000;stroke-miterlimit:10;stroke-width:2px"/><path d="M68.17,66.16A22.09,22.09,0,0,0,67,70.4c0,1.06.1,6.07.39,6.26a2.16,2.16,0,0,0,1.86-.77,30.22,30.22,0,0,0,.39-3.66s-.19,5.1-.19,5.39,2.35,2,3.72,1.35,3.23-4.24,3.23-6.16-1.47-7.71-1.47-8.19" style="fill:none;stroke:#000;stroke-miterlimit:10;stroke-width:2px"/><path d="M62.94,69.49c0,.74.51,3.68.89,6.1a71.3,71.3,0,0,1,1,8.29c0,2,.51,9.7.51,9.7s-5.61.42-7,.31-1.9-.1-1.9-.1a83.89,83.89,0,0,1-1.8-10,12.4,12.4,0,0,0-1.41-5.15A5.39,5.39,0,0,0,53,80.94c.13,1.37-1,11.38-1,12.11v1.26s-9.17.74-9.81-.42-.64-5.7-.64-5.7.13-5.67.13-8.51-.26-6.83-.26-8a5.54,5.54,0,0,1,.77-2.42" style="fill:none;stroke:#000;stroke-miterlimit:10;stroke-width:2px"/><path d="M43.2,94.35l-.72,4.53-.24,1.66a21.5,21.5,0,0,0-5.17,1,3.35,3.35,0,0,0-2,3c0,.22-.72,1.44.72,1.88s12.16.22,13.12.22S51,106.5,51,106.5v-6.07l.12-4.64V94.46" style="fill:none;stroke:#000;stroke-miterlimit:10;stroke-width:2px"/><path d="M56.44,93.77l.16,5.58a31.29,31.29,0,0,0-.12,5,12.85,12.85,0,0,1,.24,2.17l17.22-1.25a3.54,3.54,0,0,0-.83-3.54c-1.53-1.37-5.19-2-5.89-2H65.33l-.71-2.86-.12-3.26" style="fill:none;stroke:#000;stroke-miterlimit:10;stroke-width:2px"/><circle cx="47" cy="19.25" r="0.29" style="fill:#fff;stroke:#000;stroke-miterlimit:10;stroke-width:2px"/><circle cx="51.76" cy="19.25" r="0.29" style="fill:#fff;stroke:#000;stroke-miterlimit:10;stroke-width:2px"/><circle cx="45.86" cy="56.38" r="0.29" style="fill:#fff;stroke:#000;stroke-miterlimit:10;stroke-width:2px"/><path d="M39.49,10.09,38.13,14.3a14.26,14.26,0,0,0,5.7.8c2.92-.27,10.85-.3,11.56-.6s4-1.08,4-1.08.43-3.33-4.07-4.09A38.73,38.73,0,0,0,44.7,8.67C41.59,9,42.67,8.62,39.49,10.09Z" style="fill:#fff;stroke:#000;stroke-miterlimit:10;stroke-width:2px"/><path d="M42.27,26c-.64-2.24-.18-5.62-.18-6.23s.31-4.45.31-4.45" style="fill:#fff;stroke:#000;stroke-miterlimit:10;stroke-width:2px"/><path d="M56.46,14.13c.77,2.2.53,5.59.56,6.21s0,4.46,0,4.46" style="fill:#fff;stroke:#000;stroke-miterlimit:10;stroke-width:2px"/><polygon points="44.37 38.92 44.68 46.62 44.68 49.37 53.37 48.91 52.55 38.92 44.37 38.92" style="fill:none;stroke:#000;stroke-miterlimit:10;stroke-width:2px"/><path d="M48.77,56.14S56.65,55,57.16,54.4s.51-5.42.51-5.42l-.92-10.84" style="fill:none;stroke:#000;stroke-miterlimit:10;stroke-width:2px"/><line x1="45.39" y1="28.29" x2="45.89" y2="31.92" style="fill:#5ca2d8;stroke:#000;stroke-miterlimit:10;stroke-width:2px"/><line x1="54.64" y1="28.54" x2="54.51" y2="31.67" style="fill:#5ca2d8;stroke:#000;stroke-miterlimit:10;stroke-width:2px"/><path d="M103.14,29.66c-4.75,0-16-.21-16.75,1.93S75.14,52.12,75.14,57s2.25,18.17,5.25,21.38a61,61,0,0,1,4.25,4.92S85.39,69,88.39,63.88s6.75-10.69,9-12.62,7-2.35,9-2.78,7-1.28,9.5-.64a58.42,58.42,0,0,1,5.75,1.93s-.75-7.28-5.5-11.77-4.69-7-7.72-7.54S103.14,29.66,103.14,29.66Z" style="fill:#5ca2d8"/><path d="M91.47,86.4c-5.63.53-14.7-9.32-15.83-23.79S86.44,33,88.32,31.42s16-2.89,20.1-1,13.94,15.75,15.07,27-4.52,23.8-7.91,26.69S98.25,85.76,91.47,86.4Z" style="fill:none;stroke:#000;stroke-miterlimit:10;stroke-width:2px"/><path d="M131.8,63.88s-5-10-9.33-12.26-22-4.28-24.33-2-13,22.53-13,27.09,2.33,22.81,4,25.37,8.33,10.27,11.66,10,19,.86,22.67-.28a19.29,19.29,0,0,0,8.33-6c1.34-1.71,1.67-24.23,1.67-27.37S131.8,63.88,131.8,63.88Z" style="fill:#5ca2d8"/><path d="M130.64,61.31c-1-1.28-10-11.48-10-11.48-4.55-2.12-21.08-.71-23.15,1.06s-14,18.34-12.81,34.21S95.84,111.79,102,111.2c7.44-.7,21.73.71,25.45-2.47l2.68-2.3" style="fill:none;stroke:#000;stroke-miterlimit:10;stroke-width:2px"/><path d="M100.14,75.85s-2.5,5.78-2.5,8.77,3.25,9.2,4.25,10.48" style="fill:none;stroke:#000;stroke-miterlimit:10;stroke-width:2px"/><path d="M119.89,60.88a7.46,7.46,0,0,1,1.5,3.85,16.8,16.8,0,0,1-1.25,4.92" style="fill:none;stroke:#000;stroke-miterlimit:10;stroke-width:2px"/><path d="M14.39,80.77a19.47,19.47,0,0,1,1.5,7.7,29.39,29.39,0,0,1-1.75,5.13" style="fill:#fff;stroke:#000;stroke-miterlimit:10;stroke-width:2px"/><path d="M72.89,29.66A8.54,8.54,0,0,1,76.39,26" style="fill:#fff;stroke:#000;stroke-miterlimit:10;stroke-width:2px"/><path d="M86.39,53.4s1.5-3.63,2.25-5.35,5-4.91,5-4.91" style="fill:#fff;stroke:#000;stroke-miterlimit:10;stroke-width:2px"/><path d="M12.89,30.09s1.75,1.71,3.25,3" style="fill:#fff;stroke:#000;stroke-miterlimit:10;stroke-width:2px"/><path d="M5.14,34.37s14,6.09,17.86,14.47,4,19.53,1.33,22.72-6.13,7.07-9.6,7.07-8-.33-8-.33Z" style="fill:#5ca2d8"/><path d="M13.39,80.57c2.75.18,7.19-1.29,7.19-1.29C24,76.85,28,66.49,26.89,57S8.78,35.35,4.64,33.73" style="fill:none;stroke:#000;stroke-miterlimit:10;stroke-width:2px"/><path d="M5.14,55.75s13.14,7.74,16.75,18.39S25.64,99,23.14,103s-5.75,9-9,9-7.5-.43-7.5-.43Z" style="fill:#5ca2d8"/><path d="M7.14,112.42c2.75.21,10.44-1.71,10.44-1.71,3.39-2.81,9-15,7.91-25.91s-15-26.37-19.1-28.24" style="fill:none;stroke:#000;stroke-miterlimit:10;stroke-width:2px"/><path d="M37.29,23.06c0-.6,6.14.39,7.27.29s7.55.1,9-.29,5-1.27,5.94-1.57,2-.78,2,0-.1,4.9-.57,5.09a51.15,51.15,0,0,1-6.23,1c-2.08.2-7.36.39-9.91.29s-5.66.59-6.61-.09S37.39,25.5,37.29,23.06Z" style="fill:#fff;stroke:#000;stroke-miterlimit:10;stroke-width:2px"/></svg>