<svg id="489bbf92-0128-4e30-bb4d-3e2160cf72d1" data-name="Layer 1" xmlns="http://www.w3.org/2000/svg" viewBox="0 0 135 112"><title>ff06-scifi</title><path d="M88.54,27a1.55,1.55,0,0,1,1.75-1.56h.33A1.54,1.54,0,0,1,92.29,27v2.37A1.58,1.58,0,0,1,90.55,31H88.9a.1.1,0,0,1-.09-.1v-.56a.09.09,0,0,1,.09-.08h1.55a.86.86,0,0,0,1-1v-1l-.28.31a1.33,1.33,0,0,1-1.1.54h-.26a1.23,1.23,0,0,1-1.24-1.38Zm.87.76c0,.4.2.68.55.68h.17a1,1,0,0,0,.73-.4l.56-.62V27a.8.8,0,0,0-.87-.81h-.22c-.55,0-.92.29-.92.81Z" style="fill:#231f20"/><path d="M97.45,29.62a1.46,1.46,0,0,1-1.63,1.46H95a1.46,1.46,0,0,1-1.63-1.46v-.29a1.23,1.23,0,0,1,.85-1.18,1.12,1.12,0,0,1-.69-1.08v-.19c0-1,.73-1.44,1.67-1.44h.38c.94,0,1.67.48,1.67,1.44v.19a1.13,1.13,0,0,1-.69,1.08,1.23,1.23,0,0,1,.85,1.18Zm-.88-.29a.78.78,0,0,0-.88-.78h-.52a.79.79,0,0,0-.89.78v.25a.75.75,0,0,0,.85.76h.6a.74.74,0,0,0,.84-.76Zm-.15-2.42c0-.49-.39-.72-.89-.72h-.2c-.51,0-.89.23-.89.72v.18a.74.74,0,0,0,.84.72h.3a.74.74,0,0,0,.84-.72Z" style="fill:#231f20"/><path d="M101.83,27.3a1.26,1.26,0,0,1-1.3,1.29H100a1.27,1.27,0,0,1-1.31-1.29v-.69A1.27,1.27,0,0,1,100,25.32h.51a1.26,1.26,0,0,1,1.3,1.28Zm-.83-.59c0-.41-.22-.71-.61-.71h-.24c-.39,0-.61.29-.61.71v.49c0,.43.18.71.61.71h.24c.39,0,.61-.3.61-.71Zm1.34,4.61c0,.05,0,.1-.08.1h-.77s-.08,0-.08-.06,0-.22.08-.33L103,25c0-.05,0-.09.09-.09h.78s.06,0,.06.05-.05.23-.08.36Zm4.29-1.57a1.27,1.27,0,0,1-1.3,1.3h-.52a1.27,1.27,0,0,1-1.3-1.3v-.68a1.27,1.27,0,0,1,1.3-1.3h.52a1.27,1.27,0,0,1,1.3,1.29Zm-.83-.59a.62.62,0,0,0-.61-.7H105c-.39,0-.61.29-.61.7v.5c0,.42.18.7.61.7h.24a.62.62,0,0,0,.61-.7Z" style="fill:#231f20"/><path d="M88.31,46.09A.09.09,0,0,1,88.4,46H90a.85.85,0,0,0,1-1v-.6l-.23.28a1.2,1.2,0,0,1-1,.49h-.27c-.86,0-1.34-.58-1.34-1.5v-.61a1.66,1.66,0,0,1,1.78-1.71h.61a1.52,1.52,0,0,1,1.61,1.67v2a1.82,1.82,0,0,1-1.95,2H88.4a.09.09,0,0,1-.09-.09Zm.92-2.42a.49.49,0,0,0,.49.55h.12c.27,0,.46-.23.68-.47l.39-.45V43a.54.54,0,0,0-.58-.57H90a.71.71,0,0,0-.74.71Z" style="fill:#231f20"/><path d="M95.14,46c.47,0,.82-.25.82-.64V45.1a.61.61,0,0,0-.66-.63h-.24a.66.66,0,0,0-.54.25l-.12.12s0,0-.07,0l0,0-1-.59a.18.18,0,0,1-.1-.17v-2.5c0-.06,0-.1.09-.1h3.39a.1.1,0,0,1,.09.1v.82a.09.09,0,0,1-.09.08H94.46c-.06,0-.06,0-.06.07v1.3a1.1,1.1,0,0,1,.8-.41h.37a1.5,1.5,0,0,1,1.55,1.59v.24c0,1.05-.72,1.7-2,1.7H93.32a.09.09,0,0,1-.09-.09v-.82a.09.09,0,0,1,.09-.09Z" style="fill:#231f20"/><path d="M101.68,43.19a1.37,1.37,0,0,1-1.52,1.45h-.52a1.38,1.38,0,0,1-1.53-1.45v-.45a1.41,1.41,0,0,1,1.53-1.46h.52a1.4,1.4,0,0,1,1.52,1.46Zm-1.1-.46a.48.48,0,0,0-.51-.5h-.35a.47.47,0,0,0-.51.5v.46a.48.48,0,0,0,.51.51h.35a.47.47,0,0,0,.51-.51Zm1.84,4.6c0,.05,0,.09-.1.09h-1a.07.07,0,0,1-.07-.06.37.37,0,0,1,0-.09L102.79,41c0-.05,0-.09.09-.09h1s.07,0,.07.06V41Zm4.72-1.7a1.38,1.38,0,0,1-1.53,1.46h-.52a1.38,1.38,0,0,1-1.53-1.46v-.45a1.4,1.4,0,0,1,1.53-1.45h.52a1.41,1.41,0,0,1,1.53,1.45ZM106,45.18a.48.48,0,0,0-.51-.51h-.34a.47.47,0,0,0-.51.51v.45a.47.47,0,0,0,.51.51h.34a.47.47,0,0,0,.51-.51Z" style="fill:#231f20"/><path d="M92.54,61.62a1.46,1.46,0,0,1-1.63,1.46h-.78a1.46,1.46,0,0,1-1.63-1.46v-.29a1.23,1.23,0,0,1,.85-1.18,1.13,1.13,0,0,1-.69-1.08v-.19c0-1,.73-1.44,1.67-1.44h.38c.94,0,1.67.48,1.67,1.44v.19a1.13,1.13,0,0,1-.69,1.08,1.23,1.23,0,0,1,.85,1.18Zm-.87-.29a.79.79,0,0,0-.89-.78h-.52a.79.79,0,0,0-.89.78v.25a.75.75,0,0,0,.85.76h.6a.75.75,0,0,0,.85-.76Zm-.16-2.42c0-.49-.39-.72-.89-.72h-.2c-.5,0-.89.23-.89.72v.18a.74.74,0,0,0,.84.72h.3a.74.74,0,0,0,.84-.72Z" style="fill:#231f20"/><path d="M97.64,61.31a1.71,1.71,0,0,1-1.82,1.8H95.4a1.71,1.71,0,0,1-1.82-1.8V59.23a1.72,1.72,0,0,1,1.82-1.8h.42a1.72,1.72,0,0,1,1.82,1.8Zm-.87-2.08a1,1,0,0,0-1-1h-.24a1,1,0,0,0-1,1v2.08a1,1,0,0,0,1,1.06h.24a1,1,0,0,0,1-1.06Z" style="fill:#231f20"/><path d="M102,59.3a1.27,1.27,0,0,1-1.31,1.29h-.51a1.26,1.26,0,0,1-1.3-1.29v-.69a1.26,1.26,0,0,1,1.3-1.29h.51A1.26,1.26,0,0,1,102,58.6Zm-.84-.59c0-.41-.22-.71-.6-.71h-.24c-.39,0-.61.29-.61.71v.49c0,.43.18.71.61.71h.24c.39,0,.6-.3.6-.71Zm1.35,4.61s0,.1-.09.1h-.77c-.05,0-.08,0-.08-.06s.06-.22.08-.33L103.19,57c0-.05,0-.09.09-.09h.79s.06,0,.06.05-.06.23-.09.36Zm4.28-1.57a1.27,1.27,0,0,1-1.3,1.3H105a1.27,1.27,0,0,1-1.3-1.3v-.68a1.27,1.27,0,0,1,1.3-1.3h.51a1.26,1.26,0,0,1,1.3,1.29Zm-.83-.59c0-.41-.22-.7-.61-.7h-.23c-.4,0-.61.29-.61.7v.5c0,.42.17.7.61.7h.23c.4,0,.61-.3.61-.7Z" style="fill:#231f20"/><path d="M91.69,80.26a.85.85,0,0,0,1-.84V79a.68.68,0,0,0-.67-.76H91.7a.8.8,0,0,0-.6.3l-.19.18a.09.09,0,0,1-.08,0h0l-.8-.48a.19.19,0,0,1-.1-.18V75.62c0-.06,0-.1.09-.1h3.17a.1.1,0,0,1,.09.1v.56a.09.09,0,0,1-.09.09H90.82s-.06,0-.06.06V78l.18-.17a.92.92,0,0,1,.68-.28h.43A1.34,1.34,0,0,1,93.53,79v.4A1.59,1.59,0,0,1,91.74,81H90a.09.09,0,0,1-.09-.09v-.56a.09.09,0,0,1,.09-.09Z" style="fill:#231f20"/><path d="M96.69,80.91a.09.09,0,0,1-.09.09H94.26a.1.1,0,0,1-.09-.09v-.57a.1.1,0,0,1,.09-.08H95v-4h-.73a.09.09,0,0,1-.09-.09v-.56a.1.1,0,0,1,.09-.1h1.51a.1.1,0,0,1,.1.1v4.64h.73a.09.09,0,0,1,.09.08Z" style="fill:#231f20"/><path d="M100.68,77.3a1.27,1.27,0,0,1-1.31,1.29h-.51a1.26,1.26,0,0,1-1.3-1.29v-.69a1.26,1.26,0,0,1,1.3-1.29h.51a1.26,1.26,0,0,1,1.31,1.28Zm-.83-.59a.63.63,0,0,0-.61-.71H99c-.39,0-.61.29-.61.71v.49c0,.43.18.71.61.71h.24c.39,0,.61-.3.61-.71Zm1.34,4.61c0,.05,0,.1-.09.1h-.77s-.08,0-.08-.06.06-.22.08-.33L101.85,75s0-.09.08-.09h.79s.06,0,.06,0a3.58,3.58,0,0,1-.09.36Zm4.29-1.57a1.28,1.28,0,0,1-1.31,1.3h-.51a1.27,1.27,0,0,1-1.3-1.3v-.68a1.27,1.27,0,0,1,1.3-1.3h.51a1.27,1.27,0,0,1,1.31,1.29Zm-.84-.59c0-.41-.22-.7-.6-.7h-.24c-.4,0-.61.29-.61.7v.5c0,.42.17.7.61.7H104c.39,0,.6-.3.6-.7Z" style="fill:#231f20"/><path d="M92.14,97.91A.1.1,0,0,1,92,98H89.71a.1.1,0,0,1-.1-.09v-.57a.1.1,0,0,1,.1-.08h.73v-4H89.7a.09.09,0,0,1-.09-.09v-.56a.1.1,0,0,1,.09-.1h1.52a.11.11,0,0,1,.1.1v4.64H92a.1.1,0,0,1,.1.08Z" style="fill:#231f20"/><path d="M94.38,92.52c1,0,1.71.43,1.71,1.41V94a1.11,1.11,0,0,1-.66,1.07,1.22,1.22,0,0,1,.78,1.19v.21c0,1-.7,1.53-1.79,1.53H92.71a.09.09,0,0,1-.09-.09v-.56a.09.09,0,0,1,.09-.09h1.61c.59,0,1-.27,1-.76v-.26c0-.46-.28-.75-.86-.75h-.6a.09.09,0,0,1-.08-.09v-.54a.1.1,0,0,1,.08-.1h.6a.66.66,0,0,0,.74-.69V94c0-.45-.34-.69-.84-.69H92.79a.09.09,0,0,1-.09-.09v-.56a.1.1,0,0,1,.09-.1Z" style="fill:#231f20"/><path d="M100.52,94.3a1.27,1.27,0,0,1-1.31,1.29H98.7a1.26,1.26,0,0,1-1.3-1.29v-.69a1.26,1.26,0,0,1,1.3-1.29h.51a1.26,1.26,0,0,1,1.31,1.28Zm-.84-.59c0-.41-.22-.71-.6-.71h-.24c-.4,0-.61.29-.61.71v.49c0,.43.17.71.61.71h.24c.39,0,.6-.3.6-.71ZM101,98.32c0,.05,0,.1-.09.1h-.77s-.08,0-.08-.06.06-.22.08-.33L101.68,92s0-.09.09-.09h.78s.07,0,.07,0-.06.23-.09.36Zm4.28-1.57a1.27,1.27,0,0,1-1.3,1.3h-.51a1.28,1.28,0,0,1-1.31-1.3v-.68a1.28,1.28,0,0,1,1.31-1.3H104a1.26,1.26,0,0,1,1.3,1.29Zm-.83-.59c0-.41-.22-.7-.61-.7h-.24c-.39,0-.6.29-.6.7v.5c0,.42.17.7.6.7h.24c.4,0,.61-.3.61-.7Z" style="fill:#231f20"/><line x1="9" y1="36" x2="127" y2="36" style="fill:none;stroke:#000;stroke-miterlimit:10;stroke-width:2px"/><line x1="9.5" y1="52.5" x2="128" y2="52" style="fill:none;stroke:#000;stroke-miterlimit:10;stroke-width:2px"/><line x1="8.5" y1="70" x2="127" y2="69" style="fill:none;stroke:#000;stroke-miterlimit:10;stroke-width:2px"/><line x1="8.5" y1="86.5" x2="128" y2="86.5" style="fill:none;stroke:#000;stroke-miterlimit:10;stroke-width:2px"/><path d="M28,47.25a.09.09,0,0,1-.09.08H25.74a1.81,1.81,0,0,1-1.94-1.95V43.8a1.81,1.81,0,0,1,1.94-1.94h2.17A.1.1,0,0,1,28,42v1.76a.09.09,0,0,1-.09.09h-1a.09.09,0,0,1-.08-.09v-.85h-.94a.85.85,0,0,0-.95,1v1.57a.85.85,0,0,0,.95.95h2a.09.09,0,0,1,.09.09Z" style="fill:#231f20"/><path d="M28.93,43.55a.1.1,0,0,1,.09-.09h.92a.1.1,0,0,1,.09.09v2.66a.27.27,0,0,0,.27.3h.06c.17,0,.3-.17.47-.42l.7-1.06V43.55a.09.09,0,0,1,.09-.09h.93a.09.09,0,0,1,.09.09v3.7a.09.09,0,0,1-.09.08h-.93a.09.09,0,0,1-.09-.08v-.88l-.22.4a1.17,1.17,0,0,1-1.14.68h-.11c-.68,0-1.13-.4-1.13-1.24Z" style="fill:#231f20"/><path d="M36.12,43.34a1.25,1.25,0,0,1,1,.51.06.06,0,0,1,0,0,.1.1,0,0,1,0,.07l-.73.63-.08,0a.15.15,0,0,1-.1-.06c-.13-.12-.21-.21-.34-.21h-.06c-.16,0-.29.16-.43.35l-.49.65v1.88a.09.09,0,0,1-.09.08h-.92a.09.09,0,0,1-.09-.08v-3.7a.09.09,0,0,1,.09-.09h.53a.14.14,0,0,1,.14.08l.25.73.26-.38a1.16,1.16,0,0,1,1-.55Z" style="fill:#231f20"/><path d="M40,43.34a1.25,1.25,0,0,1,1,.51s0,0,0,0a.08.08,0,0,1,0,.07l-.72.63-.08,0a.15.15,0,0,1-.1-.06c-.13-.12-.22-.21-.34-.21h-.06c-.16,0-.3.16-.43.35l-.49.65v1.88a.09.09,0,0,1-.09.08h-.93a.09.09,0,0,1-.08-.08v-3.7a.09.09,0,0,1,.08-.09h.54a.16.16,0,0,1,.14.08l.24.73.27-.38a1.15,1.15,0,0,1,1-.55Z" style="fill:#231f20"/><path d="M42.14,45.81a.59.59,0,0,0,.63.58h1.77a.1.1,0,0,1,.09.1v.76a.09.09,0,0,1-.09.08h-1.8a1.52,1.52,0,0,1-1.68-1.61V45a1.52,1.52,0,0,1,1.68-1.62h.44a1.49,1.49,0,0,1,1.67,1.48v.11a.22.22,0,0,1-.08.19l-.7.58a.34.34,0,0,1-.24.11Zm.65-1.52a.59.59,0,0,0-.65.62h1.64a.57.57,0,0,0-.62-.62Z" style="fill:#231f20"/><path d="M49.46,47.25a.1.1,0,0,1-.1.08h-.91a.1.1,0,0,1-.09-.08V44.58a.27.27,0,0,0-.27-.29H48c-.17,0-.32.16-.54.4l-.69.76v1.8a.09.09,0,0,1-.09.08h-.93a.09.09,0,0,1-.09-.08v-3.7a.09.09,0,0,1,.09-.09h.93a.09.09,0,0,1,.09.09v.75L47,44a1.32,1.32,0,0,1,1.19-.66h.12c.68,0,1.13.4,1.13,1.24Z" style="fill:#231f20"/><path d="M53,47.25a.09.09,0,0,1-.09.08h-.79a1.1,1.1,0,0,1-1.22-1.2V44.45l-.84-.19a.11.11,0,0,1-.09-.09v-.62a.09.09,0,0,1,.09-.09h.84v-.39a.16.16,0,0,1,.1-.17l.79-.41a.14.14,0,0,1,.09,0,.11.11,0,0,1,.12.11v.89h.92a.1.1,0,0,1,.1.09v.81a.1.1,0,0,1-.1.09H52V46a.33.33,0,0,0,.36.36h.55a.09.09,0,0,1,.09.09Z" style="fill:#231f20"/><path d="M35.9,31.25a.1.1,0,0,1-.1.08H33.47a.1.1,0,0,1-.1-.08v-.57a.1.1,0,0,1,.1-.09h.72v-4h-.73a.09.09,0,0,1-.09-.09V26a.09.09,0,0,1,.09-.09H35a.09.09,0,0,1,.09.09v4.64h.73a.1.1,0,0,1,.1.09Z" style="fill:#231f20"/><path d="M38.14,25.86c1,0,1.71.42,1.71,1.4v.07a1.12,1.12,0,0,1-.66,1.08A1.2,1.2,0,0,1,40,29.59v.22c0,.94-.71,1.52-1.79,1.52H36.47a.09.09,0,0,1-.09-.08v-.56a.1.1,0,0,1,.09-.1h1.61c.58,0,1-.26,1-.76v-.26c0-.46-.28-.75-.86-.75h-.6a.09.09,0,0,1-.09-.09v-.54a.1.1,0,0,1,.09-.1h.6a.66.66,0,0,0,.74-.68v-.12c0-.44-.34-.69-.84-.69H36.55a.09.09,0,0,1-.09-.09V26a.09.09,0,0,1,.09-.09Z" style="fill:#231f20"/><path d="M43.14,31.25a.1.1,0,0,1-.1.08H40.71a.1.1,0,0,1-.1-.08v-.57a.1.1,0,0,1,.1-.09h.72v-4H40.7a.09.09,0,0,1-.09-.09V26a.09.09,0,0,1,.09-.09h1.52a.09.09,0,0,1,.09.09v4.64H43a.1.1,0,0,1,.1.09Z" style="fill:#231f20"/><path d="M35.21,63.91a.1.1,0,0,1-.1.09H32.77a.1.1,0,0,1-.09-.09v-.57a.1.1,0,0,1,.09-.08h.73v-4h-.73a.09.09,0,0,1-.09-.09v-.56a.1.1,0,0,1,.09-.1h1.52a.1.1,0,0,1,.09.1v4.64h.73a.1.1,0,0,1,.1.08Z" style="fill:#231f20"/><path d="M37.45,58.52c1,0,1.71.43,1.71,1.41V60a1.11,1.11,0,0,1-.66,1.07,1.22,1.22,0,0,1,.78,1.19v.21c0,1-.71,1.53-1.79,1.53H35.77a.09.09,0,0,1-.08-.09v-.56a.09.09,0,0,1,.08-.09h1.62c.58,0,1-.27,1-.76v-.26c0-.46-.27-.75-.85-.75H37a.09.09,0,0,1-.09-.09v-.54a.1.1,0,0,1,.09-.1h.6a.65.65,0,0,0,.73-.69V60c0-.45-.33-.69-.83-.69h-1.6a.09.09,0,0,1-.08-.09v-.56a.1.1,0,0,1,.08-.1Z" style="fill:#231f20"/><path d="M41.68,58.52c1,0,1.71.43,1.71,1.41V60a1.11,1.11,0,0,1-.66,1.07,1.22,1.22,0,0,1,.78,1.19v.21c0,1-.7,1.53-1.79,1.53H40a.09.09,0,0,1-.09-.09v-.56a.09.09,0,0,1,.09-.09h1.61c.59,0,1-.27,1-.76v-.26c0-.46-.28-.75-.86-.75h-.6a.09.09,0,0,1-.09-.09v-.54a.1.1,0,0,1,.09-.1h.6a.66.66,0,0,0,.74-.69V60c0-.45-.34-.69-.84-.69H40.09a.09.09,0,0,1-.09-.09v-.56a.1.1,0,0,1,.09-.1Z" style="fill:#231f20"/><path d="M34.73,80.91a.1.1,0,0,1-.1.09H32.3a.1.1,0,0,1-.1-.09v-.57a.1.1,0,0,1,.1-.08H33v-4h-.74a.09.09,0,0,1-.09-.09v-.56a.1.1,0,0,1,.09-.1h1.52a.11.11,0,0,1,.1.1v4.64h.72a.1.1,0,0,1,.1.08Z" style="fill:#231f20"/><path d="M37,75.52c1,0,1.71.43,1.71,1.41V77A1.11,1.11,0,0,1,38,78.07a1.2,1.2,0,0,1,.78,1.19v.21c0,1-.7,1.53-1.79,1.53H35.3a.09.09,0,0,1-.09-.09v-.56a.09.09,0,0,1,.09-.09h1.61c.59,0,1-.27,1-.76v-.26c0-.46-.28-.75-.86-.75h-.6a.09.09,0,0,1-.08-.09v-.54a.1.1,0,0,1,.08-.1h.6a.66.66,0,0,0,.74-.69V77c0-.45-.34-.69-.84-.69H35.38a.09.09,0,0,1-.09-.09v-.56a.1.1,0,0,1,.09-.1Z" style="fill:#231f20"/><path d="M43.9,79.31a1.71,1.71,0,0,1-1.82,1.8h-.41a1.71,1.71,0,0,1-1.83-1.8V77.23a1.72,1.72,0,0,1,1.83-1.8h.41a1.71,1.71,0,0,1,1.82,1.8ZM43,77.23a1,1,0,0,0-1-1h-.24a1,1,0,0,0-1,1v2.08a1,1,0,0,0,1,1.06H42a1,1,0,0,0,1-1.06Z" style="fill:#231f20"/><path d="M35,96.91a.09.09,0,0,1-.09.09H32.58a.1.1,0,0,1-.09-.09v-.57a.1.1,0,0,1,.09-.08h.73v-4h-.73a.09.09,0,0,1-.09-.09v-.56a.1.1,0,0,1,.09-.1h1.51a.1.1,0,0,1,.1.1v4.64h.73a.09.09,0,0,1,.09.08Z" style="fill:#231f20"/><path d="M37.25,91.52c1,0,1.72.43,1.72,1.41V93a1.11,1.11,0,0,1-.66,1.07,1.22,1.22,0,0,1,.78,1.19v.21c0,1-.71,1.53-1.8,1.53H35.58a.09.09,0,0,1-.09-.09v-.56a.09.09,0,0,1,.09-.09H37.2c.58,0,1-.27,1-.76v-.26c0-.46-.28-.75-.85-.75h-.6a.09.09,0,0,1-.09-.09v-.54a.1.1,0,0,1,.09-.1h.6a.65.65,0,0,0,.73-.69V93c0-.45-.33-.69-.84-.69H35.66a.09.09,0,0,1-.09-.09v-.56a.1.1,0,0,1,.09-.1Z" style="fill:#231f20"/><path d="M42,91.52c1.15,0,1.74.48,1.74,1.43v.15a1.57,1.57,0,0,1-1.29,1.5l-1,.35a.84.84,0,0,0-.63.93v.38h2.86a.1.1,0,0,1,.09.08v.57a.1.1,0,0,1-.09.09H40.16c-.16,0-.19-.14-.19-.25v-.88c0-1.2.57-1.51,1.64-1.83.67-.2,1.3-.41,1.3-1V93c0-.49-.33-.68-.94-.68H40.38a.09.09,0,0,1-.09-.09v-.56a.1.1,0,0,1,.09-.1Z" style="fill:#231f20"/><line x1="9" y1="21" x2="127" y2="21" style="fill:none;stroke:#000;stroke-miterlimit:10;stroke-width:2px"/><line x1="9" y1="103" x2="127" y2="103" style="fill:none;stroke:#000;stroke-miterlimit:10;stroke-width:2px"/><path d="M25.64,14.25c0,.07-.05.08-.1.08h-.72c-.05,0-.07,0-.07-.08V9.51a9.27,9.27,0,0,1-.42,1.11l-.84,1.8c0,.06,0,.09-.1.09h-1c-.05,0-.07,0-.08-.09l-.52-1.71a8.8,8.8,0,0,1-.27-1.2l-1.09,4.74a.09.09,0,0,1-.09.08h-.75a.07.07,0,0,1-.08-.07s0,0,0-.09L20.84,9A.11.11,0,0,1,21,8.86H22c.07,0,.08,0,.1.09L23,11.87,24.25,9s.05-.09.09-.09h1.1a.09.09,0,0,1,.09.09Z" style="fill:#231f20"/><path d="M27.87,14.25a.12.12,0,0,1-.11.08h-.64a.09.09,0,0,1-.09-.08l.32-3-.83-.16a.09.09,0,0,1-.08-.1l0-.4a.11.11,0,0,1,.1-.09h1.58a.09.09,0,0,1,.09.09Zm.58-4.82a.12.12,0,0,1-.1.1h-.8a.09.09,0,0,1-.09-.1l.08-.76a.11.11,0,0,1,.1-.09h.81a.09.09,0,0,1,.08.09Z" style="fill:#231f20"/><path d="M32.2,11.08a.11.11,0,0,1-.09.09H30.42c-.27,0-.47.08-.5.34v.05c0,.2.16.29.37.35l.84.18c.61.12,1.06.39,1.06.95a1.8,1.8,0,0,1,0,.27c-.08.69-.61,1-1.45,1H29a.09.09,0,0,1-.08-.08s0-.18.05-.53a.11.11,0,0,1,.1-.09h1.83c.29,0,.5-.15.5-.42s-.23-.35-.56-.4L30,12.64a1,1,0,0,1-.88-1s0,0,0-.18c0-.64.53-1,1.37-1h1.71a.09.09,0,0,1,.08.08Z" style="fill:#231f20"/><path d="M35.86,11.08a.11.11,0,0,1-.1.09H34.07c-.26,0-.47.08-.49.34v.05c0,.2.16.29.37.35l.84.18c.6.12,1.06.39,1.06.95a2.57,2.57,0,0,1,0,.27c-.08.69-.6,1-1.44,1H32.6a.09.09,0,0,1-.08-.08l.06-.53a.11.11,0,0,1,.09-.09h1.84c.28,0,.49-.15.49-.42s-.22-.35-.56-.4-.54-.11-.81-.17a1,1,0,0,1-.88-1v-.18c0-.64.54-1,1.37-1h1.71a.09.09,0,0,1,.08.08Z" style="fill:#231f20"/><path d="M37.75,14.25a.12.12,0,0,1-.11.08H37a.09.09,0,0,1-.09-.08l.32-3-.83-.16a.09.09,0,0,1-.08-.1l0-.4a.11.11,0,0,1,.1-.09H38a.09.09,0,0,1,.09.09Zm.58-4.82a.12.12,0,0,1-.1.1h-.8a.09.09,0,0,1-.09-.1l.08-.76a.11.11,0,0,1,.1-.09h.81a.09.09,0,0,1,.08.09Z" style="fill:#231f20"/><path d="M42.58,12.69a1.71,1.71,0,0,1-1.77,1.72h-.48A1.21,1.21,0,0,1,39,13.16c0-.05,0-.15,0-.17l.08-.88a1.71,1.71,0,0,1,1.77-1.73h.48a1.21,1.21,0,0,1,1.36,1.26,1.31,1.31,0,0,1,0,.17Zm-.74-.89a.83.83,0,0,0,0-.12c0-.42-.23-.59-.68-.59h-.29a1,1,0,0,0-1,1L39.8,13a.72.72,0,0,0,0,.13c0,.4.22.58.68.58h.29a1,1,0,0,0,1-1Z" style="fill:#231f20"/><path d="M47.05,14.25a.12.12,0,0,1-.11.08h-.63a.08.08,0,0,1-.08-.08l.26-2.56s0-.23,0-.3-.08-.31-.25-.31h-.07c-.27,0-.48.26-.85.75L44.43,13l-.13,1.25a.11.11,0,0,1-.1.08h-.65a.07.07,0,0,1-.08-.07l.38-3.71a.11.11,0,0,1,.1-.09h.65a.08.08,0,0,1,.08.09l-.13,1.38.5-.76c.34-.51.58-.79,1.16-.79h.23a.83.83,0,0,1,.9.91v.17Z" style="fill:#231f20"/><path d="M51.09,14.25a.11.11,0,0,1-.1.08H50.3c-.07,0-.08,0-.08-.08L50.77,9a.11.11,0,0,1,.1-.09h.69a.09.09,0,0,1,.08.09Z" style="fill:#231f20"/><path d="M57,12.23a2.12,2.12,0,0,1-2.29,2.1H52.51a.07.07,0,0,1-.08-.08L53,9a.09.09,0,0,1,.09-.09h2.5a1.42,1.42,0,0,1,1.57,1.5,1.94,1.94,0,0,1,0,.22Zm-.71-1.65a1.1,1.1,0,0,0,0-.16c0-.52-.31-.82-.91-.82H53.79l-.42,4h1.38c.8,0,1.27-.51,1.35-1.38Z" style="fill:#231f20"/><path d="M77.12,9.51A.11.11,0,0,1,77,9.6h-2c-.45,0-.79.14-.86.51a2,2,0,0,0,0,.27c0,.38.36.54.86.68l1,.29c.69.21,1.08.56,1.08,1.22a1.85,1.85,0,0,1,0,.23l0,.34c-.09.78-.76,1.19-1.75,1.19H73.14a.07.07,0,0,1-.08-.08l0-.56s0-.1.09-.1h2c.57,0,1-.14,1-.53,0-.05,0-.29,0-.34,0-.35-.28-.5-.73-.63l-1-.3a1.36,1.36,0,0,1-1.16-1.33,2,2,0,0,1,0-.23l0-.19c.12-.87.76-1.18,1.84-1.18h1.9a.09.09,0,0,1,.08.09Z" style="fill:#231f20"/><path d="M80.7,13.13l-.35.6a1.17,1.17,0,0,1-1.2.69h-.27A.83.83,0,0,1,78,13.5c0-.05,0-.16,0-.17l.29-2.78a.11.11,0,0,1,.1-.09H79a.09.09,0,0,1,.09.09s-.29,2.77-.29,2.86.07.31.26.31h.1c.43,0,.61-.26,1-.76l.7-1L81,10.55a.11.11,0,0,1,.1-.09h.65a.09.09,0,0,1,.08.09l-.38,3.7a.11.11,0,0,1-.1.08h-.65c-.07,0-.08,0-.08-.08Z" style="fill:#231f20"/><path d="M86,11.63a.11.11,0,0,1-.1.09h-.65a.07.07,0,0,1-.08-.07,1.08,1.08,0,0,0,0-.16c0-.32-.27-.41-.67-.41h-.06c-.6,0-.92.34-1,1l-.08.87s0,.08,0,.13c0,.4.22.53.68.53H85.6a.09.09,0,0,1,.08.08s0,0-.05.54a.11.11,0,0,1-.1.08H83.94a1.2,1.2,0,0,1-1.36-1.24c0-.05,0-.16,0-.18l.07-.82a1.7,1.7,0,0,1,1.78-1.71h.24c.8,0,1.36.38,1.36,1C86,11.49,86,11.57,86,11.63Z" style="fill:#231f20"/><path d="M89.82,11.63a.11.11,0,0,1-.1.09h-.64a.07.07,0,0,1-.08-.07v-.16c0-.32-.27-.41-.67-.41h0c-.6,0-.93.34-1,1L87.2,13v.13c0,.4.21.53.68.53H89.4a.08.08,0,0,1,.07.08s0,0,0,.54a.11.11,0,0,1-.1.08H87.73a1.21,1.21,0,0,1-1.36-1.24c0-.05,0-.16,0-.18l.07-.82a1.7,1.7,0,0,1,1.78-1.71h.24c.8,0,1.36.38,1.36,1A1.34,1.34,0,0,1,89.82,11.63Z" style="fill:#231f20"/><path d="M91.31,13.05v.06c0,.39.21.52.68.52h1.68a.08.08,0,0,1,.07.08v0l0,.52a.11.11,0,0,1-.09.08H91.84a1.21,1.21,0,0,1-1.36-1.25c0-.06,0-.15,0-.17l.08-.81a1.68,1.68,0,0,1,1.77-1.72h.57c.77,0,1.22.32,1.22.91,0,0,0,.15,0,.28-.08.72-.59.9-1.24,1.07Zm.06-.69L92.5,12c.44-.13.75-.22.78-.54v-.12c0-.17-.14-.29-.35-.29h-.54q-.9,0-1,1Z" style="fill:#231f20"/><path d="M97.84,11.08a.09.09,0,0,1-.09.09H96.06c-.26,0-.47.08-.49.34v.05c0,.2.15.29.36.35l.84.18c.61.12,1.07.39,1.07.95a2.57,2.57,0,0,1,0,.27c-.08.69-.61,1-1.45,1H94.59a.09.09,0,0,1-.08-.08s0-.18.06-.53a.09.09,0,0,1,.09-.09h1.83c.29,0,.5-.15.5-.42s-.23-.35-.56-.4l-.82-.17a1,1,0,0,1-.88-1s0,0,0-.18c0-.64.54-1,1.37-1h1.71a.09.09,0,0,1,.08.08Z" style="fill:#231f20"/><path d="M101.5,11.08a.11.11,0,0,1-.1.09H99.72c-.27,0-.48.08-.5.34v.05c0,.2.16.29.37.35l.84.18c.6.12,1.06.39,1.06.95,0,.06,0,.11,0,.27-.08.69-.61,1-1.45,1H98.24a.09.09,0,0,1-.08-.08l.06-.53a.11.11,0,0,1,.1-.09h1.83c.29,0,.49-.15.49-.42s-.22-.35-.56-.4-.54-.11-.81-.17a1,1,0,0,1-.88-1s0,0,0-.18c0-.64.53-1,1.36-1h1.71a.09.09,0,0,1,.08.08Z" style="fill:#231f20"/><path d="M108.74,10.7a1.69,1.69,0,0,1-1.89,1.5h-1.58l-.22,2.05a.11.11,0,0,1-.09.08h-.7a.07.07,0,0,1-.08-.07h0l.55-5.3a.11.11,0,0,1,.1-.09h2.62c.82,0,1.35.36,1.35,1.08a.78.78,0,0,1,0,.13Zm-.83-.61c0-.33-.24-.49-.63-.49h-1.74l-.2,1.85h1.38c.63,0,1.09-.22,1.14-.75C107.87,10.53,107.91,10.22,107.91,10.09Z" style="fill:#231f20"/><path d="M112.52,11a.08.08,0,0,1,0,.07l-.58.45-.07,0a.08.08,0,0,1-.07,0c-.12-.17-.17-.29-.33-.29h-.06c-.13,0-.23.12-.41.34l-.81,1-.18,1.7a.11.11,0,0,1-.09.08h-.66a.07.07,0,0,1-.08-.08l.38-3.7a.11.11,0,0,1,.1-.09h.66a.09.09,0,0,1,.08.09l-.1.94.46-.65a.91.91,0,0,1,.84-.46h.1a.88.88,0,0,1,.81.47S112.52,10.92,112.52,11Z" style="fill:#231f20"/><path d="M113.34,13.05v.06c0,.39.22.52.68.52h1.68a.08.08,0,0,1,.07.08v0l0,.52a.11.11,0,0,1-.09.08h-1.75a1.21,1.21,0,0,1-1.36-1.25v-.17l.08-.81a1.68,1.68,0,0,1,1.77-1.72h.57c.77,0,1.22.32,1.22.91,0,0,0,.15,0,.28-.07.72-.59.9-1.24,1.07Zm.06-.69,1.13-.33c.44-.13.75-.22.78-.54v-.12c0-.17-.15-.29-.36-.29h-.54q-.9,0-1,1Z" style="fill:#231f20"/><path d="M120.15,14.25a.11.11,0,0,1-.1.08h-.65c-.06,0-.08,0-.08-.09l.11-1.05-.4.58a1.35,1.35,0,0,1-1.26.64h-.13a.94.94,0,0,1-1-1,.88.88,0,0,1,0-.14l.11-1.15a1.7,1.7,0,0,1,1.77-1.73h.09a2.05,2.05,0,0,1,1.07.32l.21-1.92A.11.11,0,0,1,120,8.7h.66a.08.08,0,0,1,.08.08Zm-1.39-1.11.77-1,.09-.82a1.62,1.62,0,0,0-.94-.27h-.1a1,1,0,0,0-1,1c0,.4-.1,1-.1,1.2a.36.36,0,0,0,.34.39h.06C118.26,13.71,118.49,13.46,118.76,13.14Z" style="fill:#231f20"/><path d="M122.35,14.25a.12.12,0,0,1-.11.08h-.76a.07.07,0,0,1-.08-.08l.08-.75a.1.1,0,0,1,.1-.09h.76a.08.08,0,0,1,.08.09Z" style="fill:#231f20"/></svg>