<svg id="ec9a3caa-4eb7-45f2-989a-2390ee638de0" data-name="Layer 1" xmlns="http://www.w3.org/2000/svg" viewBox="0 0 135 106.14"><title>ff06-scifi</title><rect x="9.56" y="51.59" width="115.89" height="15" style="fill:#eb6e62"/><path d="M14.45,12.35a.11.11,0,0,1-.1.09h-.69c-.06,0-.08,0-.08-.09l.12-1.11H12.52c-.8,0-1.25.51-1.34,1.37L11,14.25v.15c0,.53.31.83.92.83h2.14a.1.1,0,0,1,.08.09l-.06.56A.11.11,0,0,1,14,16H11.71a1.43,1.43,0,0,1-1.59-1.49,1.69,1.69,0,0,1,0-.23l.16-1.65a2.14,2.14,0,0,1,2.3-2.11h2a.09.09,0,0,1,.08.1Z" style="fill:#231f20"/><path d="M17.83,14.76l-.35.6a1.16,1.16,0,0,1-1.2.7H16a.83.83,0,0,1-.9-.92c0-.05,0-.16,0-.17l.28-2.78a.12.12,0,0,1,.11-.09h.63a.09.09,0,0,1,.09.09s-.3,2.77-.3,2.85.07.32.27.32h.09c.43,0,.62-.26,1-.76l.69-1,.16-1.41a.09.09,0,0,1,.09-.09h.66a.09.09,0,0,1,.08.09l-.39,3.69a.09.09,0,0,1-.09.09H17.8c-.06,0-.08,0-.08-.09Z" style="fill:#231f20"/><path d="M23.19,12.59a.08.08,0,0,1,0,.07l-.58.45-.07,0s-.05,0-.07-.05-.17-.28-.33-.28H22c-.13,0-.23.12-.4.34l-.82,1-.18,1.69a.09.09,0,0,1-.09.09h-.66c-.06,0-.08,0-.08-.09l.39-3.69a.09.09,0,0,1,.09-.09H21a.09.09,0,0,1,.08.09l-.1.93.46-.64a.91.91,0,0,1,.84-.46h.1a.88.88,0,0,1,.81.47S23.19,12.56,23.19,12.59Z" style="fill:#231f20"/><path d="M26.66,12.59a.08.08,0,0,1,0,.07l-.58.45s0,0-.07,0,0,0-.07-.05-.17-.28-.33-.28h-.05c-.14,0-.24.12-.41.34l-.82,1-.17,1.69A.11.11,0,0,1,24,16h-.66c-.06,0-.08,0-.08-.09l.39-3.69a.11.11,0,0,1,.1-.09h.65a.09.09,0,0,1,.08.09l-.1.93.46-.64A.91.91,0,0,1,25.7,12h.1a.87.87,0,0,1,.81.47A.19.19,0,0,1,26.66,12.59Z" style="fill:#231f20"/><path d="M27.48,14.68v.07c0,.39.22.52.68.52h1.68a.08.08,0,0,1,.07.08h0l0,.52a.11.11,0,0,1-.1.09H28a1.21,1.21,0,0,1-1.36-1.25c0-.06,0-.16,0-.17l.07-.81A1.71,1.71,0,0,1,28.52,12h.56c.77,0,1.23.32,1.23.92a2.42,2.42,0,0,1,0,.28c-.07.72-.59.9-1.24,1.07Zm.07-.68,1.13-.33c.44-.13.75-.22.77-.54V13c0-.16-.14-.28-.35-.28h-.55c-.6,0-.92.33-1,1Z" style="fill:#231f20"/><path d="M34.51,15.88a.12.12,0,0,1-.11.09h-.63a.09.09,0,0,1-.09-.09L34,13.33s0-.23,0-.3-.08-.31-.25-.31h-.07c-.27,0-.48.26-.85.75l-.92,1.17-.12,1.24a.11.11,0,0,1-.1.09H31a.08.08,0,0,1-.08-.07l.39-3.71a.11.11,0,0,1,.09-.09h.66a.08.08,0,0,1,.08.09L32,13.57l.51-.76c.33-.52.58-.8,1.16-.8h.23a.83.83,0,0,1,.9.92,1.31,1.31,0,0,1,0,.17Z" style="fill:#231f20"/><path d="M37.8,15.88a.09.09,0,0,1-.09.09h-.62A.94.94,0,0,1,36,15a1,1,0,0,1,0-.16l.2-1.95-.77-.14a.1.1,0,0,1-.09-.1l0-.46a.11.11,0,0,1,.1-.09h.79l0-.39a.24.24,0,0,1,.11-.18l.56-.34a.13.13,0,0,1,.08,0c.08,0,.12,0,.12.11l-.09.82h1a.09.09,0,0,1,.09.09l-.06.62s-.06.08-.11.08h-1c-.07.71-.21,1.87-.21,2a.33.33,0,0,0,.37.36h.55a.07.07,0,0,1,.07.07Z" style="fill:#231f20"/><path d="M46.52,15.88c0,.08-.05.09-.09.09H45.7c-.05,0-.07,0-.07-.09V11.15a7.25,7.25,0,0,1-.42,1.1l-.84,1.81c0,.06,0,.09-.1.09h-1c-.05,0-.07,0-.08-.09l-.52-1.71a8.8,8.8,0,0,1-.27-1.2l-1.08,4.73a.11.11,0,0,1-.1.09h-.75a.07.07,0,0,1-.08-.07s0-.06,0-.09l1.28-5.22a.13.13,0,0,1,.11-.1h1.09c.07,0,.08,0,.1.1l.82,2.92,1.29-2.92c0-.05,0-.1.1-.1h1.09a.1.1,0,0,1,.09.1Z" style="fill:#231f20"/><path d="M48.75,15.88a.12.12,0,0,1-.11.09H48a.08.08,0,0,1-.08-.09l.31-3-.83-.16a.09.09,0,0,1-.08-.1l0-.4a.11.11,0,0,1,.1-.09H49a.09.09,0,0,1,.09.09Zm.58-4.81a.12.12,0,0,1-.1.1h-.8a.09.09,0,0,1-.09-.1l.08-.76a.13.13,0,0,1,.1-.1h.81a.1.1,0,0,1,.08.1Z" style="fill:#231f20"/><path d="M53.08,12.72a.11.11,0,0,1-.09.09H51.3c-.26,0-.47.08-.5.34v0c0,.2.16.29.37.35l.84.17c.61.12,1.06.4,1.06,1a1.8,1.8,0,0,1,0,.27c-.08.69-.61,1-1.45,1H49.83a.09.09,0,0,1-.08-.08s0-.18,0-.53a.11.11,0,0,1,.1-.09h1.83c.29,0,.5-.15.5-.42s-.23-.35-.56-.41l-.82-.16a1,1,0,0,1-.88-1s0,0,0-.18c0-.64.54-1,1.37-1h1.71a.09.09,0,0,1,.08.08Z" style="fill:#231f20"/><path d="M56.74,12.72a.11.11,0,0,1-.1.09H55c-.27,0-.48.08-.5.34v0c0,.2.16.29.37.35l.84.17c.6.12,1.06.4,1.06,1,0,.06,0,.11,0,.27-.08.69-.61,1-1.45,1H53.48a.09.09,0,0,1-.08-.08l.06-.53a.11.11,0,0,1,.1-.09h1.83c.29,0,.49-.15.49-.42s-.22-.35-.56-.41l-.81-.16a1,1,0,0,1-.88-1s0,0,0-.18c0-.64.53-1,1.36-1h1.72a.09.09,0,0,1,.07.08Z" style="fill:#231f20"/><path d="M58.63,15.88a.12.12,0,0,1-.11.09h-.64a.08.08,0,0,1-.08-.09l.31-3-.83-.16a.09.09,0,0,1-.08-.1l0-.4a.11.11,0,0,1,.1-.09h1.58a.09.09,0,0,1,.09.09Zm.58-4.81s-.05.1-.09.1h-.81a.09.09,0,0,1-.09-.1l.08-.76a.13.13,0,0,1,.1-.1h.81a.1.1,0,0,1,.08.1Z" style="fill:#231f20"/><path d="M63.47,14.32a1.73,1.73,0,0,1-1.78,1.73h-.48a1.21,1.21,0,0,1-1.36-1.25c0-.05,0-.15,0-.17l.08-.88A1.72,1.72,0,0,1,61.72,12h.47a1.21,1.21,0,0,1,1.36,1.26v.17Zm-.75-.88a.83.83,0,0,0,0-.12c0-.42-.23-.59-.68-.59h-.29a1,1,0,0,0-1,1l-.08.89v.13c0,.4.21.58.68.58h.28a1,1,0,0,0,1-1Z" style="fill:#231f20"/><path d="M67.93,15.88a.12.12,0,0,1-.1.09h-.64a.08.08,0,0,1-.08-.09l.26-2.55s0-.23,0-.3-.08-.31-.26-.31h-.07c-.27,0-.47.26-.85.75l-.91,1.17-.13,1.24a.11.11,0,0,1-.1.09h-.65a.07.07,0,0,1-.08-.07l.38-3.71a.11.11,0,0,1,.1-.09h.65a.08.08,0,0,1,.08.09l-.13,1.38.5-.76c.34-.52.59-.8,1.16-.8h.23a.83.83,0,0,1,.91.92,1.31,1.31,0,0,1,0,.17Z" style="fill:#231f20"/><path d="M14.44,27.88a.1.1,0,0,1-.09.09h-1a.14.14,0,0,1-.14-.08l-1.72-3.2a8.55,8.55,0,0,1-.58-1.36,13.56,13.56,0,0,1,.15,1.9v2.65A.09.09,0,0,1,11,28h-.7a.09.09,0,0,1-.08-.09V22.59a.1.1,0,0,1,.08-.1h.92c.06,0,.08.05.12.12l1.86,3.47a6.26,6.26,0,0,1,.52,1.28,13.59,13.59,0,0,1-.14-1.82V22.59a.11.11,0,0,1,.1-.1h.69a.11.11,0,0,1,.09.1Z" style="fill:#231f20"/><path d="M16.31,26.35v.17a.72.72,0,0,0,.82.75h1.64a.1.1,0,0,1,.09.09v.52a.09.09,0,0,1-.09.09H17a1.4,1.4,0,0,1-1.53-1.45V25.47A1.4,1.4,0,0,1,17,24h.48A1.38,1.38,0,0,1,19,25.37v.37a.19.19,0,0,1-.09.19l-.41.35a.36.36,0,0,1-.24.07Zm0-.71H18.2v-.17c0-.51-.35-.75-.84-.75h-.22c-.49,0-.83.24-.83.74Z" style="fill:#231f20"/><path d="M24.06,27.88a.11.11,0,0,1-.12.09H23a.12.12,0,0,1-.12-.09l-.42-1.3a9.85,9.85,0,0,1-.27-1,9.64,9.64,0,0,1-.26,1l-.41,1.3a.12.12,0,0,1-.12.09h-1a.11.11,0,0,1-.12-.09l-.71-3.44c0-.12,0-.22,0-.24a.1.1,0,0,1,.11-.1h.6c.08,0,.12,0,.14.12l.43,2.06c.07.35.08.78.11,1.08l.72-2.25c0-.08.06-.12.15-.12h.77c.08,0,.11,0,.14.12l.74,2.25a8.91,8.91,0,0,1,.12-1.08L24,24.22c0-.09.07-.12.15-.12h.58c.08,0,.11,0,.11.09s0,.13-.05.24Z" style="fill:#231f20"/><path d="M30.8,23.15a.09.09,0,0,1-.08.09H28.87a.67.67,0,0,0-.75.65V24c0,.39.34.57.77.69l1,.28c.88.25,1.31.69,1.31,1.46v.21A1.51,1.51,0,0,1,29.52,28h-2a.09.09,0,0,1-.09-.09v-.56a.1.1,0,0,1,.09-.09h1.91c.5,0,.91-.23.91-.65v-.13c0-.51-.45-.63-1-.78l-.86-.24A1.47,1.47,0,0,1,27.25,24v-.14a1.37,1.37,0,0,1,1.47-1.34h2a.1.1,0,0,1,.08.1Z" style="fill:#231f20"/><path d="M32,24.19a.09.09,0,0,1,.09-.09h.63a.1.1,0,0,1,.1.09v2.67c0,.3.16.49.43.49h.06c.29,0,.47-.21.7-.48l.65-.76V24.19a.09.09,0,0,1,.09-.09h.65a.09.09,0,0,1,.09.09v3.69a.09.09,0,0,1-.09.09h-.65a.09.09,0,0,1-.09-.09v-.8l-.35.45a1.21,1.21,0,0,1-1.05.52h-.13A1,1,0,0,1,32,26.86Z" style="fill:#231f20"/><path d="M39.87,25.37a.09.09,0,0,1-.09.08h-.65a.09.09,0,0,1-.09-.08v-.06c0-.38-.36-.59-.75-.59h-.18c-.49,0-.83.24-.83.74v1.06a.72.72,0,0,0,.82.75h1.6a.1.1,0,0,1,.09.09v.52a.09.09,0,0,1-.09.09H38a1.4,1.4,0,0,1-1.53-1.45V25.47A1.4,1.4,0,0,1,38,24h.44a1.34,1.34,0,0,1,1.45,1.3Z" style="fill:#231f20"/><path d="M43.84,25.37a.09.09,0,0,1-.09.08h-.64a.09.09,0,0,1-.09-.08v-.06c0-.38-.37-.59-.75-.59h-.19c-.48,0-.83.24-.83.74v1.06a.73.73,0,0,0,.83.75h1.59a.1.1,0,0,1,.09.09v.52a.09.09,0,0,1-.09.09H42a1.39,1.39,0,0,1-1.53-1.45V25.47A1.4,1.4,0,0,1,42,24h.44a1.33,1.33,0,0,1,1.44,1.3Z" style="fill:#231f20"/><path d="M45.31,26.35v.17a.72.72,0,0,0,.82.75h1.64a.1.1,0,0,1,.09.09v.52a.09.09,0,0,1-.09.09H46a1.4,1.4,0,0,1-1.53-1.45V25.47A1.4,1.4,0,0,1,46,24h.48A1.38,1.38,0,0,1,48,25.37v.37a.21.21,0,0,1-.09.19l-.41.35a.36.36,0,0,1-.24.07Zm0-.71h1.88v-.17c0-.51-.34-.75-.83-.75h-.22c-.49,0-.83.24-.83.74Z" style="fill:#231f20"/><path d="M51.69,24.72a.09.09,0,0,1-.09.09H49.92c-.24,0-.43.13-.43.36s.16.34.39.39l.8.13c.64.1,1.22.34,1.22,1.08v.15c0,.66-.54,1-1.26,1H48.81a.1.1,0,0,1-.09-.09v-.52a.09.09,0,0,1,.09-.09H50.6c.28,0,.47-.15.47-.39s-.21-.37-.55-.43-.58-.09-.86-.15a1.09,1.09,0,0,1-1-1.1v-.11c0-.63.53-1,1.23-1H51.6a.1.1,0,0,1,.09.1Z" style="fill:#231f20"/><path d="M55.5,24.72a.09.09,0,0,1-.09.09H53.72c-.24,0-.42.13-.42.36s.15.34.38.39l.81.13c.63.1,1.22.34,1.22,1.08v.15c0,.66-.54,1-1.26,1H52.61a.11.11,0,0,1-.09-.09v-.52a.1.1,0,0,1,.09-.09H54.4c.29,0,.48-.15.48-.39s-.21-.37-.55-.43-.58-.09-.86-.15a1.08,1.08,0,0,1-1-1.1v-.11c0-.63.53-1,1.23-1h1.71a.1.1,0,0,1,.09.1Z" style="fill:#231f20"/><path d="M62.63,24.31A1.47,1.47,0,0,1,61,25.84h-1.5v2a.09.09,0,0,1-.09.09h-.7a.09.09,0,0,1-.08-.09V22.59a.1.1,0,0,1,.08-.1H61A1.46,1.46,0,0,1,62.63,24Zm-.87-.26a.75.75,0,0,0-.84-.81H59.51v1.84h1.41a.75.75,0,0,0,.84-.81Z" style="fill:#231f20"/><path d="M66.36,24.53a.09.09,0,0,1,0,.07L65.8,25a.08.08,0,0,1-.07,0,.09.09,0,0,1-.06,0c-.11-.12-.21-.24-.36-.24h-.06c-.2,0-.34.19-.55.46l-.55.74v1.87a.09.09,0,0,1-.09.09H63.4a.09.09,0,0,1-.08-.09V24.19a.09.09,0,0,1,.08-.09h.66a.09.09,0,0,1,.09.09V25l.29-.39a1.17,1.17,0,0,1,1-.59h.08a1.12,1.12,0,0,1,.87.45A.21.21,0,0,1,66.36,24.53Z" style="fill:#231f20"/><path d="M67.42,26.35v.17a.72.72,0,0,0,.82.75h1.64a.1.1,0,0,1,.09.09v.52a.09.09,0,0,1-.09.09H68.12a1.39,1.39,0,0,1-1.52-1.45V25.47A1.4,1.4,0,0,1,68.12,24h.48a1.38,1.38,0,0,1,1.53,1.36v.37a.19.19,0,0,1-.09.19l-.4.35a.4.4,0,0,1-.24.07Zm0-.71h1.89v-.17a.73.73,0,0,0-.83-.75h-.23c-.49,0-.83.24-.83.74Z" style="fill:#231f20"/><path d="M74.49,27.88a.1.1,0,0,1-.1.09h-.64a.1.1,0,0,1-.09-.09v-.83l-.31.39a1.29,1.29,0,0,1-1.15.61h-.15a1,1,0,0,1-1.13-1.19V25.49A1.34,1.34,0,0,1,72.38,24h.09a2.75,2.75,0,0,1,1.19.34V22.43a.11.11,0,0,1,.09-.1h.64a.11.11,0,0,1,.1.1ZM73.66,25a2.2,2.2,0,0,0-1.09-.32h-.09a.68.68,0,0,0-.74.76v1.41a.42.42,0,0,0,.43.46h.06c.33,0,.5-.2.76-.49l.67-.74Z" style="fill:#231f20"/><path d="M76.9,27.88a.1.1,0,0,1-.1.09h-.64a.1.1,0,0,1-.09-.09v-3l-.85-.16a.11.11,0,0,1-.09-.1v-.4a.09.09,0,0,1,.09-.09H76.8a.1.1,0,0,1,.1.09ZM77,23.07a.1.1,0,0,1-.09.1h-.81a.11.11,0,0,1-.09-.1v-.76a.11.11,0,0,1,.09-.1h.81a.1.1,0,0,1,.09.1Z" style="fill:#231f20"/><path d="M81.27,25.37a.09.09,0,0,1-.09.08h-.65a.09.09,0,0,1-.09-.08v-.06c0-.38-.37-.59-.75-.59h-.18c-.49,0-.83.24-.83.74v1.06a.72.72,0,0,0,.82.75h1.6a.1.1,0,0,1,.09.09v.52a.09.09,0,0,1-.09.09H79.38a1.4,1.4,0,0,1-1.53-1.45V25.47A1.4,1.4,0,0,1,79.38,24h.44a1.34,1.34,0,0,1,1.45,1.3Z" style="fill:#231f20"/><path d="M84.23,27.88a.09.09,0,0,1-.09.09h-.57a1,1,0,0,1-1.16-1.13V24.91l-.69-.14a.12.12,0,0,1-.1-.1v-.48a.1.1,0,0,1,.1-.09h.69v-.39a.19.19,0,0,1,.1-.18l.53-.34a.11.11,0,0,1,.08,0,.11.11,0,0,1,.12.11v.82h.89a.1.1,0,0,1,.1.09v.62a.1.1,0,0,1-.1.08h-.89v1.95a.4.4,0,0,0,.4.44h.5a.09.09,0,0,1,.09.08Z" style="fill:#231f20"/><path d="M86.32,27.88a.1.1,0,0,1-.1.09h-.64a.1.1,0,0,1-.1-.09v-3l-.84-.16a.11.11,0,0,1-.09-.1v-.4a.09.09,0,0,1,.09-.09h1.58a.1.1,0,0,1,.1.09Zm.08-4.81a.1.1,0,0,1-.09.1H85.5a.11.11,0,0,1-.1-.1v-.76a.11.11,0,0,1,.1-.1h.81a.1.1,0,0,1,.09.1Z" style="fill:#231f20"/><path d="M90.84,26.6a1.39,1.39,0,0,1-1.52,1.45H88.8a1.39,1.39,0,0,1-1.53-1.45V25.48A1.39,1.39,0,0,1,88.8,24h.52a1.39,1.39,0,0,1,1.52,1.46ZM90,25.47c0-.5-.34-.74-.83-.74h-.27c-.48,0-.83.24-.83.74V26.6a.73.73,0,0,0,.83.75h.27c.49,0,.83-.24.83-.75Z" style="fill:#231f20"/><path d="M95.38,27.88a.1.1,0,0,1-.1.09h-.63a.09.09,0,0,1-.09-.09V25.21a.43.43,0,0,0-.44-.48h-.05c-.33,0-.51.2-.77.48l-.66.74v1.93a.09.09,0,0,1-.09.09h-.66a.09.09,0,0,1-.09-.09V24.19a.09.09,0,0,1,.09-.09h.66a.09.09,0,0,1,.09.09V25l.32-.39A1.37,1.37,0,0,1,94.11,24h.13a1,1,0,0,1,1.14,1.19Z" style="fill:#231f20"/><path d="M97.44,25.2a.09.09,0,0,1-.09.09h-.76a.09.09,0,0,1-.09-.09v-.74a.09.09,0,0,1,.09-.09h.76a.09.09,0,0,1,.09.09Zm0,2.68a.09.09,0,0,1-.09.09h-.76a.09.09,0,0,1-.09-.09v-.74a.09.09,0,0,1,.09-.09h.76a.09.09,0,0,1,.09.09Z" style="fill:#231f20"/><path d="M102.43,22.49c1.16,0,1.75.48,1.75,1.43v.15c0,.78-.51,1.24-1.3,1.5l-1,.35a.83.83,0,0,0-.63.93v.38h2.85a.1.1,0,0,1,.1.09v.56a.1.1,0,0,1-.1.09h-3.52c-.16,0-.2-.14-.2-.25v-.88c0-1.2.57-1.51,1.65-1.83.66-.2,1.3-.41,1.3-1v-.13c0-.49-.33-.68-.94-.68h-1.6a.09.09,0,0,1-.09-.09v-.56a.1.1,0,0,1,.09-.1Z" style="fill:#231f20"/><path d="M106.9,27.23a.86.86,0,0,0,1-.84V26a.69.69,0,0,0-.68-.76h-.28a.8.8,0,0,0-.59.3l-.2.18a.09.09,0,0,1-.08,0h0l-.8-.48a.19.19,0,0,1-.1-.18V22.59c0-.06,0-.1.09-.1h3.17a.1.1,0,0,1,.09.1v.56a.09.09,0,0,1-.09.09H106s-.06,0-.06.06V25l.18-.18a.92.92,0,0,1,.68-.28h.43A1.34,1.34,0,0,1,108.74,26v.4A1.59,1.59,0,0,1,107,28h-1.76a.09.09,0,0,1-.09-.09v-.56a.1.1,0,0,1,.09-.09Z" style="fill:#231f20"/><path d="M113,24.27a1.27,1.27,0,0,1-1.3,1.3h-.51a1.28,1.28,0,0,1-1.31-1.3v-.69a1.27,1.27,0,0,1,1.31-1.29h.51a1.26,1.26,0,0,1,1.3,1.28Zm-.83-.59c0-.41-.22-.71-.61-.71h-.24c-.39,0-.6.29-.6.71v.49c0,.43.17.71.6.71h.24c.39,0,.61-.3.61-.71Zm1.34,4.61c0,.05,0,.1-.08.1h-.77s-.08,0-.08-.06,0-.22.08-.33l1.51-6.07c0-.05,0-.09.09-.09h.78s.07,0,.07.05-.06.23-.09.36Zm4.29-1.57a1.27,1.27,0,0,1-1.3,1.3H116a1.27,1.27,0,0,1-1.3-1.3V26a1.27,1.27,0,0,1,1.3-1.3h.52a1.26,1.26,0,0,1,1.3,1.29Zm-.83-.59a.62.62,0,0,0-.61-.7h-.24c-.39,0-.61.29-.61.7v.5c0,.42.18.7.61.7h.24c.39,0,.61-.29.61-.7Z" style="fill:#231f20"/><path d="M19.45,57.87a.09.09,0,0,1-.09.09h-.69a.09.09,0,0,1-.09-.09V56.76H17.52a1,1,0,0,0-1,1.06V59.7a1,1,0,0,0,1,1h1.84a.1.1,0,0,1,.09.1v.56a.09.09,0,0,1-.09.09H17.44a1.72,1.72,0,0,1-1.83-1.8V57.82A1.72,1.72,0,0,1,17.44,56h1.92a.1.1,0,0,1,.09.1Z" style="fill:#231f20"/><path d="M23.58,58.06a.11.11,0,0,1,0,.06l-.53.45a.09.09,0,0,1-.07,0l-.06,0c-.11-.13-.21-.25-.37-.25h-.05c-.2,0-.34.19-.55.46l-.55.75v1.87a.09.09,0,0,1-.09.09h-.66a.09.09,0,0,1-.09-.09V57.72a.09.09,0,0,1,.09-.09h.66a.09.09,0,0,1,.09.09v.81l.29-.4a1.16,1.16,0,0,1,.95-.58h.08a1.16,1.16,0,0,1,.87.44A.25.25,0,0,1,23.58,58.06Z" style="fill:#231f20"/><path d="M24.64,59.87V60a.72.72,0,0,0,.82.75H27.1a.1.1,0,0,1,.09.1v.52a.09.09,0,0,1-.09.09H25.34A1.4,1.4,0,0,1,23.81,60V59a1.4,1.4,0,0,1,1.53-1.45h.48a1.38,1.38,0,0,1,1.53,1.36v.37a.23.23,0,0,1-.09.19l-.41.34a.31.31,0,0,1-.24.07Zm0-.7h1.88V59c0-.51-.34-.75-.83-.75h-.22c-.49,0-.83.24-.83.75Z" style="fill:#231f20"/><path d="M32.39,61.41a.11.11,0,0,1-.12.09h-1a.11.11,0,0,1-.12-.09l-.43-1.3c-.1-.32-.2-.72-.26-1a9.78,9.78,0,0,1-.26,1l-.41,1.3a.12.12,0,0,1-.12.09h-1a.11.11,0,0,1-.12-.09L27.91,58c0-.11-.05-.21-.05-.24s0-.09.11-.09h.6c.08,0,.12,0,.14.12l.43,2c.07.35.08.79.11,1.08L30,58.63c0-.08.06-.12.15-.12h.76c.08,0,.12,0,.15.12l.73,2.25c0-.29,0-.73.12-1.08l.43-2c0-.09.07-.12.15-.12H33c.08,0,.11,0,.11.09s0,.12,0,.23Z" style="fill:#231f20"/><path d="M39.13,56.68a.09.09,0,0,1-.09.08H37.2a.67.67,0,0,0-.75.65v.08c0,.39.34.58.77.7l1,.28c.88.24,1.32.68,1.32,1.46v.21a1.51,1.51,0,0,1-1.67,1.36h-2a.09.09,0,0,1-.09-.09v-.56a.1.1,0,0,1,.09-.1h1.91c.5,0,.91-.23.91-.64V60c0-.51-.45-.63-1-.79L36.79,59a1.46,1.46,0,0,1-1.21-1.45v-.14A1.37,1.37,0,0,1,37.05,56h2a.1.1,0,0,1,.09.1Z" style="fill:#231f20"/><path d="M40.33,57.72a.09.09,0,0,1,.09-.09h.63a.1.1,0,0,1,.1.09v2.67a.42.42,0,0,0,.43.48h.06c.29,0,.47-.2.7-.48l.65-.76V57.72a.09.09,0,0,1,.09-.09h.65a.09.09,0,0,1,.09.09v3.69a.09.09,0,0,1-.09.09h-.65a.09.09,0,0,1-.09-.09v-.8l-.35.45a1.21,1.21,0,0,1-1,.52h-.13a1,1,0,0,1-1.13-1.19Z" style="fill:#231f20"/><path d="M48,58.06a.11.11,0,0,1,0,.06l-.53.45a.09.09,0,0,1-.07,0l-.06,0c-.11-.13-.22-.25-.37-.25h0c-.2,0-.35.19-.56.46l-.55.75v1.87a.09.09,0,0,1-.08.09H45a.09.09,0,0,1-.09-.09V57.72a.09.09,0,0,1,.09-.09h.66a.09.09,0,0,1,.08.09v.81l.3-.4a1.14,1.14,0,0,1,.94-.58h.08A1.13,1.13,0,0,1,48,58,.13.13,0,0,1,48,58.06Z" style="fill:#231f20"/><path d="M48.21,57.92a1,1,0,0,1-.06-.21c0-.05,0-.08.1-.08h.63c.08,0,.12,0,.15.12l.7,2A10.6,10.6,0,0,1,50,60.87a8.74,8.74,0,0,1,.3-1.08l.7-2c0-.09.06-.12.15-.12h.63c.07,0,.1,0,.1.08a.47.47,0,0,1,0,.16L50.6,61.41a.12.12,0,0,1-.12.09h-.91a.11.11,0,0,1-.12-.09Z" style="fill:#231f20"/><path d="M54,61.41a.1.1,0,0,1-.1.09H53.3a.09.09,0,0,1-.09-.09v-3l-.85-.17a.11.11,0,0,1-.09-.09v-.4a.09.09,0,0,1,.09-.09h1.58a.1.1,0,0,1,.1.09Zm.08-4.81a.1.1,0,0,1-.09.09h-.81a.1.1,0,0,1-.09-.09v-.76a.1.1,0,0,1,.09-.1H54a.1.1,0,0,1,.09.1Z" style="fill:#231f20"/><path d="M54.66,57.92a1,1,0,0,1-.06-.21c0-.05,0-.08.09-.08h.64c.08,0,.12,0,.15.12l.69,2a8.74,8.74,0,0,1,.3,1.08,8.74,8.74,0,0,1,.3-1.08l.7-2c0-.09.06-.12.15-.12h.63c.07,0,.1,0,.1.08a.9.9,0,0,1-.05.16L57,61.41a.1.1,0,0,1-.11.09H56c-.07,0-.09,0-.11-.09Z" style="fill:#231f20"/><path d="M62.37,61.41a.1.1,0,0,1-.09.09h-.64a.1.1,0,0,1-.1-.09v-.83l-.3.39a1.34,1.34,0,0,1-1.16.61h-.15a1,1,0,0,1-1.13-1.19V59a1.33,1.33,0,0,1,1.46-1.47h.09a2.75,2.75,0,0,1,1.19.33v-.15a.11.11,0,0,1,.1-.09h.64a.11.11,0,0,1,.09.09Zm-.83-2.85a2.27,2.27,0,0,0-1.09-.32h-.09a.68.68,0,0,0-.74.76v1.42a.41.41,0,0,0,.43.45h.06c.33,0,.5-.2.77-.48l.66-.74Z" style="fill:#231f20"/><path d="M65.23,61.41a.09.09,0,0,1-.09.09h-.49a1,1,0,0,1-1.16-1.14V56a.1.1,0,0,1,.09-.1h.65a.1.1,0,0,1,.09.1v4.4a.4.4,0,0,0,.41.44h.41a.09.09,0,0,1,.09.09Z" style="fill:#231f20"/><path d="M66.89,58.73a.09.09,0,0,1-.09.09H66a.09.09,0,0,1-.09-.09V58A.09.09,0,0,1,66,57.9h.76a.09.09,0,0,1,.09.09Zm0,2.68a.09.09,0,0,1-.09.09H66a.09.09,0,0,1-.09-.09v-.74a.09.09,0,0,1,.09-.09h.76a.09.09,0,0,1,.09.09Z" style="fill:#231f20"/><path d="M72.1,61.41a.1.1,0,0,1-.1.09H69.67a.1.1,0,0,1-.1-.09v-.57a.1.1,0,0,1,.1-.09h.73v-4h-.74a.09.09,0,0,1-.09-.08v-.56a.1.1,0,0,1,.09-.1h1.52a.11.11,0,0,1,.1.1v4.63H72a.1.1,0,0,1,.1.09Z" style="fill:#231f20"/><path d="M76.32,61.41a.09.09,0,0,1-.09.09H74.11a.09.09,0,0,1-.09-.09v-.57a.09.09,0,0,1,.09-.09h.61v-.61H72.19a.09.09,0,0,1-.09-.09v-.54c0-.07,0-.09.07-.14l2.43-3.25s.08-.1.16-.1h.73a.11.11,0,0,1,.1.1v3.27h.64a.1.1,0,0,1,.09.1v.56a.09.09,0,0,1-.09.09h-.64v.61h.64a.09.09,0,0,1,.09.09Zm-1.6-3.22a7.94,7.94,0,0,1,.16-1.35,4,4,0,0,1-.47.8L73,59.51a2.8,2.8,0,0,1,.83-.12h.89Z" style="fill:#231f20"/><path d="M80.55,57.79a1.28,1.28,0,0,1-1.31,1.3h-.51a1.27,1.27,0,0,1-1.3-1.3v-.68a1.27,1.27,0,0,1,1.3-1.3h.51a1.27,1.27,0,0,1,1.31,1.29Zm-.83-.59a.63.63,0,0,0-.61-.7h-.24c-.39,0-.61.29-.61.7v.5c0,.42.18.7.61.7h.24c.39,0,.61-.29.61-.7Zm1.34,4.62s0,.09-.09.09H80.2s-.08,0-.08,0,.06-.23.08-.33l1.51-6.08c0-.05,0-.09.09-.09h.79s.06,0,.06,0-.06.23-.09.36Zm4.28-1.57A1.26,1.26,0,0,1,84,61.54h-.51a1.26,1.26,0,0,1-1.3-1.29v-.69a1.26,1.26,0,0,1,1.3-1.29H84a1.26,1.26,0,0,1,1.3,1.28Zm-.83-.59c0-.41-.22-.71-.6-.71h-.24c-.4,0-.61.29-.61.71v.49c0,.43.17.71.61.71h.24c.39,0,.6-.3.6-.71Z" style="fill:#231f20"/><path d="M14.47,41.72a.12.12,0,0,1-.11.09h-1.7l-.48,4.58a.11.11,0,0,1-.1.08H11.4a.08.08,0,0,1-.09-.08l.48-4.58H10.1a.08.08,0,0,1-.09-.09l.07-.63a.11.11,0,0,1,.1-.09h4.26a.1.1,0,0,1,.09.09Z" style="fill:#231f20"/><path d="M17.56,44.83a1.71,1.71,0,0,1-1.77,1.72h-.48A1.2,1.2,0,0,1,14,45.3s0-.14,0-.17l.08-.88a1.71,1.71,0,0,1,1.77-1.73h.48a1.21,1.21,0,0,1,1.36,1.26,1.23,1.23,0,0,1,0,.17Zm-.74-.89a.83.83,0,0,0,0-.12c0-.42-.24-.59-.68-.59h-.29a1,1,0,0,0-1,1l-.08.89a.76.76,0,0,0,0,.14c0,.39.22.57.68.57h.29a1,1,0,0,0,1-1Z" style="fill:#231f20"/><path d="M18.84,42.68a.09.09,0,0,1,.09-.08h.66a.08.08,0,0,1,.08.08s0,.23-.11,1.06l.39-.58a1.35,1.35,0,0,1,1.26-.64h.14a.94.94,0,0,1,1,1,.88.88,0,0,1,0,.14l-.1,1.08a1.69,1.69,0,0,1-1.77,1.72H19.27l-.15,1.35a.11.11,0,0,1-.09.09h-.66a.08.08,0,0,1-.08-.08Zm.61,2.07-.11,1h1.07a1,1,0,0,0,1-1c0-.38.1-1,.1-1.13a.36.36,0,0,0-.35-.39h-.05a1.13,1.13,0,0,0-.88.57Z" style="fill:#231f20"/><path d="M26,46.39a.11.11,0,0,1-.1.08h-.7a.08.08,0,0,1-.08-.07l0-.17.54-5.14s0-.09.09-.09h3.49a.1.1,0,0,1,.09.09l-.06.56a.11.11,0,0,1-.1.09H26.47l-.17,1.65H29a.09.09,0,0,1,.09.09L29,44a.13.13,0,0,1-.11.09h-2.7Z" style="fill:#231f20"/><path d="M30.34,45.19v.06c0,.39.22.52.68.52H32.7a.08.08,0,0,1,.07.08v0l-.05.52a.11.11,0,0,1-.09.08H30.87a1.2,1.2,0,0,1-1.35-1.25v-.17l.08-.81a1.68,1.68,0,0,1,1.77-1.72h.57c.77,0,1.22.32,1.22.91,0,0,0,.15,0,.29-.07.72-.59.89-1.24,1.06Zm.06-.69,1.13-.33c.44-.13.75-.22.78-.53v-.13c0-.17-.14-.29-.35-.29h-.54q-.9,0-1,1Z" style="fill:#231f20"/><path d="M37.15,46.39a.11.11,0,0,1-.1.08h-.66a.08.08,0,0,1-.08-.07s0-.14.11-1.07l-.39.58a1.36,1.36,0,0,1-1.26.64h-.14a.94.94,0,0,1-1-1,1,1,0,0,1,0-.14l.11-1.15a1.7,1.7,0,0,1,1.77-1.73h.09a2,2,0,0,1,1.06.33l0-.16a.11.11,0,0,1,.09-.09h.66a.09.09,0,0,1,.08.08Zm-1.4-1.11.77-1,.09-.83a1.62,1.62,0,0,0-.94-.27h-.09a1,1,0,0,0-1,1l-.1,1.1v.1a.35.35,0,0,0,.34.39h0C35.26,45.85,35.49,45.6,35.75,45.28Z" style="fill:#231f20"/><path d="M40.45,46.39a.11.11,0,0,1-.1.08h-.61a.94.94,0,0,1-1.06-1v-.16l.21-1.94-.77-.15a.1.1,0,0,1-.09-.09l0-.47a.1.1,0,0,1,.1-.09H39l.05-.39a.19.19,0,0,1,.11-.17l.56-.35.08,0a.1.1,0,0,1,.11.11l-.09.82h1a.09.09,0,0,1,.09.09l-.07.62a.1.1,0,0,1-.1.09h-1c-.07.7-.2,1.86-.2,2a.33.33,0,0,0,.36.36h.56a.07.07,0,0,1,.07.07Z" style="fill:#231f20"/><path d="M44.06,45.27l-.35.6a1.17,1.17,0,0,1-1.2.69h-.28a.83.83,0,0,1-.9-.92s0-.16,0-.16l.29-2.79a.11.11,0,0,1,.1-.09h.63a.09.09,0,0,1,.09.09s-.3,2.77-.3,2.86a.28.28,0,0,0,.27.31h.09c.44,0,.62-.26,1-.76l.7-1,.15-1.41a.11.11,0,0,1,.1-.09h.65a.09.09,0,0,1,.08.09l-.38,3.7a.11.11,0,0,1-.1.08H44c-.07,0-.08,0-.08-.08Z" style="fill:#231f20"/><path d="M49.41,43.09a.08.08,0,0,1,0,.07l-.58.45a.07.07,0,0,1-.07,0,.08.08,0,0,1-.07,0c-.12-.16-.17-.29-.33-.29h0c-.14,0-.24.12-.41.34l-.82,1-.17,1.7a.11.11,0,0,1-.1.08h-.66a.07.07,0,0,1-.08-.08l.39-3.7a.11.11,0,0,1,.1-.09h.65a.09.09,0,0,1,.08.09l-.1.94.46-.65a.91.91,0,0,1,.84-.46h.1a.87.87,0,0,1,.81.47A.19.19,0,0,1,49.41,43.09Z" style="fill:#231f20"/><path d="M50.23,45.19v.06c0,.39.22.52.68.52h1.68a.09.09,0,0,1,.08.08v0l-.05.52a.11.11,0,0,1-.1.08H50.77a1.21,1.21,0,0,1-1.36-1.25c0-.06,0-.15,0-.17l.07-.81a1.7,1.7,0,0,1,1.78-1.72h.56c.77,0,1.23.32,1.23.91a2.75,2.75,0,0,1,0,.29c-.07.72-.59.89-1.24,1.06Zm.07-.69,1.13-.33c.44-.13.75-.22.77-.53v-.13c0-.17-.14-.29-.35-.29h-.54c-.6,0-.93.34-1,1Z" style="fill:#231f20"/><path d="M56.55,46.39a.11.11,0,0,1-.1.08h-.7a.07.07,0,0,1-.08-.08l.56-5.3a.1.1,0,0,1,.09-.09H57a.1.1,0,0,1,.08.09Z" style="fill:#231f20"/><path d="M59,44l.49-.75c.34-.53.58-.77,1.12-.77h.21c.53,0,.81.28.81.87a1.62,1.62,0,0,1,0,.21l0,.42.48-.73c.34-.53.58-.77,1.12-.77h.21c.52,0,.8.28.8.87v.21l-.29,2.79a.12.12,0,0,1-.11.08h-.63a.09.09,0,0,1-.09-.08c.11-1,.31-2.82.31-2.93s-.07-.24-.18-.24h-.09c-.21,0-.4.26-.74.7l-.9,1.17-.13,1.3a.12.12,0,0,1-.1.08h-.64a.08.08,0,0,1-.08-.08c.1-1,.3-2.9.3-2.93s-.07-.24-.18-.24H60.5c-.21,0-.4.26-.74.7l-.91,1.18-.13,1.29a.09.09,0,0,1-.09.08H58a.07.07,0,0,1-.08-.07l.38-3.71a.11.11,0,0,1,.1-.09H59a.09.09,0,0,1,.08.08Z" style="fill:#231f20"/><path d="M65.49,42.68a.11.11,0,0,1,.1-.08h.65a.08.08,0,0,1,.08.08s0,.23-.11,1.06l.4-.58a1.34,1.34,0,0,1,1.25-.64H68a.93.93,0,0,1,1,1,.88.88,0,0,1,0,.14l-.09,1.08a1.7,1.7,0,0,1-1.78,1.72H65.92l-.14,1.35a.11.11,0,0,1-.1.09H65a.08.08,0,0,1-.08-.08Zm.62,2.07-.12,1h1.08a1,1,0,0,0,1-1c0-.38.09-1,.09-1.13a.36.36,0,0,0-.34-.39h-.06c-.38,0-.62.25-.88.57Z" style="fill:#231f20"/><path d="M73.29,44.83a1.72,1.72,0,0,1-1.78,1.72H71a1.2,1.2,0,0,1-1.35-1.25v-.17l.08-.88a1.72,1.72,0,0,1,1.78-1.73H72A1.27,1.27,0,0,1,73.37,44Zm-.74-.89v-.12c0-.42-.23-.59-.68-.59h-.28a1,1,0,0,0-1,1l-.08.89a.76.76,0,0,0,0,.14c0,.39.22.57.68.57h.29a1,1,0,0,0,1-1Z" style="fill:#231f20"/><path d="M77.55,43.09a.08.08,0,0,1,0,.07l-.58.45a.08.08,0,0,1-.07,0,.08.08,0,0,1-.07,0c-.12-.16-.17-.29-.33-.29H76.4c-.13,0-.23.12-.41.34l-.81,1L75,46.39a.11.11,0,0,1-.09.08h-.66a.07.07,0,0,1-.08-.08l.38-3.7a.11.11,0,0,1,.1-.09h.66a.09.09,0,0,1,.08.09l-.1.94.46-.65a.91.91,0,0,1,.84-.46h.1a.88.88,0,0,1,.81.47S77.55,43.06,77.55,43.09Z" style="fill:#231f20"/><path d="M80.17,46.39a.11.11,0,0,1-.1.08h-.61a.94.94,0,0,1-1.06-1v-.16l.21-1.94-.77-.15a.1.1,0,0,1-.09-.09l0-.47a.1.1,0,0,1,.1-.09h.79l0-.39a.19.19,0,0,1,.11-.17l.56-.35.08,0a.1.1,0,0,1,.11.11l-.09.82h1a.09.09,0,0,1,.09.09l-.07.62a.1.1,0,0,1-.1.09h-1c-.07.7-.2,1.86-.2,2a.33.33,0,0,0,.36.36h.56a.07.07,0,0,1,.07.07Z" style="fill:#231f20"/><path d="M84.46,46.39a.11.11,0,0,1-.1.08h-.65a.07.07,0,0,1-.08-.07s0-.14.1-1.07l-.39.58a1.35,1.35,0,0,1-1.26.64H82a1,1,0,0,1-1-1.15l.11-1.15a1.7,1.7,0,0,1,1.77-1.73h.09a2,2,0,0,1,1.06.33l0-.16a.11.11,0,0,1,.1-.09h.65a.09.09,0,0,1,.08.08Zm-1.39-1.11.76-1,.09-.83a1.62,1.62,0,0,0-.93-.27h-.1a1,1,0,0,0-1,1l-.1,1.1v.1a.35.35,0,0,0,.34.39h.06C82.57,45.85,82.8,45.6,83.07,45.28Z" style="fill:#231f20"/><path d="M89.3,46.39a.12.12,0,0,1-.11.08h-.63a.09.09,0,0,1-.09-.08l.27-2.55s0-.24,0-.31-.08-.31-.25-.31h-.07c-.27,0-.48.26-.85.75l-.92,1.17-.12,1.25a.11.11,0,0,1-.1.08h-.66a.08.08,0,0,1-.08-.07l.39-3.71a.11.11,0,0,1,.09-.09h.66a.08.08,0,0,1,.08.09l-.14,1.39.51-.77c.33-.51.58-.79,1.16-.79h.23a.83.83,0,0,1,.9.92,1.18,1.18,0,0,1,0,.16Z" style="fill:#231f20"/><path d="M93.86,43.77a.11.11,0,0,1-.1.09h-.65a.08.08,0,0,1-.08-.07,1.08,1.08,0,0,0,0-.16c0-.31-.27-.41-.67-.41h-.06c-.6,0-.92.34-1,1l-.08.87s0,.09,0,.13c0,.4.22.53.68.53h1.52a.09.09,0,0,1,.08.08s0,0-.05.54a.11.11,0,0,1-.1.08H91.77a1.2,1.2,0,0,1-1.36-1.23c0-.06,0-.17,0-.19l.07-.81a1.7,1.7,0,0,1,1.78-1.72h.24c.8,0,1.36.38,1.36,1C93.87,43.63,93.86,43.71,93.86,43.77Z" style="fill:#231f20"/><path d="M95.35,45.19v.06c0,.39.21.52.68.52h1.68a.08.08,0,0,1,.07.08v0l0,.52a.11.11,0,0,1-.1.08H95.88a1.21,1.21,0,0,1-1.36-1.25c0-.06,0-.15,0-.17l.07-.81a1.7,1.7,0,0,1,1.78-1.72H97c.76,0,1.22.32,1.22.91,0,0,0,.15,0,.29-.08.72-.6.89-1.24,1.06Zm.06-.69,1.13-.33c.44-.13.75-.22.77-.53v-.13c0-.17-.14-.29-.35-.29h-.54c-.6,0-.93.34-1,1Z" style="fill:#231f20"/><path d="M14.24,96.4a.1.1,0,0,1-.09.1H11.94a1.72,1.72,0,0,1-1.82-1.8V92.82A1.72,1.72,0,0,1,11.94,91h2.21a.09.09,0,0,1,.09.09v.56a.09.09,0,0,1-.09.09H12a1,1,0,0,0-1,1.06V94.7a1,1,0,0,0,1,1h1.34V94.19h-.9a.09.09,0,0,1-.08-.08v-.56a.1.1,0,0,1,.08-.1h1.68a.09.09,0,0,1,.09.09Z" style="fill:#231f20"/><path d="M18.78,95.12a1.4,1.4,0,0,1-1.53,1.46h-.52a1.4,1.4,0,0,1-1.53-1.46V94a1.4,1.4,0,0,1,1.53-1.45h.52A1.4,1.4,0,0,1,18.78,94ZM18,94c0-.5-.34-.74-.83-.74h-.26c-.49,0-.83.24-.83.74v1.13c0,.51.34.75.83.75h.26c.49,0,.83-.24.83-.75Z" style="fill:#231f20"/><path d="M23.82,96.41a.09.09,0,0,1-.09.09h-.57A1,1,0,0,1,22,95.36V93.43l-.69-.14s-.1-.05-.1-.09v-.48a.1.1,0,0,1,.1-.09H22v-.39a.18.18,0,0,1,.1-.18l.53-.34a.12.12,0,0,1,.2.08v.83h.89a.1.1,0,0,1,.1.09v.61a.1.1,0,0,1-.1.09h-.89v1.94a.4.4,0,0,0,.4.44h.5a.09.09,0,0,1,.09.09Z" style="fill:#231f20"/><path d="M28,95.12a1.39,1.39,0,0,1-1.52,1.46H26a1.39,1.39,0,0,1-1.53-1.46V94A1.39,1.39,0,0,1,26,92.55h.52A1.39,1.39,0,0,1,28,94ZM27.21,94c0-.5-.34-.74-.83-.74h-.27c-.48,0-.83.24-.83.74v1.13a.73.73,0,0,0,.83.75h.27c.49,0,.83-.24.83-.75Z" style="fill:#231f20"/><path d="M31.74,94.87V95a.72.72,0,0,0,.82.75H34.2a.1.1,0,0,1,.09.1v.52a.09.09,0,0,1-.09.09H32.44A1.39,1.39,0,0,1,30.92,95V94a1.39,1.39,0,0,1,1.52-1.45h.48a1.38,1.38,0,0,1,1.53,1.36v.37a.21.21,0,0,1-.09.19L34,94.8a.31.31,0,0,1-.24.07Zm0-.7h1.89V94c0-.51-.35-.75-.84-.75h-.22c-.49,0-.83.24-.83.75Z" style="fill:#231f20"/><path d="M38.12,93.24a.09.09,0,0,1-.09.09H36.35a.39.39,0,0,0-.43.37c0,.22.15.33.39.38l.8.14c.64.09,1.22.33,1.22,1.08v.14c0,.67-.54,1.06-1.26,1.06H35.23a.1.1,0,0,1-.08-.1v-.52a.09.09,0,0,1,.08-.09H37c.28,0,.47-.15.47-.39S37.29,95,37,95l-.86-.15a1.09,1.09,0,0,1-1-1.1v-.11c0-.63.53-1,1.23-1H38a.1.1,0,0,1,.09.09Z" style="fill:#231f20"/><path d="M42.43,93.89a.09.09,0,0,1-.08.09H41.7a.09.09,0,0,1-.09-.09v-.06c0-.38-.37-.59-.75-.59h-.19a.73.73,0,0,0-.83.75V95a.73.73,0,0,0,.83.75h1.6a.1.1,0,0,1,.08.1v.52a.09.09,0,0,1-.08.09H40.55A1.39,1.39,0,0,1,39,95V94a1.39,1.39,0,0,1,1.53-1.45H41a1.32,1.32,0,0,1,1.44,1.29Z" style="fill:#231f20"/><path d="M46.65,96.41a.1.1,0,0,1-.1.09h-.64a.1.1,0,0,1-.09-.09v-.83l-.31.39a1.31,1.31,0,0,1-1.15.61h-.15a1,1,0,0,1-1.13-1.19V94a1.33,1.33,0,0,1,1.46-1.47h.09a2.75,2.75,0,0,1,1.19.33v-.15a.11.11,0,0,1,.09-.09h.64a.11.11,0,0,1,.1.09Zm-.83-2.85a2.31,2.31,0,0,0-1.09-.32h-.1a.68.68,0,0,0-.73.76v1.42a.41.41,0,0,0,.43.45h.06c.32,0,.5-.2.76-.48l.67-.74Z" style="fill:#231f20"/><path d="M47.87,92.63h.64a.1.1,0,0,1,.09.09v.82l.31-.39a1.29,1.29,0,0,1,1.15-.61h.15a1,1,0,0,1,1.14,1.19V95a1.4,1.4,0,0,1-1.53,1.46H48.6v1.34a.1.1,0,0,1-.09.09h-.64a.1.1,0,0,1-.1-.09V92.72A.1.1,0,0,1,47.87,92.63Zm.73,3.16h1.09c.49,0,.83-.24.83-.76V93.7a.42.42,0,0,0-.43-.46H50c-.32,0-.5.2-.76.49l-.67.74Z" style="fill:#231f20"/><path d="M53,94.87V95a.73.73,0,0,0,.83.75H55.5a.1.1,0,0,1,.09.1v.52a.09.09,0,0,1-.09.09H53.74A1.4,1.4,0,0,1,52.21,95V94a1.4,1.4,0,0,1,1.53-1.45h.48a1.37,1.37,0,0,1,1.52,1.36v.37a.22.22,0,0,1-.08.19l-.41.34a.31.31,0,0,1-.24.07Zm0-.7h1.89V94c0-.51-.34-.75-.83-.75h-.22c-.49,0-.84.24-.84.75Z" style="fill:#231f20"/><path d="M58.72,92.63h.64a.1.1,0,0,1,.1.09v.82l.3-.39a1.3,1.3,0,0,1,1.15-.61h.16a1,1,0,0,1,1.13,1.19V95a1.39,1.39,0,0,1-1.53,1.46H59.46v1.34a.1.1,0,0,1-.1.09h-.64a.1.1,0,0,1-.09-.09V92.72A.1.1,0,0,1,58.72,92.63Zm.74,3.16h1.09a.73.73,0,0,0,.83-.76V93.7a.42.42,0,0,0-.43-.46h-.06c-.33,0-.5.2-.77.49l-.66.74Z" style="fill:#231f20"/><path d="M66.64,95.12a1.4,1.4,0,0,1-1.53,1.46h-.52a1.39,1.39,0,0,1-1.52-1.46V94a1.39,1.39,0,0,1,1.52-1.45h.52A1.4,1.4,0,0,1,66.64,94ZM65.82,94c0-.5-.35-.74-.83-.74h-.27c-.49,0-.83.24-.83.74v1.13c0,.51.34.75.83.75H65a.73.73,0,0,0,.83-.75Z" style="fill:#231f20"/><path d="M71.08,96.41a.1.1,0,0,1-.1.09h-.63a.1.1,0,0,1-.1-.09v-.83L70,96a1.34,1.34,0,0,1-1.16.61h-.15a1,1,0,0,1-1.13-1.19V94A1.33,1.33,0,0,1,69,92.54h.09a2.75,2.75,0,0,1,1.19.33V91a.11.11,0,0,1,.1-.1H71a.11.11,0,0,1,.1.1Zm-.83-2.85a2.27,2.27,0,0,0-1.09-.32h-.09a.68.68,0,0,0-.74.76v1.42a.41.41,0,0,0,.43.45h.06c.33,0,.5-.2.77-.48l.66-.74Z" style="fill:#231f20"/><path d="M75.33,96.41a.1.1,0,0,1-.1.09h-.64a.1.1,0,0,1-.09-.09v-3l-.85-.17a.11.11,0,0,1-.09-.09v-.4a.09.09,0,0,1,.09-.09h1.58a.1.1,0,0,1,.1.09Zm.08-4.81a.1.1,0,0,1-.09.09h-.81a.11.11,0,0,1-.09-.09v-.76a.11.11,0,0,1,.09-.1h.81a.1.1,0,0,1,.09.1Z" style="fill:#231f20"/><path d="M82,96.41a.1.1,0,0,1-.1.09h-.63a.1.1,0,0,1-.1-.09V93.69c0-.28-.12-.43-.34-.43h0c-.21,0-.41.25-.63.52l-.52.63v2a.09.09,0,0,1-.09.09h-.65a.09.09,0,0,1-.09-.09V93.69c0-.28-.12-.43-.35-.43h0c-.21,0-.41.25-.64.52l-.52.63v2a.09.09,0,0,1-.08.09h-.66a.09.09,0,0,1-.09-.09V92.72a.09.09,0,0,1,.09-.09h.66a.09.09,0,0,1,.08.09v.75l.27-.31a1.21,1.21,0,0,1,1-.61h.14c.6,0,.9.36,1,1l.28-.34a1.21,1.21,0,0,1,1-.61h.15c.61,0,1,.39,1,1.14Z" style="fill:#231f20"/><path d="M88.67,96.41a.1.1,0,0,1-.09.09h-.64a.1.1,0,0,1-.09-.09V93.69c0-.28-.12-.43-.35-.43h0c-.21,0-.41.25-.64.52l-.51.63v2a.09.09,0,0,1-.09.09h-.66a.09.09,0,0,1-.09-.09V93.69c0-.28-.12-.43-.34-.43h0c-.21,0-.41.25-.63.52l-.52.63v2a.09.09,0,0,1-.09.09h-.65a.09.09,0,0,1-.09-.09V92.72a.09.09,0,0,1,.09-.09h.65a.09.09,0,0,1,.09.09v.75l.26-.31a1.22,1.22,0,0,1,1-.61h.14a.92.92,0,0,1,1,1l.28-.34a1.21,1.21,0,0,1,1-.61h.14c.61,0,1,.39,1,1.14Z" style="fill:#231f20"/><path d="M90.42,94.87V95a.72.72,0,0,0,.82.75h1.64a.1.1,0,0,1,.09.1v.52a.09.09,0,0,1-.09.09H91.12A1.4,1.4,0,0,1,89.59,95V94a1.4,1.4,0,0,1,1.53-1.45h.48a1.38,1.38,0,0,1,1.53,1.36v.37a.23.23,0,0,1-.09.19l-.41.34a.31.31,0,0,1-.24.07Zm0-.7h1.89V94c0-.51-.35-.75-.84-.75h-.22c-.49,0-.83.24-.83.75Z" style="fill:#231f20"/><path d="M97.49,96.41a.1.1,0,0,1-.1.09h-.64a.09.09,0,0,1-.09-.09v-.83l-.31.39a1.31,1.31,0,0,1-1.15.61h-.15a1,1,0,0,1-1.14-1.19V94a1.34,1.34,0,0,1,1.47-1.47h.09a2.75,2.75,0,0,1,1.19.33V91a.1.1,0,0,1,.09-.1h.64a.11.11,0,0,1,.1.1Zm-.83-2.85a2.31,2.31,0,0,0-1.09-.32h-.1a.68.68,0,0,0-.73.76v1.42a.41.41,0,0,0,.43.45h.06c.32,0,.5-.2.76-.48l.67-.74Z" style="fill:#231f20"/><path d="M99.9,96.41a.1.1,0,0,1-.1.09h-.64a.09.09,0,0,1-.09-.09v-3l-.85-.17a.11.11,0,0,1-.09-.09v-.4a.09.09,0,0,1,.09-.09H99.8a.1.1,0,0,1,.1.09ZM100,91.6a.1.1,0,0,1-.09.09h-.81A.1.1,0,0,1,99,91.6v-.76a.1.1,0,0,1,.09-.1h.81a.1.1,0,0,1,.09.1Z" style="fill:#231f20"/><path d="M104.42,96.41a.09.09,0,0,1-.09.09h-.64a.1.1,0,0,1-.1-.09v-.83l-.3.39a1.32,1.32,0,0,1-1.15.61H102a1,1,0,0,1-1.14-1.19V94a1.34,1.34,0,0,1,1.46-1.47h.09a2.67,2.67,0,0,1,1.19.33v-.15a.11.11,0,0,1,.1-.09h.64a.1.1,0,0,1,.09.09Zm-.83-2.85a2.27,2.27,0,0,0-1.08-.32h-.1a.68.68,0,0,0-.74.76v1.42a.42.42,0,0,0,.44.45h0c.33,0,.51-.2.77-.48l.66-.74Z" style="fill:#231f20"/><path d="M107.63,96.41a.09.09,0,0,1-.09.09H107a1,1,0,0,1-1.16-1.14V93.43l-.7-.14s-.09-.05-.09-.09v-.48a.1.1,0,0,1,.09-.09h.7v-.39a.18.18,0,0,1,.1-.18l.52-.34.08,0a.11.11,0,0,1,.12.11v.83h.9a.1.1,0,0,1,.1.09v.61a.1.1,0,0,1-.1.09h-.9v1.94a.4.4,0,0,0,.41.44h.5a.09.09,0,0,1,.09.09Z" style="fill:#231f20"/><path d="M109.09,94.87V95a.72.72,0,0,0,.82.75h1.64a.1.1,0,0,1,.09.1v.52a.09.09,0,0,1-.09.09h-1.76A1.39,1.39,0,0,1,108.27,95V94a1.39,1.39,0,0,1,1.52-1.45h.48a1.37,1.37,0,0,1,1.53,1.36v.37a.21.21,0,0,1-.09.19l-.41.34a.3.3,0,0,1-.23.07Zm0-.7H111V94a.73.73,0,0,0-.83-.75h-.23c-.49,0-.83.24-.83.75Z" style="fill:#231f20"/><path d="M114.42,96.41a.09.09,0,0,1-.09.09h-.49a1,1,0,0,1-1.16-1.14V91a.1.1,0,0,1,.09-.1h.65a.1.1,0,0,1,.09.1v4.4a.4.4,0,0,0,.4.44h.42a.09.09,0,0,1,.09.09Z" style="fill:#231f20"/><path d="M116.81,96.2a2.88,2.88,0,0,1-.85,1.17l-.59.53a.11.11,0,0,1-.07,0,.09.09,0,0,1-.07,0l-.42-.44a.08.08,0,0,1,0-.12l.58-.53c.24-.22.44-.35.53-.62v0l-1.5-3.41a.43.43,0,0,0,0-.05s0-.08.1-.08h.67c.08,0,.12,0,.16.12l.76,1.76a3.7,3.7,0,0,1,.2.88l.88-2.64c0-.09.07-.12.15-.12H118c.07,0,.11,0,.11.09a.39.39,0,0,1,0,.06Z" style="fill:#231f20"/><path d="M119.76,96.41a.1.1,0,0,1-.09.09h-.76a.09.09,0,0,1-.09-.09v-.74a.09.09,0,0,1,.09-.09h.76a.1.1,0,0,1,.09.09Zm0-1.7a.1.1,0,0,1-.1.09H119a.1.1,0,0,1-.09-.09V91.24a.1.1,0,0,1,.09-.09h.69a.1.1,0,0,1,.1.09Z" style="fill:#231f20"/><path d="M14.73,79.8a1.61,1.61,0,0,1-1.31,1.43l.45,1c.11.27.22.45.56.45h.44c.05,0,.07,0,.07.09l-.06.57a.09.09,0,0,1-.09.08h-.55c-.7,0-.93-.42-1.2-1.11l-.41-1.07H11.26L11,83.39a.09.09,0,0,1-.09.08h-.7a.07.07,0,0,1-.08-.08l.55-5.3a.12.12,0,0,1,.1-.09h2.62c.82,0,1.35.37,1.35,1.08v.13Zm-.83-.55c0-.33-.19-.51-.63-.51H11.53l-.2,1.8h1.38c.62,0,1.09-.22,1.14-.75C13.87,79.61,13.9,79.34,13.9,79.25Z" style="fill:#231f20"/><path d="M16.27,82.19v.06c0,.39.21.52.68.52h1.68a.08.08,0,0,1,.07.08v0l-.05.52a.11.11,0,0,1-.1.08H16.8a1.21,1.21,0,0,1-1.36-1.25c0-.06,0-.15,0-.17l.07-.81a1.7,1.7,0,0,1,1.78-1.72h.57c.76,0,1.22.32,1.22.91,0,0,0,.15,0,.29-.08.72-.6.89-1.24,1.06Zm.06-.69,1.13-.33c.44-.13.75-.22.77-.53v-.13c0-.17-.14-.29-.35-.29h-.54q-.9,0-1,1Z" style="fill:#231f20"/><path d="M23,80.77a.11.11,0,0,1-.1.09h-.65a.08.08,0,0,1-.08-.07,1.08,1.08,0,0,0,0-.16c0-.31-.27-.41-.67-.41h-.05c-.6,0-.93.34-1,1l-.08.87v.13c0,.4.21.53.67.53h1.52a.09.09,0,0,1,.08.08s0,0-.05.54a.11.11,0,0,1-.1.08H20.93a1.2,1.2,0,0,1-1.36-1.23c0-.06,0-.17,0-.19l.07-.81a1.7,1.7,0,0,1,1.78-1.72h.24c.8,0,1.36.38,1.36,1A1.34,1.34,0,0,1,23,80.77Z" style="fill:#231f20"/><path d="M27.3,81.83a1.72,1.72,0,0,1-1.78,1.72H25a1.21,1.21,0,0,1-1.36-1.25s0-.14,0-.17l.08-.88a1.72,1.72,0,0,1,1.78-1.73H26A1.27,1.27,0,0,1,27.38,81Zm-.75-.89a.83.83,0,0,0,0-.12c0-.42-.23-.59-.68-.59h-.29a1,1,0,0,0-1,1l-.07.89a.76.76,0,0,0,0,.14c0,.39.21.57.68.57h.28a1,1,0,0,0,1-1Z" style="fill:#231f20"/><path d="M29.25,81l.49-.75c.34-.53.58-.77,1.12-.77h.21c.52,0,.8.28.8.87v.21l-.05.42.48-.73c.34-.53.58-.77,1.12-.77h.2c.53,0,.81.28.81.87a1.79,1.79,0,0,1,0,.21l-.28,2.79a.12.12,0,0,1-.11.08H33.4a.09.09,0,0,1-.09-.08c.11-1,.31-2.82.31-2.93s-.08-.24-.18-.24h-.09c-.21,0-.41.26-.74.7l-.9,1.17-.13,1.3a.12.12,0,0,1-.11.08h-.63a.09.09,0,0,1-.09-.08c.11-1,.31-2.9.31-2.93s-.07-.24-.18-.24h-.09c-.21,0-.4.26-.74.7l-.91,1.18L29,83.39a.11.11,0,0,1-.09.08h-.66a.07.07,0,0,1-.08-.07l.38-3.71a.11.11,0,0,1,.1-.09h.66a.09.09,0,0,1,.08.08Z" style="fill:#231f20"/><path d="M36.46,81l.49-.75c.34-.53.58-.77,1.12-.77h.2c.53,0,.81.28.81.87a1.62,1.62,0,0,1,0,.21L39,81l.48-.73c.34-.53.58-.77,1.11-.77h.21c.53,0,.81.28.81.87a1.79,1.79,0,0,1,0,.21l-.29,2.79a.1.1,0,0,1-.1.08h-.63a.08.08,0,0,1-.09-.08c.1-1,.3-2.82.3-2.93s-.07-.24-.17-.24h-.1c-.2,0-.4.26-.73.7l-.91,1.17-.12,1.3a.12.12,0,0,1-.11.08h-.63a.08.08,0,0,1-.09-.08c.11-1,.31-2.9.31-2.93s-.08-.24-.18-.24H38c-.2,0-.4.26-.73.7l-.91,1.18-.13,1.29a.11.11,0,0,1-.1.08h-.65a.07.07,0,0,1-.08-.07l.38-3.71a.11.11,0,0,1,.1-.09h.65a.09.09,0,0,1,.08.08Z" style="fill:#231f20"/><path d="M43.28,82.19v.06c0,.39.22.52.68.52h1.68a.08.08,0,0,1,.07.08v0l0,.52a.11.11,0,0,1-.1.08H43.82a1.2,1.2,0,0,1-1.36-1.25c0-.06,0-.15,0-.17l.07-.81a1.69,1.69,0,0,1,1.78-1.72h.56c.77,0,1.23.32,1.23.91a2.75,2.75,0,0,1,0,.29c-.07.72-.59.89-1.24,1.06Zm.07-.69,1.12-.33c.44-.13.76-.22.78-.53v-.13a.31.31,0,0,0-.35-.29h-.55c-.6,0-.92.34-1,1Z" style="fill:#231f20"/><path d="M50.31,83.39a.12.12,0,0,1-.11.08h-.63a.08.08,0,0,1-.09-.08l.27-2.55s0-.24,0-.31-.08-.31-.26-.31h-.06c-.27,0-.48.26-.86.75l-.91,1.17-.12,1.25a.11.11,0,0,1-.1.08H46.8a.08.08,0,0,1-.08-.07l.39-3.71a.11.11,0,0,1,.09-.09h.66a.08.08,0,0,1,.08.09l-.14,1.39.51-.77c.33-.51.58-.79,1.16-.79h.23a.83.83,0,0,1,.9.92,1.18,1.18,0,0,1,0,.16Z" style="fill:#231f20"/><path d="M54.92,83.39a.11.11,0,0,1-.09.08h-.66c-.06,0-.08,0-.08-.09l.11-1-.4.58a1.34,1.34,0,0,1-1.25.64h-.14a.94.94,0,0,1-1-1,1,1,0,0,1,0-.14l.1-1.15a1.71,1.71,0,0,1,1.78-1.73h.08a2.09,2.09,0,0,1,1.08.32l.2-1.91a.11.11,0,0,1,.1-.09h.66a.08.08,0,0,1,.08.08Zm-1.39-1.11.78-1,.08-.82a1.62,1.62,0,0,0-.94-.27h-.1a1,1,0,0,0-1,1c0,.4-.11,1-.11,1.2a.36.36,0,0,0,.35.39h0C53,82.85,53.27,82.6,53.53,82.28Z" style="fill:#231f20"/><path d="M59.6,83.39a.11.11,0,0,1-.09.08h-.66a.07.07,0,0,1-.08-.07s0-.14.1-1.07l-.39.58a1.34,1.34,0,0,1-1.25.64h-.14a.94.94,0,0,1-1-1,1,1,0,0,1,0-.14l.1-1.15A1.71,1.71,0,0,1,58,79.52h.08a2,2,0,0,1,1.07.33v-.16a.11.11,0,0,1,.1-.09h.65a.09.09,0,0,1,.08.08Zm-1.39-1.11.77-1,.09-.83a1.62,1.62,0,0,0-.94-.27H58a1,1,0,0,0-1,1l-.09,1.1a.58.58,0,0,0,0,.1.36.36,0,0,0,.34.39h.06C57.71,82.85,58,82.6,58.21,82.28Z" style="fill:#231f20"/><path d="M62.91,83.39a.11.11,0,0,1-.1.08h-.62a.94.94,0,0,1-1.06-1,1,1,0,0,1,0-.16l.21-1.94-.78-.15a.11.11,0,0,1-.09-.09l.05-.47a.12.12,0,0,1,.11-.09h.79l0-.39a.17.17,0,0,1,.11-.17l.56-.35.08,0a.1.1,0,0,1,.11.11l-.09.82h1a.09.09,0,0,1,.08.09l-.06.62a.11.11,0,0,1-.1.09h-1c-.07.7-.21,1.86-.21,2a.33.33,0,0,0,.37.36h.55a.07.07,0,0,1,.07.07Z" style="fill:#231f20"/><path d="M65.15,83.39a.1.1,0,0,1-.1.08h-.64a.09.09,0,0,1-.09-.08l.32-3-.83-.17a.09.09,0,0,1-.08-.1l0-.4a.11.11,0,0,1,.1-.09h1.58a.09.09,0,0,1,.09.09Zm.59-4.82a.12.12,0,0,1-.1.1h-.81a.09.09,0,0,1-.08-.1l.08-.76a.11.11,0,0,1,.1-.09h.81a.1.1,0,0,1,.08.09Z" style="fill:#231f20"/><path d="M70,81.83a1.71,1.71,0,0,1-1.77,1.72h-.48a1.2,1.2,0,0,1-1.36-1.25s0-.14,0-.17l.08-.88a1.71,1.71,0,0,1,1.77-1.73h.48a1.21,1.21,0,0,1,1.36,1.26,1.23,1.23,0,0,1,0,.17Zm-.74-.89a.83.83,0,0,0,0-.12c0-.42-.23-.59-.68-.59h-.29a1,1,0,0,0-1,1l-.08.89a.76.76,0,0,0,0,.14c0,.39.22.57.68.57h.29a1,1,0,0,0,1-1Z" style="fill:#231f20"/><path d="M74.46,83.39a.12.12,0,0,1-.11.08h-.63a.09.09,0,0,1-.09-.08l.27-2.55s0-.24,0-.31-.08-.31-.25-.31H73.6c-.27,0-.48.26-.85.75l-.92,1.17-.12,1.25a.11.11,0,0,1-.1.08H71a.08.08,0,0,1-.08-.07l.39-3.71a.11.11,0,0,1,.1-.09H72a.08.08,0,0,1,.08.09L72,81.08l.51-.77c.33-.51.58-.79,1.16-.79h.23a.83.83,0,0,1,.9.92,1.18,1.18,0,0,1,0,.16Z" style="fill:#231f20"/></svg>