<svg id="8bb9a2f9-91f2-496e-a8de-506a8b58dc7a" data-name="Layer 1" xmlns="http://www.w3.org/2000/svg" viewBox="0 0 135 80.67"><title>ff05-scifi</title><rect x="25.36" y="17.59" width="20.21" height="20.21" transform="translate(70.94 55.4) rotate(-180)" style="fill:#51ae75;stroke:#231f20;stroke-miterlimit:10;stroke-width:2px"/><circle cx="40.93" cy="33.5" r="2.08" style="fill:#231f20"/><circle cx="30.01" cy="33.5" r="2.08" style="fill:#231f20"/><circle cx="40.93" cy="21.78" r="2.08" style="fill:#231f20"/><circle cx="35.47" cy="24.74" r="2.08" style="fill:#231f20"/><circle cx="30.01" cy="21.78" r="2.08" style="fill:#231f20"/><circle cx="30.01" cy="27.7" r="2.08" style="fill:#231f20"/><circle cx="40.93" cy="27.7" r="2.08" style="fill:#231f20"/><rect x="25.36" y="42.86" width="20.21" height="20.21" transform="translate(-17.5 88.44) rotate(-90)" style="fill:#51ae75;stroke:#231f20;stroke-miterlimit:10;stroke-width:2px"/><circle cx="29.67" cy="58.42" r="2.08" style="fill:#231f20"/><circle cx="29.67" cy="47.51" r="2.08" style="fill:#231f20"/><circle cx="41.39" cy="58.42" r="2.08" style="fill:#231f20"/><circle cx="41.39" cy="47.51" r="2.08" style="fill:#231f20"/><circle cx="29.67" cy="52.97" r="2.08" style="fill:#231f20"/><circle cx="35.47" cy="47.51" r="2.08" style="fill:#231f20"/><circle cx="35.47" cy="58.42" r="2.08" style="fill:#231f20"/><path d="M68.38,32.06a.18.18,0,0,1-.2.19H65.74a.19.19,0,0,1-.2-.2l-1.1-11.27a21.52,21.52,0,0,1-.71,3.69l-1,3.28c0,.11-.09.2-.2.2H59.21c-.12,0-.17-.09-.21-.2l-1-3.28a20.6,20.6,0,0,1-.71-3.69l-1.1,11.27c0,.13-.09.2-.2.2H53.55a.2.2,0,0,1-.21-.2l1.47-12.33A.24.24,0,0,1,55,19.5h4c.11,0,.17.11.21.22l1.65,6.39,1.66-6.39c0-.11.09-.22.2-.22h4a.24.24,0,0,1,.22.22C68.38,32.05,68.38,32.06,68.38,32.06Z"/><path d="M79,28.77c0,2.48-1.64,3.76-3.93,3.76H74c-2.29,0-3.93-1.28-3.93-3.76V26.72C70.07,24.25,71.71,23,74,23h1C77.31,23,79,24.25,79,26.72ZM76.38,26.7a1.46,1.46,0,0,0-1.56-1.54h-.61a1.47,1.47,0,0,0-1.57,1.54v2.07a1.48,1.48,0,0,0,1.57,1.56h.61a1.47,1.47,0,0,0,1.56-1.56Z"/><path d="M90,32.05a.22.22,0,0,1-.22.2H87.61a.23.23,0,0,1-.23-.2v-6.2a.63.63,0,0,0-.63-.69h-.13c-.39,0-.74.37-1.25.93l-1.62,1.79v4.17a.2.2,0,0,1-.2.2H81.39a.21.21,0,0,1-.21-.2v-8.6a.21.21,0,0,1,.21-.21h2.16a.2.2,0,0,1,.2.21V25.2l.52-.71A3.06,3.06,0,0,1,87.05,23h.26c1.6,0,2.64.93,2.64,2.89Z"/><path d="M98.2,32.05a.21.21,0,0,1-.21.2H96.15a2.56,2.56,0,0,1-2.83-2.81V25.53l-2-.43a.24.24,0,0,1-.2-.22V23.45a.2.2,0,0,1,.2-.21h2v-.91a.4.4,0,0,1,.22-.41l1.84-1a.44.44,0,0,1,.23-.06.25.25,0,0,1,.28.25v2.08H98a.22.22,0,0,1,.22.21v1.88a.22.22,0,0,1-.22.2H95.89v3.69a.75.75,0,0,0,.82.83H98a.22.22,0,0,1,.21.21Z"/><path d="M102.25,28.71a1.39,1.39,0,0,0,1.49,1.34h4.12a.23.23,0,0,1,.2.23v1.77a.2.2,0,0,1-.2.2h-4.19c-2.29,0-3.93-1.28-3.93-3.76V26.72c0-2.47,1.64-3.76,3.93-3.76h1c2.2,0,3.89,1.25,3.89,3.45v.24a.48.48,0,0,1-.2.44l-1.62,1.36a.89.89,0,0,1-.56.26Zm1.53-3.55a1.39,1.39,0,0,0-1.53,1.45h3.84a1.33,1.33,0,0,0-1.46-1.45Z"/><path d="M65.45,51.64a.24.24,0,0,1-.24.24H59.3A4.94,4.94,0,0,1,54,46.58v-4.3A4.92,4.92,0,0,1,59.3,37h5.88a.29.29,0,0,1,.27.26V42a.24.24,0,0,1-.24.24H62.54A.24.24,0,0,1,62.3,42V39.72H59.76a2.32,2.32,0,0,0-2.59,2.58v4.28a2.32,2.32,0,0,0,2.59,2.59h5.45a.24.24,0,0,1,.24.24Z"/><path d="M67,44.85c0-2.5,1.76-3.8,4.15-3.8h.18a6.81,6.81,0,0,1,3.54,1.08l.32-.54a.4.4,0,0,1,.37-.22H77a.24.24,0,0,1,.24.24v10a.24.24,0,0,1-.24.24H74.46a.24.24,0,0,1-.24-.24v-2l-.61.83a3.57,3.57,0,0,1-3.24,1.78h-.3c-1.87,0-3.11-1.09-3.11-3.37Zm7.26,1.62V44.19a5.27,5.27,0,0,0-2.33-.58h-.32A1.58,1.58,0,0,0,70,45.34v3.5a.75.75,0,0,0,.76.8h.15c.46,0,.87-.43,1.46-1.08Z"/><path d="M86.66,41.05a3.4,3.4,0,0,1,2.69,1.36.31.31,0,0,1,0,.16.26.26,0,0,1-.1.19l-2,1.69c-.11.09-.15.11-.22.11s-.17-.06-.26-.15c-.34-.35-.58-.59-.93-.59h-.15c-.44,0-.81.46-1.18,1l-1.32,1.78v5.08a.24.24,0,0,1-.24.24H80.49a.24.24,0,0,1-.24-.24v-10a.24.24,0,0,1,.24-.24H82a.37.37,0,0,1,.37.22l.67,2,.72-1a3.08,3.08,0,0,1,2.73-1.49Z"/><path d="M96.39,51.64a.24.24,0,0,1-.24.24H94a3,3,0,0,1-3.3-3.28V36.83a.26.26,0,0,1,.24-.26h2.51a.26.26,0,0,1,.24.26V48.34a.88.88,0,0,0,1,1h1.5a.24.24,0,0,1,.24.24Z"/><path d="M108.22,47.82c0,2.89-1.91,4.39-4.58,4.39h-1.2c-2.67,0-4.58-1.5-4.58-4.39V45.43c0-2.89,1.91-4.38,4.58-4.38h1.2c2.67,0,4.58,1.49,4.58,4.38Zm-3-2.41a1.71,1.71,0,0,0-1.82-1.8h-.72a1.71,1.71,0,0,0-1.82,1.8v2.41a1.71,1.71,0,0,0,1.82,1.82h.72a1.71,1.71,0,0,0,1.82-1.82Z"/><path d="M97.87,61.89a.08.08,0,0,1-.07.07H97a.08.08,0,0,1-.07-.07v-4.1a.08.08,0,0,1,.07-.08h.76a.09.09,0,0,1,.07.08Z"/><path d="M102.42,61.89a.08.08,0,0,1-.07.07h-1.12a.12.12,0,0,1-.11-.07l-.87-1.9c-.23-.5-.47-1.11-.62-1.56a16.35,16.35,0,0,1,.13,1.87v1.59a.08.08,0,0,1-.07.07h-.76a.08.08,0,0,1-.07-.07v-4.1a.08.08,0,0,1,.07-.08h1.14c.05,0,.07,0,.09.09l.94,2.07c.26.58.42,1,.58,1.47a12.51,12.51,0,0,1-.15-1.71V57.79a.08.08,0,0,1,.07-.08h.75a.08.08,0,0,1,.07.08Z"/><path d="M106.58,61.89a.08.08,0,0,1-.07.07h-1.68a1.41,1.41,0,0,1-1.51-1.52V59.22a1.41,1.41,0,0,1,1.51-1.51h1.67a.09.09,0,0,1,.08.08v1.36a.07.07,0,0,1-.07.07h-.76a.07.07,0,0,1-.07-.07v-.66H105a.66.66,0,0,0-.74.73v1.22a.67.67,0,0,0,.74.74h1.55a.07.07,0,0,1,.07.07Z"/><path d="M109,61.86a.11.11,0,0,1-.11.1h-1.24a.1.1,0,0,1-.1-.1v-1a.09.09,0,0,1,.1-.09h1.24a.1.1,0,0,1,.11.09Z"/><rect x="54.06" y="57.74" width="38.74" height="4.8" style="fill:#51ae75"/></svg>