<svg id="68da6dd5-5711-4d1a-bfe7-88a6fefa7f1f" data-name="Layer 1" xmlns="http://www.w3.org/2000/svg" viewBox="0 0 93.83 80.67"><title>ff05-scifi</title><rect x="12.2" y="21.56" width="17.19" height="17.19" transform="translate(41.58 60.3) rotate(-180)" style="fill:#51ae75;stroke:#231f20;stroke-miterlimit:10;stroke-width:2px"/><circle cx="25.43" cy="35.08" r="1.77" style="fill:#231f20"/><circle cx="16.15" cy="35.08" r="1.77" style="fill:#231f20"/><circle cx="25.43" cy="25.12" r="1.77" style="fill:#231f20"/><circle cx="20.79" cy="27.63" r="1.77" style="fill:#231f20"/><circle cx="16.15" cy="25.12" r="1.77" style="fill:#231f20"/><circle cx="16.15" cy="30.15" r="1.77" style="fill:#231f20"/><circle cx="25.43" cy="30.15" r="1.77" style="fill:#231f20"/><rect x="12.2" y="43.04" width="17.19" height="17.19" transform="translate(-30.84 72.42) rotate(-90)" style="fill:#51ae75;stroke:#231f20;stroke-miterlimit:10;stroke-width:2px"/><circle cx="15.86" cy="56.27" r="1.77" style="fill:#231f20"/><circle cx="15.86" cy="46.99" r="1.77" style="fill:#231f20"/><circle cx="25.82" cy="56.27" r="1.77" style="fill:#231f20"/><circle cx="25.82" cy="46.99" r="1.77" style="fill:#231f20"/><circle cx="15.86" cy="51.63" r="1.77" style="fill:#231f20"/><circle cx="20.79" cy="46.99" r="1.77" style="fill:#231f20"/><circle cx="20.79" cy="56.27" r="1.77" style="fill:#231f20"/><path d="M48.77,33.86a.15.15,0,0,1-.17.16H46.52a.16.16,0,0,1-.17-.17l-.93-9.58a18.26,18.26,0,0,1-.61,3.13L44,30.19c0,.09-.08.17-.17.17H41c-.1,0-.14-.08-.17-.17l-.86-2.79a18.25,18.25,0,0,1-.6-3.13l-.93,9.58c0,.11-.08.17-.18.17H36.16a.18.18,0,0,1-.18-.17l1.25-10.48a.21.21,0,0,1,.2-.19H40.8c.09,0,.14.1.17.19l1.41,5.43,1.41-5.43c0-.09.07-.19.17-.19h3.37a.2.2,0,0,1,.19.19Z"/><path d="M57.76,31.06a3,3,0,0,1-3.34,3.2h-.87a3,3,0,0,1-3.34-3.2V29.32a3,3,0,0,1,3.34-3.2h.87a3,3,0,0,1,3.34,3.2ZM55.57,29.3A1.25,1.25,0,0,0,54.25,28h-.53a1.25,1.25,0,0,0-1.33,1.31v1.76a1.26,1.26,0,0,0,1.33,1.33h.53a1.25,1.25,0,0,0,1.32-1.33Z"/><path d="M67.11,33.85a.19.19,0,0,1-.19.17h-1.8a.19.19,0,0,1-.19-.17V28.58a.54.54,0,0,0-.54-.59h-.11c-.33,0-.64.32-1.06.79L61.84,30.3v3.55a.18.18,0,0,1-.17.17H59.83a.18.18,0,0,1-.17-.17V26.53a.18.18,0,0,1,.17-.17h1.84a.18.18,0,0,1,.17.17V28l.44-.6a2.6,2.6,0,0,1,2.36-1.3h.22c1.36,0,2.25.79,2.25,2.46Z"/><path d="M74.12,33.85A.18.18,0,0,1,74,34H72.38A2.18,2.18,0,0,1,70,31.63V28.31l-1.66-.37a.21.21,0,0,1-.17-.19V26.53a.18.18,0,0,1,.17-.17H70v-.77a.34.34,0,0,1,.19-.35l1.57-.81a.41.41,0,0,1,.19-.05.21.21,0,0,1,.24.21v1.77H74a.19.19,0,0,1,.19.17v1.6a.19.19,0,0,1-.19.18H72.16v3.13a.63.63,0,0,0,.69.71H74a.18.18,0,0,1,.17.18Z"/><path d="M77.57,31a1.18,1.18,0,0,0,1.27,1.14h3.49a.19.19,0,0,1,.18.19v1.51a.18.18,0,0,1-.18.17H78.77a3,3,0,0,1-3.34-3.2v-1.5a3,3,0,0,1,3.34-3.2h.87c1.87,0,3.31,1.06,3.31,2.93v.21a.43.43,0,0,1-.17.38L81.4,30.79a.77.77,0,0,1-.47.22Zm1.3-3a1.18,1.18,0,0,0-1.3,1.23h3.26A1.13,1.13,0,0,0,79.6,28Z"/><path d="M46.28,50.51a.21.21,0,0,1-.21.2h-5a4.2,4.2,0,0,1-4.49-4.51V42.55a4.19,4.19,0,0,1,4.49-4.49h5a.24.24,0,0,1,.22.22v4.07a.21.21,0,0,1-.21.2H43.8a.2.2,0,0,1-.2-.2v-2H41.44a2,2,0,0,0-2.2,2.2V46.2a2,2,0,0,0,2.2,2.2h4.63a.21.21,0,0,1,.21.2Z"/><path d="M47.57,44.73c0-2.13,1.49-3.23,3.52-3.23h.15a5.77,5.77,0,0,1,3,.92l.28-.46a.32.32,0,0,1,.31-.19h1.24a.21.21,0,0,1,.2.21v8.53a.2.2,0,0,1-.2.2H53.94a.21.21,0,0,1-.21-.2V48.77l-.51.7A3,3,0,0,1,50.47,51h-.26c-1.59,0-2.64-.93-2.64-2.87Zm6.16,1.38V44.17a4.44,4.44,0,0,0-2-.5h-.28a1.35,1.35,0,0,0-1.36,1.48v3a.64.64,0,0,0,.64.69h.13c.39,0,.74-.37,1.24-.93Z"/><path d="M64.31,41.5a2.89,2.89,0,0,1,2.29,1.16.22.22,0,0,1,0,.13c0,.07,0,.11-.09.17L64.87,44.4c-.1.07-.13.09-.19.09s-.14-.06-.22-.13c-.29-.3-.5-.5-.79-.5h-.13c-.37,0-.69.39-1,.81l-1.12,1.52v4.32a.21.21,0,0,1-.21.2H59.07a.2.2,0,0,1-.2-.2V42a.21.21,0,0,1,.2-.21h1.24c.14,0,.29.08.31.19l.57,1.68.61-.87a2.63,2.63,0,0,1,2.33-1.27Z"/><path d="M72.58,50.51a.2.2,0,0,1-.2.2H70.55a2.54,2.54,0,0,1-2.8-2.79v-10a.22.22,0,0,1,.2-.22h2.14a.22.22,0,0,1,.2.22V47.7a.75.75,0,0,0,.82.83h1.27a.2.2,0,0,1,.2.2Z"/><path d="M82.65,47.26c0,2.45-1.63,3.73-3.9,3.73h-1c-2.27,0-3.89-1.28-3.89-3.73v-2c0-2.46,1.62-3.73,3.89-3.73h1c2.27,0,3.9,1.27,3.9,3.73Zm-2.55-2a1.46,1.46,0,0,0-1.55-1.54h-.61a1.46,1.46,0,0,0-1.55,1.54v2a1.46,1.46,0,0,0,1.55,1.55h.61a1.46,1.46,0,0,0,1.55-1.55Z"/><path d="M73.85,59.22a.06.06,0,0,1-.06.06h-.65a.06.06,0,0,1-.06-.06V55.73a.06.06,0,0,1,.06-.06h.64a.07.07,0,0,1,.07.06Z"/><path d="M77.72,59.22s0,.06-.07.06h-1a.1.1,0,0,1-.09-.06l-.74-1.62a13.47,13.47,0,0,1-.53-1.32,14.63,14.63,0,0,1,.11,1.59v1.35a.06.06,0,0,1-.06.06h-.64a.06.06,0,0,1-.06-.06V55.73a.06.06,0,0,1,.06-.06h1s0,0,.07.07l.8,1.77a12.57,12.57,0,0,1,.49,1.24A12.2,12.2,0,0,1,77,57.3V55.73a.07.07,0,0,1,.07-.06h.63s.07,0,.07.06Z"/><path d="M81.25,59.22a.06.06,0,0,1-.06.06H79.76A1.2,1.2,0,0,1,78.48,58V57a1.19,1.19,0,0,1,1.28-1.28h1.42a.07.07,0,0,1,.07.06v1.16a.06.06,0,0,1-.06.06h-.65a.06.06,0,0,1-.06-.06v-.56h-.61a.56.56,0,0,0-.63.62v1a.57.57,0,0,0,.63.63h1.32a.06.06,0,0,1,.06.06Z"/><path d="M83.33,59.19a.1.1,0,0,1-.1.09H82.17a.09.09,0,0,1-.08-.09v-.81a.09.09,0,0,1,.08-.08h1.06a.1.1,0,0,1,.1.08Z"/><rect x="36.59" y="55.69" width="32.94" height="4.08" style="fill:#51ae75"/></svg>