<svg id="ad11fc8f-596a-4899-887a-318a380b4767" data-name="Layer 1" xmlns="http://www.w3.org/2000/svg" viewBox="0 0 135 80.67"><title>ff05-scifi</title><rect x="8.83" y="8.88" width="27.82" height="27.82" transform="translate(45.49 45.58) rotate(-180)" style="fill:#51ae75;stroke:#231f20;stroke-miterlimit:10;stroke-width:2px"/><circle cx="30.26" cy="30.78" r="2.86" style="fill:#231f20"/><circle cx="15.23" cy="30.78" r="2.86" style="fill:#231f20"/><circle cx="30.26" cy="14.64" r="2.86" style="fill:#231f20"/><circle cx="22.74" cy="18.71" r="2.86" style="fill:#231f20"/><circle cx="15.23" cy="14.64" r="2.86" style="fill:#231f20"/><circle cx="15.23" cy="22.79" r="2.86" style="fill:#231f20"/><circle cx="30.26" cy="22.79" r="2.86" style="fill:#231f20"/><rect x="8.83" y="43.66" width="27.82" height="27.82" transform="translate(-34.82 80.31) rotate(-90)" style="fill:#51ae75;stroke:#231f20;stroke-miterlimit:10;stroke-width:2px"/><circle cx="14.76" cy="65.08" r="2.86" style="fill:#231f20"/><circle cx="14.76" cy="50.05" r="2.86" style="fill:#231f20"/><circle cx="30.89" cy="65.08" r="2.86" style="fill:#231f20"/><circle cx="30.89" cy="50.05" r="2.86" style="fill:#231f20"/><circle cx="14.76" cy="57.57" r="2.86" style="fill:#231f20"/><circle cx="22.74" cy="50.05" r="2.86" style="fill:#231f20"/><circle cx="22.74" cy="65.08" r="2.86" style="fill:#231f20"/><path d="M68.05,28.8c0,.18-.13.25-.29.25H64.41c-.16,0-.26-.07-.28-.28l-1.52-15.5a28.26,28.26,0,0,1-1,5.07l-1.38,4.51c0,.16-.13.29-.28.29H55.42c-.16,0-.24-.13-.29-.29l-1.38-4.51a28.26,28.26,0,0,1-1-5.07l-1.52,15.5a.27.27,0,0,1-.28.28H47.63a.27.27,0,0,1-.28-.28l2-17a.33.33,0,0,1,.31-.31h5.45c.16,0,.23.16.29.31L57.7,20.6,60,11.81c.05-.15.12-.31.28-.31h5.45a.33.33,0,0,1,.31.31C68.05,28.77,68.05,28.8,68.05,28.8Z"/><path d="M82.6,24.26c0,3.41-2.26,5.18-5.41,5.18H75.78c-3.15,0-5.4-1.77-5.4-5.18V21.44c0-3.4,2.25-5.17,5.4-5.17h1.41c3.15,0,5.41,1.77,5.41,5.17Zm-3.54-2.84a2,2,0,0,0-2.15-2.13h-.85a2,2,0,0,0-2.15,2.13v2.84a2,2,0,0,0,2.15,2.15h.85a2,2,0,0,0,2.15-2.15Z"/><path d="M97.74,28.77a.31.31,0,0,1-.31.28H94.51a.3.3,0,0,1-.31-.28V20.24a.87.87,0,0,0-.87-.95h-.18c-.54,0-1,.51-1.72,1.28L89.21,23v5.74a.28.28,0,0,1-.29.28H86a.28.28,0,0,1-.28-.28V16.94a.29.29,0,0,1,.28-.29h3a.29.29,0,0,1,.29.29v2.4l.71-1a4.2,4.2,0,0,1,3.82-2.1h.36c2.2,0,3.64,1.28,3.64,4Z"/><path d="M109.08,28.77a.27.27,0,0,1-.28.28h-2.53c-2.34,0-3.9-1.25-3.9-3.87V19.8l-2.69-.58c-.15-.06-.28-.16-.28-.31v-2a.29.29,0,0,1,.28-.29h2.69V15.4a.57.57,0,0,1,.31-.57l2.54-1.3a.58.58,0,0,1,.3-.08c.21,0,.39.1.39.33v2.87h2.94a.31.31,0,0,1,.31.29v2.58a.3.3,0,0,1-.31.28h-2.94v5.08A1,1,0,0,0,107,26h1.76a.28.28,0,0,1,.28.28Z"/><path d="M114.67,24.19a1.92,1.92,0,0,0,2,1.84h5.66a.31.31,0,0,1,.28.31v2.43a.28.28,0,0,1-.28.28h-5.76c-3.16,0-5.41-1.76-5.41-5.17V21.44c0-3.4,2.25-5.17,5.41-5.17H118c3,0,5.36,1.72,5.36,4.74v.33a.7.7,0,0,1-.28.62l-2.23,1.87a1.21,1.21,0,0,1-.77.36Zm2.1-4.9a1.91,1.91,0,0,0-2.1,2H120a1.84,1.84,0,0,0-2-2Z"/><path d="M64,55.75a.33.33,0,0,1-.33.32H55.55c-4.37,0-7.26-2.75-7.26-7.29V42.86c0-4.51,2.89-7.26,7.26-7.26h8.1A.39.39,0,0,1,64,36v6.57a.33.33,0,0,1-.33.33H60a.33.33,0,0,1-.33-.33v-3.2H56.18c-2.37,0-3.56,1.29-3.56,3.56v5.89c0,2.27,1.19,3.56,3.56,3.56h7.5a.33.33,0,0,1,.33.33Z"/><path d="M66.1,46.39c0-3.44,2.42-5.23,5.71-5.23h.24a9.3,9.3,0,0,1,4.87,1.49l.45-.75a.54.54,0,0,1,.51-.29h2a.33.33,0,0,1,.33.33V55.75a.33.33,0,0,1-.33.32H76.41a.33.33,0,0,1-.33-.32V52.94l-.83,1.13a4.91,4.91,0,0,1-4.46,2.45h-.42c-2.57,0-4.27-1.49-4.27-4.63Zm10,2.24V45.49a7.1,7.1,0,0,0-3.2-.8h-.44a2.19,2.19,0,0,0-2.22,2.39v4.81a1,1,0,0,0,1,1.1h.21c.63,0,1.19-.59,2-1.49Z"/><path d="M93.21,41.16A4.65,4.65,0,0,1,96.91,43a.35.35,0,0,1,.06.21c0,.12-.06.18-.15.27L94.1,45.85c-.14.12-.21.15-.29.15s-.24-.09-.36-.21c-.48-.48-.81-.81-1.29-.81H92c-.6,0-1.1.63-1.61,1.32l-1.83,2.45v7a.32.32,0,0,1-.32.32H84.72a.33.33,0,0,1-.33-.32V41.94a.33.33,0,0,1,.33-.33h2c.24,0,.48.12.51.29l.93,2.73,1-1.41a4.26,4.26,0,0,1,3.77-2.06Z"/><path d="M106.6,55.75a.33.33,0,0,1-.33.32h-3c-2.72,0-4.55-1.46-4.55-4.51V35.36a.36.36,0,0,1,.33-.36h3.47a.36.36,0,0,1,.33.36V51.2a1.21,1.21,0,0,0,1.32,1.35h2.06a.33.33,0,0,1,.33.33Z"/><path d="M122.89,50.48c0,4-2.63,6-6.31,6h-1.65c-3.67,0-6.3-2.06-6.3-6V47.2c0-4,2.63-6,6.3-6h1.65c3.68,0,6.31,2.06,6.31,6Zm-4.13-3.31a2.36,2.36,0,0,0-2.51-2.48h-1a2.36,2.36,0,0,0-2.51,2.48v3.31A2.36,2.36,0,0,0,115.26,53h1a2.36,2.36,0,0,0,2.51-2.51Z"/><path d="M108.64,69.85a.09.09,0,0,1-.09.09h-1a.1.1,0,0,1-.1-.09V64.2a.11.11,0,0,1,.1-.1h1a.11.11,0,0,1,.1.1Z"/><path d="M114.91,69.85a.1.1,0,0,1-.1.09h-1.55a.13.13,0,0,1-.14-.08l-1.21-2.63c-.31-.68-.64-1.53-.85-2.14a22.15,22.15,0,0,1,.18,2.56v2.2a.09.09,0,0,1-.09.09H110.1a.1.1,0,0,1-.1-.09V64.2a.11.11,0,0,1,.1-.1h1.57c.07,0,.09.05.12.12l1.29,2.85c.36.8.58,1.39.8,2a18,18,0,0,1-.21-2.36V64.2a.11.11,0,0,1,.1-.1h1a.11.11,0,0,1,.1.1Z"/><path d="M120.63,69.85a.1.1,0,0,1-.1.09h-2.32a1.93,1.93,0,0,1-2.07-2.08V66.17a1.93,1.93,0,0,1,2.07-2.07h2.31a.11.11,0,0,1,.11.1v1.88a.1.1,0,0,1-.1.09h-1a.09.09,0,0,1-.09-.09v-.92h-1a.91.91,0,0,0-1,1v1.68a.9.9,0,0,0,1,1h2.14a.11.11,0,0,1,.1.1Z"/><path d="M124,69.81a.14.14,0,0,1-.14.13h-1.72a.13.13,0,0,1-.13-.13V68.49a.13.13,0,0,1,.13-.13h1.72a.14.14,0,0,1,.14.13Z"/><rect x="48.33" y="64.14" width="53.32" height="6.61" style="fill:#51ae75"/></svg>