<svg id="28192792-95f9-4640-99a4-b81037cef5f9" data-name="Layer 1" xmlns="http://www.w3.org/2000/svg" viewBox="0 0 135 157.67"><title>ff06-scifi</title><path d="M85.14,102.08s13-9,16.5-9.5,22,1,22-.25,5-1-4-8.25-23.5-20-33.25-26.25-14.5-10.75-25.75-10-23.5.5-26.75,7.5-1.25,9.25,1.25,16.5,4.25,13.5,7.25,15.75,20.75,11.25,23.25,13.5,3.25,1.5,3.25-1.25-1.5-7-3.75-12-8.67-12.66-10.25-14.5-2.69-5.06-1.5-4.25,3.25,1.25,3,.25-2-5,.87-4.75,5,2.42,5.13,4.75,2,6.25,3.5,8.25,2.25.17,2.75-1.75-1.16-5.63,0-7,6.25-3.5,9-3.5,6.09-1.4,7.17,2.43S87,79,85.89,81.33s-4,3.25-3.25,5,2.5,4.75,2.5,7.5Z" style="fill:#5ca2d8;opacity:0.75"/><path d="M97,95l-.52.37-11.15,8-.33,10s5.5-5.5,6.5-8.5S97,95,97,95Z" style="fill:#eb6e62"/><path d="M32.3,119s5.17-6.33,11.67-6.83,22.83-2.5,22.83-2.5l-2,6.5S54,117.67,50.14,118.5,32.3,119,32.3,119Z" style="fill:#eb6e62"/><path d="M121.14,92.33c-12.5-.5-22,0-25,3.5s-8.5,18-12.5,18.5-11.51,1.18-19.5,1.5c-6.25.25-17.47,2.22-21.5,2.25-11,.09-20.75,2-20.5,12.25.15,6.5-3.5,16,12,16.5s40.36.17,55.5,0c15.33-.16,24.16-.83,28.66-1.33" style="fill:none;stroke:#000;stroke-miterlimit:10;stroke-width:2px"/><path d="M67,132c.67-.67,10.17-4.5,15-4.83a84.39,84.39,0,0,1,8.67-.17l.66,8.17h4l-.16-4.67-6.17.67-.5-3.84,8.33-.16s4.5-.17,5.67,0,.33,3,.33,3l-4,1.83s.17,4,2,4,4.67-.33,4.67-2-1.83-2.83-1.83-2.83l-3.84-1.34v-2.66s5.34-.34,7,.66,3.84,1.34,3.5,2.67,1.67,3.83-2.16,5.67-3.84,2.16-10.84,2.66a145.1,145.1,0,0,1-17.16,0c-4.67-.16-9.67-.66-11.34-2S67,132,67,132Z" style="fill:#5ca2d8"/><path d="M66.89,134.08c-1.11-3.32,6.5-6,9.75-6.25s22.5-.5,23.75-.5,10.25.75,10,4-2.5,6.5-7.25,7-23,.25-26.75.25S68.14,137.83,66.89,134.08Z" style="fill:none;stroke:#000;stroke-miterlimit:10;stroke-width:2px"/><path d="M64.14,115.83s9.33-17.25,10.58-19.25" style="fill:none;stroke:#000;stroke-miterlimit:10;stroke-width:2px"/><path d="M71.64,115.83s6.88-9.93,7.75-11.75,1.41-2.33,1.41-2.66" style="fill:none;stroke:#000;stroke-miterlimit:10;stroke-width:2px"/><path d="M69.16,105.83c-.23-4.48,1.66-13.44,3.61-15.75,1.54-1.82,5.54-2.25,8.59-1.25s4.28,4.5,4.28,11-.82,14.25-.82,14.25" style="fill:none;stroke:#000;stroke-miterlimit:10;stroke-width:2px"/><line x1="74.71" y1="89.33" x2="74.49" y2="85.07" style="fill:none;stroke:#000;stroke-miterlimit:10;stroke-width:2px"/><line x1="82.58" y1="89.11" x2="81.82" y2="84.74" style="fill:none;stroke:#000;stroke-miterlimit:10;stroke-width:2px"/><path d="M76.57,84.41c-2,.22-4.59,1.53-5.14,1.21s-1.64-4.71-1.53-4.81a3.39,3.39,0,0,0,.11-1s-1.62-.12-1.62-.67,1-2.93,1.25-4.57.41-4.91.41-4.91" style="fill:none;stroke:#000;stroke-miterlimit:10;stroke-width:2px"/><path d="M69.79,67.47c1.66-1.86,5.69-2.19,6.85-2.19s3.06.15,4.38.29a5.94,5.94,0,0,1,3.79,2.19,20.63,20.63,0,0,1,1.49,7.07c0,2.34,0,6.5-1.5,8.84s-3.2,1.73-4.22,1.87S79.41,81.46,79.41,80s-1-3.06-.44-3.64,2.63-3.21.59-4.08-2.19-.15-4.23-.15a9,9,0,0,1-5-1.6C69.79,70,68.62,68.78,69.79,67.47Z" style="fill:none;stroke:#000;stroke-miterlimit:10;stroke-width:2px"/><path d="M23.3,124.33a24.16,24.16,0,0,1,7.17-5.66c4.33-2.17,10.85-6.49,22-7.5s14.83-1.5,14.83-1.5" style="fill:none;stroke:#000;stroke-miterlimit:10;stroke-width:2px"/><path d="M116.89,92.83a55.46,55.46,0,0,0,6.75-.5s.25-4-1.25-5.5-3.5-2.75-7.75-6.75a114.3,114.3,0,0,0-13.5-11.25c-6.25-4.5-20.25-14.5-26.75-19s-37.75,1.75-40.5,5.5,3.75,24.5,6,28.5,7.75,6.5,7.75,6.5l22,14" style="fill:none;stroke:#000;stroke-miterlimit:10;stroke-width:2px"/><path d="M70.26,96.71s-3.87-6.38-6.12-10.63l-2.25-4.25s-3.5-5.5-4.5-7.25" style="fill:none;stroke:#000;stroke-miterlimit:10;stroke-width:2px"/><path d="M73.89,88.71c-1.88-1.88-5.84-6.88-5.84-6.88s-4.75-8.08-4.91-8.58-1-2.58-1-2.58" style="fill:none;stroke:#000;stroke-miterlimit:10;stroke-width:2px"/><path d="M57.8,75.17,53.3,71.5a1.09,1.09,0,0,1-.66-1.5c.12-.42.37-1,1.93-.1s2.07.6,2.07.6-1-4.33-1-4.83.12-.75,1.62-1.09,3.47-.6,4.25,2a40.88,40.88,0,0,1,1,5.09" style="fill:none;stroke:#000;stroke-miterlimit:10;stroke-width:2px"/><polyline points="58.47 76.67 62.47 75.5 63.3 74.17" style="fill:none;stroke:#000;stroke-miterlimit:10;stroke-width:2px"/><path d="M98.3,93.83c-1.33.59-12.41,8.25-12.41,8.25" style="fill:#fff;stroke:#000;stroke-miterlimit:10;stroke-width:2px"/><ellipse cx="102.05" cy="133.08" rx="3.08" ry="2.75" style="fill:#fff;stroke:#000;stroke-miterlimit:10;stroke-width:2px"/><polygon points="91.14 130.33 91.3 135.17 95.3 135.17 95.14 130.5 91.14 130.33" style="fill:#fff;stroke:#000;stroke-miterlimit:10;stroke-width:2px"/><path d="M73.14,134.17s5.33-.84,6.66-.84,6.84-.5,6.84-.5" style="fill:#fff;stroke:#000;stroke-miterlimit:10;stroke-width:2px"/><path d="M13.46,22a.1.1,0,0,1-.1.08h-.69a.08.08,0,0,1-.08-.08l.25-2.43h-2.6L10,22a.11.11,0,0,1-.1.08h-.7A.07.07,0,0,1,9.11,22l.56-5.3a.11.11,0,0,1,.09-.09h.7a.08.08,0,0,1,.08.09l-.22,2.13h2.59l.23-2.13a.11.11,0,0,1,.1-.09h.69a.08.08,0,0,1,.09.09Z" style="fill:#231f20"/><path d="M16,22a.12.12,0,0,1-.11.08h-.64a.08.08,0,0,1-.08-.08l.31-3-.82-.16c-.07,0-.08-.05-.08-.1l0-.4a.09.09,0,0,1,.09-.09h1.59a.09.09,0,0,1,.08.09Zm.58-4.82c0,.05-.05.1-.09.1H15.7a.09.09,0,0,1-.09-.1l.08-.76a.12.12,0,0,1,.11-.09h.8a.09.09,0,0,1,.08.09Z" style="fill:#231f20"/><path d="M18.41,19.33l.4-.59a1.34,1.34,0,0,1,1.26-.64h.13a.93.93,0,0,1,1,1s0,.13,0,.23l-.09,1a1.7,1.7,0,0,1-1.78,1.72H17.38A.07.07,0,0,1,17.3,22s0-.14.58-5.48a.11.11,0,0,1,.1-.08h.65a.08.08,0,0,1,.08.08Zm-.11,1-.11,1h1.08a1,1,0,0,0,1-1c0-.38.09-1,.09-1.13A.36.36,0,0,0,20,18.8H20c-.38,0-.61.25-.88.57Z" style="fill:#231f20"/><path d="M22.7,20.77v.06c0,.39.21.52.68.52h1.68a.08.08,0,0,1,.07.08v0l-.05.52a.11.11,0,0,1-.1.08H23.23a1.21,1.21,0,0,1-1.36-1.25c0-.06,0-.15,0-.17l.07-.81a1.7,1.7,0,0,1,1.78-1.72h.57c.77,0,1.22.31,1.22.91,0,0,0,.15,0,.28-.08.72-.6.9-1.24,1.07Zm.06-.69,1.13-.33c.44-.13.75-.22.78-.54v-.12c0-.17-.14-.29-.35-.29h-.54c-.6,0-.93.33-1,1Z" style="fill:#231f20"/><path d="M29.51,18.67a.07.07,0,0,1,0,.07l-.57.45s0,0-.08,0,0,0-.07,0-.16-.28-.32-.28h-.06c-.14,0-.23.12-.41.34l-.81,1L27,22a.11.11,0,0,1-.1.08h-.65c-.07,0-.08,0-.08-.08l.38-3.7a.11.11,0,0,1,.1-.09h.65a.09.09,0,0,1,.08.09l-.09.94.45-.65a.93.93,0,0,1,.84-.46h.11a.85.85,0,0,1,.8.47A.19.19,0,0,1,29.51,18.67Z" style="fill:#231f20"/><path d="M33.19,22a.1.1,0,0,1-.1.08h-.63a.08.08,0,0,1-.09-.08l.26-2.56s0-.23,0-.3-.08-.31-.26-.31h-.06c-.27,0-.48.26-.86.75l-.91,1.17L30.44,22a.09.09,0,0,1-.09.08h-.66a.07.07,0,0,1-.08-.07L30,18.27a.11.11,0,0,1,.1-.09h.66a.09.09,0,0,1,.08.09l-.14,1.38.5-.76c.34-.51.59-.79,1.16-.79h.24a.83.83,0,0,1,.9.91,1.23,1.23,0,0,1,0,.17Z" style="fill:#231f20"/><path d="M37.81,22a.11.11,0,0,1-.1.08h-.65A.07.07,0,0,1,37,22s0-.14.1-1.07l-.39.58a1.34,1.34,0,0,1-1.25.64H35.3a.93.93,0,0,1-1-1,1,1,0,0,1,0-.14l.1-1.15a1.71,1.71,0,0,1,1.77-1.73h.09a2,2,0,0,1,1.07.33v-.16a.11.11,0,0,1,.1-.09h.65a.09.09,0,0,1,.08.08Zm-1.39-1.11.77-.95.08-.83a1.62,1.62,0,0,0-.93-.27h-.1a1,1,0,0,0-1,1l-.09,1.09a.75.75,0,0,0,0,.11.35.35,0,0,0,.34.39h.06C35.92,21.43,36.15,21.18,36.42,20.86Z" style="fill:#231f20"/><path d="M41.11,22a.09.09,0,0,1-.09.08H40.4a.94.94,0,0,1-1.06-1,1,1,0,0,1,0-.16l.21-2-.78-.14a.1.1,0,0,1-.09-.1l.05-.46a.12.12,0,0,1,.1-.09h.8l0-.39a.21.21,0,0,1,.11-.17l.56-.35.08,0c.08,0,.12,0,.12.11l-.09.82h1a.09.09,0,0,1,.09.09l-.06.62s-.06.08-.11.08h-1c-.07.71-.21,1.87-.21,2a.33.33,0,0,0,.37.36h.55a.07.07,0,0,1,.07.07Z" style="fill:#231f20"/><path d="M43.36,22a.1.1,0,0,1-.1.08h-.64a.08.08,0,0,1-.09-.08l.31-3L42,18.77a.09.09,0,0,1-.08-.1l0-.4a.11.11,0,0,1,.1-.09h1.58a.09.09,0,0,1,.09.09ZM44,17.15a.12.12,0,0,1-.1.1H43a.1.1,0,0,1-.09-.1l.08-.76a.12.12,0,0,1,.11-.09H44a.09.09,0,0,1,.08.09Z" style="fill:#231f20"/><path d="M48.2,20.41a1.71,1.71,0,0,1-1.77,1.72H46a1.2,1.2,0,0,1-1.36-1.25v-.17l.08-.88a1.72,1.72,0,0,1,1.78-1.73h.48a1.22,1.22,0,0,1,1.36,1.26,1.31,1.31,0,0,1,0,.17Zm-.74-.89a.83.83,0,0,0,0-.12c0-.42-.24-.59-.68-.59H46.5a1,1,0,0,0-1,1l-.08.89a.72.72,0,0,0,0,.13c0,.4.22.58.68.58h.29a1,1,0,0,0,1-1Z" style="fill:#231f20"/><path d="M52.66,22a.1.1,0,0,1-.1.08h-.63a.08.08,0,0,1-.09-.08l.27-2.56s0-.23,0-.3-.08-.31-.26-.31h-.06c-.27,0-.48.26-.86.75L50,20.72,49.91,22a.09.09,0,0,1-.09.08h-.66a.07.07,0,0,1-.08-.07l.39-3.71a.11.11,0,0,1,.09-.09h.66a.08.08,0,0,1,.08.09l-.14,1.38.51-.76c.33-.51.58-.79,1.16-.79h.23A.83.83,0,0,1,53,19a1.23,1.23,0,0,1,0,.17Z" style="fill:#231f20"/><path d="M58,22a.11.11,0,0,1-.09.08h-.62a.94.94,0,0,1-1.06-1v-.16l.21-2-.77-.14a.1.1,0,0,1-.09-.1l.05-.46a.11.11,0,0,1,.1-.09h.79l.05-.39a.19.19,0,0,1,.11-.17l.56-.35.08,0a.1.1,0,0,1,.11.11l-.08.82h1a.09.09,0,0,1,.09.09l-.06.62s-.06.08-.11.08h-1c-.08.71-.21,1.87-.21,2a.33.33,0,0,0,.37.36h.55a.07.07,0,0,1,.07.07Z" style="fill:#231f20"/><path d="M60.21,22a.12.12,0,0,1-.1.08h-.64a.08.08,0,0,1-.09-.08l.31-3-.82-.16c-.07,0-.08-.05-.08-.1l0-.4a.09.09,0,0,1,.09-.09h1.59a.09.09,0,0,1,.08.09Zm.58-4.82a.1.1,0,0,1-.09.1h-.81a.09.09,0,0,1-.09-.1l.08-.76A.12.12,0,0,1,60,16.3h.8a.09.09,0,0,1,.08.09Z" style="fill:#231f20"/><path d="M62.56,19.61l.49-.74c.34-.53.58-.77,1.12-.77h.21c.52,0,.8.28.8.87v.2l-.05.43.48-.73c.34-.53.58-.77,1.12-.77h.21c.52,0,.8.28.8.87a1.56,1.56,0,0,1,0,.2L67.45,22a.12.12,0,0,1-.11.08h-.63a.09.09,0,0,1-.09-.08c.11-1,.31-2.82.31-2.93s-.07-.24-.18-.24h-.09c-.21,0-.4.25-.74.69L65,20.67,64.89,22a.12.12,0,0,1-.11.08h-.63a.08.08,0,0,1-.08-.08c.1-1,.3-2.9.3-2.93s-.07-.24-.18-.24H64.1c-.21,0-.4.25-.74.69l-.91,1.19L62.32,22a.11.11,0,0,1-.09.08h-.66a.07.07,0,0,1-.08-.07l.38-3.71a.11.11,0,0,1,.1-.09h.66a.09.09,0,0,1,.08.08Z" style="fill:#231f20"/><path d="M69.39,20.77v.06c0,.39.21.52.68.52h1.67a.09.09,0,0,1,.08.08v0l0,.52a.11.11,0,0,1-.1.08H69.92a1.21,1.21,0,0,1-1.36-1.25c0-.06,0-.15,0-.17l.07-.81a1.7,1.7,0,0,1,1.78-1.72H71c.77,0,1.23.31,1.23.91a2.42,2.42,0,0,1,0,.28c-.07.72-.59.9-1.24,1.07Zm.06-.69,1.13-.33c.44-.13.75-.22.77-.54v-.12c0-.17-.14-.29-.35-.29h-.54c-.6,0-.93.33-1,1Z" style="fill:#231f20"/><path d="M73.84,22a.11.11,0,0,1-.1.08H73c-.07,0-.08,0-.08-.08l.07-.75a.12.12,0,0,1,.1-.09h.76a.09.09,0,0,1,.08.09Zm.28-2.68a.11.11,0,0,1-.1.08h-.76c-.07,0-.08,0-.08-.08l.08-.75a.1.1,0,0,1,.09-.09h.76a.09.09,0,0,1,.09.09Z" style="fill:#231f20"/><path d="M94.77,17.5a.12.12,0,0,1-.06.12l-.66.64a3.61,3.61,0,0,0-1.39,2.93V22a.1.1,0,0,1-.1.08h-1A.09.09,0,0,1,91.5,22v-.75a4,4,0,0,1,1.73-3.36l.33-.28H91a.1.1,0,0,1-.1-.09v-.82a.11.11,0,0,1,.1-.09h3.67a.11.11,0,0,1,.1.09Z" style="fill:#231f20"/><path d="M99.8,22a.09.09,0,0,1-.09-.08V19.29a.27.27,0,0,0-.25-.29h0c-.18,0-.3.15-.52.42l-.54.71V22a.09.09,0,0,1-.09.08h-.93a.09.09,0,0,1-.09-.08v-3.7a.08.08,0,0,1,.09-.08h.93a.08.08,0,0,1,.09.08v.67l.2-.3a1.15,1.15,0,0,1,1-.57h.21a1,1,0,0,1,1,.91l.22-.34a1.15,1.15,0,0,1,1-.57h.11a1.07,1.07,0,0,1,1.14,1.23V22a.1.1,0,0,1-.1.08h-.91a.1.1,0,0,1-.1-.08V19.29a.27.27,0,0,0-.25-.29h0c-.18,0-.3.15-.52.42l-.54.71V22a.09.09,0,0,1-.1.08Z" style="fill:#231f20"/><path d="M108,20.55a1.52,1.52,0,0,1-1.68,1.61h-.44a1.52,1.52,0,0,1-1.69-1.61v-.88a1.52,1.52,0,0,1,1.69-1.61h.44A1.52,1.52,0,0,1,108,19.67Zm-1.1-.89a.63.63,0,0,0-.67-.66H106a.63.63,0,0,0-.67.66v.89a.63.63,0,0,0,.67.67h.27a.63.63,0,0,0,.67-.67Z" style="fill:#231f20"/><path d="M112.73,22a.1.1,0,0,1-.1.08h-.91a.1.1,0,0,1-.09-.08V19.29a.27.27,0,0,0-.27-.29h-.06c-.17,0-.32.16-.54.4l-.69.77V22A.09.09,0,0,1,110,22h-.93A.09.09,0,0,1,109,22v-3.7a.08.08,0,0,1,.09-.08H110a.08.08,0,0,1,.09.08V19l.22-.3a1.31,1.31,0,0,1,1.19-.65h.12c.68,0,1.13.39,1.13,1.23Z" style="fill:#231f20"/><path d="M116.27,22a.09.09,0,0,1-.08.08h-.79a1.1,1.1,0,0,1-1.22-1.2V19.16l-.84-.19s-.09,0-.09-.09v-.62a.08.08,0,0,1,.09-.08h.84v-.4a.17.17,0,0,1,.1-.17l.79-.41a.13.13,0,0,1,.09,0c.07,0,.12,0,.12.1v.9h.92a.09.09,0,0,1,.1.08v.81a.1.1,0,0,1-.1.09h-.92v1.58a.33.33,0,0,0,.36.36h.55a.09.09,0,0,1,.08.09Z" style="fill:#231f20"/><path d="M120.83,22a.1.1,0,0,1-.1.08h-.91a.1.1,0,0,1-.1-.08V19.29a.27.27,0,0,0-.27-.29h0c-.17,0-.33.14-.56.4l-.68.77V22a.09.09,0,0,1-.08.08h-.93a.09.09,0,0,1-.09-.08V16.5a.09.09,0,0,1,.09-.09h.93a.09.09,0,0,1,.08.09V19l.23-.27c.37-.46.57-.7,1.19-.7h.11a1.07,1.07,0,0,1,1.14,1.23Z" style="fill:#231f20"/><path d="M124.86,19a.09.09,0,0,1-.09.09H123c-.15,0-.23.05-.23.19s.2.21.43.24l.79.12c.73.12,1.19.46,1.19,1.18V21A1.14,1.14,0,0,1,123.91,22h-2.1a.09.09,0,0,1-.09-.08V21.2a.1.1,0,0,1,.09-.1h2c.14,0,.24-.07.24-.2s-.14-.22-.47-.28l-.75-.12c-.67-.11-1.18-.37-1.18-1.14v-.11c0-.66.49-1.07,1.29-1.07h1.81a.09.09,0,0,1,.09.09Z" style="fill:#231f20"/><polyline points="14.88 77.33 22.76 77.46 37.26 77.46" style="fill:none;stroke:#000;stroke-miterlimit:10;stroke-width:2px"/><line x1="20.14" y1="81.46" x2="20.14" y2="85.96" style="fill:none;stroke:#000;stroke-miterlimit:10;stroke-width:2px"/><line x1="25.01" y1="81.21" x2="24.76" y2="86.33" style="fill:none;stroke:#000;stroke-miterlimit:10;stroke-width:2px"/><polyline points="97.47 66.33 118.8 58.33 118.8 71" style="fill:none;stroke:#000;stroke-miterlimit:10;stroke-width:2px"/><polyline points="20.14 100.33 20.47 111.33 27.47 120.33" style="fill:none;stroke:#000;stroke-miterlimit:10;stroke-width:2px"/><polyline points="13.47 99 13.47 112.67 22.47 126" style="fill:none;stroke:#000;stroke-miterlimit:10;stroke-width:2px"/><line x1="113.39" y1="65.08" x2="113.64" y2="71.58" style="fill:none;stroke:#000;stroke-miterlimit:10;stroke-width:2px"/><circle cx="72.2" cy="75.43" r="0.23" style="fill:#fff;stroke:#000;stroke-miterlimit:10;stroke-width:2px"/><line x1="8.5" y1="10.33" x2="126.5" y2="10.33" style="fill:none;stroke:#000;stroke-miterlimit:10;stroke-width:2px"/><line x1="8.5" y1="29.33" x2="126.5" y2="29.33" style="fill:none;stroke:#000;stroke-miterlimit:10;stroke-width:2px"/><path d="M73.14,69.71c0-.75-.25-2.75,1.12-2.75s3.25.12,3.13,1-.38,2.62-1.25,2.87a15.83,15.83,0,0,1-2.25.38" style="fill:none;stroke:#000;stroke-miterlimit:10;stroke-width:2px"/><path d="M74.89,69s2.12-2.75,3.75-2.5,1.75.25,1.62,2.12-.5,2.75-1.37,2.88a9.78,9.78,0,0,1-2.63.25" style="fill:none;stroke:#000;stroke-miterlimit:10;stroke-width:2px"/><path d="M80.89,83s2.12-2.75,3.75-2.5,1.75.25,1.62,2.12-.5,2.75-1.37,2.88a9.78,9.78,0,0,1-2.63.25" style="fill:none;stroke:#000;stroke-miterlimit:10;stroke-width:2px"/><path d="M80.89,78s2.12-2.75,3.75-2.5,1.75.25,1.62,2.12-.5,2.75-1.37,2.88a9.78,9.78,0,0,1-2.63.25" style="fill:none;stroke:#000;stroke-miterlimit:10;stroke-width:2px"/><path d="M79.89,76s2.12-2.75,3.75-2.5,1.75.25,1.62,2.12-.5,2.75-1.37,2.88a9.78,9.78,0,0,1-2.63.25" style="fill:none;stroke:#000;stroke-miterlimit:10;stroke-width:2px"/><path d="M71.51,70.08a3,3,0,0,1,2.75-1.25c1.75.25,1.5.13,1.75,1.5s-.75,4-.75,4" style="fill:none;stroke:#000;stroke-miterlimit:10;stroke-width:2px"/><path d="M69.51,70.71,71.14,69a26,26,0,0,1,2.75-.25,4.71,4.71,0,0,1,2.12.62c.94.38.38-2.62-.87-3.37s-1.88-1-2.63.37a6.58,6.58,0,0,0-.5,3.38" style="fill:none;stroke:#000;stroke-miterlimit:10;stroke-width:2px"/><path d="M78.51,77.71,80.14,76a26,26,0,0,1,2.75-.25,4.71,4.71,0,0,1,2.12.62c.94.38.38-2.62-.87-3.37s-1.88-1-2.63.37a6.58,6.58,0,0,0-.5,3.38" style="fill:none;stroke:#000;stroke-miterlimit:10;stroke-width:2px"/><path d="M72.76,71.58s1.25-2,2.5-2a6.07,6.07,0,0,1,3.38.88c.5.5,1.22,1,.92,1.82" style="fill:none;stroke:#000;stroke-miterlimit:10;stroke-width:2px"/><path d="M77.89,69s.37-.88,2.5-.88,2.37-.25,2.87,1.13.63,2.62,0,3.37a3.57,3.57,0,0,1-1.75,1" style="fill:none;stroke:#000;stroke-miterlimit:10;stroke-width:2px"/><path d="M83.77,78s.86.41.77,2.53.15,2.39-1.25,2.83-2.65.51-3.37-.15A3.56,3.56,0,0,1,79,81.43" style="fill:none;stroke:#000;stroke-miterlimit:10;stroke-width:2px"/><path d="M80,68.83s1,.38,2.25,1a3.2,3.2,0,0,1,1.63,3.25c-.25,1-.88,1.5-2.38,1.5s-1.62-.12-1.62-.12" style="fill:none;stroke:#000;stroke-miterlimit:10;stroke-width:2px"/><path d="M80,65.83s1,.38,2.25,1a3.2,3.2,0,0,1,1.63,3.25c-.25,1-.88,1.5-2.38,1.5s-1.62-.12-1.62-.12" style="fill:none;stroke:#000;stroke-miterlimit:10;stroke-width:2px"/><path d="M83,72.83s1,.38,2.25,1a3.2,3.2,0,0,1,1.63,3.25c-.25,1-.88,1.5-2.38,1.5s-1.62-.12-1.62-.12" style="fill:none;stroke:#000;stroke-miterlimit:10;stroke-width:2px"/><path d="M79,74.83s1,.38,2.25,1a3.2,3.2,0,0,1,1.63,3.25c-.25,1-.88,1.5-2.38,1.5s-1.62-.12-1.62-.12" style="fill:none;stroke:#000;stroke-miterlimit:10;stroke-width:2px"/><path d="M79,77.83s1,.38,2.25,1a3.2,3.2,0,0,1,1.63,3.25c-.25,1-.88,1.5-2.38,1.5s-1.62-.12-1.62-.12" style="fill:none;stroke:#000;stroke-miterlimit:10;stroke-width:2px"/></svg>