<svg id="18160d8f-9e25-43e8-badc-35b9ae845e8e" data-name="Layer 1" xmlns="http://www.w3.org/2000/svg" viewBox="0 0 270 162.5"><title>ff07-scifi</title><polyline points="26.33 144 26.33 63 71.3 63 71.3 144" style="fill:#fff;stroke:#ababab;stroke-miterlimit:10;stroke-width:2px"/><polyline points="76.89 144 76.89 90.85 113.58 90.85 113.58 144" style="fill:#fff;stroke:#ababab;stroke-miterlimit:10;stroke-width:2px"/><polyline points="119.14 144 119.14 75.67 155.83 75.67 155.83 144" style="fill:#fff;stroke:#ababab;stroke-miterlimit:10;stroke-width:2px"/><polyline points="161.22 144 161.22 81.25 197.91 81.25 197.91 144" style="fill:#fff;stroke:#ababab;stroke-miterlimit:10;stroke-width:2px"/><polyline points="203.31 144 203.31 75.67 240 75.67 240 144" style="fill:#fff;stroke:#ababab;stroke-miterlimit:10;stroke-width:2px"/><rect x="31" y="67.5" width="6" height="8.17" style="fill:#fff;stroke:#ababab;stroke-miterlimit:10;stroke-width:2px"/><rect x="41" y="67.5" width="6" height="8.17" style="fill:#fff;stroke:#ababab;stroke-miterlimit:10;stroke-width:2px"/><rect x="51" y="67.5" width="6" height="8.17" style="fill:#fff;stroke:#ababab;stroke-miterlimit:10;stroke-width:2px"/><rect x="61" y="67.5" width="6" height="8.17" style="fill:#fff;stroke:#ababab;stroke-miterlimit:10;stroke-width:2px"/><rect x="31" y="80.5" width="6" height="8.17" style="fill:#fff;stroke:#ababab;stroke-miterlimit:10;stroke-width:2px"/><rect x="41" y="80.5" width="6" height="8.17" style="fill:#fff;stroke:#ababab;stroke-miterlimit:10;stroke-width:2px"/><rect x="51" y="80.5" width="6" height="8.17" style="fill:#fff;stroke:#ababab;stroke-miterlimit:10;stroke-width:2px"/><rect x="61" y="80.5" width="6" height="8.17" style="fill:#fff;stroke:#ababab;stroke-miterlimit:10;stroke-width:2px"/><rect x="125" y="80.5" width="6" height="8.17" style="fill:#fff;stroke:#ababab;stroke-miterlimit:10;stroke-width:2px"/><rect x="135" y="80.5" width="6" height="8.17" style="fill:#fff;stroke:#ababab;stroke-miterlimit:10;stroke-width:2px"/><rect x="145" y="80.5" width="6" height="8.17" style="fill:#fff;stroke:#ababab;stroke-miterlimit:10;stroke-width:2px"/><rect x="125" y="93.5" width="6" height="8.17" style="fill:#fff;stroke:#ababab;stroke-miterlimit:10;stroke-width:2px"/><rect x="135" y="93.5" width="6" height="8.17" style="fill:#fff;stroke:#ababab;stroke-miterlimit:10;stroke-width:2px"/><rect x="145" y="93.5" width="6" height="8.17" style="fill:#fff;stroke:#ababab;stroke-miterlimit:10;stroke-width:2px"/><rect x="125" y="107.5" width="6" height="8.17" style="fill:#fff;stroke:#ababab;stroke-miterlimit:10;stroke-width:2px"/><rect x="135" y="107.5" width="6" height="8.17" style="fill:#fff;stroke:#ababab;stroke-miterlimit:10;stroke-width:2px"/><rect x="145" y="107.5" width="6" height="8.17" style="fill:#fff;stroke:#ababab;stroke-miterlimit:10;stroke-width:2px"/><rect x="125" y="120.5" width="6" height="8.17" style="fill:#fff;stroke:#ababab;stroke-miterlimit:10;stroke-width:2px"/><rect x="135" y="120.5" width="6" height="8.17" style="fill:#fff;stroke:#ababab;stroke-miterlimit:10;stroke-width:2px"/><rect x="145" y="120.5" width="6" height="8.17" style="fill:#fff;stroke:#ababab;stroke-miterlimit:10;stroke-width:2px"/><rect x="125" y="133.5" width="6" height="8.17" style="fill:#fff;stroke:#ababab;stroke-miterlimit:10;stroke-width:2px"/><rect x="135" y="133.5" width="6" height="8.17" style="fill:#fff;stroke:#ababab;stroke-miterlimit:10;stroke-width:2px"/><rect x="145" y="133.5" width="6" height="8.17" style="fill:#fff;stroke:#ababab;stroke-miterlimit:10;stroke-width:2px"/><rect x="166" y="88.5" width="6" height="8.17" style="fill:#fff;stroke:#ababab;stroke-miterlimit:10;stroke-width:2px"/><rect x="176" y="88.5" width="6" height="8.17" style="fill:#fff;stroke:#ababab;stroke-miterlimit:10;stroke-width:2px"/><rect x="186" y="88.5" width="6" height="8.17" style="fill:#fff;stroke:#ababab;stroke-miterlimit:10;stroke-width:2px"/><rect x="166" y="103.5" width="6" height="8.17" style="fill:#fff;stroke:#ababab;stroke-miterlimit:10;stroke-width:2px"/><rect x="176" y="103.5" width="6" height="8.17" style="fill:#fff;stroke:#ababab;stroke-miterlimit:10;stroke-width:2px"/><rect x="186" y="103.5" width="6" height="8.17" style="fill:#fff;stroke:#ababab;stroke-miterlimit:10;stroke-width:2px"/><rect x="166" y="118.5" width="6" height="8.17" style="fill:#fff;stroke:#ababab;stroke-miterlimit:10;stroke-width:2px"/><rect x="176" y="118.5" width="6" height="8.17" style="fill:#fff;stroke:#ababab;stroke-miterlimit:10;stroke-width:2px"/><rect x="186" y="118.5" width="6" height="8.17" style="fill:#fff;stroke:#ababab;stroke-miterlimit:10;stroke-width:2px"/><rect x="166" y="132.5" width="6" height="8.17" style="fill:#fff;stroke:#ababab;stroke-miterlimit:10;stroke-width:2px"/><rect x="176" y="132.5" width="6" height="8.17" style="fill:#fff;stroke:#ababab;stroke-miterlimit:10;stroke-width:2px"/><rect x="186" y="132.5" width="6" height="8.17" style="fill:#fff;stroke:#ababab;stroke-miterlimit:10;stroke-width:2px"/><rect x="208" y="81.5" width="6" height="9.24" style="fill:#fff;stroke:#ababab;stroke-miterlimit:10;stroke-width:2px"/><rect x="218" y="81.5" width="6" height="9.24" style="fill:#fff;stroke:#ababab;stroke-miterlimit:10;stroke-width:2px"/><rect x="228" y="81.5" width="6" height="9.24" style="fill:#fff;stroke:#ababab;stroke-miterlimit:10;stroke-width:2px"/><rect x="208" y="98.46" width="6" height="9.24" style="fill:#fff;stroke:#ababab;stroke-miterlimit:10;stroke-width:2px"/><rect x="218" y="98.46" width="6" height="9.24" style="fill:#fff;stroke:#ababab;stroke-miterlimit:10;stroke-width:2px"/><rect x="228" y="98.46" width="6" height="9.24" style="fill:#fff;stroke:#ababab;stroke-miterlimit:10;stroke-width:2px"/><rect x="208" y="115.43" width="6" height="9.24" style="fill:#fff;stroke:#ababab;stroke-miterlimit:10;stroke-width:2px"/><rect x="218" y="115.43" width="6" height="9.24" style="fill:#fff;stroke:#ababab;stroke-miterlimit:10;stroke-width:2px"/><rect x="228" y="115.43" width="6" height="9.24" style="fill:#fff;stroke:#ababab;stroke-miterlimit:10;stroke-width:2px"/><rect x="208" y="131.26" width="6" height="9.24" style="fill:#fff;stroke:#ababab;stroke-miterlimit:10;stroke-width:2px"/><rect x="218" y="131.26" width="6" height="9.24" style="fill:#fff;stroke:#ababab;stroke-miterlimit:10;stroke-width:2px"/><rect x="228" y="131.26" width="6" height="9.24" style="fill:#fff;stroke:#ababab;stroke-miterlimit:10;stroke-width:2px"/><rect x="31" y="93.5" width="6" height="8.17" style="fill:#fff;stroke:#ababab;stroke-miterlimit:10;stroke-width:2px"/><rect x="41" y="93.5" width="6" height="8.17" style="fill:#fff;stroke:#ababab;stroke-miterlimit:10;stroke-width:2px"/><rect x="51" y="93.5" width="6" height="8.17" style="fill:#fff;stroke:#ababab;stroke-miterlimit:10;stroke-width:2px"/><rect x="61" y="93.5" width="6" height="8.17" style="fill:#fff;stroke:#ababab;stroke-miterlimit:10;stroke-width:2px"/><rect x="31" y="106.5" width="6" height="8.17" style="fill:#fff;stroke:#ababab;stroke-miterlimit:10;stroke-width:2px"/><rect x="41" y="106.5" width="6" height="8.17" style="fill:#fff;stroke:#ababab;stroke-miterlimit:10;stroke-width:2px"/><rect x="51" y="106.5" width="6" height="8.17" style="fill:#fff;stroke:#ababab;stroke-miterlimit:10;stroke-width:2px"/><rect x="61" y="106.5" width="6" height="8.17" style="fill:#fff;stroke:#ababab;stroke-miterlimit:10;stroke-width:2px"/><rect x="31" y="119.5" width="6" height="8.17" style="fill:#fff;stroke:#ababab;stroke-miterlimit:10;stroke-width:2px"/><rect x="41" y="119.5" width="6" height="8.17" style="fill:#fff;stroke:#ababab;stroke-miterlimit:10;stroke-width:2px"/><rect x="51" y="119.5" width="6" height="8.17" style="fill:#fff;stroke:#ababab;stroke-miterlimit:10;stroke-width:2px"/><rect x="61" y="119.5" width="6" height="8.17" style="fill:#fff;stroke:#ababab;stroke-miterlimit:10;stroke-width:2px"/><rect x="31" y="132.5" width="6" height="8.17" style="fill:#fff;stroke:#ababab;stroke-miterlimit:10;stroke-width:2px"/><rect x="41" y="132.5" width="6" height="8.17" style="fill:#fff;stroke:#ababab;stroke-miterlimit:10;stroke-width:2px"/><rect x="51" y="132.5" width="6" height="8.17" style="fill:#fff;stroke:#ababab;stroke-miterlimit:10;stroke-width:2px"/><rect x="61" y="132.5" width="6" height="8.17" style="fill:#fff;stroke:#ababab;stroke-miterlimit:10;stroke-width:2px"/><rect x="81.25" y="95.75" width="8.66" height="20.25" style="fill:#fff;stroke:#ababab;stroke-miterlimit:10;stroke-width:2px"/><rect x="104.55" y="95.75" width="4.95" height="7.75" style="fill:#fff;stroke:#ababab;stroke-miterlimit:10;stroke-width:2px"/><rect x="95.24" y="95.75" width="4.95" height="7.75" style="fill:#fff;stroke:#ababab;stroke-miterlimit:10;stroke-width:2px"/><rect x="104.55" y="107.75" width="4.95" height="7.75" style="fill:#fff;stroke:#ababab;stroke-miterlimit:10;stroke-width:2px"/><rect x="95.24" y="107.75" width="4.95" height="7.75" style="fill:#fff;stroke:#ababab;stroke-miterlimit:10;stroke-width:2px"/><rect x="82.24" y="120.75" width="4.95" height="7.75" style="fill:#fff;stroke:#ababab;stroke-miterlimit:10;stroke-width:2px"/><rect x="82.24" y="132.75" width="4.95" height="7.75" style="fill:#fff;stroke:#ababab;stroke-miterlimit:10;stroke-width:2px"/><rect x="93.24" y="120.75" width="4.95" height="7.75" style="fill:#fff;stroke:#ababab;stroke-miterlimit:10;stroke-width:2px"/><rect x="93.24" y="132.75" width="4.95" height="7.75" style="fill:#fff;stroke:#ababab;stroke-miterlimit:10;stroke-width:2px"/><rect x="104.24" y="120.75" width="4.95" height="7.75" style="fill:#fff;stroke:#ababab;stroke-miterlimit:10;stroke-width:2px"/><rect x="104.24" y="132.75" width="4.95" height="7.75" style="fill:#fff;stroke:#ababab;stroke-miterlimit:10;stroke-width:2px"/><line x1="120" y1="12" x2="120" y2="149" style="fill:none;stroke:#000;stroke-miterlimit:10;stroke-width:2px"/><path d="M49.67,92S54,52,54,48.67,58.33,34,58.33,34s.34,20.67.34,25S58.33,72.33,58,76s-1.67,17-1.67,17" style="fill:#fff;stroke:#000;stroke-miterlimit:10;stroke-width:2px"/><path d="M46,100s-1-15.67-1-18.67-4-33-5-36,6.33,9.67,7.33,17,3,17,3.67,19.34,4,18.87,4,18.87" style="fill:#fff;stroke:#000;stroke-miterlimit:10;stroke-width:2px"/><line x1="18.5" y1="12" x2="18.5" y2="150" style="fill:none;stroke:#000;stroke-miterlimit:10;stroke-width:2px"/><line x1="10.5" y1="12" x2="10.5" y2="150" style="fill:none;stroke:#000;stroke-miterlimit:10;stroke-width:2px"/><line x1="248" y1="12" x2="248" y2="150" style="fill:none;stroke:#000;stroke-miterlimit:10;stroke-width:2px"/><line x1="256" y1="12" x2="256" y2="150" style="fill:none;stroke:#000;stroke-miterlimit:10;stroke-width:2px"/><polyline points="175.91 149 175.91 126.22 35.5 126.22 35.5 149" style="fill:#fff;stroke:#000;stroke-miterlimit:10;stroke-width:2px"/><rect x="76.08" y="40" width="89.76" height="60.54" rx="2" ry="2" style="fill:#fff;stroke:#000;stroke-miterlimit:10;stroke-width:2px"/><rect x="80.7" y="44.4" width="80.52" height="51.74" style="fill:#f79552;stroke:#000;stroke-miterlimit:10;stroke-width:2px"/><rect x="109.48" y="100.54" width="22.96" height="11.81" style="fill:#fff;stroke:#000;stroke-miterlimit:10;stroke-width:2px"/><path d="M86.46,112.35h69a4,4,0,0,1,4,4v6.75a3,3,0,0,1-3,3h-70a4,4,0,0,1-4-4v-5.75A4,4,0,0,1,86.46,112.35Z" style="fill:#fff;stroke:#000;stroke-miterlimit:10;stroke-width:2px"/><circle cx="89.99" cy="119.28" r="2.21" style="fill:none;stroke:#000;stroke-miterlimit:10;stroke-width:2px"/><circle cx="97.5" cy="119.28" r="2.21" style="fill:none;stroke:#000;stroke-miterlimit:10;stroke-width:2px"/><path d="M91.5,63a.09.09,0,0,1-.1.09H88.87c-1.37,0-2.27-.74-2.27-1.95V59.54c0-1.2.9-1.94,2.27-1.94h2.52a.11.11,0,0,1,.11.1v1.75a.09.09,0,0,1-.1.09H90.25a.1.1,0,0,1-.1-.09V58.6H89.06c-.74,0-1.11.34-1.11.95v1.58c0,.6.37.95,1.11.95H91.4a.09.09,0,0,1,.1.09Z" style="fill:#231f20"/><path d="M92.39,59.29s.06-.08.12-.08h1.06c.05,0,.11,0,.11.08V62a.29.29,0,0,0,.32.29h.06c.2,0,.36-.16.55-.41l.82-1.07V59.29s0-.08.11-.08h1.08a.1.1,0,0,1,.1.08V63a.1.1,0,0,1-.1.09H95.54a.1.1,0,0,1-.11-.09v-.87l-.26.4a1.39,1.39,0,0,1-1.32.68h-.13A1.17,1.17,0,0,1,92.39,62Z" style="fill:#231f20"/><path d="M101.28,60.06a.09.09,0,0,1-.1.09H99.12c-.18,0-.27.06-.27.19s.23.21.5.24l.93.12c.85.12,1.38.46,1.38,1.18V62c0,.67-.64,1.1-1.48,1.1H97.73a.1.1,0,0,1-.1-.09v-.76a.11.11,0,0,1,.1-.1h2.36c.16,0,.28-.07.28-.2s-.17-.22-.56-.28l-.87-.12c-.78-.11-1.38-.37-1.38-1.14v-.11c0-.66.58-1.07,1.51-1.07h2.11a.09.09,0,0,1,.1.09Z" style="fill:#231f20"/><path d="M105.28,63a.1.1,0,0,1-.11.09h-.92c-.85,0-1.42-.39-1.42-1.21V60.19l-1-.18c-.06,0-.11,0-.11-.1v-.62s0-.08.11-.08h1v-.4a.16.16,0,0,1,.12-.17l.92-.41.11,0c.08,0,.14,0,.14.1v.9h1.07c.06,0,.12,0,.12.08v.81s-.06.09-.12.09h-1.07v1.58c0,.22.13.36.41.36h.64a.1.1,0,0,1,.11.09Z" style="fill:#231f20"/><path d="M110.31,61.58c0,1.07-.82,1.62-2,1.62h-.52c-1.14,0-2-.55-2-1.62V60.7c0-1.06.82-1.61,2-1.61h.52c1.14,0,2,.55,2,1.61ZM109,60.69a.69.69,0,0,0-.78-.66h-.31c-.43,0-.79.23-.79.66v.89c0,.44.36.67.79.67h.31a.69.69,0,0,0,.78-.67Z" style="fill:#231f20"/><path d="M114.22,63.08a.1.1,0,0,1-.11-.09V60.33a.29.29,0,0,0-.29-.3h0c-.22,0-.36.15-.61.42l-.63.71V63a.1.1,0,0,1-.1.09h-1.09a.1.1,0,0,1-.1-.09v-3.7a.1.1,0,0,1,.1-.08h1.09a.1.1,0,0,1,.1.08V60l.23-.3a1.43,1.43,0,0,1,1.18-.57h.24a1.12,1.12,0,0,1,1.18.92l.26-.35a1.43,1.43,0,0,1,1.18-.57h.13a1.16,1.16,0,0,1,1.32,1.24V63a.1.1,0,0,1-.11.09h-1.06A.1.1,0,0,1,117,63V60.33a.29.29,0,0,0-.29-.3h0c-.21,0-.35.15-.61.42l-.63.71V63a.1.1,0,0,1-.11.09Z" style="fill:#231f20"/><path d="M120.41,61.56a.67.67,0,0,0,.75.57h2.06a.1.1,0,0,1,.1.1V63a.09.09,0,0,1-.1.09h-2.1c-1.14,0-2-.56-2-1.62V60.7c0-1.06.83-1.61,2-1.61h.51c1.1,0,2,.53,2,1.48v.1a.18.18,0,0,1-.1.19l-.81.59a.54.54,0,0,1-.28.11Zm.77-1.53c-.47,0-.75.22-.77.62h1.92c0-.4-.28-.62-.72-.62Z" style="fill:#231f20"/><path d="M127.13,59.09a1.58,1.58,0,0,1,1.16.5s0,0,0,.06,0,0,0,.07l-.85.62-.09,0a.18.18,0,0,1-.12-.05.6.6,0,0,0-.4-.22h-.06c-.19,0-.35.17-.51.35l-.56.66V63a.1.1,0,0,1-.11.09h-1.08a.1.1,0,0,1-.1-.09v-3.7a.1.1,0,0,1,.1-.08h.63c.07,0,.15,0,.16.08l.28.72.31-.37a1.4,1.4,0,0,1,1.18-.55Z" style="fill:#231f20"/><path d="M132,60.06a.1.1,0,0,1-.1.09h-2.07c-.17,0-.27.06-.27.19s.24.21.51.24l.92.12c.85.12,1.38.46,1.38,1.18V62c0,.67-.63,1.1-1.47,1.1h-2.45a.1.1,0,0,1-.11-.09v-.76a.11.11,0,0,1,.11-.1h2.35c.16,0,.28-.07.28-.2s-.16-.22-.56-.28l-.86-.12c-.79-.11-1.38-.37-1.38-1.14v-.11c0-.66.58-1.07,1.51-1.07h2.11a.1.1,0,0,1,.1.09Z" style="fill:#231f20"/><path d="M142.24,63a.15.15,0,0,1-.17.12h-2a.16.16,0,0,1-.18-.12l-.5-1.83a11.7,11.7,0,0,1-.35-1.58,13.5,13.5,0,0,1-.34,1.58L138.22,63c0,.08-.08.12-.17.12h-2c-.09,0-.16,0-.17-.12l-1-5.18a.58.58,0,0,1,0-.1c0-.06,0-.08.12-.08h1.13c.11,0,.17,0,.18.11l.87,4.86a11.51,11.51,0,0,1,.36-1.6l.55-1.88a.18.18,0,0,1,.19-.11h1.6c.1,0,.17,0,.19.11l.56,1.9a8,8,0,0,1,.35,1.59l.87-4.87c0-.07.07-.11.18-.11h1.15c.07,0,.11,0,.11.06a1.65,1.65,0,0,1,0,.22Z" style="fill:#231f20"/><path d="M148.2,63s-.06.09-.12.09H147c-.05,0-.11,0-.11-.09V60.33a.29.29,0,0,0-.32-.3h-.06c-.2,0-.38.14-.65.4l-.79.77V63a.09.09,0,0,1-.1.09h-1.08a.09.09,0,0,1-.1-.09V57.53a.09.09,0,0,1,.1-.09H145a.09.09,0,0,1,.1.09v2.53l.26-.27a1.6,1.6,0,0,1,1.39-.7h.13a1.17,1.17,0,0,1,1.33,1.24Z" style="fill:#231f20"/><path d="M153.53,61.58c0,1.07-.82,1.62-2,1.62h-.52c-1.14,0-2-.55-2-1.62V60.7c0-1.06.82-1.61,2-1.61h.52c1.14,0,2,.55,2,1.61Zm-1.28-.89c0-.43-.36-.66-.79-.66h-.3c-.43,0-.79.23-.79.66v.89c0,.44.36.67.79.67h.3c.43,0,.79-.23.79-.67Z" style="fill:#231f20"/><path d="M97.43,72.59a.1.1,0,0,1-.11.09H96.19s-.11,0-.11-.09V70.33H93.42v2.26a.09.09,0,0,1-.1.09H92.18a.1.1,0,0,1-.11-.09V67.3a.11.11,0,0,1,.11-.1h1.14a.1.1,0,0,1,.1.1v2h2.66v-2a.12.12,0,0,1,.11-.1h1.13a.11.11,0,0,1,.11.1Z" style="fill:#231f20"/><path d="M98.46,70.09c0-.92.76-1.4,1.79-1.4h.07a3.23,3.23,0,0,1,1.52.4l.14-.2a.16.16,0,0,1,.16-.08h.62a.09.09,0,0,1,.1.09v3.69a.09.09,0,0,1-.1.09h-1.08a.09.09,0,0,1-.1-.09v-.75l-.26.3a1.62,1.62,0,0,1-1.39.66H99.8a1.18,1.18,0,0,1-1.34-1.24Zm3.12.6v-.84a2.54,2.54,0,0,0-1-.22h-.14a.63.63,0,0,0-.69.64v1.29a.3.3,0,0,0,.33.29h.06c.2,0,.38-.16.63-.4Z" style="fill:#231f20"/><path d="M106.82,72.59a.13.13,0,0,1-.14.09h-1.52a.14.14,0,0,1-.14-.09L103.56,69a.26.26,0,0,1,0-.1s0-.08.11-.08h1.16c.09,0,.11,0,.15.12l.56,1.56a11.81,11.81,0,0,1,.42,1.45,8.79,8.79,0,0,1,.42-1.45l.56-1.56c0-.09.08-.12.17-.12h1.12c.08,0,.12,0,.12.08s0,.08,0,.12Z" style="fill:#231f20"/><path d="M109.86,71.16a.67.67,0,0,0,.75.57h2.06a.1.1,0,0,1,.1.1v.76a.09.09,0,0,1-.1.09h-2.1c-1.14,0-2-.56-2-1.62V70.3c0-1.06.82-1.61,2-1.61h.52c1.1,0,1.94.53,1.94,1.48v.1a.18.18,0,0,1-.1.19l-.81.59a.5.5,0,0,1-.28.11Zm.77-1.53c-.47,0-.75.22-.77.62h1.93c0-.4-.28-.62-.73-.62Z" style="fill:#231f20"/><path d="M118.22,72.59a.1.1,0,0,1-.11.09h-1.06a.1.1,0,0,1-.11-.09V69.93a.29.29,0,0,0-.32-.3h-.07c-.19,0-.37.16-.62.4l-.81.77v1.79a.1.1,0,0,1-.1.09h-1.09a.1.1,0,0,1-.1-.09V68.9a.1.1,0,0,1,.1-.09H115a.1.1,0,0,1,.1.09v.75l.26-.31a1.6,1.6,0,0,1,1.39-.65h.13a1.16,1.16,0,0,1,1.32,1.24Z" style="fill:#231f20"/><path d="M120.8,67.88l-.35.92a.13.13,0,0,1-.12.09h-.93a.1.1,0,0,1-.1-.09v-2a.1.1,0,0,1,.1-.09h1.36a.1.1,0,0,1,.11.09v.86A.6.6,0,0,1,120.8,67.88Z" style="fill:#231f20"/><path d="M124.87,72.59a.1.1,0,0,1-.11.09h-.92c-.85,0-1.42-.39-1.42-1.21V69.79l-1-.18c-.06,0-.11,0-.11-.1V68.9a.1.1,0,0,1,.11-.09h1v-.39a.17.17,0,0,1,.12-.18l.92-.41.11,0c.08,0,.14,0,.14.1v.9h1.07c.06,0,.12,0,.12.09v.8s-.06.09-.12.09h-1.07v1.58c0,.22.13.36.41.36h.64a.1.1,0,0,1,.11.09Z" style="fill:#231f20"/><path d="M132.79,69a1.66,1.66,0,0,1-1.38,1.54l1.39,2s0,.07,0,.11a.08.08,0,0,1-.08.07H131.5a.2.2,0,0,1-.18-.09l-1.2-1.93h-1v1.93a.09.09,0,0,1-.1.09h-1.15a.1.1,0,0,1-.1-.09V67.3a.11.11,0,0,1,.1-.1h2.86c1.3,0,2,.66,2,1.69Zm-1.35-.17c0-.4-.32-.64-.86-.64h-1.44v1.46h1.35c.55,0,.95-.21.95-.61Z" style="fill:#231f20"/><path d="M134.54,71.16a.67.67,0,0,0,.75.57h2.06a.1.1,0,0,1,.1.1v.76a.09.09,0,0,1-.1.09h-2.1c-1.14,0-2-.56-2-1.62V70.3c0-1.06.82-1.61,2-1.61h.52c1.1,0,1.94.53,1.94,1.48v.1a.18.18,0,0,1-.1.19l-.81.59a.5.5,0,0,1-.28.11Zm.77-1.53c-.47,0-.75.22-.77.62h1.92c0-.4-.27-.62-.72-.62Z" style="fill:#231f20"/><path d="M138.32,70.09c0-.92.76-1.4,1.79-1.4h.07a3.23,3.23,0,0,1,1.52.4l.14-.2a.16.16,0,0,1,.16-.08h.62a.09.09,0,0,1,.1.09v3.69a.09.09,0,0,1-.1.09h-1.08a.09.09,0,0,1-.1-.09v-.75l-.26.3a1.62,1.62,0,0,1-1.39.66h-.13a1.18,1.18,0,0,1-1.34-1.24Zm3.12.6v-.84a2.54,2.54,0,0,0-1-.22h-.14a.63.63,0,0,0-.69.64v1.29a.3.3,0,0,0,.33.29H140c.2,0,.38-.16.63-.4Z" style="fill:#231f20"/><path d="M143.66,70.09c0-.92.76-1.4,1.78-1.4h.08a3.25,3.25,0,0,1,1.26.27V67.13a.09.09,0,0,1,.1-.09H148a.1.1,0,0,1,.1.09v5.46a.1.1,0,0,1-.1.09h-1.08a.09.09,0,0,1-.1-.09v-.75l-.27.3a1.61,1.61,0,0,1-1.39.66H145a1.17,1.17,0,0,1-1.33-1.24Zm1.61,1.76h.07c.2,0,.37-.16.62-.4l.82-.76v-.84a2.58,2.58,0,0,0-1-.22h-.14a.63.63,0,0,0-.69.64v1.29A.3.3,0,0,0,145.27,71.85Z" style="fill:#231f20"/><path d="M90.16,82.19a.09.09,0,0,1-.1.09H88.91a.1.1,0,0,1-.1-.09V76.9a.11.11,0,0,1,.1-.1h1.15a.1.1,0,0,1,.1.1Zm2.19-5.29a.18.18,0,0,1,.16-.1h1.4s.07,0,.07.06a.1.1,0,0,1,0,.08l-2.25,2.38,2.51,2.85s0,0,0,.06,0,0-.07,0H92.71a.23.23,0,0,1-.18-.09l-2.36-2.88Z" style="fill:#231f20"/><path d="M94.27,79.69c0-.92.76-1.4,1.78-1.4h.08a3.29,3.29,0,0,1,1.52.4l.14-.2a.15.15,0,0,1,.15-.08h.63a.1.1,0,0,1,.1.09v3.69a.1.1,0,0,1-.1.09H97.49a.1.1,0,0,1-.11-.09v-.75l-.26.3a1.58,1.58,0,0,1-1.39.66H95.6a1.17,1.17,0,0,1-1.33-1.24Zm3.11.6v-.84a2.49,2.49,0,0,0-1-.22h-.14a.63.63,0,0,0-.69.64v1.29a.3.3,0,0,0,.32.29H96c.19,0,.37-.16.62-.4Z" style="fill:#231f20"/><path d="M100.22,77.85c0-.82.57-1.21,1.42-1.21h1.07a.09.09,0,0,1,.1.09v.77a.09.09,0,0,1-.1.08h-.79c-.28,0-.41.15-.41.36v.47h1c.05,0,.11,0,.11.09v.8s-.06.09-.11.09h-1v2.8a.1.1,0,0,1-.1.09h-1.08a.1.1,0,0,1-.11-.09v-2.8l-1-.18s-.1,0-.1-.1V78.5a.1.1,0,0,1,.1-.09h1Z" style="fill:#231f20"/><path d="M107.94,82.13s0,.06,0,.09,0,.06-.08.06h-1.34a.17.17,0,0,1-.15-.07L104.57,80v2.15a.1.1,0,0,1-.1.09h-1.08a.1.1,0,0,1-.11-.09V76.74a.11.11,0,0,1,.11-.1h1.08a.11.11,0,0,1,.1.1V80l1.63-1.54a.2.2,0,0,1,.15-.06h1.32s.09,0,.09.07,0,0-.07.09L106,80Z" style="fill:#231f20"/><path d="M108.12,79.69c0-.92.75-1.4,1.78-1.4H110a3.23,3.23,0,0,1,1.52.4l.14-.2a.17.17,0,0,1,.16-.08h.63a.1.1,0,0,1,.1.09v3.69a.1.1,0,0,1-.1.09h-1.09a.1.1,0,0,1-.1-.09v-.75l-.26.3a1.58,1.58,0,0,1-1.39.66h-.13a1.17,1.17,0,0,1-1.33-1.24Zm3.11.6v-.84a2.5,2.5,0,0,0-1-.22h-.14a.63.63,0,0,0-.69.64v1.29a.3.3,0,0,0,.33.29h.07c.19,0,.37-.16.62-.4Z" style="fill:#231f20"/><path d="M121.18,82.12s0,0,0,.06,0,.1-.09.1h-1.2a.18.18,0,0,1-.19-.11L119.29,81H117l-.42,1.16a.18.18,0,0,1-.19.11h-1.2a.09.09,0,0,1-.09-.09.19.19,0,0,1,0-.07l2-5.2a.16.16,0,0,1,.17-.12H119a.16.16,0,0,1,.17.12ZM117.33,80h1.6l-.37-1a9.78,9.78,0,0,1-.42-1.52c-.11.44-.25,1-.43,1.52Z" style="fill:#231f20"/><path d="M124,82.19a.09.09,0,0,1-.1.09H123c-.85,0-1.42-.39-1.42-1.21V76.74a.11.11,0,0,1,.1-.1h1.08a.11.11,0,0,1,.11.1V81c0,.22.13.36.41.36h.64a.09.09,0,0,1,.1.09Z" style="fill:#231f20"/><path d="M128.21,79.26a.09.09,0,0,1-.1.09h-2.06c-.18,0-.27.06-.27.19s.23.21.5.24l.93.12c.84.12,1.38.46,1.38,1.18v.1c0,.67-.64,1.1-1.48,1.1h-2.45a.09.09,0,0,1-.1-.09v-.76a.1.1,0,0,1,.1-.1H127c.16,0,.28-.07.28-.2s-.17-.22-.56-.28l-.87-.12c-.78-.11-1.38-.37-1.38-1.14v-.11c0-.66.58-1.07,1.51-1.07h2.11a.1.1,0,0,1,.1.09Z" style="fill:#231f20"/><path d="M133.64,80.78c0,1.07-.82,1.62-2,1.62h-.51c-1.14,0-2-.55-2-1.62V79.9c0-1.06.83-1.61,2-1.61h.51c1.15,0,2,.55,2,1.61Zm-1.29-.89c0-.43-.35-.66-.78-.66h-.31a.69.69,0,0,0-.78.66v.89a.69.69,0,0,0,.78.67h.31a.69.69,0,0,0,.78-.67Z" style="fill:#231f20"/><path d="M141,82.19s-.06.09-.12.09h-3.93a.09.09,0,0,1-.1-.09V76.9a.1.1,0,0,1,.1-.1h1.15a.11.11,0,0,1,.1.1v4.3h2.68c.06,0,.12,0,.12.09Z" style="fill:#231f20"/><path d="M143.22,82.19a.1.1,0,0,1-.11.09H142a.1.1,0,0,1-.1-.09V79.38l-1-.17c-.05,0-.1,0-.1-.1V78.5a.1.1,0,0,1,.1-.09h2.17c.06,0,.12,0,.12.09Zm.1-4.73a.11.11,0,0,1-.1.09h-1.3a.11.11,0,0,1-.11-.09v-.92a.11.11,0,0,1,.11-.1h1.3a.11.11,0,0,1,.1.1Z" style="fill:#231f20"/><path d="M149,82.13s.05.06.05.09,0,.06-.09.06h-1.33a.19.19,0,0,1-.16-.07L145.63,80v2.15a.09.09,0,0,1-.1.09h-1.08a.09.09,0,0,1-.1-.09V76.74a.1.1,0,0,1,.1-.1h1.08a.1.1,0,0,1,.1.1V80l1.64-1.54a.17.17,0,0,1,.14-.06h1.33s.08,0,.08.07,0,0-.06.09L147.1,80Z" style="fill:#231f20"/><path d="M150.44,80.76a.67.67,0,0,0,.75.57h2.06a.11.11,0,0,1,.1.1v.76a.1.1,0,0,1-.1.09h-2.1c-1.15,0-2-.55-2-1.62V79.9c0-1.06.82-1.61,2-1.61h.51c1.1,0,2,.53,2,1.48v.1a.2.2,0,0,1-.1.19l-.81.59a.54.54,0,0,1-.28.11Zm.76-1.53c-.46,0-.74.22-.76.62h1.92c0-.4-.28-.62-.73-.62Z" style="fill:#231f20"/><path d="M59,100.54c1-7.87,4.33-14.87,8.33-22.21s17.23-22.66,21.45-26,7.51-5.66,7.51-5.66-15,6-20.62,9.66S62.33,74.67,59,80s-7.33,20.54-7.33,20.54" style="fill:#fff;stroke:#000;stroke-miterlimit:10;stroke-width:2px"/><path d="M39.67,100.54H66.9a0,0,0,0,1,0,0v18.07a7.6,7.6,0,0,1-7.6,7.6h-12a7.6,7.6,0,0,1-7.6-7.6V100.54A0,0,0,0,1,39.67,100.54Z" style="fill:#fff;stroke:#000;stroke-miterlimit:10;stroke-width:2px"/><path d="M199.63,121.66s.86-21.78-.51-35.84-3.83-28.13-4.35-32.59,1.61-20.75,1.78-22.12,6.69,8.51,8.4,13,4.8,22.19,5.32,26,3.6,27.27,3.6,30.7-2.57,21.09-2.57,21.09l-1,4-2.06,6.34-7.72.17Z" style="fill:#fff;stroke:#000;stroke-miterlimit:10;stroke-width:2px"/><path d="M211.43,119.77s-5.83-23.32-8.58-28.47-6.17-16.12-12-21.78-7.89-9.6-12.18-11S165,59.23,162,60.09s-7.21,6.35-7.21,6.35,9.43-4.81,13.38-1.2A152.43,152.43,0,0,1,184.5,82.56c5.66,7.2,11.32,20.75,13.38,24.87s3.94,13.55,5.49,18.18" style="fill:#fff;stroke:#000;stroke-miterlimit:10;stroke-width:2px"/><path d="M205.08,118.92s6.52-28.3,7.89-35.16,11.66-24.36,13.38-27.1,11.15-7.72,11.15-7.72-5.15,10.29-7.38,16.3S225.32,80.33,225,82.9s-2.06,7.55-2.4,9.43-2.75,10.81-3.09,13.21-5.83,14.06-5.83,14.06L210.57,129h-5.32Z" style="fill:#fff;stroke:#000;stroke-miterlimit:10;stroke-width:2px"/><path d="M214.16,133.15c1.2-4.46,14.42-26.91,20.41-33.44,3.77-4.12,11.49-9.95,13.72-10.46S256.86,85,256.86,85s-11.83-3.77-16.63-1-15.61,8.4-19.38,14.41S210.39,116,209.36,119.6s-1.37,9.26-1.72,10.64a10.58,10.58,0,0,0,0,3.43" style="fill:#fff;stroke:#000;stroke-miterlimit:10;stroke-width:2px"/><path d="M207.87,126.81c-1.2-2.75-7.66-18.74-11.87-24.73-3.46-4.94-11.66-13.52-18.18-15.06s-12-2.75-15.77-1.37-10.29,10.8-10.29,10.8,12.34-2.92,18.52.69a64.29,64.29,0,0,1,18.18,16.8c5,6.86,9.6,11.67,10.12,14.58s1,5.15,1,5.15h9.6Z" style="fill:#fff;stroke:#000;stroke-miterlimit:10;stroke-width:2px"/><polyline points="190.81 149 190.81 133 222.81 133 222.81 149" style="fill:#fff;stroke:#000;stroke-miterlimit:10;stroke-width:2px"/></svg>