<svg id="50daabda-f5a6-4b03-beb7-958a4cd4a3eb" data-name="Layer 1" xmlns="http://www.w3.org/2000/svg" viewBox="0 0 270 162.5"><title>ff07-scifi</title><polyline points="26.33 144 26.33 63 71.3 63 71.3 144" style="fill:#fff;stroke:#ababab;stroke-miterlimit:10;stroke-width:2px"/><polyline points="76.89 144 76.89 90.85 113.58 90.85 113.58 144" style="fill:#fff;stroke:#ababab;stroke-miterlimit:10;stroke-width:2px"/><polyline points="119.14 144 119.14 75.67 155.83 75.67 155.83 144" style="fill:#fff;stroke:#ababab;stroke-miterlimit:10;stroke-width:2px"/><polyline points="161.22 144 161.22 81.25 197.91 81.25 197.91 144" style="fill:#fff;stroke:#ababab;stroke-miterlimit:10;stroke-width:2px"/><polyline points="203.31 144 203.31 75.67 240 75.67 240 144" style="fill:#fff;stroke:#ababab;stroke-miterlimit:10;stroke-width:2px"/><rect x="31" y="67.5" width="6" height="8.17" style="fill:#fff;stroke:#ababab;stroke-miterlimit:10;stroke-width:2px"/><rect x="41" y="67.5" width="6" height="8.17" style="fill:#fff;stroke:#ababab;stroke-miterlimit:10;stroke-width:2px"/><rect x="51" y="67.5" width="6" height="8.17" style="fill:#fff;stroke:#ababab;stroke-miterlimit:10;stroke-width:2px"/><rect x="61" y="67.5" width="6" height="8.17" style="fill:#fff;stroke:#ababab;stroke-miterlimit:10;stroke-width:2px"/><rect x="31" y="80.5" width="6" height="8.17" style="fill:#fff;stroke:#ababab;stroke-miterlimit:10;stroke-width:2px"/><rect x="41" y="80.5" width="6" height="8.17" style="fill:#fff;stroke:#ababab;stroke-miterlimit:10;stroke-width:2px"/><rect x="51" y="80.5" width="6" height="8.17" style="fill:#fff;stroke:#ababab;stroke-miterlimit:10;stroke-width:2px"/><rect x="61" y="80.5" width="6" height="8.17" style="fill:#fff;stroke:#ababab;stroke-miterlimit:10;stroke-width:2px"/><rect x="125" y="80.5" width="6" height="8.17" style="fill:#fff;stroke:#ababab;stroke-miterlimit:10;stroke-width:2px"/><rect x="135" y="80.5" width="6" height="8.17" style="fill:#fff;stroke:#ababab;stroke-miterlimit:10;stroke-width:2px"/><rect x="145" y="80.5" width="6" height="8.17" style="fill:#fff;stroke:#ababab;stroke-miterlimit:10;stroke-width:2px"/><rect x="125" y="93.5" width="6" height="8.17" style="fill:#fff;stroke:#ababab;stroke-miterlimit:10;stroke-width:2px"/><rect x="135" y="93.5" width="6" height="8.17" style="fill:#fff;stroke:#ababab;stroke-miterlimit:10;stroke-width:2px"/><rect x="145" y="93.5" width="6" height="8.17" style="fill:#fff;stroke:#ababab;stroke-miterlimit:10;stroke-width:2px"/><rect x="125" y="107.5" width="6" height="8.17" style="fill:#fff;stroke:#ababab;stroke-miterlimit:10;stroke-width:2px"/><rect x="135" y="107.5" width="6" height="8.17" style="fill:#fff;stroke:#ababab;stroke-miterlimit:10;stroke-width:2px"/><rect x="145" y="107.5" width="6" height="8.17" style="fill:#fff;stroke:#ababab;stroke-miterlimit:10;stroke-width:2px"/><rect x="125" y="120.5" width="6" height="8.17" style="fill:#fff;stroke:#ababab;stroke-miterlimit:10;stroke-width:2px"/><rect x="135" y="120.5" width="6" height="8.17" style="fill:#fff;stroke:#ababab;stroke-miterlimit:10;stroke-width:2px"/><rect x="145" y="120.5" width="6" height="8.17" style="fill:#fff;stroke:#ababab;stroke-miterlimit:10;stroke-width:2px"/><rect x="125" y="133.5" width="6" height="8.17" style="fill:#fff;stroke:#ababab;stroke-miterlimit:10;stroke-width:2px"/><rect x="135" y="133.5" width="6" height="8.17" style="fill:#fff;stroke:#ababab;stroke-miterlimit:10;stroke-width:2px"/><rect x="145" y="133.5" width="6" height="8.17" style="fill:#fff;stroke:#ababab;stroke-miterlimit:10;stroke-width:2px"/><rect x="166" y="88.5" width="6" height="8.17" style="fill:#fff;stroke:#ababab;stroke-miterlimit:10;stroke-width:2px"/><rect x="176" y="88.5" width="6" height="8.17" style="fill:#fff;stroke:#ababab;stroke-miterlimit:10;stroke-width:2px"/><rect x="186" y="88.5" width="6" height="8.17" style="fill:#fff;stroke:#ababab;stroke-miterlimit:10;stroke-width:2px"/><rect x="166" y="103.5" width="6" height="8.17" style="fill:#fff;stroke:#ababab;stroke-miterlimit:10;stroke-width:2px"/><rect x="176" y="103.5" width="6" height="8.17" style="fill:#fff;stroke:#ababab;stroke-miterlimit:10;stroke-width:2px"/><rect x="186" y="103.5" width="6" height="8.17" style="fill:#fff;stroke:#ababab;stroke-miterlimit:10;stroke-width:2px"/><rect x="166" y="118.5" width="6" height="8.17" style="fill:#fff;stroke:#ababab;stroke-miterlimit:10;stroke-width:2px"/><rect x="176" y="118.5" width="6" height="8.17" style="fill:#fff;stroke:#ababab;stroke-miterlimit:10;stroke-width:2px"/><rect x="186" y="118.5" width="6" height="8.17" style="fill:#fff;stroke:#ababab;stroke-miterlimit:10;stroke-width:2px"/><rect x="166" y="132.5" width="6" height="8.17" style="fill:#fff;stroke:#ababab;stroke-miterlimit:10;stroke-width:2px"/><rect x="176" y="132.5" width="6" height="8.17" style="fill:#fff;stroke:#ababab;stroke-miterlimit:10;stroke-width:2px"/><rect x="186" y="132.5" width="6" height="8.17" style="fill:#fff;stroke:#ababab;stroke-miterlimit:10;stroke-width:2px"/><rect x="208" y="81.5" width="6" height="9.24" style="fill:#fff;stroke:#ababab;stroke-miterlimit:10;stroke-width:2px"/><rect x="218" y="81.5" width="6" height="9.24" style="fill:#fff;stroke:#ababab;stroke-miterlimit:10;stroke-width:2px"/><rect x="228" y="81.5" width="6" height="9.24" style="fill:#fff;stroke:#ababab;stroke-miterlimit:10;stroke-width:2px"/><rect x="208" y="98.46" width="6" height="9.24" style="fill:#fff;stroke:#ababab;stroke-miterlimit:10;stroke-width:2px"/><rect x="218" y="98.46" width="6" height="9.24" style="fill:#fff;stroke:#ababab;stroke-miterlimit:10;stroke-width:2px"/><rect x="228" y="98.46" width="6" height="9.24" style="fill:#fff;stroke:#ababab;stroke-miterlimit:10;stroke-width:2px"/><rect x="208" y="115.43" width="6" height="9.24" style="fill:#fff;stroke:#ababab;stroke-miterlimit:10;stroke-width:2px"/><rect x="218" y="115.43" width="6" height="9.24" style="fill:#fff;stroke:#ababab;stroke-miterlimit:10;stroke-width:2px"/><rect x="228" y="115.43" width="6" height="9.24" style="fill:#fff;stroke:#ababab;stroke-miterlimit:10;stroke-width:2px"/><rect x="208" y="131.26" width="6" height="9.24" style="fill:#fff;stroke:#ababab;stroke-miterlimit:10;stroke-width:2px"/><rect x="218" y="131.26" width="6" height="9.24" style="fill:#fff;stroke:#ababab;stroke-miterlimit:10;stroke-width:2px"/><rect x="228" y="131.26" width="6" height="9.24" style="fill:#fff;stroke:#ababab;stroke-miterlimit:10;stroke-width:2px"/><rect x="31" y="93.5" width="6" height="8.17" style="fill:#fff;stroke:#ababab;stroke-miterlimit:10;stroke-width:2px"/><rect x="41" y="93.5" width="6" height="8.17" style="fill:#fff;stroke:#ababab;stroke-miterlimit:10;stroke-width:2px"/><rect x="51" y="93.5" width="6" height="8.17" style="fill:#fff;stroke:#ababab;stroke-miterlimit:10;stroke-width:2px"/><rect x="61" y="93.5" width="6" height="8.17" style="fill:#fff;stroke:#ababab;stroke-miterlimit:10;stroke-width:2px"/><rect x="31" y="106.5" width="6" height="8.17" style="fill:#fff;stroke:#ababab;stroke-miterlimit:10;stroke-width:2px"/><rect x="41" y="106.5" width="6" height="8.17" style="fill:#fff;stroke:#ababab;stroke-miterlimit:10;stroke-width:2px"/><rect x="51" y="106.5" width="6" height="8.17" style="fill:#fff;stroke:#ababab;stroke-miterlimit:10;stroke-width:2px"/><rect x="61" y="106.5" width="6" height="8.17" style="fill:#fff;stroke:#ababab;stroke-miterlimit:10;stroke-width:2px"/><rect x="31" y="119.5" width="6" height="8.17" style="fill:#fff;stroke:#ababab;stroke-miterlimit:10;stroke-width:2px"/><rect x="41" y="119.5" width="6" height="8.17" style="fill:#fff;stroke:#ababab;stroke-miterlimit:10;stroke-width:2px"/><rect x="51" y="119.5" width="6" height="8.17" style="fill:#fff;stroke:#ababab;stroke-miterlimit:10;stroke-width:2px"/><rect x="61" y="119.5" width="6" height="8.17" style="fill:#fff;stroke:#ababab;stroke-miterlimit:10;stroke-width:2px"/><rect x="31" y="132.5" width="6" height="8.17" style="fill:#fff;stroke:#ababab;stroke-miterlimit:10;stroke-width:2px"/><rect x="41" y="132.5" width="6" height="8.17" style="fill:#fff;stroke:#ababab;stroke-miterlimit:10;stroke-width:2px"/><rect x="51" y="132.5" width="6" height="8.17" style="fill:#fff;stroke:#ababab;stroke-miterlimit:10;stroke-width:2px"/><rect x="61" y="132.5" width="6" height="8.17" style="fill:#fff;stroke:#ababab;stroke-miterlimit:10;stroke-width:2px"/><rect x="81.25" y="95.75" width="8.66" height="20.25" style="fill:#fff;stroke:#ababab;stroke-miterlimit:10;stroke-width:2px"/><rect x="104.55" y="95.75" width="4.95" height="7.75" style="fill:#fff;stroke:#ababab;stroke-miterlimit:10;stroke-width:2px"/><rect x="95.24" y="95.75" width="4.95" height="7.75" style="fill:#fff;stroke:#ababab;stroke-miterlimit:10;stroke-width:2px"/><rect x="104.55" y="107.75" width="4.95" height="7.75" style="fill:#fff;stroke:#ababab;stroke-miterlimit:10;stroke-width:2px"/><rect x="95.24" y="107.75" width="4.95" height="7.75" style="fill:#fff;stroke:#ababab;stroke-miterlimit:10;stroke-width:2px"/><rect x="82.24" y="120.75" width="4.95" height="7.75" style="fill:#fff;stroke:#ababab;stroke-miterlimit:10;stroke-width:2px"/><rect x="82.24" y="132.75" width="4.95" height="7.75" style="fill:#fff;stroke:#ababab;stroke-miterlimit:10;stroke-width:2px"/><rect x="93.24" y="120.75" width="4.95" height="7.75" style="fill:#fff;stroke:#ababab;stroke-miterlimit:10;stroke-width:2px"/><rect x="93.24" y="132.75" width="4.95" height="7.75" style="fill:#fff;stroke:#ababab;stroke-miterlimit:10;stroke-width:2px"/><rect x="104.24" y="120.75" width="4.95" height="7.75" style="fill:#fff;stroke:#ababab;stroke-miterlimit:10;stroke-width:2px"/><rect x="104.24" y="132.75" width="4.95" height="7.75" style="fill:#fff;stroke:#ababab;stroke-miterlimit:10;stroke-width:2px"/><line x1="120" y1="12" x2="120" y2="149" style="fill:none;stroke:#000;stroke-miterlimit:10;stroke-width:2px"/><path d="M49.67,92S54,52,54,48.67,58.33,34,58.33,34s.34,20.67.34,25S58.33,72.33,58,76s-1.67,17-1.67,17" style="fill:#fff;stroke:#000;stroke-miterlimit:10;stroke-width:2px"/><path d="M46,100s-1-15.67-1-18.67-4-33-5-36,6.33,9.67,7.33,17,3,17,3.67,19.34,4,18.87,4,18.87" style="fill:#fff;stroke:#000;stroke-miterlimit:10;stroke-width:2px"/><line x1="18.5" y1="12" x2="18.5" y2="150" style="fill:none;stroke:#000;stroke-miterlimit:10;stroke-width:2px"/><line x1="10.5" y1="12" x2="10.5" y2="150" style="fill:none;stroke:#000;stroke-miterlimit:10;stroke-width:2px"/><line x1="248" y1="12" x2="248" y2="150" style="fill:none;stroke:#000;stroke-miterlimit:10;stroke-width:2px"/><line x1="256" y1="12" x2="256" y2="150" style="fill:none;stroke:#000;stroke-miterlimit:10;stroke-width:2px"/><polyline points="175.91 149 175.91 126.22 35.5 126.22 35.5 149" style="fill:#fff;stroke:#000;stroke-miterlimit:10;stroke-width:2px"/><rect x="76.08" y="40" width="89.76" height="60.54" rx="2" ry="2" style="fill:#fff;stroke:#000;stroke-miterlimit:10;stroke-width:2px"/><rect x="80.7" y="44.4" width="80.52" height="51.74" style="fill:#f79552;stroke:#000;stroke-miterlimit:10;stroke-width:2px"/><rect x="109.48" y="100.54" width="22.96" height="11.81" style="fill:#fff;stroke:#000;stroke-miterlimit:10;stroke-width:2px"/><path d="M86.46,112.35h69a4,4,0,0,1,4,4v6.75a3,3,0,0,1-3,3h-70a4,4,0,0,1-4-4v-5.75A4,4,0,0,1,86.46,112.35Z" style="fill:#fff;stroke:#000;stroke-miterlimit:10;stroke-width:2px"/><circle cx="89.99" cy="119.28" r="2.21" style="fill:none;stroke:#000;stroke-miterlimit:10;stroke-width:2px"/><circle cx="97.5" cy="119.28" r="2.21" style="fill:none;stroke:#000;stroke-miterlimit:10;stroke-width:2px"/><path d="M93.1,59.45a.1.1,0,0,1-.11.09h-.81a.1.1,0,0,1-.1-.09V58.34H90.85a1.07,1.07,0,0,0-1.21,1.06v1.88a1.07,1.07,0,0,0,1.21,1H93a.11.11,0,0,1,.11.1V63a.1.1,0,0,1-.11.09H90.75a1.88,1.88,0,0,1-2.13-1.8V59.4a1.88,1.88,0,0,1,2.13-1.8H93a.11.11,0,0,1,.11.1Z" style="fill:#231f20"/><path d="M94,59.29s.06-.08.11-.08h.74c.06,0,.11,0,.11.08V62a.46.46,0,0,0,.51.48h.06c.35,0,.55-.2.82-.48l.76-.76V59.29a.09.09,0,0,1,.1-.08H98c.06,0,.11,0,.11.08V63a.1.1,0,0,1-.11.09h-.76a.09.09,0,0,1-.1-.09v-.8l-.41.45a1.49,1.49,0,0,1-1.22.52h-.15c-.89,0-1.33-.44-1.33-1.19Z" style="fill:#231f20"/><path d="M102.53,59.82a.1.1,0,0,1-.1.09h-2c-.28,0-.49.14-.49.37s.17.33.44.38l.94.14c.74.09,1.42.33,1.42,1.08V62c0,.67-.62,1.06-1.46,1.06H99.16a.11.11,0,0,1-.1-.1v-.52a.1.1,0,0,1,.1-.09h2.09c.34,0,.55-.15.55-.39s-.24-.37-.63-.42l-1-.15c-.77-.14-1.16-.53-1.16-1.1V60.2c0-.63.61-1,1.43-1h2a.1.1,0,0,1,.1.09Z" style="fill:#231f20"/><path d="M106.09,63a.09.09,0,0,1-.1.09h-.66c-.84,0-1.35-.4-1.35-1.14V60l-.81-.14c-.06,0-.11,0-.11-.1v-.48s0-.08.11-.08H104v-.4a.17.17,0,0,1,.11-.17l.62-.34a.14.14,0,0,1,.09,0,.13.13,0,0,1,.14.11v.83h1c.06,0,.11,0,.11.08v.62A.1.1,0,0,1,106,60h-1v1.94a.43.43,0,0,0,.47.44H106a.09.09,0,0,1,.1.09Z" style="fill:#231f20"/><path d="M110.82,61.7c0,.95-.76,1.46-1.78,1.46h-.6c-1,0-1.78-.51-1.78-1.46V60.58c0-.94.76-1.45,1.78-1.45h.6c1,0,1.78.51,1.78,1.45Zm-1-1.13c0-.5-.4-.74-1-.74h-.3c-.57,0-1,.24-1,.74V61.7c0,.51.4.75,1,.75h.3c.57,0,1-.24,1-.75Z" style="fill:#231f20"/><path d="M118.26,63s-.06.09-.11.09h-.74a.1.1,0,0,1-.11-.09V60.27c0-.28-.14-.43-.4-.43h-.06c-.24,0-.47.25-.74.52l-.6.63v2a.1.1,0,0,1-.1.09h-.77a.1.1,0,0,1-.1-.09V60.27c0-.28-.14-.43-.4-.43h-.06c-.24,0-.47.25-.73.52l-.61.63v2a.1.1,0,0,1-.1.09h-.77a.1.1,0,0,1-.1-.09v-3.7a.1.1,0,0,1,.1-.08h.77a.1.1,0,0,1,.1.08v.76l.31-.32a1.45,1.45,0,0,1,1.15-.6h.17a1,1,0,0,1,1.12.95l.33-.35a1.45,1.45,0,0,1,1.15-.6h.17a1,1,0,0,1,1.13,1.14Z" style="fill:#231f20"/><path d="M120.11,61.45v.17c0,.51.41.75,1,.75H123a.1.1,0,0,1,.1.1V63a.09.09,0,0,1-.1.09h-2c-1,0-1.78-.52-1.78-1.46v-1c0-.94.76-1.45,1.78-1.45h.56c1,0,1.78.51,1.78,1.36v.37a.22.22,0,0,1-.1.19l-.48.34a.41.41,0,0,1-.28.07Zm0-.7h2.2v-.18c0-.51-.4-.75-1-.75h-.26c-.57,0-1,.24-1,.75Z" style="fill:#231f20"/><path d="M127.67,59.64a.08.08,0,0,1,0,.06l-.62.45s0,0-.08,0l-.07,0a.63.63,0,0,0-.42-.25h-.07c-.23,0-.4.19-.64.46l-.65.75V63a.09.09,0,0,1-.1.09h-.76a.1.1,0,0,1-.11-.09v-3.7s0-.08.11-.08H125a.09.09,0,0,1,.1.08v.82l.35-.4a1.37,1.37,0,0,1,1.1-.58h.09a1.42,1.42,0,0,1,1,.44A.13.13,0,0,1,127.67,59.64Z" style="fill:#231f20"/><path d="M131.43,59.82a.1.1,0,0,1-.11.09h-2c-.28,0-.5.14-.5.37s.18.33.45.38l.94.14c.74.09,1.42.33,1.42,1.08V62c0,.67-.63,1.06-1.46,1.06h-2.15a.1.1,0,0,1-.1-.1v-.52a.09.09,0,0,1,.1-.09h2.09c.33,0,.55-.15.55-.39s-.24-.37-.63-.42l-1-.15c-.78-.14-1.17-.53-1.17-1.1V60.2c0-.63.62-1,1.44-1h2a.1.1,0,0,1,.11.09Z" style="fill:#231f20"/><path d="M140.68,63a.15.15,0,0,1-.17.12h-1.39A.16.16,0,0,1,139,63l-.69-2.27a8.26,8.26,0,0,1-.32-1.14c-.07.35-.2.75-.32,1.14L136.93,63a.17.17,0,0,1-.18.12h-1.38a.15.15,0,0,1-.17-.12l-.86-4.71c-.06-.31-.09-.51-.09-.55s0-.1.11-.1h.75c.1,0,.18,0,.19.11l.85,4.87c.06-.29.24-.92.42-1.47l.65-2a.18.18,0,0,1,.19-.11h1.06a.19.19,0,0,1,.19.11l.65,2c.18.55.35,1.18.42,1.47l.85-4.87c0-.07.08-.11.17-.11h.76c.08,0,.12,0,.12.11s0,.28-.08.49Z" style="fill:#231f20"/><path d="M146.46,63s-.06.09-.12.09h-.73a.1.1,0,0,1-.11-.09V60.32a.46.46,0,0,0-.51-.49h-.06c-.38,0-.59.2-.9.49l-.77.73V63a.1.1,0,0,1-.1.09h-.77a.1.1,0,0,1-.1-.09V57.53a.1.1,0,0,1,.1-.09h.77a.1.1,0,0,1,.1.09v2.6l.38-.4a1.71,1.71,0,0,1,1.34-.6h.15c.89,0,1.33.44,1.33,1.19Z" style="fill:#231f20"/><path d="M151.51,61.7c0,.95-.76,1.46-1.78,1.46h-.6c-1,0-1.78-.51-1.78-1.46V60.58c0-.94.76-1.45,1.78-1.45h.6c1,0,1.78.51,1.78,1.45Zm-1-1.13c0-.5-.4-.74-1-.74h-.3c-.57,0-1,.24-1,.74V61.7c0,.51.4.75,1,.75h.3c.57,0,1-.24,1-.75Z" style="fill:#231f20"/><path d="M98.6,72.59a.1.1,0,0,1-.11.09h-.8s-.11,0-.11-.09V70.17H94.76v2.42a.09.09,0,0,1-.1.09h-.81a.09.09,0,0,1-.1-.09V67.3a.1.1,0,0,1,.1-.1h.81a.1.1,0,0,1,.1.1v2.12h2.82V67.3a.12.12,0,0,1,.11-.1h.8a.11.11,0,0,1,.11.1Z" style="fill:#231f20"/><path d="M103.8,72.59a.1.1,0,0,1-.11.09h-.75s-.11,0-.11-.09v-.83l-.35.39a1.62,1.62,0,0,1-1.34.61H101c-.89,0-1.32-.44-1.32-1.19V70.19c0-1,.7-1.47,1.7-1.47h.1a3.55,3.55,0,0,1,1.39.33V68.9c0-.05.06-.09.11-.09h.75a.1.1,0,0,1,.11.09Zm-1-2.85a3,3,0,0,0-1.27-.32h-.11c-.53,0-.85.27-.85.76V71.6a.45.45,0,0,0,.5.45h.06c.39,0,.59-.2.9-.48l.77-.74Z" style="fill:#231f20"/><path d="M104.54,69.1a1.25,1.25,0,0,1-.07-.21s0-.08.11-.08h.74a.15.15,0,0,1,.17.12l.82,2a9.81,9.81,0,0,1,.34,1.08A8.26,8.26,0,0,1,107,71l.82-2a.15.15,0,0,1,.17-.12h.74c.07,0,.11,0,.11.08a.9.9,0,0,1,0,.16l-1.47,3.54a.13.13,0,0,1-.14.09h-1.06a.12.12,0,0,1-.13-.09Z" style="fill:#231f20"/><path d="M110.14,71.05v.17c0,.51.41.75,1,.75H113a.1.1,0,0,1,.1.1v.52a.09.09,0,0,1-.1.09H111c-1,0-1.78-.51-1.78-1.46v-1c0-.94.76-1.45,1.78-1.45h.56c1,0,1.78.51,1.78,1.36v.37a.22.22,0,0,1-.1.19l-.48.34a.41.41,0,0,1-.28.07Zm0-.7h2.2v-.18c0-.51-.4-.75-1-.75h-.26c-.57,0-1,.24-1,.75Z" style="fill:#231f20"/><path d="M118.31,72.59a.1.1,0,0,1-.11.09h-.74s-.11,0-.11-.09V69.92a.45.45,0,0,0-.5-.49h-.07c-.38,0-.58.2-.89.49l-.78.73v1.94a.09.09,0,0,1-.1.09h-.76a.1.1,0,0,1-.11-.09V68.9a.1.1,0,0,1,.11-.09H115a.09.09,0,0,1,.1.09v.83l.39-.4a1.69,1.69,0,0,1,1.34-.6H117c.88,0,1.32.44,1.32,1.19Z" style="fill:#231f20"/><path d="M120.53,67.77a.49.49,0,0,1-.09.3l-.43.73s-.05.09-.11.09h-.36a.1.1,0,0,1-.11-.09V67.16a.1.1,0,0,1,.11-.09h.88a.1.1,0,0,1,.11.09Z" style="fill:#231f20"/><path d="M124.13,72.59a.1.1,0,0,1-.11.09h-.66c-.84,0-1.35-.4-1.35-1.14V69.61l-.81-.14c-.06,0-.11,0-.11-.1V68.9a.1.1,0,0,1,.11-.09H122v-.39a.18.18,0,0,1,.11-.18l.62-.34a.14.14,0,0,1,.09,0A.13.13,0,0,1,123,68v.83h1c.06,0,.12,0,.12.09v.61s-.06.09-.12.09h-1v1.94a.43.43,0,0,0,.48.44H124a.1.1,0,0,1,.11.09Z" style="fill:#231f20"/><path d="M131.68,69c0,.74-.57,1.26-1.41,1.45l1.46,2.14a.17.17,0,0,1,0,0s0,.07-.1.07h-.88a.2.2,0,0,1-.18-.09l-1.33-2.09H128v2.09a.1.1,0,0,1-.11.09h-.81a.1.1,0,0,1-.1-.09V67.3a.11.11,0,0,1,.1-.1h2.67c1.16,0,1.89.55,1.89,1.51Zm-1-.21c0-.5-.37-.82-1-.82H128v1.81h1.45c.7,0,1.18-.3,1.18-.81Z" style="fill:#231f20"/><path d="M133.22,71.05v.17c0,.51.41.75,1,.75h1.92a.11.11,0,0,1,.1.1v.52a.1.1,0,0,1-.1.09H134c-1,0-1.78-.51-1.78-1.46v-1c0-.94.77-1.45,1.78-1.45h.56c1,0,1.78.51,1.78,1.36v.37a.2.2,0,0,1-.1.19l-.47.34a.44.44,0,0,1-.28.07Zm0-.7h2.2v-.18c0-.51-.4-.75-1-.75h-.27c-.57,0-1,.24-1,.75Z" style="fill:#231f20"/><path d="M141.28,72.59a.1.1,0,0,1-.11.09h-.74c-.06,0-.12,0-.12-.09v-.83l-.35.39a1.61,1.61,0,0,1-1.34.61h-.18c-.89,0-1.32-.44-1.32-1.19V70.19c0-1,.7-1.47,1.7-1.47h.1a3.5,3.5,0,0,1,1.39.33V68.9c0-.05.06-.09.12-.09h.74a.1.1,0,0,1,.11.09Zm-1-2.85a3,3,0,0,0-1.26-.32h-.12c-.53,0-.85.27-.85.76V71.6a.45.45,0,0,0,.5.45h.06c.39,0,.59-.2.9-.48l.77-.74Z" style="fill:#231f20"/><path d="M146.39,72.59s-.06.09-.12.09h-.74a.1.1,0,0,1-.11-.09v-.83l-.36.39a1.59,1.59,0,0,1-1.34.61h-.18c-.88,0-1.32-.44-1.32-1.19V70.19c0-1,.71-1.47,1.71-1.47h.1a3.59,3.59,0,0,1,1.39.33V67.14a.11.11,0,0,1,.11-.1h.74a.12.12,0,0,1,.12.1Zm-1-2.85a3,3,0,0,0-1.27-.32H144c-.53,0-.86.27-.86.76V71.6a.45.45,0,0,0,.5.45h.07a1.25,1.25,0,0,0,.89-.48l.78-.74Z" style="fill:#231f20"/><path d="M92.36,82.19a.1.1,0,0,1-.1.09h-.81a.09.09,0,0,1-.1-.09V76.9a.1.1,0,0,1,.1-.1h.81a.11.11,0,0,1,.1.1Zm4.08,0a.11.11,0,0,1,0,0,.06.06,0,0,1-.06.06H95.29a.24.24,0,0,1-.18-.09l-2.56-2.83L94.9,76.9a.18.18,0,0,1,.16-.1h1s.07,0,.07.06,0,.08-.12.16l-2.26,2.34Z" style="fill:#231f20"/><path d="M100.73,82.19s-.06.09-.11.09h-.75a.1.1,0,0,1-.11-.09v-.83l-.36.39a1.59,1.59,0,0,1-1.34.61h-.18c-.88,0-1.32-.44-1.32-1.19V79.79c0-1,.71-1.47,1.71-1.47h.1a3.59,3.59,0,0,1,1.39.33V78.5a.11.11,0,0,1,.11-.09h.75s.11,0,.11.09Zm-1-2.85A3,3,0,0,0,98.49,79h-.11c-.53,0-.86.27-.86.76V81.2a.45.45,0,0,0,.5.45h.07a1.25,1.25,0,0,0,.89-.48l.78-.74Z" style="fill:#231f20"/><path d="M104.62,77.25s-.06.09-.11.09h-.75a.43.43,0,0,0-.47.44v.63h1c.06,0,.12,0,.12.09v.61s-.06.09-.12.09h-1v3a.1.1,0,0,1-.11.09h-.75a.09.09,0,0,1-.1-.09v-3l-.94-.17a.12.12,0,0,1-.1-.1V78.5a.1.1,0,0,1,.1-.09h.94v-.63c0-.74.51-1.14,1.35-1.14h.83a.12.12,0,0,1,.11.1Z" style="fill:#231f20"/><path d="M109,82.17a.07.07,0,0,1,0,0s0,.06-.09.06H108a.2.2,0,0,1-.16-.07L106,80v2.16a.09.09,0,0,1-.1.09h-.75a.1.1,0,0,1-.11-.09V76.74a.11.11,0,0,1,.11-.1h.75a.1.1,0,0,1,.1.1V80l1.68-1.51a.23.23,0,0,1,.15-.06h1a.09.09,0,0,1,.09.08.07.07,0,0,1,0,.06L107.07,80Z" style="fill:#231f20"/><path d="M113.4,82.19s-.06.09-.11.09h-.75c-.05,0-.11,0-.11-.09v-.83l-.35.39a1.63,1.63,0,0,1-1.35.61h-.17c-.89,0-1.33-.44-1.33-1.19V79.79c0-1,.71-1.47,1.71-1.47h.1a3.59,3.59,0,0,1,1.39.33V78.5s.06-.09.11-.09h.75s.11,0,.11.09Zm-1-2.85a3,3,0,0,0-1.27-.32h-.11c-.53,0-.86.27-.86.76V81.2a.45.45,0,0,0,.51.45h.06a1.29,1.29,0,0,0,.9-.48l.77-.74Z" style="fill:#231f20"/><path d="M121.53,81.81a2.53,2.53,0,0,1,.14.36c0,.06,0,.11-.09.11h-.78a.19.19,0,0,1-.19-.11l-.49-1.3h-2.6l-.5,1.3a.18.18,0,0,1-.18.11h-.79a.08.08,0,0,1-.09-.08.19.19,0,0,1,0-.08l2-5.2a.16.16,0,0,1,.17-.12h1.28a.16.16,0,0,1,.17.12Zm-3.73-1.68h2l-1-2.67Z" style="fill:#231f20"/><path d="M124.1,82.19a.09.09,0,0,1-.1.09h-.57c-.84,0-1.35-.4-1.35-1.14v-4.4a.11.11,0,0,1,.1-.1h.76a.11.11,0,0,1,.1.1v4.4a.44.44,0,0,0,.48.44H124a.09.09,0,0,1,.1.09Z" style="fill:#231f20"/><path d="M128,79a.1.1,0,0,1-.1.09h-2c-.28,0-.49.14-.49.37s.17.33.45.38l.94.14c.73.09,1.41.33,1.41,1.08v.14c0,.67-.62,1.06-1.46,1.06h-2.14a.11.11,0,0,1-.11-.1v-.52a.1.1,0,0,1,.11-.09h2.08c.34,0,.55-.15.55-.39s-.24-.37-.63-.42l-1-.15c-.77-.14-1.16-.53-1.16-1.1V79.4c0-.63.61-1,1.43-1h2a.11.11,0,0,1,.1.09Z" style="fill:#231f20"/><path d="M133,80.9c0,.95-.76,1.46-1.78,1.46h-.61c-1,0-1.78-.51-1.78-1.46V79.78c0-.94.77-1.45,1.78-1.45h.61c1,0,1.78.51,1.78,1.45Zm-1-1.13c0-.5-.4-.74-1-.74h-.31c-.57,0-1,.24-1,.74V80.9c0,.51.4.75,1,.75h.31c.57,0,1-.24,1-.75Z" style="fill:#231f20"/><path d="M139.84,82.19a.1.1,0,0,1-.11.09h-3.41a.09.09,0,0,1-.1-.09V76.9a.1.1,0,0,1,.1-.1h.81a.1.1,0,0,1,.1.1v4.58h2.5a.1.1,0,0,1,.11.09Z" style="fill:#231f20"/><path d="M141.58,82.19s-.06.09-.11.09h-.75c-.05,0-.11,0-.11-.09v-3l-1-.17a.12.12,0,0,1-.1-.1V78.5a.1.1,0,0,1,.1-.09h1.85c.05,0,.11,0,.11.09Zm.09-4.81a.1.1,0,0,1-.1.09h-.94a.11.11,0,0,1-.11-.09v-.76a.11.11,0,0,1,.11-.1h.94a.1.1,0,0,1,.1.1Z" style="fill:#231f20"/><path d="M146.71,82.17a.07.07,0,0,1,0,0s0,.06-.1.06h-.93a.22.22,0,0,1-.16-.07L143.65,80v2.16a.1.1,0,0,1-.1.09h-.76a.1.1,0,0,1-.1-.09V76.74a.11.11,0,0,1,.1-.1h.76a.11.11,0,0,1,.1.1V80l1.68-1.51a.21.21,0,0,1,.15-.06h1a.08.08,0,0,1,.08.08.09.09,0,0,1,0,.06L144.75,80Z" style="fill:#231f20"/><path d="M147.87,80.65v.17c0,.51.41.75,1,.75h1.91a.1.1,0,0,1,.1.1v.52a.09.09,0,0,1-.1.09h-2.05c-1,0-1.78-.51-1.78-1.46v-1c0-.94.76-1.45,1.78-1.45h.56c1,0,1.78.51,1.78,1.36v.37a.22.22,0,0,1-.1.19l-.48.34a.42.42,0,0,1-.28.07Zm0-.7h2.2v-.18c0-.51-.4-.75-1-.75h-.26c-.57,0-1,.24-1,.75Z" style="fill:#231f20"/><path d="M59,100.54c1-7.87,4.33-14.87,8.33-22.21s17.23-22.66,21.45-26,7.51-5.66,7.51-5.66-15,6-20.62,9.66S62.33,74.67,59,80s-7.33,20.54-7.33,20.54" style="fill:#fff;stroke:#000;stroke-miterlimit:10;stroke-width:2px"/><path d="M39.67,100.54H66.9a0,0,0,0,1,0,0v18.07a7.6,7.6,0,0,1-7.6,7.6h-12a7.6,7.6,0,0,1-7.6-7.6V100.54A0,0,0,0,1,39.67,100.54Z" style="fill:#fff;stroke:#000;stroke-miterlimit:10;stroke-width:2px"/><path d="M199.63,121.66s.86-21.78-.51-35.84-3.83-28.13-4.35-32.59,1.61-20.75,1.78-22.12,6.69,8.51,8.4,13,4.8,22.19,5.32,26,3.6,27.27,3.6,30.7-2.57,21.09-2.57,21.09l-1,4-2.06,6.34-7.72.17Z" style="fill:#fff;stroke:#000;stroke-miterlimit:10;stroke-width:2px"/><path d="M211.43,119.77s-5.83-23.32-8.58-28.47-6.17-16.12-12-21.78-7.89-9.6-12.18-11S165,59.23,162,60.09s-7.21,6.35-7.21,6.35,9.43-4.81,13.38-1.2A152.43,152.43,0,0,1,184.5,82.56c5.66,7.2,11.32,20.75,13.38,24.87s3.94,13.55,5.49,18.18" style="fill:#fff;stroke:#000;stroke-miterlimit:10;stroke-width:2px"/><path d="M205.08,118.92s6.52-28.3,7.89-35.16,11.66-24.36,13.38-27.1,11.15-7.72,11.15-7.72-5.15,10.29-7.38,16.3S225.32,80.33,225,82.9s-2.06,7.55-2.4,9.43-2.75,10.81-3.09,13.21-5.83,14.06-5.83,14.06L210.57,129h-5.32Z" style="fill:#fff;stroke:#000;stroke-miterlimit:10;stroke-width:2px"/><path d="M214.16,133.15c1.2-4.46,14.42-26.91,20.41-33.44,3.77-4.12,11.49-9.95,13.72-10.46S256.86,85,256.86,85s-11.83-3.77-16.63-1-15.61,8.4-19.38,14.41S210.39,116,209.36,119.6s-1.37,9.26-1.72,10.64a10.58,10.58,0,0,0,0,3.43" style="fill:#fff;stroke:#000;stroke-miterlimit:10;stroke-width:2px"/><path d="M207.87,126.81c-1.2-2.75-7.66-18.74-11.87-24.73-3.46-4.94-11.66-13.52-18.18-15.06s-12-2.75-15.77-1.37-10.29,10.8-10.29,10.8,12.34-2.92,18.52.69a64.29,64.29,0,0,1,18.18,16.8c5,6.86,9.6,11.67,10.12,14.58s1,5.15,1,5.15h9.6Z" style="fill:#fff;stroke:#000;stroke-miterlimit:10;stroke-width:2px"/><polyline points="190.81 149 190.81 133 222.81 133 222.81 149" style="fill:#fff;stroke:#000;stroke-miterlimit:10;stroke-width:2px"/></svg>