<svg id="935f1b73-41dd-4224-a294-69a1e48ff0d6" data-name="Layer 1" xmlns="http://www.w3.org/2000/svg" viewBox="0 0 270 99.5"><title>ff07-scifi</title><path d="M177,51c1.36-6.78-1.67-22.84-5.17-25s-13.7-1.09-15.54-3.46S148.18,15,143.5,15.14s-10,7.1-16.87,10.75-11.6-3.61-16.95,2.76-7.18,17.56-6,22.29,2.84,10,8.69,9.65,8.85-2,12.53,3.67,4.67,8.35,10.69,8.54,10.69.22,13.36-3.06,6-5.48,10.19-4.75,7.68,2.55,11.19-1.09A27.36,27.36,0,0,0,177,51Z" style="fill:#fff;stroke:#000;stroke-miterlimit:10;stroke-width:2px"/><path d="M46.33,51.33c8-9.33,67-17.5,98.78-9.22" style="fill:none;stroke:#f79552;stroke-miterlimit:10;stroke-width:2px"/><circle cx="145.11" cy="42.11" r="2.65" style="fill:#231f20"/><rect x="6" y="10.5" width="45.5" height="45.5" style="fill:#fff;stroke:#000;stroke-miterlimit:10;stroke-width:2px"/><rect x="6" y="10.5" width="45.5" height="45.5" style="fill:none;stroke:#000;stroke-miterlimit:10;stroke-width:2px"/><path d="M16.29,17.66a.1.1,0,0,1-.11.09H14.42l0,5a.1.1,0,0,1-.1.1h-.8s-.11,0-.11-.09l0-5H11.64c-.05,0-.11,0-.11-.09V17a.12.12,0,0,1,.11-.11h4.54a.11.11,0,0,1,.11.1Z" style="fill:#231f20"/><path d="M20.07,21.33a1.57,1.57,0,0,1-1.76,1.59h-.6a1.56,1.56,0,0,1-1.77-1.57V20.13a1.58,1.58,0,0,1,1.76-1.6h.6a1.57,1.57,0,0,1,1.77,1.58Zm-1-1.23c0-.55-.4-.81-1-.8h-.31c-.56,0-1,.26-1,.81v1.23c0,.56.4.82,1,.82h.31c.56,0,1-.27,1-.83Z" style="fill:#231f20"/><path d="M27.44,22.7a.11.11,0,0,1-.11.1H26.6a.11.11,0,0,1-.11-.1v-3c0-.3-.14-.47-.4-.47H26c-.24,0-.47.27-.73.57l-.59.69v2.18a.11.11,0,0,1-.11.1h-.75a.1.1,0,0,1-.11-.09v-3c0-.3-.14-.47-.4-.47h0c-.24,0-.47.28-.73.57l-.6.69v2.18a.1.1,0,0,1-.1.1H21.1a.09.09,0,0,1-.1-.09l0-4a.1.1,0,0,1,.1-.09h.76a.11.11,0,0,1,.1.1v.83l.3-.35a1.41,1.41,0,0,1,1.14-.67h.17a1,1,0,0,1,1.11,1l.33-.38a1.41,1.41,0,0,1,1.14-.66h.17c.7,0,1.12.42,1.12,1.24Z" style="fill:#231f20"/><path d="M18.25,33.17a.15.15,0,0,1-.16.13H16.71a.18.18,0,0,1-.18-.14l-.69-2.46c-.12-.42-.25-.86-.32-1.24a11.22,11.22,0,0,1-.31,1.24l-.67,2.47a.17.17,0,0,1-.18.13H13a.15.15,0,0,1-.16-.13l-.88-5.13c0-.33-.09-.55-.09-.59s0-.11.11-.11h.75c.09,0,.18,0,.18.13l.87,5.3c.06-.33.23-1,.41-1.61l.64-2.2a.18.18,0,0,1,.18-.12h1a.18.18,0,0,1,.19.12l.66,2.19c.17.6.35,1.28.42,1.6l.82-5.31c0-.08.08-.12.17-.12h.75c.09,0,.12,0,.12.12s0,.3-.08.53Z" style="fill:#231f20"/><path d="M23.7,33.18a.12.12,0,0,1-.11.1h-.74a.11.11,0,0,1-.12-.1v-.9l-.35.43a1.54,1.54,0,0,1-1.33.66h-.17a1.17,1.17,0,0,1-1.32-1.29v-1.5A1.51,1.51,0,0,1,21.24,29h.1a3.34,3.34,0,0,1,1.38.36v-.16a.12.12,0,0,1,.11-.11h.74a.12.12,0,0,1,.11.1Zm-1-3.1a2.79,2.79,0,0,0-1.26-.34h-.11a.76.76,0,0,0-.85.83v1.54a.47.47,0,0,0,.5.5h.07c.38,0,.58-.22.88-.54l.77-.8Z" style="fill:#231f20"/><path d="M26.29,33.17s-.05.09-.11.1h-.74a.11.11,0,0,1-.11-.1v-3.3l-1-.18a.12.12,0,0,1-.1-.1v-.44a.1.1,0,0,1,.1-.09h1.83a.1.1,0,0,1,.11.09Zm.07-5.25a.1.1,0,0,1-.1.11h-.93a.11.11,0,0,1-.11-.1V27.1a.12.12,0,0,1,.11-.1h.94a.11.11,0,0,1,.1.11Z" style="fill:#231f20"/><path d="M29.79,33.15a.09.09,0,0,1-.1.1H29A1.17,1.17,0,0,1,27.69,32v-2.1l-.8-.15c-.06,0-.12-.05-.12-.1v-.53c0-.05.06-.09.11-.09h.81v-.42a.19.19,0,0,1,.11-.2l.6-.37a.19.19,0,0,1,.1,0,.13.13,0,0,1,.14.12V29h1a.12.12,0,0,1,.11.1v.67a.12.12,0,0,1-.11.1h-1V32a.44.44,0,0,0,.48.47h.57a.11.11,0,0,1,.1.1Z" style="fill:#231f20"/><path d="M33.56,29.69a.1.1,0,0,1-.1.09H31.51c-.28,0-.49.15-.49.41s.18.36.44.41l.94.15c.73.1,1.41.36,1.41,1.17v.15c0,.73-.61,1.16-1.45,1.16H30.24a.11.11,0,0,1-.11-.11v-.56a.11.11,0,0,1,.1-.1h2.08c.33,0,.54-.17.54-.43s-.24-.4-.63-.46l-1-.16c-.77-.14-1.16-.57-1.16-1.19v-.12c0-.69.6-1.08,1.42-1.08h2a.11.11,0,0,1,.1.1Z" style="fill:#231f20"/><rect x="42.33" y="23" width="45.5" height="45.5" style="fill:#fff;stroke:#000;stroke-miterlimit:10;stroke-width:2px"/><rect x="63.58" y="22.25" width="14.25" height="46.5" style="fill:#e18453"/><rect x="42.33" y="23" width="45.5" height="45.5" style="fill:#fff;stroke:#000;stroke-miterlimit:10;stroke-width:2px"/><rect x="42.33" y="23" width="45.5" height="45.5" style="fill:none;stroke:#000;stroke-miterlimit:10;stroke-width:2px"/><path d="M63.82,38.75a.12.12,0,0,1-.14,0l-3.36-1.55a.1.1,0,0,1,0-.13l2.42-5.24a.11.11,0,0,1,.13-.05l3.35,1.55a.12.12,0,0,1,.06.14l-.26.55a.11.11,0,0,1-.14,0l-2.52-1.16-.69,1.49,2.52,1.17a.1.1,0,0,1,.06.13l-.25.55a.11.11,0,0,1-.14,0l-2.53-1.16-.79,1.72L64,38.05s.08.09,0,.13Z" style="fill:#231f20"/><path d="M68.41,40.86a.11.11,0,0,1-.15,0l-.66-.3a.12.12,0,0,1-.06-.14l1.22-2.64a.48.48,0,0,0-.23-.69l-.06,0c-.34-.16-.62-.05-1,.11l-1,.41-.88,1.91a.11.11,0,0,1-.14,0l-.69-.32a.1.1,0,0,1,0-.13l1.69-3.65a.1.1,0,0,1,.13,0l.69.32a.1.1,0,0,1,0,.13l-.38.82.52-.23a1.6,1.6,0,0,1,1.49,0l.14.06a1.17,1.17,0,0,1,.64,1.73Z" style="fill:#231f20"/><path d="M71.35,42a3.11,3.11,0,0,1-1.43.74l-.86.24a.09.09,0,0,1-.09,0,.09.09,0,0,1-.06-.06l-.24-.63s0-.06,0-.08a.08.08,0,0,1,.06-.05l.84-.24a1.82,1.82,0,0,0,.85-.35l0,0,0-4.1a.13.13,0,0,1,0-.06c0-.05.08-.06.14,0l.71.33c.08,0,.1.08.1.19V40a3.55,3.55,0,0,1-.2,1l2.14-2.19a.17.17,0,0,1,.21,0l.69.32a.11.11,0,0,1,.07.14l-.05.06Z" style="fill:#231f20"/><path d="M76.65,44.66a.11.11,0,0,1-.14,0l-.67-.31a.11.11,0,0,1-.07-.13l.38-.83-.49.24a1.55,1.55,0,0,1-1.49,0L74,43.64a1.16,1.16,0,0,1-.65-1.72L74,40.56a1.5,1.5,0,0,1,2.21-.75l.09,0a3.24,3.24,0,0,1,1.1.91l.07-.15a.11.11,0,0,1,.14,0l.67.31a.12.12,0,0,1,.06.14Zm.42-3.22a2.59,2.59,0,0,0-1-.84l-.1-.05a.77.77,0,0,0-1.12.4l-.65,1.4a.47.47,0,0,0,.25.66l.05,0a1.2,1.2,0,0,0,1-.11l1-.4Z" style="fill:#231f20"/><rect x="15.33" y="42" width="45.5" height="45.5" style="fill:#fff;stroke:#000;stroke-miterlimit:10;stroke-width:2px"/><path d="M24.66,68.24a.1.1,0,0,1,0,.14l-2.88,1.78a.11.11,0,0,1-.14,0l-3-4.91a.1.1,0,0,1,0-.14l.68-.42a.11.11,0,0,1,.14,0l2.62,4.25,2.11-1.3a.11.11,0,0,1,.15,0Z" style="fill:#231f20"/><path d="M24.87,66.15l.09.16a.84.84,0,0,0,1.25.2l1.61-1a.1.1,0,0,1,.14,0l.3.48a.11.11,0,0,1,0,.14l-1.73,1.06a1.58,1.58,0,0,1-2.34-.42l-.59-1a1.58,1.58,0,0,1,.67-2.28l.47-.29A1.56,1.56,0,0,1,27,63.6l.21.35a.2.2,0,0,1,0,.23l-.2.56a.42.42,0,0,1-.2.22Zm-.4-.65,1.86-1.15-.1-.16A.82.82,0,0,0,25,64l-.22.13c-.48.3-.69.73-.4,1.2Z" style="fill:#231f20"/><path d="M32.55,63.39a.12.12,0,0,1,0,.14l-.63.39a.1.1,0,0,1-.14,0l-.48-.77-.07.55a1.54,1.54,0,0,1-.79,1.26l-.15.09a1.18,1.18,0,0,1-1.8-.41l-.78-1.28a1.51,1.51,0,0,1,.6-2.25l.08-.06a3.45,3.45,0,0,1,1.37-.41l-1.1-1.78a.11.11,0,0,1,0-.14l.63-.39a.11.11,0,0,1,.15,0ZM30.1,61.25a2.59,2.59,0,0,0-1.25.37l-.1.05a.76.76,0,0,0-.29,1.15l.81,1.32a.48.48,0,0,0,.69.16l.05,0c.33-.19.38-.49.48-.91l.23-1.09Z" style="fill:#231f20"/><path d="M27.55,72.58a.53.53,0,0,1,0,.29l-.15,4A5.63,5.63,0,0,1,27.3,78l2.52-1.55a.09.09,0,0,1,.13,0l.36.58a.1.1,0,0,1,0,.14l-3.32,2a.15.15,0,0,1-.24,0l-.28-.46a.71.71,0,0,1,0-.36l.15-3.93a3.67,3.67,0,0,1,.17-1l-2.48,1.53a.1.1,0,0,1-.14,0l-.35-.58a.1.1,0,0,1,0-.14l3.34-2.06a.12.12,0,0,1,.17,0Z" style="fill:#231f20"/><path d="M30.7,74.85l.1.16A.82.82,0,0,0,32,75.2l1.61-1a.1.1,0,0,1,.14,0l.3.48a.1.1,0,0,1,0,.13l-1.74,1.07A1.57,1.57,0,0,1,30,75.5l-.6-1a1.57,1.57,0,0,1,.67-2.27l.47-.29a1.55,1.55,0,0,1,2.28.33l.21.34a.22.22,0,0,1,0,.23l-.21.57a.42.42,0,0,1-.19.21Zm-.4-.65,1.86-1.15-.1-.16c-.29-.48-.77-.49-1.25-.19l-.22.13c-.48.3-.68.73-.4,1.2Z" style="fill:#231f20"/><path d="M32.89,70.63l.63-.39a.1.1,0,0,1,.14,0l.47.77.08-.55A1.54,1.54,0,0,1,35,69.22l.15-.09a1.17,1.17,0,0,1,1.79.41l.75,1.22A1.58,1.58,0,0,1,37,73l-1.19.73L36.59,75a.1.1,0,0,1,0,.14l-.63.39a.11.11,0,0,1-.15,0l-2.92-4.75A.1.1,0,0,1,32.89,70.63Zm2.53,2.49,1.07-.66a.82.82,0,0,0,.39-1.21L36.12,70a.48.48,0,0,0-.69-.16l-.06,0c-.32.19-.38.49-.47.91l-.23,1.09Z" style="fill:#231f20"/><path d="M37.19,68l.63-.39a.12.12,0,0,1,.15,0l.47.77.07-.55a1.56,1.56,0,0,1,.79-1.26l.15-.09a1.16,1.16,0,0,1,1.8.41L42,68.11a1.58,1.58,0,0,1-.67,2.28l-1.2.73.77,1.25a.12.12,0,0,1,0,.14l-.63.39a.1.1,0,0,1-.14,0l-2.93-4.75A.11.11,0,0,1,37.19,68Zm2.54,2.49,1.07-.66c.48-.3.68-.73.38-1.21l-.76-1.24a.48.48,0,0,0-.69-.16l0,0c-.33.19-.38.49-.48.91L39,69.24Z" style="fill:#231f20"/><path d="M43.4,67l.1.16a.82.82,0,0,0,1.24.19l1.61-1a.12.12,0,0,1,.15,0l.29.49a.1.1,0,0,1,0,.13L45,68.11a1.57,1.57,0,0,1-2.33-.43l-.6-1a1.57,1.57,0,0,1,.67-2.27l.47-.3a1.56,1.56,0,0,1,2.28.34l.21.34a.22.22,0,0,1,0,.23l-.21.57a.42.42,0,0,1-.19.21Zm-.4-.65,1.86-1.15-.1-.16c-.29-.48-.77-.49-1.25-.19l-.22.13c-.48.3-.68.73-.39,1.2Z" style="fill:#231f20"/><path d="M49.36,65.32a.11.11,0,0,1,0,.14l-.48.29a1.17,1.17,0,0,1-1.79-.35l-2.52-4.09a.1.1,0,0,1,0-.14l.64-.39a.1.1,0,0,1,.14,0l2.52,4.08a.44.44,0,0,0,.65.16l.41-.25a.11.11,0,0,1,.14,0Z" style="fill:#231f20"/><path d="M48.31,59.81a.1.1,0,0,1,0,.14l-.79.49c-.05,0-.13,0-.15,0l-.44-.7a.14.14,0,0,1,0-.15l.8-.49a.1.1,0,0,1,.14,0ZM51,64.32a.11.11,0,0,1-.05.14l-.63.39a.1.1,0,0,1-.14,0L48.43,62l-.92.36a.13.13,0,0,1-.15,0L47.13,62a.11.11,0,0,1,0-.14l1.56-1a.1.1,0,0,1,.14,0Z" style="fill:#231f20"/><path d="M55.44,61.58a.11.11,0,0,1,0,.14l-.63.38a.1.1,0,0,1-.14,0L53.1,59.6a.48.48,0,0,0-.7-.19l-.06,0c-.32.19-.38.49-.47.91l-.24,1.09,1.11,1.79a.1.1,0,0,1,0,.14l-.64.4a.11.11,0,0,1-.14,0l-2.11-3.43a.09.09,0,0,1,0-.13l.64-.4a.1.1,0,0,1,.14,0l.47.77.1-.56A1.65,1.65,0,0,1,52,58.76l.13-.07a1.17,1.17,0,0,1,1.79.41Z" style="fill:#231f20"/><rect x="15.33" y="42" width="45.5" height="45.5" style="fill:none;stroke:#000;stroke-miterlimit:10;stroke-width:2px"/><path d="M226,46.67c-8.17-4.17-56.33-5.67-76.88.37" style="fill:none;stroke:#f79552;stroke-miterlimit:10;stroke-width:2px"/><circle cx="149.11" cy="47.11" r="2.65" style="fill:#231f20"/><rect x="198.82" y="10.5" width="36.03" height="46.79" style="fill:#fff;stroke:#000;stroke-miterlimit:10;stroke-width:2px"/><path d="M208.39,21.46a1.84,1.84,0,0,1-2.08,1.89h-2.58a.09.09,0,0,1-.1-.1l0-5.76a.11.11,0,0,1,.1-.11h2.58a1.83,1.83,0,0,1,2.1,1.87Zm-1-2.2a1.06,1.06,0,0,0-1.19-1.07h-1.57l0,4.35h1.57a1.06,1.06,0,0,0,1.18-1.08Z" style="fill:#231f20"/><path d="M213.54,23.22a.11.11,0,0,1-.11.1h-.73s-.11,0-.11-.09V20.32a.47.47,0,0,0-.5-.53H212c-.38,0-.58.22-.88.53l-.77.81v2.11a.09.09,0,0,1-.1.09h-.76a.1.1,0,0,1-.1-.09l0-5.95a.09.09,0,0,1,.1-.1h.75a.1.1,0,0,1,.11.09v2.84l.38-.43a1.58,1.58,0,0,1,1.32-.67h.15a1.17,1.17,0,0,1,1.32,1.29Z" style="fill:#231f20"/><path d="M218.55,23.2a.11.11,0,0,1-.11.1h-.74s-.11,0-.11-.09V22.3l-.35.43a1.55,1.55,0,0,1-1.33.66h-.18a1.18,1.18,0,0,1-1.32-1.3V20.6A1.51,1.51,0,0,1,216.09,19h.1a3.3,3.3,0,0,1,1.38.36v-.16a.13.13,0,0,1,.11-.11h.74a.12.12,0,0,1,.12.1Zm-1-3.1a2.79,2.79,0,0,0-1.26-.34h-.11a.76.76,0,0,0-.85.83v1.54a.47.47,0,0,0,.5.5h.06c.38,0,.58-.22.89-.54l.76-.8Z" style="fill:#231f20"/><path d="M221.67,23.19a.1.1,0,0,1-.11.09H221a1.19,1.19,0,0,1-1.35-1.24l0-4.8a.11.11,0,0,1,.1-.1h.75a.11.11,0,0,1,.11.1l0,4.8a.44.44,0,0,0,.47.48h.48a.09.09,0,0,1,.1.09Z" style="fill:#231f20"/><path d="M224.62,21.28H222.4a.11.11,0,0,1-.1-.1v-.65a.1.1,0,0,1,.1-.11h2.22a.1.1,0,0,1,.1.11v.65A.1.1,0,0,1,224.62,21.28Z" style="fill:#231f20"/><path d="M207.62,33.71c0,1.06-.74,1.66-2.1,1.67h-1.74a.09.09,0,0,1-.1-.09v-.57a.11.11,0,0,1,.1-.1h1.6c.76,0,1.29-.23,1.29-.89v-.91l-.35.43a1.53,1.53,0,0,1-1.33.66h-.17a1.18,1.18,0,0,1-1.32-1.3v-1.5a1.52,1.52,0,0,1,1.69-1.61h.1a3.34,3.34,0,0,1,1.38.36V29.7a.12.12,0,0,1,.11-.11h.74a.11.11,0,0,1,.11.1Zm-1-3.1a2.79,2.79,0,0,0-1.26-.34h-.11a.76.76,0,0,0-.84.83v1.54a.47.47,0,0,0,.5.5H205c.38,0,.58-.22.88-.54l.77-.8Z" style="fill:#231f20"/><path d="M212.18,30a.09.09,0,0,1,0,.07l-.61.49a.12.12,0,0,1-.08,0,.11.11,0,0,1-.07,0c-.13-.14-.25-.27-.42-.27h-.07c-.23,0-.4.21-.64.51l-.63.81v2a.11.11,0,0,1-.1.1h-.76a.09.09,0,0,1-.1-.09l0-4a.1.1,0,0,1,.1-.09h.76a.1.1,0,0,1,.1.1v.89l.34-.44a1.32,1.32,0,0,1,1.08-.64h.1a1.35,1.35,0,0,1,1,.48A.11.11,0,0,1,212.18,30Z" style="fill:#231f20"/><path d="M213.23,32v.19c0,.55.41.81,1,.81h1.9a.11.11,0,0,1,.1.11v.56a.09.09,0,0,1-.1.1h-2a1.57,1.57,0,0,1-1.77-1.58V31.06A1.57,1.57,0,0,1,214,29.47h.56a1.57,1.57,0,0,1,1.77,1.48v.4a.24.24,0,0,1-.1.21l-.47.38a.42.42,0,0,1-.28.07Zm0-.76h2.19v-.19c0-.56-.4-.82-1-.82h-.26c-.56,0-1,.27-1,.82Z" style="fill:#231f20"/><path d="M221.33,33.65a.1.1,0,0,1-.11.1h-.73a.1.1,0,0,1-.11-.09V30.75a.48.48,0,0,0-.5-.53h-.07c-.38,0-.58.22-.89.53l-.76.81v2.11a.1.1,0,0,1-.1.09h-.76a.1.1,0,0,1-.1-.1l0-4a.1.1,0,0,1,.1-.1H218a.09.09,0,0,1,.1.09v.91l.37-.43a1.61,1.61,0,0,1,1.33-.67H220a1.17,1.17,0,0,1,1.32,1.29Z" style="fill:#231f20"/><rect x="198.82" y="10.5" width="36.03" height="46.79" style="fill:none;stroke:#000;stroke-miterlimit:10;stroke-width:2px"/><rect x="227.8" y="20.56" width="36.03" height="46.79" style="fill:#fff;stroke:#000;stroke-miterlimit:10;stroke-width:2px"/><rect x="227.8" y="20.56" width="36.03" height="46.79" style="fill:none;stroke:#000;stroke-miterlimit:10;stroke-width:2px"/><path d="M241.18,35.54c0,.05-.06.09-.12.09l-3.38,0a.11.11,0,0,1-.1-.1l0-5.77a.11.11,0,0,1,.11-.1h.8a.11.11,0,0,1,.1.1l0,5h2.48a.1.1,0,0,1,.11.1Z" style="fill:#231f20"/><path d="M245.62,34.12a1.58,1.58,0,0,1-1.76,1.59h-.6a1.58,1.58,0,0,1-1.77-1.58V32.91a1.58,1.58,0,0,1,1.76-1.59h.61a1.58,1.58,0,0,1,1.77,1.58Zm-1-1.23c0-.55-.41-.81-1-.81h-.31c-.56,0-1,.26-.95.81v1.23c0,.56.4.82,1,.81h.3c.57,0,1-.26,1-.82Z" style="fill:#231f20"/><path d="M250.06,31.85a.1.1,0,0,1,0,.07l-.61.49s0,0-.08,0-.05,0-.06,0a.64.64,0,0,0-.43-.27h-.07c-.23,0-.39.21-.63.51l-.64.81v2a.1.1,0,0,1-.1.1h-.76a.1.1,0,0,1-.1-.1l0-4a.11.11,0,0,1,.11-.1h.75a.1.1,0,0,1,.11.09v.89l.34-.43a1.32,1.32,0,0,1,1.09-.64H249a1.31,1.31,0,0,1,1,.48A.13.13,0,0,1,250.06,31.85Z" style="fill:#231f20"/><path d="M254.29,35.48a.12.12,0,0,1-.11.1h-.74a.1.1,0,0,1-.11-.09v-.91L253,35a1.56,1.56,0,0,1-1.33.67h-.17a1.18,1.18,0,0,1-1.32-1.3V32.89a1.52,1.52,0,0,1,1.69-1.62h.1a3.34,3.34,0,0,1,1.38.36V29.54a.12.12,0,0,1,.11-.1h.74a.11.11,0,0,1,.11.1Zm-1-3.1a2.79,2.79,0,0,0-1.26-.34h-.11a.76.76,0,0,0-.84.83v1.54a.47.47,0,0,0,.5.5h.07c.38,0,.58-.22.88-.54l.77-.8Z" style="fill:#231f20"/><path d="M238.92,44.61a1.57,1.57,0,0,1-1.76,1.59h-.6a1.57,1.57,0,0,1-1.77-1.58V43.41a1.59,1.59,0,0,1,1.76-1.6h.6a1.59,1.59,0,0,1,1.78,1.58Zm-1-1.23c0-.55-.4-.81-1-.8h-.31c-.56,0-1,.26-.95.81v1.23c0,.56.4.82,1,.82h.3c.57,0,1-.26,1-.82Z" style="fill:#231f20"/><path d="M242.53,40.61a.12.12,0,0,1-.11.1h-.74a.45.45,0,0,0-.47.48v.69h1s.11,0,.11.09v.67a.11.11,0,0,1-.11.1h-1l0,3.26a.11.11,0,0,1-.1.1h-.75a.09.09,0,0,1-.1-.1l0-3.24-.92-.18a.13.13,0,0,1-.11-.11V42a.1.1,0,0,1,.1-.09h.93V41.2c0-.81.5-1.24,1.33-1.25h.82a.11.11,0,0,1,.11.1Z" style="fill:#231f20"/><path d="M247.37,46a.09.09,0,0,1-.1.1h-.65a1.17,1.17,0,0,1-1.35-1.23v-2.1l-.8-.15a.14.14,0,0,1-.12-.1V42c0-.05.06-.09.11-.09h.81v-.42a.19.19,0,0,1,.11-.2l.6-.37a.19.19,0,0,1,.1,0,.13.13,0,0,1,.14.12v.9h1a.12.12,0,0,1,.11.1v.67a.12.12,0,0,1-.11.1h-1v2.12a.46.46,0,0,0,.48.48h.57a.11.11,0,0,1,.1.1Z" style="fill:#231f20"/><path d="M252.2,46a.11.11,0,0,1-.11.1h-.73a.1.1,0,0,1-.11-.09l0-2.91a.48.48,0,0,0-.5-.53h-.06c-.38,0-.58.22-.89.53l-.76.81V46a.1.1,0,0,1-.1.09h-.76a.1.1,0,0,1-.1-.1L248,40a.12.12,0,0,1,.1-.1h.76a.1.1,0,0,1,.1.1v2.83l.38-.43a1.61,1.61,0,0,1,1.33-.67h.15A1.18,1.18,0,0,1,252.19,43Z" style="fill:#231f20"/><path d="M254,44.27v.19c0,.55.41.81,1,.81h1.89a.11.11,0,0,1,.1.11v.56a.1.1,0,0,1-.11.1h-2a1.57,1.57,0,0,1-1.77-1.58V43.32a1.57,1.57,0,0,1,1.76-1.59h.56a1.57,1.57,0,0,1,1.77,1.48v.4a.24.24,0,0,1-.1.21l-.47.37a.37.37,0,0,1-.28.08Zm0-.76h2.19v-.19c0-.56-.4-.82-1-.82H255c-.56,0-1,.27-1,.82Z" style="fill:#231f20"/><path d="M239.81,52.53a1.66,1.66,0,0,1-1.39,1.59l1.45,2.32a.14.14,0,0,1,0,.06s0,.07-.1.07h-.87a.2.2,0,0,1-.18-.09l-1.33-2.27H236.2v2.28a.1.1,0,0,1-.11.09h-.8a.11.11,0,0,1-.1-.1l0-5.77a.11.11,0,0,1,.11-.1h2.64c1.16,0,1.88.59,1.88,1.64Zm-1-.23a.86.86,0,0,0-1-.88h-1.63v2h1.45c.69,0,1.16-.33,1.16-.9Z" style="fill:#231f20"/><path d="M242.25,56.46a.11.11,0,0,1-.11.1h-.74a.11.11,0,0,1-.11-.1l0-3.3-1-.18a.11.11,0,0,1-.1-.1v-.44a.1.1,0,0,1,.1-.09h1.83a.1.1,0,0,1,.11.1Zm.07-5.24a.1.1,0,0,1-.1.1h-.93a.12.12,0,0,1-.12-.1v-.83a.12.12,0,0,1,.11-.1h.94a.12.12,0,0,1,.1.11Z" style="fill:#231f20"/><path d="M247.48,56.44c0,.05,0,.09-.11.1h-.73a.11.11,0,0,1-.11-.1V53.53A.48.48,0,0,0,246,53H246c-.38,0-.58.22-.88.54l-.77.8v2.11a.11.11,0,0,1-.1.1h-.76a.1.1,0,0,1-.1-.09l0-4a.11.11,0,0,1,.1-.1h.76a.09.09,0,0,1,.1.1v.9l.38-.43a1.59,1.59,0,0,1,1.32-.66h.15a1.17,1.17,0,0,1,1.32,1.29Z" style="fill:#231f20"/><path d="M252.49,56.42c0,1-.74,1.66-2.1,1.66h-1.74a.1.1,0,0,1-.1-.1v-.56a.11.11,0,0,1,.1-.11h1.6c.76,0,1.28-.24,1.28-.9v-.9l-.35.42a1.54,1.54,0,0,1-1.33.67h-.18a1.17,1.17,0,0,1-1.32-1.29v-1.5A1.5,1.5,0,0,1,250,52.21h.1a3.3,3.3,0,0,1,1.38.36v-.16a.12.12,0,0,1,.11-.11h.74a.11.11,0,0,1,.11.1Zm-1-3.1a2.59,2.59,0,0,0-1.26-.34h-.11a.76.76,0,0,0-.85.83v1.54a.47.47,0,0,0,.5.5h.06c.38,0,.58-.22.89-.53l.76-.81Z" style="fill:#231f20"/><path d="M256.81,53a.12.12,0,0,1-.1.1h-1.95c-.28,0-.49.15-.49.41s.18.36.45.41l.93.15c.73.1,1.41.36,1.41,1.17v.15c0,.73-.61,1.16-1.45,1.16h-2.12a.1.1,0,0,1-.1-.1v-.57a.11.11,0,0,1,.1-.1h2.08c.33,0,.54-.16.54-.43s-.24-.4-.63-.45l-1-.17c-.77-.14-1.16-.57-1.16-1.18v-.13c0-.68.6-1.08,1.42-1.08h2a.11.11,0,0,1,.1.1Z" style="fill:#231f20"/><rect x="194.29" y="40.46" width="36.03" height="46.79" style="fill:#fff;stroke:#000;stroke-miterlimit:10;stroke-width:2px"/><path d="M205.19,61.49a.1.1,0,0,1-.11.1h-.79a.1.1,0,0,1-.11-.09l0-2.64h-2.79v2.64a.1.1,0,0,1-.1.1h-.8a.09.09,0,0,1-.1-.1l0-5.76a.11.11,0,0,1,.1-.11h.81a.11.11,0,0,1,.1.1v2.32h2.79V55.73a.13.13,0,0,1,.11-.11h.8a.12.12,0,0,1,.11.11Z" style="fill:#231f20"/><path d="M210.34,61.47a.12.12,0,0,1-.11.1h-.74a.1.1,0,0,1-.11-.09v-.91L209,61a1.55,1.55,0,0,1-1.32.67h-.18a1.18,1.18,0,0,1-1.32-1.3V58.88a1.52,1.52,0,0,1,1.69-1.62h.1a3.34,3.34,0,0,1,1.38.36v-.16a.13.13,0,0,1,.11-.11h.74a.11.11,0,0,1,.11.11Zm-1-3.1A2.79,2.79,0,0,0,208.1,58H208a.76.76,0,0,0-.84.83V60.4a.48.48,0,0,0,.51.5h.06c.38,0,.58-.22.88-.54l.77-.8Z" style="fill:#231f20"/><path d="M215,57.8a.15.15,0,0,1,0,.07l-.61.49a.13.13,0,0,1-.09,0l-.06,0c-.13-.14-.25-.27-.43-.27h-.06c-.23,0-.4.21-.64.51l-.63.81v2a.1.1,0,0,1-.1.1h-.76a.09.09,0,0,1-.1-.09l0-4a.09.09,0,0,1,.1-.09h.76a.11.11,0,0,1,.1.1v.89l.34-.44a1.35,1.35,0,0,1,1.09-.64h.1a1.35,1.35,0,0,1,1,.48A.25.25,0,0,1,215,57.8Z" style="fill:#231f20"/><path d="M218.84,57.79a.08.08,0,0,1,0,.06l-.61.5a.19.19,0,0,1-.08,0,.11.11,0,0,1-.07,0c-.13-.13-.25-.26-.42-.26h-.07c-.23,0-.4.21-.63.5l-.64.82v2a.1.1,0,0,1-.1.09h-.76a.1.1,0,0,1-.1-.1l0-4a.1.1,0,0,1,.1-.1h.76a.1.1,0,0,1,.1.09v.89l.34-.44a1.32,1.32,0,0,1,1.08-.64h.1a1.33,1.33,0,0,1,1,.49S218.83,57.77,218.84,57.79Z" style="fill:#231f20"/><path d="M221.6,61.2a3.05,3.05,0,0,1-1,1.27l-.68.58a.12.12,0,0,1-.09,0,.1.1,0,0,1-.08,0l-.48-.47a.08.08,0,0,1,0-.07s0,0,0-.07l.66-.57c.28-.24.51-.38.62-.68v0l-1.75-3.71a.14.14,0,0,1,0-.06s.05-.09.12-.09h.78c.09,0,.13,0,.17.13l.89,1.91a3.71,3.71,0,0,1,.24,1l1-2.89c0-.09.08-.13.18-.13H223c.08,0,.13,0,.13.09a.19.19,0,0,1,0,.07Z" style="fill:#231f20"/><path d="M205,68.06a1.67,1.67,0,0,1-1.87,1.68h-1.74V72a.1.1,0,0,1-.1.1h-.81a.1.1,0,0,1-.1-.09l0-5.77s0-.1.1-.11h2.64c1.15,0,1.88.61,1.88,1.64Zm-1-.27a.85.85,0,0,0-1-.88h-1.63v2h1.64a.86.86,0,0,0,1-.9Z" style="fill:#231f20"/><path d="M209.54,70.54a1.59,1.59,0,0,1-1.76,1.59h-.6a1.58,1.58,0,0,1-1.78-1.58V69.33a1.58,1.58,0,0,1,1.76-1.59h.6a1.57,1.57,0,0,1,1.77,1.58Zm-1-1.23c0-.55-.4-.81-1-.8h-.3c-.56,0-1,.26-1,.81v1.23c0,.56.41.82,1,.81h.31c.56,0,1-.26,1-.82Z" style="fill:#231f20"/><path d="M212.87,71.93a.1.1,0,0,1-.1.09h-.66a1.18,1.18,0,0,1-1.35-1.23v-2.1l-.81-.15s-.11-.05-.11-.1v-.53a.1.1,0,0,1,.11-.09h.8v-.42a.21.21,0,0,1,.11-.2l.61-.37a.16.16,0,0,1,.09,0c.08,0,.14,0,.14.12v.9h1a.1.1,0,0,1,.11.09v.67a.11.11,0,0,1-.11.1h-1v2.12a.45.45,0,0,0,.47.48h.57a.11.11,0,0,1,.11.1Z" style="fill:#231f20"/><path d="M216,71.91a.11.11,0,0,1-.1.1h-.66a1.17,1.17,0,0,1-1.34-1.23v-2.1l-.81-.15c-.05,0-.11,0-.11-.11V67.9a.11.11,0,0,1,.11-.1h.8v-.43a.19.19,0,0,1,.11-.19l.61-.38.09,0c.08,0,.14,0,.14.12v.9h1a.1.1,0,0,1,.11.1v.67s-.06.09-.11.09h-1v2.12a.44.44,0,0,0,.47.47h.58a.1.1,0,0,1,.1.1Z" style="fill:#231f20"/><path d="M217.51,70.23v.19c0,.55.41.81,1,.81h1.89a.1.1,0,0,1,.1.11v.56a.1.1,0,0,1-.11.1h-2a1.57,1.57,0,0,1-1.77-1.58V69.28a1.57,1.57,0,0,1,1.76-1.59h.56c1,0,1.77.55,1.77,1.48v.4a.24.24,0,0,1-.1.21l-.47.37a.42.42,0,0,1-.28.08Zm0-.76h2.18v-.19c0-.56-.4-.82-1-.82h-.26c-.56,0-1,.27-1,.82Z" style="fill:#231f20"/><path d="M225,68.22a.08.08,0,0,1,0,.07l-.61.49a.1.1,0,0,1-.08,0,.11.11,0,0,1-.07,0c-.13-.14-.25-.27-.42-.27h-.07c-.23,0-.39.21-.63.5l-.64.82v2a.1.1,0,0,1-.1.1h-.76a.1.1,0,0,1-.1-.09l0-4a.1.1,0,0,1,.1-.09h.76a.1.1,0,0,1,.1.1v.89l.34-.44a1.33,1.33,0,0,1,1.09-.64H224a1.35,1.35,0,0,1,1,.48A.17.17,0,0,1,225,68.22Z" style="fill:#231f20"/><rect x="194.29" y="40.46" width="36.03" height="46.79" style="fill:none;stroke:#000;stroke-miterlimit:10;stroke-width:2px"/><path d="M122.35,86.16c0,.06,0,.1-.1.1l-3.69,0a.11.11,0,0,1-.11-.1l0-5.77a.1.1,0,0,1,.1-.1l3.69,0a.12.12,0,0,1,.11.11V81a.1.1,0,0,1-.11.09h-2.78v1.65h2.78a.1.1,0,0,1,.11.09v.61a.11.11,0,0,1-.11.11h-2.78v1.89h2.79a.09.09,0,0,1,.1.1Z" style="fill:#231f20"/><path d="M129.72,86.13a.1.1,0,0,1-.11.1h-.73s-.11,0-.11-.09v-3c0-.3-.14-.47-.4-.46h-.06c-.24,0-.47.27-.73.56L127,84v2.17c0,.06,0,.1-.1.1h-.75a.1.1,0,0,1-.11-.09v-3c0-.31-.14-.47-.4-.47h0c-.25,0-.47.27-.73.57l-.6.69v2.18a.1.1,0,0,1-.1.09h-.76a.1.1,0,0,1-.1-.1l0-4a.1.1,0,0,1,.1-.09h.76a.1.1,0,0,1,.1.09V83l.31-.35a1.41,1.41,0,0,1,1.14-.67h.17A1,1,0,0,1,127,83l.32-.37a1.43,1.43,0,0,1,1.15-.67h.17c.7,0,1.12.42,1.12,1.24Z" style="fill:#231f20"/><path d="M130.76,80.18a.1.1,0,0,1,.11-.1h.74s.11,0,.11.09V83l.35-.43a1.51,1.51,0,0,1,1.33-.67h.17a1.17,1.17,0,0,1,1.32,1.29v1.43a1.57,1.57,0,0,1-1.76,1.59h-2.26a.12.12,0,0,1-.11-.1Zm1,5.27H133c.56,0,1-.27,1-.83V83.16a.47.47,0,0,0-.5-.49h-.07c-.38,0-.58.22-.88.53l-.77.81Z" style="fill:#231f20"/><path d="M136.67,84.43v.18c0,.56.41.82,1,.82h1.89a.1.1,0,0,1,.1.1v.57a.11.11,0,0,1-.1.1h-2a1.57,1.57,0,0,1-1.77-1.58V83.48a1.59,1.59,0,0,1,1.76-1.6H138c1,0,1.77.55,1.77,1.47v.41a.22.22,0,0,1-.1.2l-.47.38a.42.42,0,0,1-.28.08Zm0-.77h2.18v-.19c0-.55-.4-.81-1-.81h-.26c-.56,0-1,.26-1,.81Z" style="fill:#231f20"/><path d="M144.66,86.07a.11.11,0,0,1-.11.1h-.74a.11.11,0,0,1-.11-.1v-.9l-.35.43a1.54,1.54,0,0,1-1.33.66h-.18A1.17,1.17,0,0,1,140.52,85v-1.5a1.51,1.51,0,0,1,1.68-1.61h.11a3.39,3.39,0,0,1,1.38.36V80.13a.11.11,0,0,1,.11-.1h.74a.13.13,0,0,1,.11.11Zm-1-3.1a2.67,2.67,0,0,0-1.26-.34h-.11a.76.76,0,0,0-.85.83V85a.47.47,0,0,0,.5.5H142c.38,0,.59-.22.89-.54l.76-.8Z" style="fill:#231f20"/><path d="M149.72,86.05s-.06.09-.11.09h-.74a.11.11,0,0,1-.11-.1v-.9l-.35.42a1.51,1.51,0,0,1-1.33.67h-.17A1.17,1.17,0,0,1,145.58,85v-1.5a1.51,1.51,0,0,1,1.69-1.61h.1a3.34,3.34,0,0,1,1.38.36V80.11a.12.12,0,0,1,.11-.1h.74a.11.11,0,0,1,.11.11Zm-1-3.1a2.67,2.67,0,0,0-1.26-.34h-.11a.76.76,0,0,0-.84.83V85a.47.47,0,0,0,.5.5h.07c.38,0,.58-.22.88-.54l.77-.8Z" style="fill:#231f20"/><path d="M152.31,86a.1.1,0,0,1-.11.09h-.74a.12.12,0,0,1-.11-.1v-3.3l-1-.18c-.06,0-.11,0-.11-.1V82a.11.11,0,0,1,.1-.1h1.83c.06,0,.12,0,.12.09Zm.07-5.25a.11.11,0,0,1-.1.11h-.93a.11.11,0,0,1-.11-.1V80a.13.13,0,0,1,.11-.11h.94a.11.11,0,0,1,.1.1Z" style="fill:#231f20"/><path d="M157.54,86s0,.09-.11.09h-.73s-.11,0-.11-.09V83.11a.48.48,0,0,0-.5-.53H156c-.38,0-.58.22-.88.54l-.77.8V86a.09.09,0,0,1-.1.09h-.76a.11.11,0,0,1-.1-.1l0-4a.11.11,0,0,1,.11-.1h.75a.1.1,0,0,1,.11.09v.91l.38-.43a1.61,1.61,0,0,1,1.33-.67h.14a1.18,1.18,0,0,1,1.32,1.3Z" style="fill:#231f20"/><path d="M162.55,86c0,1.06-.74,1.66-2.1,1.67h-1.74a.11.11,0,0,1-.1-.1V87a.11.11,0,0,1,.1-.1h1.6c.76,0,1.29-.23,1.28-.89v-.91l-.35.43a1.52,1.52,0,0,1-1.33.67h-.18a1.17,1.17,0,0,1-1.31-1.29V83.4a1.51,1.51,0,0,1,1.69-1.61h.1a3.1,3.1,0,0,1,1.38.36V82a.11.11,0,0,1,.11-.1h.74a.13.13,0,0,1,.11.11Zm-1-3.09a2.66,2.66,0,0,0-1.26-.35h-.11a.77.77,0,0,0-.85.84v1.54a.46.46,0,0,0,.5.49h.06c.38,0,.59-.22.89-.53l.76-.81Z" style="fill:#231f20"/></svg>